<svg width="298" height="313" viewBox="0 0 298 313" fill="none" xmlns="http://www.w3.org/2000/svg">
<circle cx="63.5" cy="258.5" r="4.5" fill="url(#paint0_linear_200_2877)" stroke="url(#paint1_linear_200_2877)" stroke-width="4"/>
<g filter="url(#filter0_f_200_2877)">
<circle cx="149" cy="164" r="77" fill="#F66B6B"/>
</g>
<circle cx="57.5" cy="70.5" r="7.5" fill="url(#paint2_linear_200_2877)" stroke="url(#paint3_linear_200_2877)" stroke-width="4"/>
<path d="M146.557 70L171.29 88.0423L201.908 87.9858L211.311 117.121L236.114 135.069L226.599 164.167L236.114 193.264L211.311 211.212L201.908 240.348L171.29 240.291L146.557 258.333L121.824 240.291L91.206 240.348L81.8035 211.212L57 193.264L66.5155 164.167L57 135.069L81.8035 117.121L91.206 87.9858L121.824 88.0423L146.557 70Z" fill="url(#paint4_linear_200_2877)" stroke="url(#paint5_linear_200_2877)" stroke-width="8" stroke-linecap="round" stroke-linejoin="round"/>
<path d="M113.599 164.167L137.141 187.708L184.224 140.625" fill="url(#paint6_linear_200_2877)"/>
<path d="M113.599 164.167L137.141 187.708L184.224 140.625" stroke="url(#paint7_linear_200_2877)" stroke-width="8" stroke-linecap="round" stroke-linejoin="round"/>
<circle cx="226.5" cy="289.5" r="7.5" fill="url(#paint8_linear_200_2877)" stroke="url(#paint9_linear_200_2877)" stroke-width="4"/>
<circle cx="141.5" cy="5.5" r="3.5" fill="url(#paint10_linear_200_2877)" stroke="url(#paint11_linear_200_2877)" stroke-width="4"/>
<circle cx="236" cy="68" r="10" fill="url(#paint12_linear_200_2877)" stroke="url(#paint13_linear_200_2877)" stroke-width="4"/>
<defs>
<filter id="filter0_f_200_2877" x="0" y="15" width="298" height="298" filterUnits="userSpaceOnUse" color-interpolation-filters="sRGB">
<feFlood flood-opacity="0" result="BackgroundImageFix"/>
<feBlend mode="normal" in="SourceGraphic" in2="BackgroundImageFix" result="shape"/>
<feGaussianBlur stdDeviation="36" result="effect1_foregroundBlur_200_2877"/>
</filter>
<linearGradient id="paint0_linear_200_2877" x1="54.6332" y1="265" x2="70" y2="265" gradientUnits="userSpaceOnUse">
<stop stop-color="#222222"/>
<stop offset="1" stop-color="#0F0F0F"/>
</linearGradient>
<linearGradient id="paint1_linear_200_2877" x1="61.1447" y1="266.269" x2="68.8963" y2="256.122" gradientUnits="userSpaceOnUse">
<stop stop-color="#F65F6F"/>
<stop offset="1" stop-color="#F78164"/>
</linearGradient>
<linearGradient id="paint2_linear_200_2877" x1="44.5408" y1="80" x2="67" y2="80" gradientUnits="userSpaceOnUse">
<stop stop-color="#222222"/>
<stop offset="1" stop-color="#0F0F0F"/>
</linearGradient>
<linearGradient id="paint3_linear_200_2877" x1="54.0576" y1="81.8549" x2="65.3869" y2="67.0245" gradientUnits="userSpaceOnUse">
<stop stop-color="#F65F6F"/>
<stop offset="1" stop-color="#F78164"/>
</linearGradient>
<linearGradient id="paint4_linear_200_2877" x1="24.3895" y1="258.333" x2="236.114" y2="258.333" gradientUnits="userSpaceOnUse">
<stop stop-color="#222222"/>
<stop offset="1" stop-color="#0F0F0F"/>
</linearGradient>
<linearGradient id="paint5_linear_200_2877" x1="114.105" y1="276.72" x2="227.762" y2="135.222" gradientUnits="userSpaceOnUse">
<stop stop-color="#F65F6F"/>
<stop offset="1" stop-color="#F78164"/>
</linearGradient>
<linearGradient id="paint6_linear_200_2877" x1="100.741" y1="187.708" x2="184.224" y2="187.708" gradientUnits="userSpaceOnUse">
<stop stop-color="#222222"/>
<stop offset="1" stop-color="#0F0F0F"/>
</linearGradient>
<linearGradient id="paint7_linear_200_2877" x1="136.116" y1="192.305" x2="159.65" y2="146.093" gradientUnits="userSpaceOnUse">
<stop stop-color="#F65F6F"/>
<stop offset="1" stop-color="#F78164"/>
</linearGradient>
<linearGradient id="paint8_linear_200_2877" x1="213.541" y1="299" x2="236" y2="299" gradientUnits="userSpaceOnUse">
<stop stop-color="#222222"/>
<stop offset="1" stop-color="#0F0F0F"/>
</linearGradient>
<linearGradient id="paint9_linear_200_2877" x1="223.058" y1="300.855" x2="234.387" y2="286.024" gradientUnits="userSpaceOnUse">
<stop stop-color="#F65F6F"/>
<stop offset="1" stop-color="#F78164"/>
</linearGradient>
<linearGradient id="paint10_linear_200_2877" x1="133.997" y1="11" x2="147" y2="11" gradientUnits="userSpaceOnUse">
<stop stop-color="#222222"/>
<stop offset="1" stop-color="#0F0F0F"/>
</linearGradient>
<linearGradient id="paint11_linear_200_2877" x1="139.507" y1="12.0739" x2="146.066" y2="3.48785" gradientUnits="userSpaceOnUse">
<stop stop-color="#F65F6F"/>
<stop offset="1" stop-color="#F78164"/>
</linearGradient>
<linearGradient id="paint12_linear_200_2877" x1="219.63" y1="80" x2="248" y2="80" gradientUnits="userSpaceOnUse">
<stop stop-color="#222222"/>
<stop offset="1" stop-color="#0F0F0F"/>
</linearGradient>
<linearGradient id="paint13_linear_200_2877" x1="231.652" y1="82.3431" x2="245.962" y2="63.6099" gradientUnits="userSpaceOnUse">
<stop stop-color="#F65F6F"/>
<stop offset="1" stop-color="#F78164"/>
</linearGradient>
</defs>
</svg>
