<svg width="48" height="48" viewBox="0 0 48 48" fill="none" xmlns="http://www.w3.org/2000/svg">
<rect width="48" height="48" rx="24" fill="#161515"/>
<path d="M21.57 30.82C21.38 30.82 21.19 30.75 21.04 30.6L14.97 24.53C14.68 24.24 14.68 23.76 14.97 23.47L21.04 17.4C21.33 17.11 21.81 17.11 22.1 17.4C22.39 17.69 22.39 18.17 22.1 18.46L16.56 24L22.1 29.54C22.39 29.83 22.39 30.31 22.1 30.6C21.96 30.75 21.76 30.82 21.57 30.82Z" fill="white"/>
<path d="M32.5 24.75H15.67C15.26 24.75 14.92 24.41 14.92 24C14.92 23.59 15.26 23.25 15.67 23.25H32.5C32.91 23.25 33.25 23.59 33.25 24C33.25 24.41 32.91 24.75 32.5 24.75Z" fill="white"/>
</svg>
