<svg width="25" height="24" viewBox="0 0 25 24" fill="none" xmlns="http://www.w3.org/2000/svg">
<path d="M13.0115 2.6341C12.6782 2.53167 12.3219 2.53167 11.9886 2.6341L9.00285 3.55177C7.4685 4.02336 6.01132 4.71669 4.67753 5.6098C3.82969 6.17751 4.23157 7.5 5.25193 7.5H19.7481C20.7685 7.5 21.1703 6.17751 20.3225 5.6098C18.9887 4.71669 17.5315 4.02336 15.9972 3.55177L13.0115 2.6341Z" fill="white"/>
<path d="M4.75 21C4.75 20.5858 5.08579 20.25 5.5 20.25H19.5C19.9142 20.25 20.25 20.5858 20.25 21C20.25 21.4142 19.9142 21.75 19.5 21.75H5.5C5.08579 21.75 4.75 21.4142 4.75 21Z" fill="white"/>
<path d="M6.75 17C6.75 17.4142 7.08579 17.75 7.5 17.75C7.91421 17.75 8.25 17.4142 8.25 17L8.25 11C8.25 10.5858 7.91421 10.25 7.5 10.25C7.08579 10.25 6.75 10.5858 6.75 11L6.75 17Z" fill="white"/>
<path d="M12.5 17.75C12.0858 17.75 11.75 17.4142 11.75 17L11.75 11C11.75 10.5858 12.0858 10.25 12.5 10.25C12.9142 10.25 13.25 10.5858 13.25 11V17C13.25 17.4142 12.9142 17.75 12.5 17.75Z" fill="white"/>
<path d="M16.75 17C16.75 17.4142 17.0858 17.75 17.5 17.75C17.9142 17.75 18.25 17.4142 18.25 17V11C18.25 10.5858 17.9142 10.25 17.5 10.25C17.0858 10.25 16.75 10.5858 16.75 11V17Z" fill="white"/>
</svg>
