<svg width="24" height="24" viewBox="0 0 24 24" fill="none" xmlns="http://www.w3.org/2000/svg">
<path d="M7.34877 8.69941L8.29797 2.39941H3.36117L1.29837 7.79941C1.23477 7.99141 1.20117 8.19061 1.20117 8.39941C1.20117 9.72421 2.58117 10.7994 4.28637 10.7994C5.85837 10.7994 7.15797 9.88261 7.34877 8.69941ZM12.0012 10.7994C13.7052 10.7994 15.0864 9.72421 15.0864 8.39941C15.0864 8.35021 15.0828 8.30101 15.0804 8.25421L14.4696 2.39941H9.53277L8.92077 8.24941C8.91794 8.29937 8.91634 8.34938 8.91597 8.39941C8.91597 9.72421 10.2972 10.7994 12.0012 10.7994ZM18.0012 12.0546V16.7994H6.00117V12.0618C5.47557 12.2514 4.89717 12.3594 4.28637 12.3594C4.05237 12.3594 3.82557 12.3318 3.60117 12.3006V19.9194C3.60117 20.8434 4.35597 21.5994 5.27877 21.5994H18.7212C19.6452 21.5994 20.4012 20.8422 20.4012 19.9194V12.3018C20.1743 12.3366 19.9454 12.3563 19.716 12.3606C19.1308 12.36 18.5504 12.2564 18.0012 12.0546ZM22.7052 7.79941L20.64 2.39941H15.7044L16.6524 8.68981C16.8372 9.87781 18.1368 10.7994 19.716 10.7994C21.42 10.7994 22.8012 9.72421 22.8012 8.39941C22.8012 8.19061 22.7676 7.99141 22.7052 7.79941Z" fill="#797979"/>
</svg>
