<svg width="108" height="38" viewBox="0 0 108 38" fill="none" xmlns="http://www.w3.org/2000/svg">
<path d="M47.2126 19.11C46.6772 19.11 46.2042 19.0403 45.7936 18.901C45.3902 18.7617 45.0492 18.5563 44.7706 18.285C44.4919 18.0063 44.2829 17.6617 44.1436 17.251C44.0042 16.8403 43.9346 16.3637 43.9346 15.821V11.872C43.9346 11.63 43.9932 11.4503 44.1106 11.333C44.2352 11.2157 44.4112 11.157 44.6386 11.157C44.8659 11.157 45.0382 11.2157 45.1556 11.333C45.2802 11.4503 45.3426 11.63 45.3426 11.872V15.81C45.3426 16.5067 45.5002 17.031 45.8156 17.383C46.1382 17.7277 46.6039 17.9 47.2126 17.9C47.8212 17.9 48.2832 17.7277 48.5986 17.383C48.9139 17.031 49.0716 16.5067 49.0716 15.81V11.872C49.0716 11.63 49.1302 11.4503 49.2476 11.333C49.3722 11.2157 49.5482 11.157 49.7756 11.157C49.9956 11.157 50.1642 11.2157 50.2816 11.333C50.4062 11.4503 50.4686 11.63 50.4686 11.872V15.821C50.4686 16.5397 50.3439 17.1447 50.0946 17.636C49.8526 18.1273 49.4896 18.4977 49.0056 18.747C48.5216 18.989 47.9239 19.11 47.2126 19.11ZM53.9477 19.11C53.6323 19.11 53.2987 19.077 52.9467 19.011C52.5947 18.945 52.2793 18.8313 52.0007 18.67C51.8833 18.5967 51.799 18.5123 51.7477 18.417C51.7037 18.3143 51.6853 18.2153 51.6927 18.12C51.7073 18.0173 51.744 17.9293 51.8027 17.856C51.8687 17.7827 51.9493 17.735 52.0447 17.713C52.1473 17.691 52.2573 17.7093 52.3747 17.768C52.668 17.9073 52.943 18.0063 53.1997 18.065C53.4563 18.1163 53.7093 18.142 53.9587 18.142C54.3107 18.142 54.571 18.0833 54.7397 17.966C54.9157 17.8413 55.0037 17.68 55.0037 17.482C55.0037 17.3133 54.945 17.185 54.8277 17.097C54.7177 17.0017 54.549 16.932 54.3217 16.888L53.2217 16.679C52.767 16.591 52.4187 16.426 52.1767 16.184C51.942 15.9347 51.8247 15.6157 51.8247 15.227C51.8247 14.875 51.92 14.5707 52.1107 14.314C52.3087 14.0573 52.58 13.8593 52.9247 13.72C53.2693 13.5807 53.6653 13.511 54.1127 13.511C54.4353 13.511 54.736 13.5477 55.0147 13.621C55.3007 13.687 55.5757 13.7933 55.8397 13.94C55.9497 13.9987 56.023 14.0757 56.0597 14.171C56.1037 14.2663 56.1147 14.3653 56.0927 14.468C56.0707 14.5633 56.0267 14.6513 55.9607 14.732C55.8947 14.8053 55.8103 14.853 55.7077 14.875C55.6123 14.8897 55.5023 14.8677 55.3777 14.809C55.1503 14.6917 54.9303 14.6073 54.7177 14.556C54.5123 14.5047 54.3143 14.479 54.1237 14.479C53.7643 14.479 53.4967 14.5413 53.3207 14.666C53.152 14.7907 53.0677 14.9557 53.0677 15.161C53.0677 15.315 53.119 15.4433 53.2217 15.546C53.3243 15.6487 53.482 15.7183 53.6947 15.755L54.7947 15.964C55.2713 16.052 55.6307 16.2133 55.8727 16.448C56.122 16.6827 56.2467 16.998 56.2467 17.394C56.2467 17.9293 56.0377 18.351 55.6197 18.659C55.2017 18.9597 54.6443 19.11 53.9477 19.11ZM60.0008 19.11C59.3921 19.11 58.8678 18.9963 58.4278 18.769C57.9878 18.5417 57.6468 18.219 57.4048 17.801C57.1701 17.383 57.0528 16.888 57.0528 16.316C57.0528 15.7587 57.1664 15.271 57.3938 14.853C57.6284 14.435 57.9474 14.1087 58.3508 13.874C58.7614 13.632 59.2271 13.511 59.7478 13.511C60.1291 13.511 60.4701 13.5733 60.7708 13.698C61.0788 13.8227 61.3391 14.0023 61.5518 14.237C61.7718 14.4717 61.9368 14.7577 62.0468 15.095C62.1641 15.425 62.2228 15.799 62.2228 16.217C62.2228 16.349 62.1751 16.4517 62.0798 16.525C61.9918 16.591 61.8634 16.624 61.6948 16.624H58.1638V15.832H61.2548L61.0788 15.997C61.0788 15.6597 61.0274 15.3773 60.9248 15.15C60.8294 14.9227 60.6864 14.7503 60.4958 14.633C60.3124 14.5083 60.0814 14.446 59.8028 14.446C59.4948 14.446 59.2308 14.5193 59.0108 14.666C58.7981 14.8053 58.6331 15.007 58.5158 15.271C58.4058 15.5277 58.3508 15.8357 58.3508 16.195V16.272C58.3508 16.8733 58.4901 17.3243 58.7688 17.625C59.0548 17.9183 59.4728 18.065 60.0228 18.065C60.2134 18.065 60.4261 18.043 60.6608 17.999C60.9028 17.9477 61.1301 17.8633 61.3428 17.746C61.4968 17.658 61.6324 17.6213 61.7498 17.636C61.8671 17.6433 61.9588 17.6837 62.0248 17.757C62.0981 17.8303 62.1421 17.922 62.1568 18.032C62.1714 18.1347 62.1494 18.241 62.0908 18.351C62.0394 18.461 61.9478 18.5563 61.8158 18.637C61.5591 18.7983 61.2621 18.9193 60.9248 19C60.5948 19.0733 60.2868 19.11 60.0008 19.11ZM64.0157 19.088C63.7883 19.088 63.6123 19.0293 63.4877 18.912C63.3703 18.7873 63.3117 18.6113 63.3117 18.384V14.226C63.3117 13.9987 63.3703 13.8263 63.4877 13.709C63.605 13.5917 63.77 13.533 63.9827 13.533C64.1953 13.533 64.3603 13.5917 64.4777 13.709C64.595 13.8263 64.6537 13.9987 64.6537 14.226V14.919H64.5437C64.6463 14.479 64.848 14.1453 65.1487 13.918C65.4493 13.6907 65.849 13.555 66.3477 13.511C66.5017 13.4963 66.6227 13.5367 66.7107 13.632C66.806 13.72 66.861 13.8593 66.8757 14.05C66.8903 14.2333 66.8463 14.3837 66.7437 14.501C66.6483 14.611 66.5017 14.677 66.3037 14.699L66.0617 14.721C65.6143 14.765 65.277 14.9043 65.0497 15.139C64.8223 15.3663 64.7087 15.689 64.7087 16.107V18.384C64.7087 18.6113 64.65 18.7873 64.5327 18.912C64.4153 19.0293 64.243 19.088 64.0157 19.088ZM74.4666 19.11C73.6086 19.11 72.8826 18.9487 72.2886 18.626C71.702 18.3033 71.2546 17.845 70.9466 17.251C70.6386 16.657 70.4846 15.953 70.4846 15.139C70.4846 14.523 70.5726 13.9693 70.7486 13.478C70.932 12.9867 71.1923 12.5687 71.5296 12.224C71.8743 11.872 72.2923 11.6043 72.7836 11.421C73.275 11.2303 73.8323 11.135 74.4556 11.135C74.8663 11.135 75.277 11.1863 75.6876 11.289C76.1056 11.3843 76.498 11.5493 76.8646 11.784C76.9893 11.8647 77.07 11.9637 77.1066 12.081C77.1506 12.1983 77.158 12.3193 77.1286 12.444C77.0993 12.5613 77.0443 12.664 76.9636 12.752C76.883 12.84 76.7803 12.895 76.6556 12.917C76.5383 12.939 76.4063 12.9097 76.2596 12.829C75.981 12.6677 75.6986 12.5503 75.4126 12.477C75.1266 12.4037 74.8076 12.367 74.4556 12.367C73.913 12.367 73.4546 12.477 73.0806 12.697C72.7066 12.9097 72.4243 13.2213 72.2336 13.632C72.0503 14.0427 71.9586 14.545 71.9586 15.139C71.9586 16.041 72.175 16.7267 72.6076 17.196C73.0403 17.6653 73.682 17.9 74.5326 17.9C74.826 17.9 75.123 17.8707 75.4236 17.812C75.7243 17.7533 76.0176 17.6727 76.3036 17.57L76.0286 18.197V15.854H74.8186C74.6353 15.854 74.4923 15.8063 74.3896 15.711C74.2943 15.6157 74.2466 15.4873 74.2466 15.326C74.2466 15.1573 74.2943 15.029 74.3896 14.941C74.4923 14.853 74.6353 14.809 74.8186 14.809H76.6336C76.817 14.809 76.9563 14.8603 77.0516 14.963C77.1543 15.0583 77.2056 15.1977 77.2056 15.381V18.054C77.2056 18.2153 77.1726 18.351 77.1066 18.461C77.048 18.571 76.949 18.6517 76.8096 18.703C76.487 18.8203 76.1166 18.9193 75.6986 19C75.2806 19.0733 74.87 19.11 74.4666 19.11Z" fill="url(#paint0_linear_366_3234)"/>
<path d="M45.6386 30.064C45.3826 30.064 45.1346 30.0427 44.8946 30C44.6546 29.9573 44.4306 29.8933 44.2226 29.808C44.0199 29.7173 43.8359 29.608 43.6706 29.48C43.6172 29.4427 43.5799 29.4 43.5586 29.352C43.5426 29.2987 43.5399 29.2507 43.5506 29.208C43.5666 29.16 43.5906 29.12 43.6226 29.088C43.6599 29.056 43.7026 29.04 43.7506 29.04C43.7986 29.0347 43.8492 29.0507 43.9026 29.088C44.1479 29.2693 44.4066 29.4027 44.6786 29.488C44.9559 29.5733 45.2759 29.616 45.6386 29.616C46.1452 29.616 46.5239 29.5173 46.7746 29.32C47.0306 29.1227 47.1586 28.864 47.1586 28.544C47.1586 28.2773 47.0652 28.0693 46.8786 27.92C46.6972 27.7707 46.3959 27.6533 45.9746 27.568L45.1666 27.4C44.6599 27.2987 44.2839 27.128 44.0386 26.888C43.7932 26.648 43.6706 26.328 43.6706 25.928C43.6706 25.6827 43.7186 25.4613 43.8146 25.264C43.9106 25.0613 44.0466 24.888 44.2226 24.744C44.3986 24.6 44.6066 24.4907 44.8466 24.416C45.0919 24.336 45.3612 24.296 45.6546 24.296C46.0012 24.296 46.3186 24.344 46.6066 24.44C46.8999 24.536 47.1666 24.688 47.4066 24.896C47.4546 24.9333 47.4866 24.9787 47.5026 25.032C47.5186 25.08 47.5186 25.128 47.5026 25.176C47.4866 25.2187 47.4626 25.2533 47.4306 25.28C47.3986 25.3067 47.3586 25.3227 47.3106 25.328C47.2626 25.328 47.2119 25.3067 47.1586 25.264C46.9346 25.0827 46.6999 24.952 46.4546 24.872C46.2146 24.7867 45.9479 24.744 45.6546 24.744C45.3559 24.744 45.0946 24.792 44.8706 24.888C44.6519 24.984 44.4812 25.12 44.3586 25.296C44.2359 25.472 44.1746 25.68 44.1746 25.92C44.1746 26.1973 44.2599 26.4187 44.4306 26.584C44.6012 26.7493 44.8759 26.8693 45.2546 26.944L46.0706 27.112C46.6092 27.224 47.0092 27.392 47.2706 27.616C47.5319 27.8347 47.6626 28.136 47.6626 28.52C47.6626 28.7493 47.6146 28.96 47.5186 29.152C47.4279 29.3387 47.2946 29.5013 47.1186 29.64C46.9426 29.7787 46.7292 29.8853 46.4786 29.96C46.2332 30.0293 45.9532 30.064 45.6386 30.064ZM50.33 30.064C49.93 30.064 49.586 29.984 49.298 29.824C49.01 29.664 48.7886 29.4347 48.634 29.136C48.4793 28.8373 48.402 28.4827 48.402 28.072C48.402 27.6667 48.4793 27.3147 48.634 27.016C48.7886 26.712 49.002 26.4747 49.274 26.304C49.5513 26.1333 49.8686 26.048 50.226 26.048C50.4873 26.048 50.7166 26.0933 50.914 26.184C51.1166 26.2693 51.2873 26.3947 51.426 26.56C51.57 26.72 51.6793 26.9173 51.754 27.152C51.8286 27.3813 51.866 27.6427 51.866 27.936C51.866 28.0107 51.8446 28.0667 51.802 28.104C51.7646 28.1413 51.7113 28.16 51.642 28.16H48.754V27.8H51.562L51.434 27.904C51.434 27.5947 51.3886 27.3333 51.298 27.12C51.2073 26.9013 51.0713 26.7333 50.89 26.616C50.714 26.4987 50.4953 26.44 50.234 26.44C49.9406 26.44 49.6926 26.5093 49.49 26.648C49.2873 26.7813 49.1353 26.968 49.034 27.208C48.9326 27.4427 48.882 27.7147 48.882 28.024V28.064C48.882 28.576 49.0073 28.9707 49.258 29.248C49.5086 29.52 49.8606 29.656 50.314 29.656C50.5113 29.656 50.7006 29.6293 50.882 29.576C51.0686 29.5227 51.25 29.432 51.426 29.304C51.4793 29.2667 51.53 29.248 51.578 29.248C51.6313 29.248 51.674 29.2613 51.706 29.288C51.7433 29.3147 51.7673 29.3493 51.778 29.392C51.794 29.4293 51.7913 29.472 51.77 29.52C51.754 29.5627 51.7193 29.6027 51.666 29.64C51.4953 29.7787 51.29 29.8853 51.05 29.96C50.81 30.0293 50.57 30.064 50.33 30.064ZM54.4447 30.064C54.066 30.064 53.7407 29.9813 53.4687 29.816C53.1967 29.6453 52.986 29.408 52.8367 29.104C52.6927 28.7947 52.6207 28.4373 52.6207 28.032C52.6207 27.7227 52.6607 27.448 52.7407 27.208C52.826 26.9627 52.946 26.7547 53.1007 26.584C53.2607 26.4133 53.4527 26.2827 53.6767 26.192C53.906 26.096 54.162 26.048 54.4447 26.048C54.642 26.048 54.8447 26.0827 55.0527 26.152C55.2607 26.216 55.45 26.3253 55.6207 26.48C55.658 26.512 55.682 26.5493 55.6927 26.592C55.7034 26.6347 55.7007 26.6773 55.6847 26.72C55.6687 26.7573 55.6447 26.7893 55.6127 26.816C55.5807 26.8373 55.5407 26.8507 55.4927 26.856C55.45 26.856 55.4047 26.8347 55.3567 26.792C55.2074 26.6693 55.0554 26.5867 54.9007 26.544C54.7514 26.496 54.6047 26.472 54.4607 26.472C54.242 26.472 54.05 26.5067 53.8847 26.576C53.7194 26.6453 53.578 26.7467 53.4607 26.88C53.3487 27.0133 53.2634 27.1787 53.2047 27.376C53.146 27.568 53.1167 27.7893 53.1167 28.04C53.1167 28.5413 53.2314 28.936 53.4607 29.224C53.6954 29.5067 54.0287 29.648 54.4607 29.648C54.6047 29.648 54.7514 29.6267 54.9007 29.584C55.0554 29.536 55.2074 29.4507 55.3567 29.328C55.4047 29.2853 55.45 29.2667 55.4927 29.272C55.5407 29.272 55.5807 29.2853 55.6127 29.312C55.6447 29.3333 55.666 29.3653 55.6767 29.408C55.6927 29.4453 55.6954 29.4853 55.6847 29.528C55.674 29.5707 55.65 29.608 55.6127 29.64C55.4474 29.7947 55.2607 29.904 55.0527 29.968C54.8447 30.032 54.642 30.064 54.4447 30.064ZM57.9006 30.064C57.5912 30.064 57.3326 30.008 57.1246 29.896C56.9219 29.784 56.7699 29.616 56.6686 29.392C56.5672 29.168 56.5166 28.8907 56.5166 28.56V26.32C56.5166 26.2347 56.5379 26.1707 56.5806 26.128C56.6232 26.0853 56.6846 26.064 56.7646 26.064C56.8392 26.064 56.8979 26.0853 56.9406 26.128C56.9832 26.1707 57.0046 26.2347 57.0046 26.32V28.536C57.0046 28.9093 57.0819 29.1893 57.2366 29.376C57.3912 29.5573 57.6339 29.648 57.9646 29.648C58.3272 29.648 58.6206 29.528 58.8446 29.288C59.0686 29.0427 59.1806 28.7227 59.1806 28.328V26.32C59.1806 26.2347 59.2019 26.1707 59.2446 26.128C59.2872 26.0853 59.3486 26.064 59.4286 26.064C59.5032 26.064 59.5619 26.0853 59.6046 26.128C59.6472 26.1707 59.6686 26.2347 59.6686 26.32V29.8C59.6686 29.9653 59.5912 30.048 59.4366 30.048C59.3619 30.048 59.3032 30.0267 59.2606 29.984C59.2179 29.9413 59.1966 29.88 59.1966 29.8V29.008L59.2926 29.064C59.1912 29.3893 59.0152 29.6373 58.7646 29.808C58.5139 29.9787 58.2259 30.064 57.9006 30.064ZM61.2025 30.048C61.1225 30.048 61.0611 30.0267 61.0185 29.984C60.9758 29.9413 60.9545 29.88 60.9545 29.8V26.32C60.9545 26.2347 60.9758 26.1707 61.0185 26.128C61.0611 26.0853 61.1225 26.064 61.2025 26.064C61.2771 26.064 61.3331 26.0853 61.3705 26.128C61.4131 26.1707 61.4345 26.2347 61.4345 26.32V27.032H61.3545C61.4505 26.7173 61.6211 26.4747 61.8665 26.304C62.1171 26.1333 62.4158 26.0453 62.7625 26.04C62.8265 26.0347 62.8798 26.048 62.9225 26.08C62.9651 26.112 62.9865 26.1627 62.9865 26.232C62.9918 26.3067 62.9758 26.3653 62.9385 26.408C62.9011 26.4453 62.8398 26.4693 62.7545 26.48L62.6425 26.488C62.2638 26.5253 61.9705 26.6507 61.7625 26.864C61.5545 27.0773 61.4505 27.3653 61.4505 27.728V29.8C61.4505 29.88 61.4291 29.9413 61.3865 29.984C61.3491 30.0267 61.2878 30.048 61.2025 30.048ZM63.9368 30.032C63.8568 30.032 63.7955 30.008 63.7528 29.96C63.7102 29.912 63.6888 29.848 63.6888 29.768V26.344C63.6888 26.2587 63.7102 26.1947 63.7528 26.152C63.7955 26.1093 63.8568 26.088 63.9368 26.088C64.0115 26.088 64.0702 26.1093 64.1128 26.152C64.1555 26.1947 64.1768 26.2587 64.1768 26.344V29.768C64.1768 29.848 64.1555 29.912 64.1128 29.96C64.0755 30.008 64.0168 30.032 63.9368 30.032ZM63.9368 25.12C63.8248 25.12 63.7368 25.0907 63.6728 25.032C63.6142 24.9733 63.5848 24.8907 63.5848 24.784C63.5848 24.6773 63.6142 24.5973 63.6728 24.544C63.7368 24.4853 63.8248 24.456 63.9368 24.456C64.0488 24.456 64.1342 24.4853 64.1928 24.544C64.2568 24.5973 64.2888 24.6773 64.2888 24.784C64.2888 24.8907 64.2568 24.9733 64.1928 25.032C64.1342 25.0907 64.0488 25.12 63.9368 25.12ZM66.9263 30.064C66.6383 30.064 66.3983 30.0107 66.2063 29.904C66.0143 29.7973 65.8703 29.6453 65.7743 29.448C65.6783 29.2453 65.6303 28.9973 65.6303 28.704V26.512H65.0383C64.9689 26.512 64.9129 26.496 64.8703 26.464C64.8276 26.4267 64.8063 26.376 64.8063 26.312C64.8063 26.2533 64.8276 26.208 64.8703 26.176C64.9129 26.1387 64.9689 26.12 65.0383 26.12H65.6303V25.12C65.6303 25.0347 65.6516 24.9733 65.6943 24.936C65.7369 24.8933 65.7983 24.872 65.8783 24.872C65.9529 24.872 66.0116 24.8933 66.0543 24.936C66.0969 24.9733 66.1183 25.0347 66.1183 25.12V26.12H67.1983C67.2729 26.12 67.3289 26.1387 67.3663 26.176C67.4036 26.208 67.4223 26.2533 67.4223 26.312C67.4223 26.376 67.4036 26.4267 67.3663 26.464C67.3289 26.496 67.2729 26.512 67.1983 26.512H66.1183V28.64C66.1183 28.9653 66.1849 29.2133 66.3183 29.384C66.4516 29.5547 66.6729 29.64 66.9823 29.64C67.0889 29.64 67.1769 29.6293 67.2463 29.608C67.3209 29.5813 67.3823 29.568 67.4303 29.568C67.4676 29.568 67.4996 29.584 67.5263 29.616C67.5583 29.648 67.5743 29.6987 67.5743 29.768C67.5743 29.8107 67.5636 29.8533 67.5423 29.896C67.5263 29.9387 67.4943 29.9653 67.4463 29.976C67.3876 29.9973 67.3076 30.016 67.2063 30.032C67.1049 30.0533 67.0116 30.064 66.9263 30.064ZM69.0048 31.488C68.9408 31.488 68.8902 31.4693 68.8528 31.432C68.8155 31.4 68.7942 31.3547 68.7888 31.296C68.7888 31.2427 68.7995 31.1867 68.8208 31.128L69.3728 29.872V30.096L67.8048 26.432C67.7782 26.368 67.7675 26.3093 67.7728 26.256C67.7835 26.1973 67.8075 26.152 67.8448 26.12C67.8875 26.0827 67.9462 26.064 68.0208 26.064C68.0902 26.064 68.1408 26.08 68.1728 26.112C68.2102 26.144 68.2422 26.1947 68.2688 26.264L69.6928 29.712H69.4928L70.9168 26.264C70.9488 26.1893 70.9835 26.1387 71.0208 26.112C71.0582 26.08 71.1115 26.064 71.1808 26.064C71.2502 26.064 71.3008 26.0827 71.3328 26.12C71.3702 26.152 71.3915 26.1947 71.3968 26.248C71.4022 26.3013 71.3915 26.36 71.3648 26.424L69.2768 31.296C69.2448 31.3707 69.2075 31.4213 69.1648 31.448C69.1275 31.4747 69.0742 31.488 69.0048 31.488ZM76.7228 30.064C76.1841 30.064 75.7228 29.9493 75.3388 29.72C74.9548 29.4853 74.6588 29.152 74.4508 28.72C74.2481 28.288 74.1468 27.7733 74.1468 27.176C74.1468 26.728 74.2028 26.328 74.3148 25.976C74.4321 25.6187 74.6001 25.3173 74.8188 25.072C75.0428 24.8213 75.3148 24.6293 75.6348 24.496C75.9601 24.3627 76.3228 24.296 76.7228 24.296C77.0748 24.296 77.4028 24.3467 77.7068 24.448C78.0108 24.5493 78.2721 24.6987 78.4908 24.896C78.5441 24.944 78.5788 24.9947 78.5948 25.048C78.6108 25.1013 78.6108 25.152 78.5948 25.2C78.5841 25.2427 78.5601 25.28 78.5228 25.312C78.4854 25.3387 78.4401 25.352 78.3868 25.352C78.3388 25.3467 78.2854 25.32 78.2268 25.272C78.0241 25.096 77.7974 24.9653 77.5468 24.88C77.3014 24.7947 77.0294 24.752 76.7308 24.752C76.2881 24.752 75.9121 24.848 75.6028 25.04C75.2988 25.2267 75.0668 25.5013 74.9068 25.864C74.7521 26.2267 74.6748 26.664 74.6748 27.176C74.6748 27.6933 74.7521 28.1333 74.9068 28.496C75.0668 28.8587 75.2988 29.136 75.6028 29.328C75.9121 29.5147 76.2881 29.608 76.7308 29.608C77.0241 29.608 77.2961 29.5653 77.5468 29.48C77.7974 29.3893 78.0268 29.256 78.2348 29.08C78.2934 29.032 78.3468 29.008 78.3948 29.008C78.4481 29.008 78.4908 29.024 78.5228 29.056C78.5601 29.0827 78.5868 29.12 78.6028 29.168C78.6188 29.2107 78.6188 29.256 78.6028 29.304C78.5921 29.352 78.5628 29.3973 78.5148 29.44C78.2854 29.648 78.0188 29.8053 77.7148 29.912C77.4161 30.0133 77.0854 30.064 76.7228 30.064ZM79.8821 30.048C79.8021 30.048 79.7408 30.0267 79.6981 29.984C79.6555 29.9413 79.6341 29.88 79.6341 29.8V24.56C79.6341 24.4747 79.6555 24.4133 79.6981 24.376C79.7408 24.3333 79.8021 24.312 79.8821 24.312C79.9568 24.312 80.0155 24.3333 80.0581 24.376C80.1008 24.4133 80.1221 24.4747 80.1221 24.56V27.024H80.0261C80.1328 26.704 80.3141 26.4613 80.5701 26.296C80.8315 26.1307 81.1301 26.048 81.4661 26.048C81.7755 26.048 82.0315 26.104 82.2341 26.216C82.4421 26.328 82.5968 26.496 82.6981 26.72C82.7995 26.944 82.8501 27.2213 82.8501 27.552V29.8C82.8501 29.88 82.8288 29.9413 82.7861 29.984C82.7435 30.0267 82.6848 30.048 82.6101 30.048C82.5301 30.048 82.4688 30.0267 82.4261 29.984C82.3835 29.9413 82.3621 29.88 82.3621 29.8V27.592C82.3621 27.2027 82.2848 26.92 82.1301 26.744C81.9755 26.5627 81.7301 26.472 81.3941 26.472C81.0101 26.472 80.7008 26.592 80.4661 26.832C80.2368 27.0667 80.1221 27.384 80.1221 27.784V29.8C80.1221 29.9653 80.0421 30.048 79.8821 30.048ZM85.7987 30.064C85.3987 30.064 85.0547 29.984 84.7667 29.824C84.4787 29.664 84.2574 29.4347 84.1027 29.136C83.948 28.8373 83.8707 28.4827 83.8707 28.072C83.8707 27.6667 83.948 27.3147 84.1027 27.016C84.2574 26.712 84.4707 26.4747 84.7427 26.304C85.02 26.1333 85.3374 26.048 85.6947 26.048C85.956 26.048 86.1854 26.0933 86.3827 26.184C86.5854 26.2693 86.756 26.3947 86.8947 26.56C87.0387 26.72 87.148 26.9173 87.2227 27.152C87.2974 27.3813 87.3347 27.6427 87.3347 27.936C87.3347 28.0107 87.3134 28.0667 87.2707 28.104C87.2334 28.1413 87.18 28.16 87.1107 28.16H84.2227V27.8H87.0307L86.9027 27.904C86.9027 27.5947 86.8574 27.3333 86.7667 27.12C86.676 26.9013 86.54 26.7333 86.3587 26.616C86.1827 26.4987 85.964 26.44 85.7027 26.44C85.4094 26.44 85.1614 26.5093 84.9587 26.648C84.756 26.7813 84.604 26.968 84.5027 27.208C84.4014 27.4427 84.3507 27.7147 84.3507 28.024V28.064C84.3507 28.576 84.476 28.9707 84.7267 29.248C84.9774 29.52 85.3294 29.656 85.7827 29.656C85.98 29.656 86.1694 29.6293 86.3507 29.576C86.5374 29.5227 86.7187 29.432 86.8947 29.304C86.948 29.2667 86.9987 29.248 87.0467 29.248C87.1 29.248 87.1427 29.2613 87.1747 29.288C87.212 29.3147 87.236 29.3493 87.2467 29.392C87.2627 29.4293 87.26 29.472 87.2387 29.52C87.2227 29.5627 87.188 29.6027 87.1347 29.64C86.964 29.7787 86.7587 29.8853 86.5187 29.96C86.2787 30.0293 86.0387 30.064 85.7987 30.064ZM89.9135 30.064C89.5348 30.064 89.2095 29.9813 88.9375 29.816C88.6655 29.6453 88.4548 29.408 88.3055 29.104C88.1615 28.7947 88.0895 28.4373 88.0895 28.032C88.0895 27.7227 88.1295 27.448 88.2095 27.208C88.2948 26.9627 88.4148 26.7547 88.5695 26.584C88.7295 26.4133 88.9215 26.2827 89.1455 26.192C89.3748 26.096 89.6308 26.048 89.9135 26.048C90.1108 26.048 90.3135 26.0827 90.5215 26.152C90.7295 26.216 90.9188 26.3253 91.0895 26.48C91.1268 26.512 91.1508 26.5493 91.1615 26.592C91.1721 26.6347 91.1695 26.6773 91.1535 26.72C91.1375 26.7573 91.1135 26.7893 91.0815 26.816C91.0495 26.8373 91.0095 26.8507 90.9615 26.856C90.9188 26.856 90.8735 26.8347 90.8255 26.792C90.6761 26.6693 90.5241 26.5867 90.3695 26.544C90.2201 26.496 90.0735 26.472 89.9295 26.472C89.7108 26.472 89.5188 26.5067 89.3535 26.576C89.1881 26.6453 89.0468 26.7467 88.9295 26.88C88.8175 27.0133 88.7321 27.1787 88.6735 27.376C88.6148 27.568 88.5855 27.7893 88.5855 28.04C88.5855 28.5413 88.7001 28.936 88.9295 29.224C89.1641 29.5067 89.4975 29.648 89.9295 29.648C90.0735 29.648 90.2201 29.6267 90.3695 29.584C90.5241 29.536 90.6761 29.4507 90.8255 29.328C90.8735 29.2853 90.9188 29.2667 90.9615 29.272C91.0095 29.272 91.0495 29.2853 91.0815 29.312C91.1135 29.3333 91.1348 29.3653 91.1455 29.408C91.1615 29.4453 91.1641 29.4853 91.1535 29.528C91.1428 29.5707 91.1188 29.608 91.0815 29.64C90.9161 29.7947 90.7295 29.904 90.5215 29.968C90.3135 30.032 90.1108 30.064 89.9135 30.064ZM92.2493 30.048C92.1693 30.048 92.108 30.0267 92.0653 29.984C92.0227 29.9413 92.0013 29.88 92.0013 29.8V24.56C92.0013 24.4747 92.0227 24.4133 92.0653 24.376C92.108 24.3333 92.1693 24.312 92.2493 24.312C92.324 24.312 92.3827 24.3333 92.4253 24.376C92.468 24.4133 92.4893 24.4747 92.4893 24.56V27.88H92.5053L94.2973 26.24C94.356 26.1867 94.4067 26.144 94.4493 26.112C94.4973 26.08 94.5587 26.064 94.6333 26.064C94.6973 26.064 94.748 26.0827 94.7853 26.12C94.8227 26.1573 94.8387 26.2027 94.8333 26.256C94.8333 26.304 94.8067 26.3573 94.7533 26.416L92.8493 28.152V27.84L94.9213 29.68C94.9853 29.7387 95.0173 29.7973 95.0173 29.856C95.0227 29.9093 95.0067 29.9547 94.9693 29.992C94.932 30.0293 94.8813 30.048 94.8173 30.048C94.748 30.048 94.6893 30.032 94.6413 30C94.5933 29.9733 94.5347 29.928 94.4653 29.864L92.5053 28.136H92.4893V29.8C92.4893 29.9653 92.4093 30.048 92.2493 30.048ZM97.311 30.064C96.9483 30.064 96.6336 29.9813 96.367 29.816C96.1003 29.6507 95.8923 29.4187 95.743 29.12C95.599 28.8213 95.527 28.4667 95.527 28.056C95.527 27.752 95.567 27.4773 95.647 27.232C95.7323 26.9867 95.8523 26.776 96.007 26.6C96.167 26.4187 96.3563 26.2827 96.575 26.192C96.799 26.096 97.0443 26.048 97.311 26.048C97.679 26.048 97.9963 26.1307 98.263 26.296C98.5296 26.4613 98.735 26.696 98.879 27C99.0283 27.2987 99.103 27.6507 99.103 28.056C99.103 28.3653 99.0603 28.6427 98.975 28.888C98.895 29.1333 98.775 29.344 98.615 29.52C98.4603 29.696 98.2736 29.832 98.055 29.928C97.8363 30.0187 97.5883 30.064 97.311 30.064ZM97.311 29.656C97.5776 29.656 97.807 29.5947 97.999 29.472C98.1963 29.344 98.3456 29.16 98.447 28.92C98.5536 28.68 98.607 28.392 98.607 28.056C98.607 27.5493 98.4896 27.1573 98.255 26.88C98.0256 26.6027 97.711 26.464 97.311 26.464C97.0496 26.464 96.8203 26.528 96.623 26.656C96.431 26.7787 96.2816 26.96 96.175 27.2C96.0736 27.4347 96.023 27.72 96.023 28.056C96.023 28.568 96.1403 28.9627 96.375 29.24C96.6096 29.5173 96.9216 29.656 97.311 29.656ZM101.51 30.064C101.201 30.064 100.942 30.008 100.734 29.896C100.531 29.784 100.379 29.616 100.278 29.392C100.177 29.168 100.126 28.8907 100.126 28.56V26.32C100.126 26.2347 100.147 26.1707 100.19 26.128C100.233 26.0853 100.294 26.064 100.374 26.064C100.449 26.064 100.507 26.0853 100.55 26.128C100.593 26.1707 100.614 26.2347 100.614 26.32V28.536C100.614 28.9093 100.691 29.1893 100.846 29.376C101.001 29.5573 101.243 29.648 101.574 29.648C101.937 29.648 102.23 29.528 102.454 29.288C102.678 29.0427 102.79 28.7227 102.79 28.328V26.32C102.79 26.2347 102.811 26.1707 102.854 26.128C102.897 26.0853 102.958 26.064 103.038 26.064C103.113 26.064 103.171 26.0853 103.214 26.128C103.257 26.1707 103.278 26.2347 103.278 26.32V29.8C103.278 29.9653 103.201 30.048 103.046 30.048C102.971 30.048 102.913 30.0267 102.87 29.984C102.827 29.9413 102.806 29.88 102.806 29.8V29.008L102.902 29.064C102.801 29.3893 102.625 29.6373 102.374 29.808C102.123 29.9787 101.835 30.064 101.51 30.064ZM106.028 30.064C105.74 30.064 105.5 30.0107 105.308 29.904C105.116 29.7973 104.972 29.6453 104.876 29.448C104.78 29.2453 104.732 28.9973 104.732 28.704V26.512H104.14C104.07 26.512 104.014 26.496 103.972 26.464C103.929 26.4267 103.908 26.376 103.908 26.312C103.908 26.2533 103.929 26.208 103.972 26.176C104.014 26.1387 104.07 26.12 104.14 26.12H104.732V25.12C104.732 25.0347 104.753 24.9733 104.796 24.936C104.838 24.8933 104.9 24.872 104.98 24.872C105.054 24.872 105.113 24.8933 105.156 24.936C105.198 24.9733 105.22 25.0347 105.22 25.12V26.12H106.3C106.374 26.12 106.43 26.1387 106.468 26.176C106.505 26.208 106.524 26.2533 106.524 26.312C106.524 26.376 106.505 26.4267 106.468 26.464C106.43 26.496 106.374 26.512 106.3 26.512H105.22V28.64C105.22 28.9653 105.286 29.2133 105.42 29.384C105.553 29.5547 105.774 29.64 106.084 29.64C106.19 29.64 106.278 29.6293 106.348 29.608C106.422 29.5813 106.484 29.568 106.532 29.568C106.569 29.568 106.601 29.584 106.628 29.616C106.66 29.648 106.676 29.6987 106.676 29.768C106.676 29.8107 106.665 29.8533 106.644 29.896C106.628 29.9387 106.596 29.9653 106.548 29.976C106.489 29.9973 106.409 30.016 106.308 30.032C106.206 30.0533 106.113 30.064 106.028 30.064Z" fill="white"/>
<path fill-rule="evenodd" clip-rule="evenodd" d="M7.15009 31.806C7.52911 32.3705 7.90814 32.9455 8.29425 33.5205C8.41114 33.0331 8.50676 32.6755 8.58469 32.395C9.41358 32.7106 10.2637 32.9875 11.1209 33.2295C11.376 33.9307 11.9321 34.6634 12.9275 35.596C12.9842 34.7861 13.0302 34.1761 13.0302 33.6607C13.8166 33.7869 14.6101 33.8711 15.3964 33.9202V33.9412C15.6076 34.4944 15.8809 35.0225 16.2112 35.5154C16.5514 36.0313 16.9179 36.5298 17.3092 37.0089L17.5749 37.3385L17.6635 37.4437C17.5962 36.7039 17.5324 36.0623 17.4793 35.4803C17.4261 34.8983 17.3695 34.3794 17.3092 33.8921C18.4447 33.7789 19.5675 33.5642 20.6638 33.2505C20.8621 33.6537 21.1278 34.1025 21.4714 34.6529C21.7529 34.0232 21.9805 33.3711 22.1515 32.7036C23.1325 32.2806 24.0798 31.7849 24.9853 31.2205C25.1589 31.6272 25.4033 32.1146 25.7433 32.8228C26.0085 32.2814 26.2449 31.7267 26.4518 31.1609C26.5928 30.7954 26.68 30.4116 26.7104 30.0215C27.4188 29.4886 28.0883 28.9171 28.7188 28.3491C29.3493 27.7812 29.2788 27.8867 28.609 28.5737C28.1562 29.038 29.3175 27.8725 29.3175 27.8725C28.2242 28.4945 27.2665 28.5279 26.3668 29.0118C26.0125 28.563 25.3041 28.1633 24.2875 27.6094C24.3441 28.1773 24.3937 28.6226 24.4362 29.0118C24.4787 29.4009 24.5177 29.6814 24.5744 29.9444C23.7278 30.3475 22.8989 30.6771 22.0948 30.9751C21.9328 30.6191 21.7283 30.2837 21.4856 29.9759C21.2128 29.6253 20.8763 29.2186 20.4689 28.7383C20.3733 29.3799 20.2954 29.9023 20.2528 30.3511C20.2066 30.7396 20.19 31.131 20.2033 31.522C19.1533 31.7546 18.0879 31.9127 17.0152 31.9954C16.909 31.4204 16.7708 30.8244 16.6043 30.1477C16.4379 29.4711 16.2324 28.7138 15.9809 27.8092C15.7259 28.7243 15.524 29.4991 15.3716 30.1863C15.2279 30.7895 15.1401 31.4044 15.1095 32.0234C14.3338 31.9848 13.558 31.9287 12.7787 31.8341C12.676 31.515 12.5343 31.175 12.3572 30.7823C12.1801 30.3896 11.9605 29.9233 11.6877 29.3799C11.4197 30.1015 11.1984 30.8392 11.0253 31.5887C10.2496 31.4449 9.46672 31.2837 8.65909 31.0978C8.49969 30.7472 8.16671 30.1758 7.59641 28.9487C7.42166 29.5447 7.24692 30.129 7.07217 30.7017C5.52309 30.2417 4.37199 30.3459 2.92773 29.6255C3.56547 30.1794 3.88968 29.9878 4.60321 30.4422C5.41701 30.9667 6.27369 31.4228 7.16427 31.806" fill="#CD605F"/>
<path fill-rule="evenodd" clip-rule="evenodd" d="M13.0231 25.0632C15.4966 26.3295 16.7425 25.9443 19.222 24.8879C19.2612 24.8628 19.3762 24.753 19.3991 24.7126C19.3977 24.759 19.4221 24.6721 19.3991 24.7126C19.3996 24.666 19.42 24.7542 19.3991 24.7126C19.3783 24.6709 19.3972 24.7896 19.3596 24.762C17.892 23.722 17.9091 22.3875 17.1463 20.93C17.0374 20.7328 16.8735 20.5716 16.6744 20.4659C16.4754 20.3602 16.2498 20.3146 16.0253 20.3347C15.8007 20.3548 15.5869 20.4397 15.4098 20.579C15.2328 20.7183 15.1001 20.9061 15.0281 21.1194C14.3234 22.7741 14.5101 24.1005 13.0231 25.0632C13.0231 25.0632 13.9038 25.2748 13.1217 24.9911C14.1024 25.3468 13.4431 25.0878 13.4431 25.0878C13.4431 25.0878 14.5722 25.3105 13.3773 25.0632C13.4046 25.1053 12.9781 25.0404 13.0231 25.0632Z" fill="#CD605F"/>
<path fill-rule="evenodd" clip-rule="evenodd" d="M12.9863 25.5348C15.1912 26.6444 17.3481 26.5395 19.4572 25.2201C19.4926 25.1982 19.522 25.1682 19.5427 25.1329C19.5635 25.0975 19.575 25.0578 19.5763 25.0172C19.5767 24.9764 19.5671 24.9361 19.5482 24.8996C19.5293 24.8632 19.5017 24.8316 19.4677 24.8074C18.1399 23.8974 17.7475 23.187 17.0573 21.9116C16.9589 21.7391 16.8105 21.598 16.6304 21.5055C16.4504 21.4131 16.2463 21.3732 16.0431 21.3908C15.84 21.4083 15.6465 21.4826 15.4863 21.6045C15.3261 21.7265 15.2061 21.8907 15.1409 22.0774C14.5033 23.5253 14.3106 24.2797 12.9653 25.122C12.9276 25.1458 12.8968 25.1785 12.876 25.217C12.8551 25.2555 12.8449 25.2985 12.8462 25.3419C12.8481 25.3858 12.8622 25.4283 12.8868 25.4652C12.9114 25.502 12.9458 25.5319 12.9863 25.5517" fill="url(#paint1_linear_366_3234)"/>
<path fill-rule="evenodd" clip-rule="evenodd" d="M11.252 7.88853C8.10647 6.22669 4.35877 8.05541 2.23696 12.6623C0.11516 17.2692 0.947587 22.3564 4.09664 24.0217C7.2457 25.687 11.5141 23.2995 13.6359 18.6926C13.7315 18.4822 13.8201 18.2754 13.9051 18.065L10.7879 16.7222C9.72527 16.2629 8.49256 16.7222 7.85141 17.8512L7.68139 18.1527L9.24706 19.0257C8.4288 19.7269 7.45114 19.9583 6.65413 19.5375C5.4108 18.8784 5.08139 16.8695 5.91736 15.0464C6.75333 13.2233 8.44651 12.2837 9.68984 12.9428C10.0051 13.1329 10.2721 13.3919 10.4705 13.7C10.6688 14.0082 10.7932 14.3572 10.834 14.7203L13.2002 15.4264C13.2002 11.5698 13.7316 9.18925 11.252 7.88853Z" fill="#CD605F"/>
<path fill-rule="evenodd" clip-rule="evenodd" d="M23.2353 1.60004C27.6796 0.292065 32.4298 4.33513 33.8497 10.6268C35.2696 16.9185 32.8147 23.0766 28.3737 24.3848C23.9327 25.6931 19.1788 21.6531 17.759 15.3614C17.6976 15.0793 17.6399 14.7942 17.592 14.5132L21.9063 13.6005C23.389 13.2862 24.8112 14.1704 25.3142 15.7383L25.4489 16.1546L23.2223 16.8623C24.0685 17.9438 25.243 18.4736 26.3675 18.1274C28.1263 17.6122 29.0941 15.1749 28.5346 12.6866C27.9751 10.1983 26.0947 8.60492 24.3391 9.12042C23.8912 9.27631 23.4842 9.53201 23.1488 9.86823C22.8135 10.2044 22.5586 10.6124 22.4033 11.0613L16.3883 11.0612C16.532 6.36122 19.7599 2.60686 23.2364 1.58662" fill="#CD605F"/>
<path fill-rule="evenodd" clip-rule="evenodd" d="M22.5268 1.24955C26.9711 -0.0584277 31.7213 3.98464 33.1412 10.2763C34.5611 16.5681 32.1061 22.7261 27.6652 24.0343C23.2242 25.3426 18.4703 21.3026 17.0504 15.0109C16.9891 14.7289 16.9314 14.4437 16.8835 14.1628L21.1978 13.25C22.6805 12.9358 24.1027 13.8199 24.6057 15.3878L24.7404 15.8041L22.5138 16.5118C23.36 17.5933 24.5345 18.1231 25.6589 17.7769C27.4178 17.2617 28.3855 14.8244 27.8261 12.3361C27.2666 9.84778 25.3861 8.25443 23.6306 8.76993C23.1826 8.92582 22.7756 9.18152 22.4403 9.51773C22.105 9.85395 21.8501 10.2619 21.6948 10.7108L16.6567 10.9439C16.8004 6.24393 19.0514 2.25637 22.5279 1.23612" fill="#CD605F"/>
<path fill-rule="evenodd" clip-rule="evenodd" d="M21.6875 0.415715C26.2428 -1.30923 31.5775 2.49126 33.6072 8.90021C35.6369 15.3092 33.5859 21.9004 29.0341 23.6254C24.4824 25.3503 19.1442 21.5533 17.1145 15.1444C17.0259 14.8569 16.9409 14.5659 16.8665 14.2784L21.3191 12.9742C22.8494 12.5254 24.4186 13.3248 25.081 14.9095L25.2581 15.3302L22.9804 16.2488C23.9616 17.3006 25.2404 17.7528 26.3916 17.3006C28.1946 16.6204 29.0023 14.0119 28.2017 11.4771C27.4012 8.94228 25.29 7.44522 23.4905 8.12538C23.0334 8.32419 22.6279 8.62315 22.3045 8.99969C21.9811 9.37624 21.7484 9.82054 21.6238 10.2991L16.3529 10.9582C16.1014 6.07088 18.124 1.748 21.6875 0.401699" fill="url(#paint2_linear_366_3234)"/>
<path fill-rule="evenodd" clip-rule="evenodd" d="M10.7136 7.33315C7.56809 5.67131 3.29615 8.05536 1.17434 12.6622C-0.947462 17.2691 -0.115035 22.3563 3.03402 24.0216C6.18307 25.687 10.4515 23.2994 12.5733 18.6925C12.6689 18.4822 12.7575 18.2753 12.8425 18.065L9.72532 16.7222C8.66265 16.2629 7.42994 16.7222 6.78879 17.8511L6.61877 18.1526L8.18443 19.0256C7.36618 19.7268 6.38851 19.9582 5.59151 19.5375C4.34818 18.8784 4.01877 16.8694 4.85474 15.0463C5.69071 13.2232 7.38389 12.2836 8.62722 12.9427C8.94246 13.1328 9.20952 13.3919 9.40785 13.7C9.60619 14.0081 9.73055 14.3571 9.77137 14.7202L13.5474 15.6493C14.2204 12.0312 13.1932 8.63736 10.7136 7.33664" fill="url(#paint3_linear_366_3234)"/>
<path fill-rule="evenodd" clip-rule="evenodd" d="M20.7805 8.69152C21.2883 7.74434 22.1193 7.00633 23.1255 6.60897C23.5482 6.44982 23.9947 6.36098 24.4467 6.34603C25.5977 6.31974 26.7183 6.71275 27.5958 7.45041L32.0307 6.64403C31.3065 5.19216 30.3183 3.88481 29.1154 2.78744C27.6985 1.5358 25.8813 0.582182 23.9437 0.648795C23.3542 0.670261 22.7724 0.788748 22.2222 0.999394C18.9811 2.22649 17.6492 5.98841 17.4543 9.29105L20.7805 8.69152Z" fill="url(#paint4_linear_366_3234)"/>
<path fill-rule="evenodd" clip-rule="evenodd" d="M30.8831 4.98008C30.141 3.9119 29.1823 3.00832 28.0681 2.32685C26.9539 1.64538 25.7086 1.20094 24.4114 1.02181C21.8433 0.604598 20.515 1.74054 19.222 3.54262C19.8986 2.32253 20.4052 1.43902 21.8504 0.811449C25.545 -0.811823 29.2679 2.15775 30.8831 4.98008Z" fill="#201F1F"/>
<path fill-rule="evenodd" clip-rule="evenodd" d="M10.9474 12.9918C10.5671 12.2883 9.94891 11.7397 9.20102 11.4422C8.88733 11.3229 8.55567 11.2566 8.21982 11.2458C7.36264 11.2272 6.52831 11.5203 5.87486 12.0697L2.57349 11.4667C3.11409 10.3895 3.85011 9.41973 4.74488 8.60582C5.80755 7.67674 7.15006 6.96503 8.59176 7.01411C9.03073 7.02993 9.46402 7.11759 9.87405 7.27355C12.2863 8.18511 13.2781 10.9864 13.4163 13.4441L10.9474 12.9918Z" fill="url(#paint5_linear_366_3234)"/>
<path fill-rule="evenodd" clip-rule="evenodd" d="M2.21936 11.6412C3.65751 9.478 5.48885 8.13522 8.09594 7.68294C10.4267 7.26573 11.6382 8.40167 12.8071 10.2002C12.1943 8.98366 11.7445 8.09665 10.4197 7.47258C7.06515 5.84931 3.68939 8.81888 2.21936 11.6412Z" fill="#201F1F"/>
<path fill-rule="evenodd" clip-rule="evenodd" d="M7.18912 32.3625C7.56814 32.9269 7.94718 33.5019 8.33328 34.0769C8.45018 33.5896 8.5458 33.2319 8.62373 32.9515C9.45261 33.267 10.3028 33.544 11.16 33.7859C11.415 34.4871 11.9712 35.2198 12.9665 36.1524C13.0232 35.3426 13.0693 34.7325 13.0693 34.2171C13.8556 34.3434 14.6491 34.4275 15.4355 34.4766V34.4976C15.6467 35.0509 15.92 35.5789 16.2502 36.0718C16.5904 36.5877 16.9569 37.0862 17.3483 37.5654L17.6139 37.8949L17.7025 38.0001C17.6352 37.2603 17.5715 36.6188 17.5183 36.0368C17.4652 35.4548 17.4085 34.9359 17.3483 34.4485C18.4837 34.3354 19.6065 34.1206 20.7028 33.8069C20.9012 34.2101 21.1668 34.6589 21.5104 35.2093C21.792 34.5796 22.0195 33.9275 22.1905 33.26C23.1716 32.8371 24.1189 32.3413 25.0243 31.777C25.1979 32.1837 25.4423 32.671 25.7824 33.3792C26.0475 32.8378 26.284 32.2831 26.4908 31.7174C26.6319 31.3518 26.719 30.9681 26.7494 30.5779C27.4579 30.045 28.1273 29.4735 28.7579 28.9056C29.3884 28.3376 29.9764 27.7661 30.529 27.2017C30.0791 27.4471 29.6363 27.6995 29.1935 27.9554C28.2336 28.5409 27.3055 29.0844 26.4058 29.5682C26.0516 29.1194 25.3431 28.7198 24.3265 28.1658C24.3832 28.7338 24.4328 29.179 24.4753 29.5682C24.5178 29.9574 24.5567 30.2378 24.6134 30.5008C23.7668 30.904 22.9379 31.2335 22.1339 31.5315C21.9718 31.1756 21.7673 30.8401 21.5246 30.5323C21.2518 30.1818 20.9153 29.775 20.508 29.2947C20.4123 29.9363 20.3344 30.4587 20.2919 30.9075C20.2456 31.296 20.2291 31.6875 20.2423 32.0785C19.1923 32.311 18.127 32.4692 17.0543 32.5518C16.948 31.9768 16.8099 31.3808 16.6434 30.7041C16.4769 30.0275 16.2714 29.2702 16.0199 28.3657C15.7649 29.2807 15.563 30.0555 15.4107 30.7427C15.2669 31.3459 15.1792 31.9608 15.1486 32.5798C14.3728 32.5413 13.597 32.4852 12.8178 32.3905C12.715 32.0715 12.5733 31.7314 12.3962 31.3387C12.2191 30.9461 11.9995 30.4798 11.7267 29.9363C11.4587 30.6579 11.2375 31.3956 11.0643 32.1451C10.2886 32.0013 9.50575 31.8401 8.69812 31.6543C8.53872 31.3037 8.20575 30.7322 7.63545 29.5051C7.4607 30.1011 7.28595 30.6854 7.1112 31.2581C5.56213 30.7981 4.0568 30.2045 2.61255 29.4841C3.25029 30.038 3.92872 30.5442 4.64225 30.9987C5.45605 31.5231 6.31273 31.9793 7.2033 32.3625" fill="url(#paint6_linear_366_3234)"/>
<defs>
<linearGradient id="paint0_linear_366_3234" x1="61.1407" y1="24.4644" x2="64.7553" y2="6.65718" gradientUnits="userSpaceOnUse">
<stop stop-color="#F65F6F"/>
<stop offset="1" stop-color="#F78164"/>
</linearGradient>
<linearGradient id="paint1_linear_366_3234" x1="14.9918" y1="26.7743" x2="17.5713" y2="22.1443" gradientUnits="userSpaceOnUse">
<stop stop-color="#F65F6F"/>
<stop offset="1" stop-color="#F78164"/>
</linearGradient>
<linearGradient id="paint2_linear_366_3234" x1="22.0894" y1="26.3884" x2="36.9455" y2="11.7806" gradientUnits="userSpaceOnUse">
<stop stop-color="#F65F6F"/>
<stop offset="1" stop-color="#F78164"/>
</linearGradient>
<linearGradient id="paint3_linear_366_3234" x1="4.3835" y1="26.2847" x2="15.3511" y2="15.1624" gradientUnits="userSpaceOnUse">
<stop stop-color="#F65F6F"/>
<stop offset="1" stop-color="#F78164"/>
</linearGradient>
<linearGradient id="paint4_linear_366_3234" x1="22.4101" y1="0.701402" x2="23.2778" y2="9.11761" gradientUnits="userSpaceOnUse">
<stop stop-color="white" stop-opacity="0.74"/>
<stop offset="0.744216" stop-color="white" stop-opacity="0"/>
</linearGradient>
<linearGradient id="paint5_linear_366_3234" x1="6.25988" y1="7.0533" x2="6.90559" y2="13.315" gradientUnits="userSpaceOnUse">
<stop stop-color="white" stop-opacity="0.74"/>
<stop offset="0.744216" stop-color="white" stop-opacity="0"/>
</linearGradient>
<linearGradient id="paint6_linear_366_3234" x1="11.5129" y1="39.0543" x2="15.1402" y2="26.7787" gradientUnits="userSpaceOnUse">
<stop stop-color="#F65F6F"/>
<stop offset="1" stop-color="#F78164"/>
</linearGradient>
</defs>
</svg>
