<svg width="25" height="20" viewBox="0 0 25 20" fill="none" xmlns="http://www.w3.org/2000/svg">
<g clip-path="url(#clip0_12_258)">
<path d="M4.42126 19.4053V18.1477C4.42126 17.6656 4.12929 17.3512 3.62878 17.3512C3.37852 17.3512 3.10741 17.4351 2.91971 17.7075C2.77373 17.477 2.56518 17.3512 2.25236 17.3512C2.04381 17.3512 1.83526 17.4141 1.66842 17.6447V17.3931H1.23047V19.4053H1.66842V18.2944C1.66842 17.9381 1.85611 17.7704 2.14808 17.7704C2.44005 17.7704 2.58603 17.9591 2.58603 18.2944V19.4053H3.02399V18.2944C3.02399 17.9381 3.23253 17.7704 3.50365 17.7704C3.79562 17.7704 3.9416 17.9591 3.9416 18.2944V19.4053H4.42126ZM10.9071 17.3931H10.1981V16.7853H9.7601V17.3931H9.36386V17.7914H9.7601V18.7136C9.7601 19.1747 9.9478 19.4472 10.4483 19.4472C10.636 19.4472 10.8446 19.3843 10.9905 19.3005L10.8654 18.9232C10.7403 19.007 10.5943 19.028 10.49 19.028C10.2815 19.028 10.1981 18.9022 10.1981 18.6926V17.7914H10.9071V17.3931ZM14.6193 17.3512C14.369 17.3512 14.2022 17.477 14.0979 17.6447V17.3931H13.66V19.4053H14.0979V18.2735C14.0979 17.9381 14.2439 17.7495 14.515 17.7495C14.5984 17.7495 14.7027 17.7704 14.7861 17.7914L14.9113 17.3722C14.8278 17.3512 14.7027 17.3512 14.6193 17.3512ZM9.00933 17.5608C8.80078 17.4141 8.50881 17.3512 8.19599 17.3512C7.69547 17.3512 7.36179 17.6027 7.36179 18.001C7.36179 18.3363 7.61205 18.525 8.05 18.5878L8.25855 18.6088C8.48796 18.6507 8.61309 18.7136 8.61309 18.8184C8.61309 18.9651 8.44625 19.0699 8.15428 19.0699C7.86231 19.0699 7.63291 18.9651 7.48692 18.8603L7.27838 19.1957C7.50778 19.3634 7.8206 19.4472 8.13342 19.4472C8.71736 19.4472 9.05104 19.1747 9.05104 18.7974C9.05104 18.4411 8.77992 18.2525 8.36283 18.1896L8.15428 18.1687C7.96659 18.1477 7.8206 18.1058 7.8206 17.98C7.8206 17.8333 7.96659 17.7495 8.19599 17.7495C8.44625 17.7495 8.6965 17.8543 8.82163 17.9171L9.00933 17.5608ZM20.6463 17.3512C20.3961 17.3512 20.2292 17.477 20.125 17.6447V17.3931H19.687V19.4053H20.125V18.2735C20.125 17.9381 20.2709 17.7495 20.5421 17.7495C20.6255 17.7495 20.7298 17.7704 20.8132 17.7914L20.9383 17.3722C20.8549 17.3512 20.7298 17.3512 20.6463 17.3512ZM15.0572 18.3992C15.0572 19.007 15.4743 19.4472 16.1208 19.4472C16.4128 19.4472 16.6213 19.3843 16.8299 19.2166L16.6213 18.8603C16.4545 18.9861 16.2877 19.049 16.1 19.049C15.7454 19.049 15.4952 18.7974 15.4952 18.3992C15.4952 18.0219 15.7454 17.7704 16.1 17.7495C16.2877 17.7495 16.4545 17.8123 16.6213 17.9381L16.8299 17.5818C16.6213 17.4141 16.4128 17.3512 16.1208 17.3512C15.4743 17.3512 15.0572 17.7914 15.0572 18.3992ZM19.1031 18.3992V17.3931H18.6651V17.6447C18.5191 17.456 18.3106 17.3512 18.0395 17.3512C17.4764 17.3512 17.0384 17.7914 17.0384 18.3992C17.0384 19.007 17.4764 19.4472 18.0395 19.4472C18.3314 19.4472 18.54 19.3424 18.6651 19.1538V19.4053H19.1031V18.3992ZM17.4973 18.3992C17.4973 18.0429 17.7267 17.7495 18.102 17.7495C18.4566 17.7495 18.7068 18.0219 18.7068 18.3992C18.7068 18.7555 18.4566 19.049 18.102 19.049C17.7267 19.028 17.4973 18.7555 17.4973 18.3992ZM12.2627 17.3512C11.6787 17.3512 11.2617 17.7704 11.2617 18.3992C11.2617 19.028 11.6787 19.4472 12.2835 19.4472C12.5755 19.4472 12.8675 19.3634 13.0969 19.1747L12.8883 18.8603C12.7215 18.9861 12.5129 19.0699 12.3044 19.0699C12.0333 19.0699 11.7622 18.9442 11.6996 18.5878H13.1803V18.4202C13.2012 17.7704 12.8258 17.3512 12.2627 17.3512ZM12.2627 17.7285C12.5338 17.7285 12.7215 17.8962 12.7632 18.2106H11.7205C11.7622 17.9381 11.9499 17.7285 12.2627 17.7285ZM23.1281 18.3992V16.5967H22.6901V17.6447C22.5441 17.456 22.3356 17.3512 22.0645 17.3512C21.5014 17.3512 21.0634 17.7914 21.0634 18.3992C21.0634 19.007 21.5014 19.4472 22.0645 19.4472C22.3564 19.4472 22.565 19.3424 22.6901 19.1538V19.4053H23.1281V18.3992ZM21.5222 18.3992C21.5222 18.0429 21.7516 17.7495 22.127 17.7495C22.4816 17.7495 22.7318 18.0219 22.7318 18.3992C22.7318 18.7555 22.4816 19.049 22.127 19.049C21.7516 19.028 21.5222 18.7555 21.5222 18.3992ZM6.88213 18.3992V17.3931H6.44418V17.6447C6.2982 17.456 6.08965 17.3512 5.81854 17.3512C5.25546 17.3512 4.8175 17.7914 4.8175 18.3992C4.8175 19.007 5.25546 19.4472 5.81854 19.4472C6.1105 19.4472 6.31905 19.3424 6.44418 19.1538V19.4053H6.88213V18.3992ZM5.25546 18.3992C5.25546 18.0429 5.48486 17.7495 5.86025 17.7495C6.21478 17.7495 6.46504 18.0219 6.46504 18.3992C6.46504 18.7555 6.21478 19.049 5.86025 19.049C5.48486 19.028 5.25546 18.7555 5.25546 18.3992Z" fill="black"/>
<path d="M15.4326 2.11426H8.86328V13.9774H15.4326V2.11426Z" fill="#FF5F00"/>
<path d="M9.28041 8.04548C9.28041 5.63511 10.4066 3.49723 12.1375 2.11389C10.8654 1.10783 9.25955 0.5 7.50775 0.5C3.35763 0.5 0 3.8745 0 8.04548C0 12.2164 3.35763 15.5909 7.50775 15.5909C9.25955 15.5909 10.8654 14.9831 12.1375 13.9771C10.4066 12.6147 9.28041 10.4558 9.28041 8.04548Z" fill="#EB001B"/>
<path d="M24.296 8.04548C24.296 12.2164 20.9383 15.5909 16.7882 15.5909C15.0364 15.5909 13.4306 14.9831 12.1584 13.9771C13.9103 12.5937 15.0156 10.4558 15.0156 8.04548C15.0156 5.63511 13.8894 3.49723 12.1584 2.11389C13.4306 1.10783 15.0364 0.5 16.7882 0.5C20.9383 0.5 24.296 3.89546 24.296 8.04548Z" fill="#F79E1B"/>
</g>
<defs>
<clipPath id="clip0_12_258">
<rect width="24.32" height="19" fill="white" transform="translate(0 0.5)"/>
</clipPath>
</defs>
</svg>
