<svg width="28" height="28" viewBox="0 0 28 28" fill="none" xmlns="http://www.w3.org/2000/svg">
<path d="M8.10594 14.5657L8.10625 14.5664L8.10936 14.5737L8.10967 14.5744L8.27924 14.9731L5.14484 18.5259C4.78224 18.9369 4.67428 19.5198 4.85274 20.0362C5.03202 20.555 5.48044 20.9432 6.03218 21.0102L9.07924 21.3802C12.9306 21.8479 16.8196 21.8479 20.671 21.3802L23.718 21.0102C24.5263 20.912 25.0576 20.1531 24.973 19.3667C24.888 18.5761 24.2011 17.9555 23.3863 18.0545L20.3393 18.4245C16.7083 18.8654 13.0419 18.8654 9.41092 18.4245L9.14502 18.3922L10.8654 16.4423L11.5258 16.5336C12.87 16.7194 14.2289 16.7559 15.5803 16.6423C18.7893 16.3726 21.7554 14.7506 23.8215 12.1496L24.5381 11.2476L24.5381 11.2476C24.5745 11.2018 24.6081 11.1538 24.6389 11.1041L24.6389 11.104L25.9744 8.94138C27.0986 7.12091 25.9046 4.60893 23.7353 4.60893H6.91565L5.5932 2.09009C5.34782 1.6227 4.87241 1.31592 4.33862 1.31592H2.47925C1.66148 1.31592 1.04956 2.01112 1.04956 2.80382C1.04956 3.59652 1.66148 4.29172 2.47925 4.29172H3.4905L4.78429 6.756L8.10594 14.5657ZM8.05737 22.0619C6.72615 22.0619 5.698 23.1994 5.698 24.5377C5.698 25.876 6.72615 27.0135 8.05737 27.0135C9.3886 27.0135 10.4168 25.876 10.4168 24.5377C10.4168 23.1994 9.3886 22.0619 8.05737 22.0619ZM21.6928 22.0619C20.3616 22.0619 19.3334 23.1994 19.3334 24.5377C19.3334 25.876 20.3616 27.0135 21.6928 27.0135C23.024 27.0135 24.0522 25.876 24.0522 24.5377C24.0522 23.1994 23.024 22.0619 21.6928 22.0619Z" stroke="url(#paint0_linear_366_3198)" stroke-linecap="round" stroke-linejoin="round"/>
<defs>
<linearGradient id="paint0_linear_366_3198" x1="-1.19701" y1="14.5683" x2="9.40579" y2="-2.63581" gradientUnits="userSpaceOnUse">
<stop stop-color="#F65F6F"/>
<stop offset="1" stop-color="#F78164"/>
</linearGradient>
</defs>
</svg>
