<svg width="112" height="170" viewBox="0 0 112 170" fill="none" xmlns="http://www.w3.org/2000/svg">
<g clip-path="url(#clip0_200_3381)">
<path d="M53.0043 124.499C53.0043 124.499 53.0043 136.324 52.0174 136.809C51.0306 137.294 16.9025 140.37 14.4552 141.826C12.0079 143.281 11.6763 150.435 11.6763 150.435L17.5577 152.211C17.5577 152.211 18.0472 147.195 18.8603 147.195C19.6735 147.195 53.1621 143.148 52.6727 143.79C52.1832 144.432 50.7148 154.802 50.8806 159.826C51.0464 164.85 50.2254 165.007 52.0174 165.492C53.8095 165.977 55.6174 163.872 55.7752 160.311C55.9331 156.75 58.8778 143.469 58.8778 143.469C58.8778 143.469 85.8298 150.591 87.6297 151.562C89.4297 152.532 89.2639 155.936 89.2639 155.936L94.4901 155.616C94.4901 155.616 95.9585 149.949 91.7112 147.195C87.464 144.44 58.7199 137.021 58.7199 137.021L60.8435 124.882L53.0043 124.499Z" fill="#5D5063"/>
<path d="M16.7917 150.458C16.1723 149.959 15.4591 149.586 14.6935 149.362C13.9279 149.137 13.125 149.066 12.3313 149.151C6.15775 149.801 3.3236 160.71 10.4682 162.072C18.1338 163.528 21.7811 154.567 16.7917 150.458Z" fill="#413147"/>
<path d="M57.0856 158.245C56.4663 157.743 55.7521 157.368 54.985 157.142C54.2178 156.916 53.4129 156.844 52.6173 156.93C46.4438 157.58 43.6096 168.49 50.7621 169.851C58.4277 171.299 62.0671 162.338 57.0856 158.245Z" fill="#413147"/>
<path d="M96.0611 153.698C95.4421 153.198 94.729 152.825 93.9633 152.601C93.1975 152.376 92.3945 152.305 91.6007 152.391C85.4272 153.041 82.593 163.95 89.7455 165.304C97.4111 166.768 101.05 157.799 96.0611 153.698Z" fill="#413147"/>
<path d="M46.5937 111.711C46.5937 111.711 44.7937 122.558 49.862 125.798C54.9303 129.038 63.0854 128.388 65.0511 126.447C67.0169 124.506 68.3116 111.225 68.3116 111.225C68.3116 111.225 47.8963 110.091 46.5937 111.711Z" fill="#413147"/>
<path d="M43.9808 115.757C43.9808 115.757 50.5096 116.892 67.4986 116.078C84.4877 115.264 91.8375 112.846 95.1296 109.926C96.8742 108.361 97.0874 103.125 97.0874 103.125C97.0874 103.125 42.694 104.745 41.5492 107.821C40.4045 110.897 43.9808 115.757 43.9808 115.757Z" fill="#413147"/>
<path d="M29.0046 72.9399C29.0046 72.9399 27.0309 80.8991 25.3652 90.7757C23.6994 100.652 23.731 105.027 23.731 105.027L28.7835 104.628C28.7835 104.628 28.5309 101.56 29.8651 91.707C30.6365 85.8802 31.8719 80.123 33.5597 74.4895L29.0046 72.9399Z" fill="#413147"/>
<path d="M58.7829 73.7929C58.3092 73.4486 43.7122 70.866 34.7677 69.6685C25.8232 68.4711 16.4997 68.7059 15.2445 71.2338C13.9892 73.7616 17.4944 75.8669 22.9022 75.6164C28.3099 75.366 57.5672 79.0678 60.2118 78.5356C62.8565 78.0034 58.7829 73.7929 58.7829 73.7929Z" fill="#413147"/>
<path d="M73.1037 31.5082C70.6017 33.1293 68.6037 35.4081 67.3327 38.09C65.2644 42.5117 67.1196 48.0214 67.1196 48.0214C67.1196 48.0214 62.4381 52.1223 61.1276 48.0214C59.8171 43.9205 58.9487 39.17 59.825 36.1491C60.7013 33.1282 66.788 28.3777 67.767 28.2681C68.7459 28.1586 73.1037 31.5082 73.1037 31.5082Z" fill="url(#paint0_linear_200_3381)"/>
<path d="M98.4768 30.0994L101.421 35.1708C101.421 35.1708 99.0531 36.1491 97.0637 40.25C95.0743 44.3509 95.9742 50.7214 95.9742 50.7214C95.9742 50.7214 91.0717 47.9118 89.8718 45.0004C88.6718 42.0891 89.3349 38.0899 89.4376 37.3308C89.5402 36.5717 98.4768 30.0994 98.4768 30.0994Z" fill="url(#paint1_linear_200_3381)"/>
<path d="M108.763 37.143C107.184 34.5134 105.361 32.0638 104.413 30.4282C102.456 27.0316 102.124 22.3359 102.124 22.3359C102.124 22.3359 102.614 16.6619 97.7189 14.7132C92.8243 12.7645 73.2458 15.0419 70.7669 17.7889C68.288 20.5359 66.8196 25.4038 64.7196 27.1803C62.6197 28.9568 54.9225 34.4743 52.4752 38.5204C50.0279 42.5665 51.1647 45.9631 51.6857 49.3753C52.2068 52.7875 48.6542 59.1972 47.1148 61.3494C44.8254 64.5346 42.3781 68.1581 41.8886 74.6538C41.3991 81.1496 43.5228 84.8279 44.3359 86.3148C44.849 87.207 45.6622 88.3653 46.2148 89.1166C46.5464 89.5705 46.7832 89.8992 46.7832 89.8992L45.8043 89.727C40.6965 88.7879 17.1076 84.7418 9.55251 87.4809C1.05797 90.5488 -0.899868 95.7375 0.410628 100.59C1.72112 105.442 9.38672 107.712 13.4761 108.854C17.5655 109.997 45.4885 115.006 49.7358 115.819C51.9599 116.269 54.2446 116.343 56.4935 116.039C57.523 115.876 58.5389 115.638 59.5329 115.326C62.146 114.544 73.5852 110.31 79.4588 110.31C85.3323 110.31 93.1795 109.66 97.4268 105.614C101.674 101.568 98.8951 86.5026 99.2267 81.0008C99.5583 75.4991 100.206 67.6964 104.619 61.5685C109.032 55.4406 111.147 50.3927 111.637 45.5405C111.85 42.9813 110.445 39.9526 108.763 37.143ZM62.3276 37.7691C63.117 34.9595 66.1406 30.209 68.8564 30.3108C71.5721 30.4125 74.6273 36.1491 74.6273 36.1491C75.0781 36.8179 75.291 37.6167 75.2324 38.419C75.1737 39.2213 74.8469 39.9812 74.3036 40.5787C72.8905 42.0891 65.4854 46.6127 63.6302 45.8614C61.775 45.11 61.5618 40.5787 62.3276 37.7691ZM100.656 40.5787C100 43.8031 96.8426 48.671 95.7531 48.7727C94.6637 48.8744 90.8585 43.7092 91.6164 40.4691C92.3743 37.2291 97.2768 32.8073 97.2768 32.8073C97.2768 32.8073 101.311 37.3387 100.656 40.5787Z" fill="#5D5063"/>
<path d="M100.545 17.3741C100.545 17.3741 100.766 14.6741 97.4977 13.3749C94.2294 12.0758 80.5087 10.894 76.2614 11.8645C74.4141 12.2392 72.7021 13.0984 71.3038 14.3524C69.9055 15.6065 68.8722 17.2094 68.3116 18.9941C67.2301 22.3359 66.1406 28.2759 72.7799 30.1073C81.0929 32.4082 95.7373 36.7517 99.4556 25.6855C100.319 23.0022 100.688 20.1869 100.545 17.3741Z" fill="url(#paint2_linear_200_3381)"/>
<path d="M56.3358 68.8546C56.3358 68.8546 68.1776 69.7155 73.6485 70.2555C77.0175 70.5967 80.3629 71.1377 83.6667 71.8755C81.6856 76.2605 80.6119 80.9947 80.5089 85.7983C80.5089 91.6444 82.7983 98.4297 82.7983 98.4297L52.7437 91.3862C52.7437 91.3862 49.8149 85.0078 50.6754 78.966C51.1697 74.996 53.199 71.371 56.3358 68.8546Z" fill="url(#paint3_linear_200_3381)"/>
<path d="M111.842 46.6987C111.345 51.5588 109.063 55.8475 104.658 61.9989C100.253 68.1503 99.511 75.4364 99.1873 80.9461C98.8636 86.4557 101.635 101.513 97.3874 105.559C93.1401 109.605 85.3008 110.255 79.4193 110.255C73.5379 110.255 62.1066 114.466 59.4935 115.272C58.4995 115.583 57.4835 115.821 56.4541 115.984C55.6646 113.933 56.3041 112.126 58.1909 109.12C60.1488 105.99 64.6092 103.282 74.7695 101.239C84.9298 99.1967 91.7585 101.779 91.7585 101.779C91.6502 96.053 91.832 90.3248 92.3033 84.6165C92.9772 75.7195 95.2637 67.0159 99.0531 58.9232C103.3 50.064 108.637 46.0805 109.316 42.3004C109.498 40.5656 109.329 38.8122 108.819 37.143C110.445 39.9526 112.213 43.537 111.842 46.6987Z" fill="url(#paint4_linear_200_3381)"/>
<path d="M94.2528 31.6803C94.1624 31.4636 94.0859 31.2414 94.0239 31.0151C93.789 30.0756 93.641 29.1168 93.5818 28.1507C93.3581 26.0924 93.3714 24.0156 93.6213 21.9602C93.8241 20.1436 94.4867 18.4072 95.5475 16.9124C96.453 15.7281 97.6757 14.8197 99.0764 14.2906L98.4527 13.8445H98.4132C95.5081 15.081 93.5107 18.595 92.8871 21.4359C92.4374 23.7109 92.3178 26.0378 92.5318 28.3464C92.5546 29.6387 92.7592 30.9215 93.1397 32.1577L94.2528 31.6803Z" fill="#413147"/>
<path d="M68.3194 45.0787C64.3776 47.6626 61.2221 51.2643 59.1933 55.4953C58.1422 57.5638 57.3724 59.7612 56.9039 62.0302C56.4855 64.1511 55.9407 66.7259 56.3907 68.8389C56.4105 68.9122 56.4541 68.9769 56.5148 69.023C56.5754 69.0691 56.6498 69.0941 56.7262 69.0941C56.8027 69.0941 56.877 69.0691 56.9377 69.023C56.9984 68.9769 57.042 68.9122 57.0618 68.8389C57.2512 67.8215 57.2118 66.7728 57.3223 65.7085C57.4392 64.5514 57.6477 63.4053 57.946 62.2806C59.5785 55.6821 63.3674 49.8044 68.722 45.5639C69.0062 45.3213 68.6352 44.8517 68.3194 45.0474V45.0787Z" fill="#413147"/>
<path d="M93.4164 48.0683C91.6006 48.8509 90.0927 50.6353 88.9007 52.1536C87.5801 53.9338 86.5172 55.8884 85.7428 57.9606C84.8546 60.2583 84.1189 62.6112 83.5403 65.0041C83.0113 67.0937 82.5061 69.6998 83.3903 71.7425C83.5166 72.0398 83.9666 71.8677 83.9745 71.5859C83.9308 70.4121 83.9862 69.2367 84.1403 68.072C84.3473 66.969 84.6108 65.8771 84.9297 64.8006C85.5455 62.6798 86.2323 60.5745 87.0454 58.5397C87.8021 56.6416 88.7462 54.8223 89.8638 53.1084C90.4067 52.2719 91.025 51.4861 91.7111 50.7605C92.4058 50.0405 93.2032 49.4301 93.89 48.71C93.9456 48.646 93.9772 48.5649 93.9796 48.4805C93.9819 48.3961 93.9549 48.3134 93.903 48.2464C93.8512 48.1794 93.7776 48.1321 93.6948 48.1125C93.6119 48.0929 93.5247 48.1021 93.4479 48.1387L93.4164 48.0683Z" fill="#413147"/>
<path d="M53.9908 99.4784C56.5802 98.6567 59.1696 97.9132 61.83 97.3888C63.2037 97.0992 64.7274 96.841 66.0852 96.5044C67.5793 96.1282 69.0953 95.8433 70.6246 95.6514C70.2708 95.7532 69.9034 95.8007 69.5351 95.7923C68.5088 95.1897 66.9378 95.534 65.8247 95.6827C64.4951 95.8696 63.1772 96.1309 61.8774 96.4653C59.1696 97.154 56.5328 98.2184 53.896 99.1497C53.6908 99.2201 53.7776 99.5488 53.9908 99.4784Z" fill="#413147"/>
<path d="M55.1434 91.8636L53.8644 91.3157C53.5171 91.167 53.1697 90.987 52.8224 90.8227H51.6066C49.9102 90.824 48.2152 90.9233 46.5304 91.1201C43.2325 91.5452 39.9635 92.1672 36.7412 92.9827C36.4175 93.061 36.5596 93.554 36.8833 93.4836C40.1147 92.71 43.3885 92.122 46.6883 91.7227C48.2611 91.5536 49.8437 91.4909 51.425 91.5349C52.2145 91.5349 53.0039 91.6366 53.7934 91.7227C54.2841 91.8084 54.7799 91.8633 55.2776 91.887L55.1434 91.8636Z" fill="#413147"/>
<path d="M92.2794 101.498C92.2833 101.469 92.2833 101.44 92.2794 101.411C92.2858 101.38 92.2858 101.349 92.2794 101.318C92.2557 101.212 92.2186 101.109 92.1689 101.012C91.9272 100.592 91.5789 100.241 91.1584 99.9949C90.3689 99.6897 89.5795 99.4627 88.79 99.2123C87.2901 98.7271 85.7743 98.294 84.2428 97.9131C81.1718 97.1305 78.0613 96.5436 74.9509 95.9488C68.5721 94.7279 62.2801 93.2174 56.0039 91.5348C52.7277 90.6661 49.4594 89.8678 46.1673 89.0774C46.4989 89.5313 46.7358 89.86 46.7358 89.86L45.7568 89.6878C48.4489 90.7131 51.3462 91.1592 54.1172 92.0357C57.275 92.9983 60.4328 93.867 63.6301 94.6653C69.8115 96.2305 76.0719 97.4358 82.2691 98.8992C83.9823 99.314 85.6875 99.7523 87.369 100.269C88.9479 100.746 90.5268 101.591 92.1057 101.795C92.1531 101.759 92.1928 101.715 92.2226 101.663C92.2524 101.612 92.2717 101.556 92.2794 101.498Z" fill="#413147"/>
<path d="M69.0772 28.7846C71.5706 30.3709 74.3338 31.4953 77.2323 32.1029C80.2418 32.8475 83.3027 33.3707 86.39 33.6681C89.0787 34.0451 91.8182 33.547 94.197 32.2487C96.5757 30.9504 98.4653 28.9219 99.5818 26.4681C100.266 24.873 100.728 23.1933 100.955 21.475C101.275 19.8346 101.259 18.1472 100.908 16.5132C100.884 16.4371 100.833 16.372 100.765 16.3296C100.697 16.2871 100.616 16.2699 100.536 16.2812C100.457 16.2925 100.384 16.3315 100.33 16.3912C100.277 16.4508 100.247 16.5273 100.245 16.6071C100.174 17.5149 100.316 18.4462 100.308 19.3619C100.299 20.3591 100.207 21.3538 100.032 22.3358C99.7015 24.0535 99.0595 25.6976 98.1371 27.1881C97.3507 28.5618 96.2815 29.7561 94.9989 30.6932C93.7162 31.6303 92.249 32.2893 90.6925 32.6272C87.0058 33.3081 83.0743 32.2673 79.4507 31.6412C75.8953 31.0938 72.4386 30.0394 69.1878 28.5107C69.1511 28.4899 69.1077 28.4845 69.067 28.4955C69.0262 28.5065 68.9916 28.5331 68.9707 28.5694C68.9497 28.6057 68.9442 28.6488 68.9553 28.6892C68.9664 28.7295 68.9932 28.7638 69.0299 28.7846H69.0772Z" fill="#413147"/>
<path d="M104.737 79.8112C104.248 79.4904 89.5479 77.5417 80.5639 76.7356C71.5799 75.9295 62.2722 76.5712 61.1275 79.1617C59.9828 81.7521 63.5748 83.693 68.9668 83.2078C74.3588 82.7226 103.758 85.1565 106.371 84.5069C108.984 83.8574 104.737 79.8112 104.737 79.8112Z" fill="#413147"/>
<path d="M82.3637 80.946C82.3637 80.946 79.7506 88.7174 77.2954 98.4297C74.8402 108.142 74.5244 112.517 74.5244 112.517H79.5848C79.5848 112.517 79.5848 109.441 81.7084 99.7288C82.9469 93.992 84.6389 88.3606 86.7688 82.8869L82.3637 80.946Z" fill="#413147"/>
<path d="M7.76824 109.12C6.59128 108.229 5.65671 107.061 5.0489 105.722C4.44109 104.383 4.17917 102.915 4.28674 101.451C4.72095 96.4888 9.07874 92.3879 17.2417 90.7679C25.4047 89.1479 33.3308 91.8009 38.2649 93.0375C42.6465 94.1858 46.9391 95.6452 51.1093 97.4045C52.2388 97.835 53.2736 98.4781 54.1566 99.2984C54.1566 99.2984 49.041 98.6488 45.9937 102.859C42.9464 107.07 43.4595 110.639 44.1384 112.462C44.3483 113.125 44.7182 113.728 45.2162 114.218C45.7143 114.707 46.3253 115.069 46.9963 115.272C46.9963 115.272 45.7726 116.727 42.2595 116.242C32.565 114.904 10.8076 111.46 7.76824 109.12Z" fill="url(#paint5_linear_200_3381)"/>
<path d="M9.29181 98.821C9.49461 98.3546 9.76018 97.9176 10.0813 97.5219C10.4286 97.0992 10.8707 96.7392 11.147 96.2853C11.1653 96.2532 11.1736 96.2164 11.171 96.1796C11.1683 96.1428 11.1547 96.1076 11.132 96.0784C11.1093 96.0491 11.0783 96.0272 11.0431 96.0153C11.0079 96.0034 10.9699 96.002 10.9339 96.0114C10.3451 96.2035 9.83895 96.5867 9.49707 97.0992C9.13152 97.5745 8.84132 98.1023 8.63655 98.6645C8.61437 98.7485 8.62582 98.8378 8.66849 98.9136C8.71116 98.9894 8.78174 99.046 8.86549 99.0714C8.95119 99.0911 9.04123 99.0778 9.11743 99.0342C9.19362 98.9907 9.25028 98.92 9.276 98.8366L9.29181 98.821Z" fill="#413147"/>
<path d="M11.7865 99.0949L11.8575 98.9932L11.9049 98.9306C11.9049 98.9775 11.9443 98.8836 11.9049 98.9306L12.0786 98.7271C12.1891 98.6019 12.3075 98.4767 12.4338 98.3593L12.8206 98.0227C12.8838 97.9679 12.9391 97.9053 12.9943 97.8505C13.0665 97.7719 13.1252 97.682 13.168 97.5845C13.1865 97.5484 13.1956 97.5084 13.1945 97.468C13.1934 97.4276 13.1821 97.3882 13.1617 97.3532C13.1413 97.3182 13.1125 97.2888 13.0777 97.2677C13.043 97.2466 13.0034 97.2344 12.9627 97.2323C12.8382 97.2323 12.7149 97.2562 12.5996 97.3027C12.5165 97.3394 12.4372 97.3839 12.3627 97.4358C12.1975 97.5539 12.0442 97.6875 11.9049 97.8349C11.6253 98.1187 11.3765 98.4309 11.1628 98.7662C11.1133 98.8494 11.0988 98.9486 11.1224 99.0423C11.146 99.136 11.2059 99.2168 11.2891 99.2671C11.3748 99.3116 11.4743 99.3226 11.5678 99.298C11.6614 99.2734 11.7422 99.2149 11.7943 99.1341L11.7865 99.0949Z" fill="#413147"/>
<path d="M39.3622 105.27L39.3148 105.082C39.3192 105.056 39.3192 105.03 39.3148 105.004C39.3148 104.918 39.3148 105.004 39.3148 105.004C39.3069 104.886 39.3069 104.769 39.3148 104.651C39.3109 104.586 39.3109 104.521 39.3148 104.456C39.3148 104.385 39.3148 104.518 39.3148 104.456C39.3148 104.393 39.3148 104.393 39.3148 104.362C39.3369 104.239 39.3713 104.118 39.4174 104.002V103.924C39.4174 103.924 39.4569 103.845 39.4174 103.924C39.4145 103.9 39.4145 103.877 39.4174 103.853C39.4648 103.744 39.4727 103.712 39.4569 103.767C39.4411 103.822 39.4569 103.767 39.4569 103.767C39.5086 103.654 39.5665 103.545 39.6306 103.438C39.6858 103.337 39.749 103.235 39.8122 103.141C39.886 103.03 39.9495 102.912 40.0016 102.789C40.0727 102.601 39.8595 102.484 39.7174 102.507C39.1096 102.593 38.6832 103.29 38.5017 103.798C38.3243 104.372 38.3243 104.986 38.5017 105.559C38.5347 105.665 38.6067 105.754 38.7033 105.809C38.8 105.864 38.914 105.881 39.0227 105.857C39.13 105.826 39.2206 105.754 39.2753 105.658C39.3299 105.561 39.3441 105.447 39.3148 105.34L39.3622 105.27Z" fill="#413147"/>
<path d="M41.8568 105.912C41.9237 105.773 42.0002 105.64 42.0858 105.512C42.1647 105.379 42.2673 105.254 42.3384 105.113C42.4094 104.972 42.5042 104.863 42.5831 104.738C42.619 104.673 42.6586 104.61 42.7016 104.55C42.7421 104.483 42.7765 104.412 42.8042 104.338C42.8218 104.312 42.8312 104.28 42.8312 104.248C42.8312 104.216 42.8218 104.185 42.8042 104.158C42.7838 104.134 42.7565 104.115 42.7256 104.105C42.6947 104.096 42.6617 104.095 42.6305 104.104C42.5508 104.13 42.4741 104.164 42.4016 104.205C42.3328 104.245 42.2668 104.29 42.2042 104.338C42.1251 104.394 42.0511 104.457 41.9832 104.526L41.8095 104.691C41.6796 104.815 41.5679 104.958 41.4779 105.113C41.3819 105.248 41.2949 105.39 41.2174 105.536C41.1835 105.578 41.1592 105.627 41.146 105.679C41.1329 105.731 41.1312 105.786 41.1412 105.839C41.1511 105.892 41.1724 105.942 41.2037 105.986C41.2349 106.03 41.2754 106.067 41.3223 106.094C41.3692 106.121 41.4214 106.138 41.4755 106.144C41.5295 106.149 41.5841 106.143 41.6356 106.126C41.687 106.108 41.7341 106.08 41.7737 106.043C41.8132 106.006 41.8443 105.961 41.8647 105.912H41.8568Z" fill="#413147"/>
<path d="M68.9907 69.7077C68.9907 69.6216 69.0539 69.5433 69.0775 69.4572C69.1107 69.3423 69.1319 69.2243 69.1407 69.1051C69.1525 68.9357 69.1525 68.7657 69.1407 68.5964C69.1525 68.4296 69.1525 68.2622 69.1407 68.0955C69.1402 67.9427 69.1107 67.7914 69.0539 67.6494C69.0022 67.5671 68.9413 67.491 68.8723 67.4224C68.8072 67.3584 68.7193 67.3224 68.6276 67.3224C68.5359 67.3224 68.4479 67.3584 68.3828 67.4224C68.3115 67.489 68.2504 67.5654 68.2013 67.6494C68.1419 67.7909 68.1098 67.9422 68.1065 68.0955C68.0947 68.2622 68.0947 68.4296 68.1065 68.5964C68.0948 68.7657 68.0948 68.9357 68.1065 69.1051C68.1127 69.224 68.1312 69.342 68.1618 69.4572C68.1618 69.5433 68.2249 69.6216 68.2486 69.7077C68.2736 69.7804 68.3209 69.8436 68.3839 69.8883C68.4469 69.9331 68.5224 69.9571 68.5999 69.9571C68.6774 69.9571 68.753 69.9331 68.816 69.8883C68.879 69.8436 68.9263 69.7804 68.9513 69.7077H68.9907Z" fill="#413147"/>
<path d="M71.288 68.7998C71.288 68.7529 71.288 68.7529 71.288 68.7998V68.7215C71.2913 68.6851 71.2913 68.6484 71.288 68.612C71.288 68.5181 71.3275 68.432 71.3433 68.3459C71.3812 68.1654 71.4313 67.9876 71.4933 67.8137C71.5485 67.6416 71.5959 67.4772 71.6432 67.2972C71.6906 67.1172 71.6906 67.1328 71.7064 67.0468C71.7222 66.9607 71.7064 66.8589 71.7538 66.765C71.7667 66.7182 71.7636 66.6685 71.7449 66.6236C71.7263 66.5787 71.6931 66.5413 71.6507 66.5171C71.6082 66.4929 71.5589 66.4834 71.5104 66.49C71.4619 66.4967 71.417 66.519 71.3827 66.5537C71.2399 66.6895 71.1176 66.845 71.0196 67.0154C70.9102 67.2032 70.8228 67.4028 70.759 67.6102C70.6492 68.0043 70.5778 68.4079 70.5459 68.8155C70.5459 68.9089 70.5833 68.9984 70.65 69.0645C70.7166 69.1305 70.8069 69.1676 70.9012 69.1676C70.9948 69.1656 71.0839 69.1279 71.1501 69.0623C71.2163 68.9967 71.2544 68.9083 71.2564 68.8155L71.288 68.7998Z" fill="#413147"/>
<path d="M97.8766 25.0985C98.1524 25.075 98.4297 25.075 98.7055 25.0985H98.7923H98.8397H99.0371C99.1046 25.1179 99.1731 25.1335 99.2423 25.1455C99.3463 25.1689 99.4542 25.1689 99.5581 25.1455C99.6081 25.1328 99.6537 25.1073 99.6905 25.0715C99.7272 25.0356 99.7538 24.9908 99.7674 24.9415C99.781 24.8922 99.7813 24.8402 99.7681 24.7908C99.7549 24.7414 99.7288 24.6964 99.6923 24.6602C99.6189 24.587 99.5299 24.5309 99.4318 24.4959L99.2187 24.449C99.0608 24.449 98.895 24.3942 98.7371 24.3785C98.4509 24.3511 98.1627 24.3511 97.8766 24.3785C97.7865 24.3785 97.7002 24.414 97.6365 24.4771C97.5729 24.5402 97.5371 24.6258 97.5371 24.715C97.5371 24.8043 97.5729 24.8899 97.6365 24.953C97.7002 25.0161 97.7865 25.0516 97.8766 25.0516V25.0985Z" fill="#413147"/>
<path d="M97.9557 21.7646L98.6583 22.3437L98.9977 22.6176C99.0728 22.6749 99.1551 22.7222 99.2425 22.7585C99.2988 22.7897 99.3603 22.8109 99.424 22.8211C99.4631 22.8289 99.5034 22.8289 99.5425 22.8211C99.5956 22.8212 99.6466 22.8008 99.6849 22.7643C99.7231 22.7278 99.7457 22.6781 99.7477 22.6255C99.7495 22.5308 99.722 22.438 99.6688 22.3594C99.618 22.2831 99.5626 22.2099 99.503 22.1402C99.3925 22.0385 99.2662 21.9524 99.1477 21.8585L98.4372 21.295C98.3719 21.237 98.288 21.2037 98.2004 21.2011C98.1335 21.2008 98.068 21.2201 98.0121 21.2566C97.9563 21.293 97.9125 21.345 97.8864 21.4061C97.8602 21.4671 97.8529 21.5344 97.8652 21.5996C97.8775 21.6648 97.909 21.7249 97.9557 21.7724V21.7646Z" fill="#413147"/>
<path d="M102.59 5.87747C103.253 4.99311 103.916 4.11658 104.555 3.21658C104.871 2.77831 105.195 2.34787 105.495 1.89395C105.832 1.45094 106.077 0.945304 106.213 0.406984C106.229 0.345856 106.227 0.281348 106.206 0.221564C106.186 0.16178 106.148 0.109381 106.097 0.0709307C106.047 0.0324801 105.986 0.00969071 105.922 0.00542998C105.858 0.00116926 105.795 0.0156217 105.74 0.0469754C105.287 0.357026 104.897 0.747019 104.587 1.19742C104.24 1.65134 103.924 2.13656 103.6 2.5983C102.961 3.51396 102.345 4.44528 101.729 5.37659C101.663 5.49093 101.645 5.62655 101.679 5.75401C101.713 5.88148 101.796 5.99051 101.911 6.05747C102.026 6.11873 102.16 6.13422 102.286 6.10078C102.412 6.06734 102.521 5.98747 102.59 5.87747Z" fill="#5D5063"/>
<path d="M106.687 10.448L109.324 9.39925C110.216 9.07296 111.073 8.65871 111.881 8.16272C111.943 8.12088 111.987 8.0595 112.008 7.98888C112.029 7.91825 112.025 7.84266 111.996 7.77478C111.967 7.70691 111.916 7.65086 111.851 7.61605C111.785 7.58124 111.71 7.56977 111.637 7.58357C110.731 7.78163 109.847 8.07006 109 8.44445L106.418 9.49316C106.294 9.53297 106.189 9.61791 106.124 9.73104C106.06 9.84417 106.041 9.97719 106.071 10.1036C106.108 10.2294 106.193 10.336 106.308 10.4003C106.423 10.4647 106.559 10.4818 106.687 10.448Z" fill="#5D5063"/>
</g>
<defs>
<linearGradient id="paint0_linear_200_3381" x1="63.8172" y1="51.9507" x2="76.9164" y2="41.1172" gradientUnits="userSpaceOnUse">
<stop stop-color="#F65F6F"/>
<stop offset="1" stop-color="#F78164"/>
</linearGradient>
<linearGradient id="paint1_linear_200_3381" x1="93.071" y1="52.7346" x2="105.425" y2="43.1209" gradientUnits="userSpaceOnUse">
<stop stop-color="#F65F6F"/>
<stop offset="1" stop-color="#F78164"/>
</linearGradient>
<linearGradient id="paint2_linear_200_3381" x1="78.0446" y1="34.9984" x2="88.5525" y2="13.7395" gradientUnits="userSpaceOnUse">
<stop stop-color="#F65F6F"/>
<stop offset="1" stop-color="#F78164"/>
</linearGradient>
<linearGradient id="paint3_linear_200_3381" x1="61.0858" y1="101.317" x2="78.0985" y2="76.3553" gradientUnits="userSpaceOnUse">
<stop stop-color="#F65F6F"/>
<stop offset="1" stop-color="#F78164"/>
</linearGradient>
<linearGradient id="paint4_linear_200_3381" x1="73.9033" y1="123.681" x2="122.486" y2="78.6955" gradientUnits="userSpaceOnUse">
<stop stop-color="#F65F6F"/>
<stop offset="1" stop-color="#F78164"/>
</linearGradient>
<linearGradient id="paint5_linear_200_3381" x1="20.1702" y1="118.887" x2="31.2743" y2="91.0822" gradientUnits="userSpaceOnUse">
<stop stop-color="#F65F6F"/>
<stop offset="1" stop-color="#F78164"/>
</linearGradient>
<clipPath id="clip0_200_3381">
<rect width="112" height="170" fill="white"/>
</clipPath>
</defs>
</svg>
