<svg width="25" height="35" viewBox="0 0 25 35" fill="none" xmlns="http://www.w3.org/2000/svg">
<path fill-rule="evenodd" clip-rule="evenodd" d="M8.6682 3.79401C10.9151 3.62466 13.172 3.63577 15.4172 3.82724L16.7703 3.94263C17.7924 4.02979 18.6219 4.80547 18.7773 5.81943L18.8627 6.37637C19.1524 8.26629 19.1253 10.1913 18.7826 12.0723C18.6135 13.0004 17.805 13.6749 16.8616 13.6749H9.38122C9.20912 13.6749 9.0397 13.7176 8.88811 13.799L5.62912 15.5504C5.43542 15.6545 5.20128 15.6492 5.01254 15.5364C4.82381 15.4235 4.70825 15.2198 4.70825 14.9999V7.90217C4.70825 5.75333 6.36442 3.96764 8.50718 3.80614L8.6682 3.79401ZM8.66659 7.91658C8.09129 7.91658 7.62492 8.38295 7.62492 8.95825C7.62492 9.53355 8.09129 9.99992 8.66659 9.99992C9.24188 9.99992 9.70825 9.53355 9.70825 8.95825C9.70825 8.38295 9.24188 7.91658 8.66659 7.91658ZM11.9999 7.91658C11.4246 7.91658 10.9583 8.38295 10.9583 8.95825C10.9583 9.53355 11.4246 9.99992 11.9999 9.99992C12.5752 9.99992 13.0416 9.53355 13.0416 8.95825C13.0416 8.38295 12.5752 7.91658 11.9999 7.91658ZM14.2916 8.95825C14.2916 8.38295 14.758 7.91658 15.3333 7.91658C15.9085 7.91658 16.3749 8.38295 16.3749 8.95825C16.3749 9.53355 15.9085 9.99992 15.3333 9.99992C14.758 9.99992 14.2916 9.53355 14.2916 8.95825Z" fill="#BCBBBB"/>
<path d="M4.312 31.099C3.54933 31.099 2.89667 30.9377 2.354 30.615C1.81133 30.2923 1.39333 29.834 1.1 29.24C0.814 28.646 0.671 27.9383 0.671 27.117C0.671 26.501 0.751667 25.951 0.913 25.467C1.08167 24.9757 1.32 24.5613 1.628 24.224C1.94333 23.8793 2.32833 23.6153 2.783 23.432C3.23767 23.2413 3.74733 23.146 4.312 23.146C4.76667 23.146 5.19933 23.212 5.61 23.344C6.02067 23.4687 6.37633 23.6557 6.677 23.905C6.77233 23.9783 6.83467 24.0627 6.864 24.158C6.90067 24.246 6.90433 24.334 6.875 24.422C6.853 24.5027 6.809 24.5723 6.743 24.631C6.68433 24.6823 6.611 24.708 6.523 24.708C6.435 24.708 6.336 24.6713 6.226 24.598C5.962 24.3853 5.67233 24.2277 5.357 24.125C5.04167 24.0223 4.70067 23.971 4.334 23.971C3.75467 23.971 3.26333 24.0957 2.86 24.345C2.45667 24.587 2.15233 24.9427 1.947 25.412C1.74167 25.8813 1.639 26.4497 1.639 27.117C1.639 27.7843 1.74167 28.3563 1.947 28.833C2.15233 29.3023 2.45667 29.6617 2.86 29.911C3.26333 30.153 3.75467 30.274 4.334 30.274C4.69333 30.274 5.03433 30.2227 5.357 30.12C5.67967 30.01 5.97667 29.8487 6.248 29.636C6.358 29.5627 6.457 29.5297 6.545 29.537C6.633 29.537 6.70633 29.5627 6.765 29.614C6.82367 29.6653 6.864 29.7313 6.886 29.812C6.91533 29.8927 6.91533 29.977 6.886 30.065C6.864 30.153 6.809 30.23 6.721 30.296C6.413 30.56 6.05 30.7617 5.632 30.901C5.22133 31.033 4.78133 31.099 4.312 31.099ZM8.89737 31.077C8.7507 31.077 8.6407 31.0367 8.56737 30.956C8.49403 30.8753 8.45737 30.7617 8.45737 30.615V23.619C8.45737 23.4723 8.49403 23.3623 8.56737 23.289C8.6407 23.2083 8.7507 23.168 8.89737 23.168C9.0367 23.168 9.1467 23.2083 9.22737 23.289C9.30803 23.3623 9.34837 23.4723 9.34837 23.619V26.842H9.20537C9.35937 26.4167 9.6087 26.0977 9.95337 25.885C10.3054 25.665 10.7087 25.555 11.1634 25.555C11.5887 25.555 11.9407 25.632 12.2194 25.786C12.5054 25.94 12.718 26.1747 12.8574 26.49C12.9967 26.798 13.0664 27.1903 13.0664 27.667V30.615C13.0664 30.7617 13.026 30.8753 12.9454 30.956C12.872 31.0367 12.7657 31.077 12.6264 31.077C12.4797 31.077 12.366 31.0367 12.2854 30.956C12.212 30.8753 12.1754 30.7617 12.1754 30.615V27.722C12.1754 27.2233 12.0764 26.8603 11.8784 26.633C11.6877 26.3983 11.3797 26.281 10.9544 26.281C10.463 26.281 10.0707 26.435 9.77737 26.743C9.49137 27.0437 9.34837 27.447 9.34837 27.953V30.615C9.34837 30.923 9.19803 31.077 8.89737 31.077ZM16.6123 31.099C16.2457 31.099 15.9157 31.0293 15.6223 30.89C15.3363 30.7433 15.109 30.5453 14.9403 30.296C14.7717 30.0467 14.6873 29.768 14.6873 29.46C14.6873 29.064 14.7863 28.7523 14.9843 28.525C15.1897 28.2977 15.5233 28.1363 15.9853 28.041C16.4547 27.9457 17.0927 27.898 17.8993 27.898H18.3943V28.481H17.9103C17.3163 28.481 16.847 28.5103 16.5023 28.569C16.165 28.6203 15.9267 28.712 15.7873 28.844C15.6553 28.976 15.5893 29.163 15.5893 29.405C15.5893 29.7057 15.692 29.9513 15.8973 30.142C16.11 30.3327 16.396 30.428 16.7553 30.428C17.0487 30.428 17.3053 30.3583 17.5253 30.219C17.7527 30.0797 17.9287 29.889 18.0533 29.647C18.1853 29.405 18.2513 29.1263 18.2513 28.811V27.557C18.2513 27.1023 18.1597 26.776 17.9763 26.578C17.793 26.3727 17.4923 26.27 17.0743 26.27C16.8177 26.27 16.561 26.303 16.3043 26.369C16.0477 26.435 15.7763 26.5413 15.4903 26.688C15.3877 26.7393 15.2997 26.7577 15.2263 26.743C15.153 26.721 15.0943 26.6807 15.0503 26.622C15.0063 26.5633 14.9807 26.4973 14.9733 26.424C14.966 26.3433 14.9807 26.2663 15.0173 26.193C15.0613 26.1197 15.1273 26.061 15.2153 26.017C15.538 25.8557 15.857 25.7383 16.1723 25.665C16.4877 25.5917 16.7883 25.555 17.0743 25.555C17.5363 25.555 17.9177 25.632 18.2183 25.786C18.519 25.9327 18.7427 26.16 18.8893 26.468C19.036 26.7687 19.1093 27.1573 19.1093 27.634V30.615C19.1093 30.7617 19.0727 30.8753 18.9993 30.956C18.9333 31.0367 18.8343 31.077 18.7023 31.077C18.563 31.077 18.4567 31.0367 18.3833 30.956C18.31 30.8753 18.2733 30.7617 18.2733 30.615V29.757H18.3723C18.3137 30.0357 18.2 30.274 18.0313 30.472C17.87 30.67 17.6683 30.824 17.4263 30.934C17.1843 31.044 16.913 31.099 16.6123 31.099ZM23.1273 31.099C22.7093 31.099 22.3573 31.0257 22.0713 30.879C21.7927 30.725 21.5837 30.505 21.4443 30.219C21.305 29.9257 21.2353 29.57 21.2353 29.152V26.347H20.4983C20.3737 26.347 20.2783 26.3177 20.2123 26.259C20.1463 26.193 20.1133 26.105 20.1133 25.995C20.1133 25.885 20.1463 25.8007 20.2123 25.742C20.2783 25.6833 20.3737 25.654 20.4983 25.654H21.2353V24.389C21.2353 24.2423 21.2757 24.1323 21.3563 24.059C21.437 23.9783 21.547 23.938 21.6863 23.938C21.8257 23.938 21.932 23.9783 22.0053 24.059C22.086 24.1323 22.1263 24.2423 22.1263 24.389V25.654H23.5123C23.637 25.654 23.7323 25.6833 23.7983 25.742C23.8643 25.8007 23.8973 25.885 23.8973 25.995C23.8973 26.105 23.8643 26.193 23.7983 26.259C23.7323 26.3177 23.637 26.347 23.5123 26.347H22.1263V29.064C22.1263 29.482 22.2143 29.801 22.3903 30.021C22.5663 30.2337 22.8523 30.34 23.2483 30.34C23.3877 30.34 23.505 30.3253 23.6003 30.296C23.703 30.2667 23.7873 30.252 23.8533 30.252C23.9193 30.2447 23.9743 30.2667 24.0183 30.318C24.0623 30.3693 24.0843 30.4573 24.0843 30.582C24.0843 30.67 24.066 30.7507 24.0293 30.824C24 30.8973 23.945 30.9487 23.8643 30.978C23.7763 31.0073 23.659 31.033 23.5123 31.055C23.373 31.0843 23.2447 31.099 23.1273 31.099Z" fill="#BCBBBB"/>
</svg>
