<svg width="24" height="25" viewBox="0 0 24 25" fill="none" xmlns="http://www.w3.org/2000/svg">
<path fill-rule="evenodd" clip-rule="evenodd" d="M8.46967 19.0303C8.17678 18.7374 8.17678 18.2626 8.46967 17.9697L12.2069 14.2324C12.6117 13.8276 12.883 13.5556 13.0751 13.3292C13.2615 13.1096 13.329 12.9829 13.3604 12.8863C13.442 12.6352 13.442 12.3648 13.3604 12.1137C13.329 12.0171 13.2615 11.8904 13.0751 11.6708C12.883 11.4444 12.6117 11.1724 12.2069 10.7676L8.46967 7.03033C8.17678 6.73744 8.17678 6.26256 8.46967 5.96967C8.76256 5.67678 9.23744 5.67678 9.53033 5.96967L13.2676 9.70693L13.2891 9.72846C13.6668 10.1062 13.9821 10.4214 14.2186 10.7C14.4653 10.9906 14.67 11.2902 14.787 11.6502C14.9664 12.2025 14.9664 12.7975 14.787 13.3498C14.67 13.7098 14.4653 14.0094 14.2186 14.3C13.9821 14.5786 13.6668 14.8938 13.2891 15.2715L13.2676 15.2931L9.53033 19.0303C9.23744 19.3232 8.76256 19.3232 8.46967 19.0303Z" fill="#797979"/>
</svg>
