<svg width="25" height="24" viewBox="0 0 25 24" fill="none" xmlns="http://www.w3.org/2000/svg">
<path fill-rule="evenodd" clip-rule="evenodd" d="M13.25 2C13.25 1.58579 12.9142 1.25 12.5 1.25C12.0858 1.25 11.75 1.58579 11.75 2V3.78363C7.79215 4.14029 4.64029 7.29215 4.28363 11.25H2.5C2.08579 11.25 1.75 11.5858 1.75 12C1.75 12.4142 2.08579 12.75 2.5 12.75H4.28363C4.64029 16.7079 7.79215 19.8597 11.75 20.2164V22C11.75 22.4142 12.0858 22.75 12.5 22.75C12.9142 22.75 13.25 22.4142 13.25 22V20.2164C17.2079 19.8597 20.3597 16.7079 20.7164 12.75H22.5C22.9142 12.75 23.25 12.4142 23.25 12C23.25 11.5858 22.9142 11.25 22.5 11.25H20.7164C20.3597 7.29215 17.2079 4.14029 13.25 3.78363V2ZM8.75 12C8.75 9.92893 10.4289 8.25 12.5 8.25C14.5711 8.25 16.25 9.92893 16.25 12C16.25 14.0711 14.5711 15.75 12.5 15.75C10.4289 15.75 8.75 14.0711 8.75 12Z" fill="white"/>
</svg>
