<svg width="18" height="18" viewBox="0 0 18 18" fill="none" xmlns="http://www.w3.org/2000/svg">
<path d="M6.64952 1.375C6.85662 1.01628 6.73372 0.557591 6.375 0.350484C6.01628 0.143377 5.55759 0.266284 5.35048 0.625003L3.6906 3.50001H2.5C1.39543 3.50001 0.5 4.39544 0.5 5.5C0.5 6.21599 0.876234 6.84411 1.44179 7.19743C1.49938 7.23341 1.56663 7.25 1.63454 7.25H16.3655C16.4334 7.25 16.5006 7.23341 16.5582 7.19743C17.1238 6.84411 17.5 6.21599 17.5 5.5C17.5 4.39544 16.6046 3.50001 15.5 3.50001H14.3094L12.6495 0.625003C12.4424 0.266284 11.9837 0.143377 11.625 0.350484C11.2663 0.557591 11.1434 1.01628 11.3505 1.375L12.5774 3.50001H5.42265L6.64952 1.375Z" fill="#6EBAF1"/>
<path fill-rule="evenodd" clip-rule="evenodd" d="M16.3348 8.98459C16.3563 8.86217 16.2621 8.75 16.1378 8.75H1.86221C1.73792 8.75 1.64373 8.86217 1.66523 8.98459L2.66574 14.6831C2.87388 15.8686 3.82291 16.7845 5.01503 16.9503C7.65895 17.3182 10.3411 17.3182 12.985 16.9503C14.1771 16.7845 15.1261 15.8686 15.3343 14.6831L16.3348 8.98459ZM7.75 11C7.75 10.5858 7.41421 10.25 7 10.25C6.58579 10.25 6.25 10.5858 6.25 11V13C6.25 13.4142 6.58579 13.75 7 13.75C7.41421 13.75 7.75 13.4142 7.75 13V11ZM11 10.25C11.4142 10.25 11.75 10.5858 11.75 11V13C11.75 13.4142 11.4142 13.75 11 13.75C10.5858 13.75 10.25 13.4142 10.25 13V11C10.25 10.5858 10.5858 10.25 11 10.25Z" fill="#6EBAF1"/>
</svg>
