<svg width="286" height="42" viewBox="0 0 286 42" fill="none" xmlns="http://www.w3.org/2000/svg">
<path d="M20.5 2C14.98 2 10.5 6.48 10.5 12C10.5 17.52 14.98 22 20.5 22C26.02 22 30.5 17.52 30.5 12C30.5 6.48 26.02 2 20.5 2ZM17.79 16.29L14.2 12.7C13.81 12.31 13.81 11.68 14.2 11.29C14.59 10.9 15.22 10.9 15.61 11.29L18.5 14.17L25.38 7.29C25.77 6.9 26.4 6.9 26.79 7.29C27.18 7.68 27.18 8.31 26.79 8.7L19.2 16.29C18.82 16.68 18.18 16.68 17.79 16.29Z" fill="url(#paint0_linear_200_5025)"/>
<path d="M36.5 12H127" stroke="#F66B6B"/>
<path d="M143 2C137.48 2 133 6.48 133 12C133 17.52 137.48 22 143 22C148.52 22 153 17.52 153 12C153 6.48 148.52 2 143 2ZM140.29 16.29L136.7 12.7C136.31 12.31 136.31 11.68 136.7 11.29C137.09 10.9 137.72 10.9 138.11 11.29L141 14.17L147.88 7.29C148.27 6.9 148.9 6.9 149.29 7.29C149.68 7.68 149.68 8.31 149.29 8.7L141.7 16.29C141.32 16.68 140.68 16.68 140.29 16.29Z" fill="url(#paint1_linear_200_5025)"/>
<path d="M159 12H249.5" stroke="#F66B6B"/>
<path d="M265.5 2C259.98 2 255.5 6.48 255.5 12C255.5 17.52 259.98 22 265.5 22C271.02 22 275.5 17.52 275.5 12C275.5 6.48 271.02 2 265.5 2ZM262.79 16.29L259.2 12.7C258.81 12.31 258.81 11.68 259.2 11.29C259.59 10.9 260.22 10.9 260.61 11.29L263.5 14.17L270.38 7.29C270.77 6.9 271.4 6.9 271.79 7.29C272.18 7.68 272.18 8.31 271.79 8.7L264.2 16.29C263.82 16.68 263.18 16.68 262.79 16.29Z" fill="url(#paint2_linear_200_5025)"/>
<path d="M0.69 40L3.8 32.95H4.5L7.61 40H6.76L5.98 38.2H2.31L1.54 40H0.69ZM4.14 33.91L2.61 37.51H5.69L4.16 33.91H4.14ZM10.5463 40.09C10.113 40.09 9.73299 39.9867 9.40633 39.78C9.08633 39.5733 8.83633 39.2833 8.65633 38.91C8.48299 38.53 8.39633 38.0833 8.39633 37.57C8.39633 37.05 8.48299 36.6033 8.65633 36.23C8.83633 35.85 9.08633 35.56 9.40633 35.36C9.73299 35.1533 10.113 35.05 10.5463 35.05C10.9263 35.05 11.2597 35.1333 11.5463 35.3C11.8397 35.4667 12.0563 35.6967 12.1963 35.99V32.95H13.0063V40H12.2163V39.11C12.0763 39.4167 11.8597 39.6567 11.5663 39.83C11.273 40.0033 10.933 40.09 10.5463 40.09ZM10.7163 39.44C11.1697 39.44 11.533 39.28 11.8063 38.96C12.0797 38.6333 12.2163 38.17 12.2163 37.57C12.2163 36.9633 12.0797 36.5 11.8063 36.18C11.533 35.86 11.1697 35.7 10.7163 35.7C10.2563 35.7 9.88966 35.86 9.61633 36.18C9.34966 36.5 9.21633 36.9633 9.21633 37.57C9.21633 38.17 9.34966 38.6333 9.61633 38.96C9.88966 39.28 10.2563 39.44 10.7163 39.44ZM16.5764 40.09C16.1431 40.09 15.7631 39.9867 15.4364 39.78C15.1164 39.5733 14.8664 39.2833 14.6864 38.91C14.5131 38.53 14.4264 38.0833 14.4264 37.57C14.4264 37.05 14.5131 36.6033 14.6864 36.23C14.8664 35.85 15.1164 35.56 15.4364 35.36C15.7631 35.1533 16.1431 35.05 16.5764 35.05C16.9564 35.05 17.2897 35.1333 17.5764 35.3C17.8697 35.4667 18.0864 35.6967 18.2264 35.99V32.95H19.0364V40H18.2464V39.11C18.1064 39.4167 17.8897 39.6567 17.5964 39.83C17.3031 40.0033 16.9631 40.09 16.5764 40.09ZM16.7464 39.44C17.1997 39.44 17.5631 39.28 17.8364 38.96C18.1097 38.6333 18.2464 38.17 18.2464 37.57C18.2464 36.9633 18.1097 36.5 17.8364 36.18C17.5631 35.86 17.1997 35.7 16.7464 35.7C16.2864 35.7 15.9197 35.86 15.6464 36.18C15.3797 36.5 15.2464 36.9633 15.2464 37.57C15.2464 38.17 15.3797 38.6333 15.6464 38.96C15.9197 39.28 16.2864 39.44 16.7464 39.44ZM20.7565 40V35.14H21.5465V36.01C21.8065 35.4233 22.3398 35.1 23.1465 35.04L23.4365 35.01L23.4965 35.71L22.9865 35.77C22.5265 35.81 22.1765 35.9567 21.9365 36.21C21.6965 36.4567 21.5765 36.7967 21.5765 37.23V40H20.7565ZM26.6719 40.09C25.9052 40.09 25.2985 39.8667 24.8519 39.42C24.4052 38.9667 24.1819 38.3533 24.1819 37.58C24.1819 37.08 24.2819 36.64 24.4819 36.26C24.6819 35.8733 24.9552 35.5767 25.3019 35.37C25.6552 35.1567 26.0619 35.05 26.5219 35.05C27.1819 35.05 27.6985 35.2633 28.0719 35.69C28.4452 36.11 28.6319 36.69 28.6319 37.43V37.74H24.9719C24.9985 38.2933 25.1585 38.7167 25.4519 39.01C25.7452 39.2967 26.1519 39.44 26.6719 39.44C26.9652 39.44 27.2452 39.3967 27.5119 39.31C27.7785 39.2167 28.0319 39.0667 28.2719 38.86L28.5519 39.43C28.3319 39.6367 28.0519 39.8 27.7119 39.92C27.3719 40.0333 27.0252 40.09 26.6719 40.09ZM26.5419 35.65C26.0819 35.65 25.7185 35.7933 25.4519 36.08C25.1852 36.3667 25.0285 36.7433 24.9819 37.21H27.9319C27.9119 36.7167 27.7819 36.3333 27.5419 36.06C27.3085 35.7867 26.9752 35.65 26.5419 35.65ZM31.6441 40.09C31.2641 40.09 30.9041 40.0367 30.5641 39.93C30.2241 39.8233 29.9441 39.6733 29.7241 39.48L29.9841 38.91C30.2241 39.1033 30.4875 39.2467 30.7741 39.34C31.0675 39.4267 31.3641 39.47 31.6641 39.47C32.0441 39.47 32.3308 39.4 32.5241 39.26C32.7175 39.12 32.8141 38.93 32.8141 38.69C32.8141 38.5033 32.7508 38.3567 32.6241 38.25C32.4975 38.1367 32.2975 38.05 32.0241 37.99L31.1141 37.79C30.2875 37.61 29.8741 37.1833 29.8741 36.51C29.8741 36.07 30.0475 35.7167 30.3941 35.45C30.7475 35.1833 31.2075 35.05 31.7741 35.05C32.1075 35.05 32.4241 35.1033 32.7241 35.21C33.0308 35.31 33.2841 35.46 33.4841 35.66L33.2141 36.23C33.0208 36.05 32.7941 35.9133 32.5341 35.82C32.2808 35.72 32.0275 35.67 31.7741 35.67C31.4008 35.67 31.1175 35.7433 30.9241 35.89C30.7308 36.0367 30.6341 36.23 30.6341 36.47C30.6341 36.8433 30.8808 37.0833 31.3741 37.19L32.2841 37.38C32.7108 37.4733 33.0341 37.6233 33.2541 37.83C33.4741 38.03 33.5841 38.3033 33.5841 38.65C33.5841 39.0967 33.4075 39.45 33.0541 39.71C32.7008 39.9633 32.2308 40.09 31.6441 40.09ZM36.6586 40.09C36.2786 40.09 35.9186 40.0367 35.5786 39.93C35.2386 39.8233 34.9586 39.6733 34.7386 39.48L34.9986 38.91C35.2386 39.1033 35.5019 39.2467 35.7886 39.34C36.0819 39.4267 36.3786 39.47 36.6786 39.47C37.0586 39.47 37.3453 39.4 37.5386 39.26C37.7319 39.12 37.8286 38.93 37.8286 38.69C37.8286 38.5033 37.7653 38.3567 37.6386 38.25C37.5119 38.1367 37.3119 38.05 37.0386 37.99L36.1286 37.79C35.3019 37.61 34.8886 37.1833 34.8886 36.51C34.8886 36.07 35.0619 35.7167 35.4086 35.45C35.7619 35.1833 36.2219 35.05 36.7886 35.05C37.1219 35.05 37.4386 35.1033 37.7386 35.21C38.0453 35.31 38.2986 35.46 38.4986 35.66L38.2286 36.23C38.0353 36.05 37.8086 35.9133 37.5486 35.82C37.2953 35.72 37.0419 35.67 36.7886 35.67C36.4153 35.67 36.1319 35.7433 35.9386 35.89C35.7453 36.0367 35.6486 36.23 35.6486 36.47C35.6486 36.8433 35.8953 37.0833 36.3886 37.19L37.2986 37.38C37.7253 37.4733 38.0486 37.6233 38.2686 37.83C38.4886 38.03 38.5986 38.3033 38.5986 38.65C38.5986 39.0967 38.4219 39.45 38.0686 39.71C37.7153 39.9633 37.2453 40.09 36.6586 40.09Z" fill="#BCBBBB"/>
<path d="M108.33 40.09C107.677 40.09 107.107 39.9433 106.62 39.65C106.14 39.35 105.767 38.93 105.5 38.39C105.24 37.85 105.11 37.21 105.11 36.47C105.11 35.73 105.24 35.09 105.5 34.55C105.76 34.01 106.13 33.5933 106.61 33.3C107.097 33.0067 107.67 32.86 108.33 32.86C108.997 32.86 109.57 33.0067 110.05 33.3C110.537 33.5933 110.91 34.01 111.17 34.55C111.437 35.0833 111.57 35.72 111.57 36.46C111.57 37.2 111.437 37.8433 111.17 38.39C110.903 38.93 110.527 39.35 110.04 39.65C109.56 39.9433 108.99 40.09 108.33 40.09ZM108.33 39.36C109.083 39.36 109.667 39.1067 110.08 38.6C110.493 38.0933 110.7 37.3833 110.7 36.47C110.7 35.5567 110.493 34.85 110.08 34.35C109.667 33.8433 109.083 33.59 108.33 33.59C107.59 33.59 107.013 33.8433 106.6 34.35C106.187 34.85 105.98 35.5567 105.98 36.47C105.98 37.3767 106.187 38.0867 106.6 38.6C107.013 39.1067 107.59 39.36 108.33 39.36ZM113.126 40V35.14H113.916V36.01C114.176 35.4233 114.709 35.1 115.516 35.04L115.806 35.01L115.866 35.71L115.356 35.77C114.896 35.81 114.546 35.9567 114.306 36.21C114.066 36.4567 113.946 36.7967 113.946 37.23V40H113.126ZM118.701 40.09C118.268 40.09 117.888 39.9867 117.561 39.78C117.241 39.5733 116.991 39.2833 116.811 38.91C116.638 38.53 116.551 38.0833 116.551 37.57C116.551 37.05 116.638 36.6033 116.811 36.23C116.991 35.85 117.241 35.56 117.561 35.36C117.888 35.1533 118.268 35.05 118.701 35.05C119.081 35.05 119.415 35.1333 119.701 35.3C119.995 35.4667 120.211 35.6967 120.351 35.99V32.95H121.161V40H120.371V39.11C120.231 39.4167 120.015 39.6567 119.721 39.83C119.428 40.0033 119.088 40.09 118.701 40.09ZM118.871 39.44C119.325 39.44 119.688 39.28 119.961 38.96C120.235 38.6333 120.371 38.17 120.371 37.57C120.371 36.9633 120.235 36.5 119.961 36.18C119.688 35.86 119.325 35.7 118.871 35.7C118.411 35.7 118.045 35.86 117.771 36.18C117.505 36.5 117.371 36.9633 117.371 37.57C117.371 38.17 117.505 38.6333 117.771 38.96C118.045 39.28 118.411 39.44 118.871 39.44ZM125.071 40.09C124.305 40.09 123.698 39.8667 123.251 39.42C122.805 38.9667 122.581 38.3533 122.581 37.58C122.581 37.08 122.681 36.64 122.881 36.26C123.081 35.8733 123.355 35.5767 123.701 35.37C124.055 35.1567 124.461 35.05 124.921 35.05C125.581 35.05 126.098 35.2633 126.471 35.69C126.845 36.11 127.031 36.69 127.031 37.43V37.74H123.371C123.398 38.2933 123.558 38.7167 123.851 39.01C124.145 39.2967 124.551 39.44 125.071 39.44C125.365 39.44 125.645 39.3967 125.911 39.31C126.178 39.2167 126.431 39.0667 126.671 38.86L126.951 39.43C126.731 39.6367 126.451 39.8 126.111 39.92C125.771 40.0333 125.425 40.09 125.071 40.09ZM124.941 35.65C124.481 35.65 124.118 35.7933 123.851 36.08C123.585 36.3667 123.428 36.7433 123.381 37.21H126.331C126.311 36.7167 126.181 36.3333 125.941 36.06C125.708 35.7867 125.375 35.65 124.941 35.65ZM128.404 40V35.14H129.194V36.01C129.454 35.4233 129.987 35.1 130.794 35.04L131.084 35.01L131.144 35.71L130.634 35.77C130.174 35.81 129.824 35.9567 129.584 36.21C129.344 36.4567 129.224 36.7967 129.224 37.23V40H128.404ZM137.346 40.09C136.793 40.09 136.293 40.02 135.846 39.88C135.399 39.7333 135.013 39.5233 134.686 39.25L134.976 38.59C135.316 38.85 135.673 39.0433 136.046 39.17C136.419 39.2967 136.853 39.36 137.346 39.36C137.946 39.36 138.389 39.25 138.676 39.03C138.969 38.8033 139.116 38.5067 139.116 38.14C139.116 37.8467 139.009 37.6133 138.796 37.44C138.589 37.2667 138.239 37.13 137.746 37.03L136.706 36.82C136.079 36.6867 135.609 36.47 135.296 36.17C134.989 35.8633 134.836 35.4567 134.836 34.95C134.836 34.53 134.943 34.1633 135.156 33.85C135.376 33.5367 135.679 33.2933 136.066 33.12C136.453 32.9467 136.899 32.86 137.406 32.86C137.879 32.86 138.319 32.9367 138.726 33.09C139.133 33.2367 139.476 33.45 139.756 33.73L139.466 34.37C139.166 34.0967 138.849 33.9 138.516 33.78C138.183 33.6533 137.809 33.59 137.396 33.59C136.869 33.59 136.449 33.7133 136.136 33.96C135.823 34.2 135.666 34.52 135.666 34.92C135.666 35.24 135.763 35.4933 135.956 35.68C136.156 35.8667 136.479 36.0033 136.926 36.09L137.966 36.31C138.639 36.45 139.136 36.6633 139.456 36.95C139.783 37.23 139.946 37.6133 139.946 38.1C139.946 38.4933 139.839 38.84 139.626 39.14C139.419 39.44 139.119 39.6733 138.726 39.84C138.339 40.0067 137.879 40.09 137.346 40.09ZM143.028 40.09C141.862 40.09 141.278 39.4467 141.278 38.16V35.14H142.088V38.15C142.088 38.5833 142.175 38.9033 142.348 39.11C142.528 39.3167 142.808 39.42 143.188 39.42C143.602 39.42 143.938 39.2833 144.198 39.01C144.458 38.73 144.588 38.36 144.588 37.9V35.14H145.398V40H144.608V39.18C144.455 39.4733 144.238 39.7 143.958 39.86C143.685 40.0133 143.375 40.09 143.028 40.09ZM147.134 40V35.14H147.924V35.96C148.071 35.6667 148.274 35.4433 148.534 35.29C148.794 35.13 149.097 35.05 149.444 35.05C150.204 35.05 150.691 35.38 150.904 36.04C151.051 35.7333 151.267 35.4933 151.554 35.32C151.841 35.14 152.171 35.05 152.544 35.05C153.624 35.05 154.164 35.69 154.164 36.97V40H153.354V37.01C153.354 36.5633 153.274 36.2367 153.114 36.03C152.961 35.8167 152.704 35.71 152.344 35.71C151.951 35.71 151.637 35.85 151.404 36.13C151.171 36.41 151.054 36.7833 151.054 37.25V40H150.244V37.01C150.244 36.5633 150.164 36.2367 150.004 36.03C149.851 35.8167 149.594 35.71 149.234 35.71C148.834 35.71 148.517 35.85 148.284 36.13C148.057 36.41 147.944 36.7833 147.944 37.25V40H147.134ZM155.898 40V35.14H156.688V35.96C156.835 35.6667 157.038 35.4433 157.298 35.29C157.558 35.13 157.862 35.05 158.208 35.05C158.968 35.05 159.455 35.38 159.668 36.04C159.815 35.7333 160.032 35.4933 160.318 35.32C160.605 35.14 160.935 35.05 161.308 35.05C162.388 35.05 162.928 35.69 162.928 36.97V40H162.118V37.01C162.118 36.5633 162.038 36.2367 161.878 36.03C161.725 35.8167 161.468 35.71 161.108 35.71C160.715 35.71 160.402 35.85 160.168 36.13C159.935 36.41 159.818 36.7833 159.818 37.25V40H159.008V37.01C159.008 36.5633 158.928 36.2367 158.768 36.03C158.615 35.8167 158.358 35.71 157.998 35.71C157.598 35.71 157.282 35.85 157.048 36.13C156.822 36.41 156.708 36.7833 156.708 37.25V40H155.898ZM166.173 40.09C165.839 40.09 165.539 40.0267 165.273 39.9C165.013 39.7667 164.806 39.5867 164.653 39.36C164.499 39.1333 164.423 38.88 164.423 38.6C164.423 38.2467 164.513 37.9667 164.693 37.76C164.879 37.5533 165.183 37.4067 165.603 37.32C166.029 37.2267 166.609 37.18 167.343 37.18H167.663V36.87C167.663 36.4567 167.576 36.16 167.403 35.98C167.236 35.7933 166.966 35.7 166.593 35.7C166.299 35.7 166.016 35.7433 165.743 35.83C165.469 35.91 165.189 36.0433 164.903 36.23L164.623 35.64C164.876 35.46 165.183 35.3167 165.543 35.21C165.909 35.1033 166.259 35.05 166.593 35.05C167.219 35.05 167.683 35.2033 167.983 35.51C168.289 35.8167 168.443 36.2933 168.443 36.94V40H167.683V39.16C167.556 39.4467 167.359 39.6733 167.093 39.84C166.833 40.0067 166.526 40.09 166.173 40.09ZM166.303 39.48C166.703 39.48 167.029 39.3433 167.283 39.07C167.536 38.79 167.663 38.4367 167.663 38.01V37.71H167.353C166.813 37.71 166.386 37.7367 166.073 37.79C165.766 37.8367 165.549 37.9233 165.423 38.05C165.303 38.17 165.243 38.3367 165.243 38.55C165.243 38.8233 165.336 39.0467 165.523 39.22C165.716 39.3933 165.976 39.48 166.303 39.48ZM170.146 40V35.14H170.936V36.01C171.196 35.4233 171.729 35.1 172.536 35.04L172.826 35.01L172.886 35.71L172.376 35.77C171.916 35.81 171.566 35.9567 171.326 36.21C171.086 36.4567 170.966 36.7967 170.966 37.23V40H170.146ZM174.792 41.8L175.622 39.92L173.572 35.14H174.452L176.062 39.08L177.682 35.14H178.532L175.642 41.8H174.792Z" fill="#BCBBBB"/>
<path d="M245.37 40V32.95H248.16C248.92 32.95 249.5 33.1333 249.9 33.5C250.307 33.8667 250.51 34.39 250.51 35.07C250.51 35.7433 250.307 36.2667 249.9 36.64C249.5 37.0067 248.92 37.19 248.16 37.19H246.19V40H245.37ZM246.19 36.5H248.06C249.153 36.5 249.7 36.0233 249.7 35.07C249.7 34.11 249.153 33.63 248.06 33.63H246.19V36.5ZM253.074 40.09C252.741 40.09 252.441 40.0267 252.174 39.9C251.914 39.7667 251.707 39.5867 251.554 39.36C251.401 39.1333 251.324 38.88 251.324 38.6C251.324 38.2467 251.414 37.9667 251.594 37.76C251.781 37.5533 252.084 37.4067 252.504 37.32C252.931 37.2267 253.511 37.18 254.244 37.18H254.564V36.87C254.564 36.4567 254.477 36.16 254.304 35.98C254.137 35.7933 253.867 35.7 253.494 35.7C253.201 35.7 252.917 35.7433 252.644 35.83C252.371 35.91 252.091 36.0433 251.804 36.23L251.524 35.64C251.777 35.46 252.084 35.3167 252.444 35.21C252.811 35.1033 253.161 35.05 253.494 35.05C254.121 35.05 254.584 35.2033 254.884 35.51C255.191 35.8167 255.344 36.2933 255.344 36.94V40H254.584V39.16C254.457 39.4467 254.261 39.6733 253.994 39.84C253.734 40.0067 253.427 40.09 253.074 40.09ZM253.204 39.48C253.604 39.48 253.931 39.3433 254.184 39.07C254.437 38.79 254.564 38.4367 254.564 38.01V37.71H254.254C253.714 37.71 253.287 37.7367 252.974 37.79C252.667 37.8367 252.451 37.9233 252.324 38.05C252.204 38.17 252.144 38.3367 252.144 38.55C252.144 38.8233 252.237 39.0467 252.424 39.22C252.617 39.3933 252.877 39.48 253.204 39.48ZM257.558 41.8L258.388 39.92L256.338 35.14H257.218L258.828 39.08L260.448 35.14H261.298L258.408 41.8H257.558ZM262.355 40V35.14H263.145V35.96C263.291 35.6667 263.495 35.4433 263.755 35.29C264.015 35.13 264.318 35.05 264.665 35.05C265.425 35.05 265.911 35.38 266.125 36.04C266.271 35.7333 266.488 35.4933 266.775 35.32C267.061 35.14 267.391 35.05 267.765 35.05C268.845 35.05 269.385 35.69 269.385 36.97V40H268.575V37.01C268.575 36.5633 268.495 36.2367 268.335 36.03C268.181 35.8167 267.925 35.71 267.565 35.71C267.171 35.71 266.858 35.85 266.625 36.13C266.391 36.41 266.275 36.7833 266.275 37.25V40H265.465V37.01C265.465 36.5633 265.385 36.2367 265.225 36.03C265.071 35.8167 264.815 35.71 264.455 35.71C264.055 35.71 263.738 35.85 263.505 36.13C263.278 36.41 263.165 36.7833 263.165 37.25V40H262.355ZM273.289 40.09C272.522 40.09 271.916 39.8667 271.469 39.42C271.022 38.9667 270.799 38.3533 270.799 37.58C270.799 37.08 270.899 36.64 271.099 36.26C271.299 35.8733 271.572 35.5767 271.919 35.37C272.272 35.1567 272.679 35.05 273.139 35.05C273.799 35.05 274.316 35.2633 274.689 35.69C275.062 36.11 275.249 36.69 275.249 37.43V37.74H271.589C271.616 38.2933 271.776 38.7167 272.069 39.01C272.362 39.2967 272.769 39.44 273.289 39.44C273.582 39.44 273.862 39.3967 274.129 39.31C274.396 39.2167 274.649 39.0667 274.889 38.86L275.169 39.43C274.949 39.6367 274.669 39.8 274.329 39.92C273.989 40.0333 273.642 40.09 273.289 40.09ZM273.159 35.65C272.699 35.65 272.336 35.7933 272.069 36.08C271.802 36.3667 271.646 36.7433 271.599 37.21H274.549C274.529 36.7167 274.399 36.3333 274.159 36.06C273.926 35.7867 273.592 35.65 273.159 35.65ZM276.621 40V35.14H277.411V35.97C277.571 35.6633 277.798 35.4333 278.091 35.28C278.385 35.1267 278.715 35.05 279.081 35.05C280.235 35.05 280.811 35.69 280.811 36.97V40H280.001V37.02C280.001 36.5667 279.911 36.2367 279.731 36.03C279.558 35.8167 279.278 35.71 278.891 35.71C278.445 35.71 278.088 35.85 277.821 36.13C277.561 36.4033 277.431 36.77 277.431 37.23V40H276.621ZM284.455 40.09C283.882 40.09 283.452 39.94 283.165 39.64C282.878 39.3333 282.735 38.8933 282.735 38.32V35.77H281.785V35.14H282.735V33.65H283.545V35.14H285.085V35.77H283.545V38.24C283.545 38.62 283.625 38.91 283.785 39.11C283.945 39.3033 284.205 39.4 284.565 39.4C284.672 39.4 284.778 39.3867 284.885 39.36C284.992 39.3333 285.088 39.3067 285.175 39.28L285.315 39.9C285.228 39.9467 285.102 39.99 284.935 40.03C284.768 40.07 284.608 40.09 284.455 40.09Z" fill="#BCBBBB"/>
<defs>
<linearGradient id="paint0_linear_200_5025" x1="16.8764" y1="23.9526" x2="28.802" y2="8.34154" gradientUnits="userSpaceOnUse">
<stop stop-color="#F65F6F"/>
<stop offset="1" stop-color="#F78164"/>
</linearGradient>
<linearGradient id="paint1_linear_200_5025" x1="139.376" y1="23.9526" x2="151.302" y2="8.34154" gradientUnits="userSpaceOnUse">
<stop stop-color="#F65F6F"/>
<stop offset="1" stop-color="#F78164"/>
</linearGradient>
<linearGradient id="paint2_linear_200_5025" x1="261.876" y1="23.9526" x2="273.802" y2="8.34154" gradientUnits="userSpaceOnUse">
<stop stop-color="#F65F6F"/>
<stop offset="1" stop-color="#F78164"/>
</linearGradient>
</defs>
</svg>
