<svg width="22" height="24" viewBox="0 0 22 24" fill="none" xmlns="http://www.w3.org/2000/svg">
<path d="M13.2573 3.5C13.3776 3.5 13.4931 3.55268 13.5782 3.64645L16.1453 6.47487C16.3225 6.67014 16.3225 6.98672 16.1453 7.18198L7.80206 16.3744C7.74504 16.4372 7.67387 16.4821 7.59585 16.5046L4.12107 17.5046C3.96519 17.5494 3.7994 17.4999 3.68548 17.3744C3.57156 17.2489 3.52658 17.0662 3.56729 16.8945L4.47492 13.066C4.4953 12.9801 4.53609 12.9017 4.59311 12.8388L12.9364 3.64645C13.0215 3.55268 13.1369 3.5 13.2573 3.5Z" fill="#6EBAF1"/>
<path d="M3.63043 19.25C3.25448 19.25 2.94971 19.5858 2.94971 20C2.94971 20.4142 3.25448 20.75 3.63043 20.75H17.2448C17.6208 20.75 17.9256 20.4142 17.9256 20C17.9256 19.5858 17.6208 19.25 17.2448 19.25H3.63043Z" fill="#6EBAF1"/>
</svg>
