<svg width="15" height="16" viewBox="0 0 15 16" fill="none" xmlns="http://www.w3.org/2000/svg">
<path d="M9.27288 2.33334C9.35285 2.33334 9.42954 2.36845 9.48608 2.43097L11.1917 4.31658C11.3094 4.44676 11.3094 4.65781 11.1917 4.78799L5.64852 10.9162C5.61064 10.9581 5.56335 10.9881 5.51152 11.0031L3.20292 11.6697C3.09935 11.6996 2.98921 11.6666 2.91352 11.5829C2.83783 11.4992 2.80795 11.3775 2.835 11.263L3.43801 8.71069C3.45155 8.65338 3.47866 8.6011 3.51654 8.55923L9.05968 2.43097C9.11623 2.36845 9.19292 2.33334 9.27288 2.33334Z" fill="url(#paint0_linear_1_412)"/>
<path d="M2.87694 12.8333C2.62717 12.8333 2.42468 13.0572 2.42468 13.3333C2.42468 13.6095 2.62717 13.8333 2.87694 13.8333H11.9222C12.1719 13.8333 12.3744 13.6095 12.3744 13.3333C12.3744 13.0572 12.1719 12.8333 11.9222 12.8333H2.87694Z" fill="url(#paint1_linear_1_412)"/>
<defs>
<linearGradient id="paint0_linear_1_412" x1="1.30279" y1="8.27124" x2="6.5021" y2="0.870545" gradientUnits="userSpaceOnUse">
<stop stop-color="#F65F6F"/>
<stop offset="1" stop-color="#F78164"/>
</linearGradient>
<linearGradient id="paint1_linear_1_412" x1="1.30279" y1="8.27124" x2="6.5021" y2="0.870545" gradientUnits="userSpaceOnUse">
<stop stop-color="#F65F6F"/>
<stop offset="1" stop-color="#F78164"/>
</linearGradient>
</defs>
</svg>
