<svg width="25" height="24" viewBox="0 0 25 24" fill="none" xmlns="http://www.w3.org/2000/svg">
<path d="M20.3069 5.6867C20.6051 5.93233 20.8533 6.23694 21.0337 6.58374C21.0907 6.69347 21.0479 6.82633 20.9428 6.89144L14.6768 10.7704C13.333 11.6023 11.6384 11.6197 10.2777 10.8157L3.96989 7.08833C3.86798 7.02811 3.8212 6.90414 3.86713 6.79504C4.04974 6.36127 4.33432 5.98301 4.69034 5.68897L4.69 5.68598L4.70227 5.67917C4.96571 5.46394 5.26774 5.29458 5.59615 5.18257L9.70602 2.8993C11.4427 1.93451 13.5543 1.93451 15.2909 2.8993L19.396 5.17989C19.7301 5.29278 20.0371 5.46498 20.3042 5.68447L20.3069 5.6867Z" fill="white"/>
<path d="M3.48885 8.95414C3.50703 8.77389 3.70603 8.67472 3.862 8.76688L9.51462 12.1071C11.3556 13.1949 13.6482 13.1713 15.4664 12.0458L21.1109 8.55151C21.2662 8.45541 21.4685 8.55276 21.4882 8.73428C21.7682 11.3217 21.7145 13.9362 21.3269 16.5133C21.1284 17.8334 20.051 18.8455 18.7211 18.9611L17.2108 19.0924C14.0762 19.3649 10.9238 19.3649 7.78918 19.0924L6.27895 18.9611C4.94901 18.8455 3.8716 17.8334 3.67308 16.5133C3.29653 14.0092 3.23512 11.4698 3.48885 8.95414Z" fill="white"/>
</svg>
