<svg width="38" height="34" viewBox="0 0 38 34" fill="none" xmlns="http://www.w3.org/2000/svg">
<path d="M15.9999 4.375C13.6825 4.375 11.7083 6.10775 11.7083 8.35816C11.7083 9.91062 12.4352 11.2177 13.3987 12.3004C14.3588 13.3793 15.5975 14.285 16.7174 15.043L18.6496 16.3509C18.8612 16.4941 19.1387 16.4941 19.3503 16.3509L21.2824 15.043C22.4023 14.285 23.641 13.3793 24.6012 12.3004C25.5646 11.2177 26.2916 9.91062 26.2916 8.35816C26.2916 6.10775 24.3173 4.375 21.9999 4.375C20.8054 4.375 19.7542 4.93512 18.9999 5.65986C18.2456 4.93512 17.1945 4.375 15.9999 4.375Z" fill="#BCBBBB"/>
<path d="M1.31 30.07C1.17 30.07 1.06 30.0333 0.98 29.96C0.906667 29.88 0.87 29.7667 0.87 29.62V23.4C0.87 23.2533 0.906667 23.1433 0.98 23.07C1.06 22.99 1.17333 22.95 1.32 22.95H4.95C5.06333 22.95 5.15 22.98 5.21 23.04C5.27 23.1 5.3 23.1833 5.3 23.29C5.3 23.4033 5.27 23.49 5.21 23.55C5.15 23.61 5.06333 23.64 4.95 23.64H1.69V26.1H4.74C4.85333 26.1 4.94 26.13 5 26.19C5.06667 26.25 5.1 26.3333 5.1 26.44C5.1 26.5533 5.06667 26.64 5 26.7C4.94 26.76 4.85333 26.79 4.74 26.79H1.69V29.62C1.69 29.92 1.56333 30.07 1.31 30.07ZM7.7732 30.09C7.43987 30.09 7.13987 30.0267 6.8732 29.9C6.6132 29.7667 6.40654 29.5867 6.2532 29.36C6.09987 29.1333 6.0232 28.88 6.0232 28.6C6.0232 28.24 6.1132 27.9567 6.2932 27.75C6.47987 27.5433 6.7832 27.3967 7.2032 27.31C7.62987 27.2233 8.20987 27.18 8.9432 27.18H9.3932V27.71H8.9532C8.4132 27.71 7.98654 27.7367 7.6732 27.79C7.36654 27.8367 7.14987 27.92 7.0232 28.04C6.9032 28.16 6.8432 28.33 6.8432 28.55C6.8432 28.8233 6.93654 29.0467 7.1232 29.22C7.31654 29.3933 7.57654 29.48 7.9032 29.48C8.16987 29.48 8.4032 29.4167 8.6032 29.29C8.80987 29.1633 8.96987 28.99 9.0832 28.77C9.2032 28.55 9.2632 28.2967 9.2632 28.01V26.87C9.2632 26.4567 9.17987 26.16 9.0132 25.98C8.84654 25.7933 8.5732 25.7 8.1932 25.7C7.95987 25.7 7.72654 25.73 7.4932 25.79C7.25987 25.85 7.0132 25.9467 6.7532 26.08C6.65987 26.1267 6.57987 26.1433 6.5132 26.13C6.44654 26.11 6.3932 26.0733 6.3532 26.02C6.3132 25.9667 6.28987 25.9067 6.2832 25.84C6.27654 25.7667 6.28987 25.6967 6.3232 25.63C6.3632 25.5633 6.4232 25.51 6.5032 25.47C6.79654 25.3233 7.08654 25.2167 7.3732 25.15C7.65987 25.0833 7.9332 25.05 8.1932 25.05C8.6132 25.05 8.95987 25.12 9.2332 25.26C9.50654 25.3933 9.70987 25.6 9.8432 25.88C9.97654 26.1533 10.0432 26.5067 10.0432 26.94V29.65C10.0432 29.7833 10.0099 29.8867 9.9432 29.96C9.8832 30.0333 9.7932 30.07 9.6732 30.07C9.54654 30.07 9.44987 30.0333 9.3832 29.96C9.31654 29.8867 9.2832 29.7833 9.2832 29.65V28.87H9.3732C9.31987 29.1233 9.21654 29.34 9.0632 29.52C8.91654 29.7 8.7332 29.84 8.5132 29.94C8.2932 30.04 8.04654 30.09 7.7732 30.09ZM13.5071 30.07C13.3938 30.07 13.2938 30.04 13.2071 29.98C13.1204 29.9133 13.0471 29.8133 12.9871 29.68L11.2571 25.64C11.2104 25.54 11.1938 25.4467 11.2071 25.36C11.2204 25.2733 11.2604 25.2033 11.3271 25.15C11.3938 25.0967 11.4871 25.07 11.6071 25.07C11.7138 25.07 11.7971 25.0933 11.8571 25.14C11.9171 25.1867 11.9704 25.27 12.0171 25.39L13.6571 29.4H13.3871L15.0571 25.39C15.1038 25.27 15.1571 25.1867 15.2171 25.14C15.2771 25.0933 15.3638 25.07 15.4771 25.07C15.5838 25.07 15.6638 25.0967 15.7171 25.15C15.7771 25.2033 15.8104 25.2733 15.8171 25.36C15.8304 25.44 15.8171 25.53 15.7771 25.63L14.0271 29.68C13.9804 29.8133 13.9104 29.9133 13.8171 29.98C13.7304 30.04 13.6271 30.07 13.5071 30.07ZM18.9952 30.09C18.5219 30.09 18.1119 29.9867 17.7652 29.78C17.4186 29.5733 17.1486 29.2833 16.9552 28.91C16.7686 28.53 16.6752 28.0833 16.6752 27.57C16.6752 27.1833 16.7286 26.8367 16.8352 26.53C16.9419 26.2167 17.0986 25.95 17.3052 25.73C17.5119 25.51 17.7552 25.3433 18.0352 25.23C18.3219 25.11 18.6419 25.05 18.9952 25.05C19.4686 25.05 19.8786 25.1533 20.2252 25.36C20.5719 25.5667 20.8386 25.86 21.0252 26.24C21.2186 26.6133 21.3152 27.0567 21.3152 27.57C21.3152 27.9567 21.2619 28.3033 21.1552 28.61C21.0486 28.9167 20.8919 29.1833 20.6852 29.41C20.4786 29.63 20.2319 29.8 19.9452 29.92C19.6652 30.0333 19.3486 30.09 18.9952 30.09ZM18.9952 29.44C19.2952 29.44 19.5586 29.3667 19.7852 29.22C20.0119 29.0733 20.1852 28.86 20.3052 28.58C20.4319 28.3 20.4952 27.9633 20.4952 27.57C20.4952 26.9633 20.3586 26.5 20.0852 26.18C19.8186 25.86 19.4552 25.7 18.9952 25.7C18.6886 25.7 18.4219 25.7733 18.1952 25.92C17.9752 26.06 17.8019 26.27 17.6752 26.55C17.5552 26.8233 17.4952 27.1633 17.4952 27.57C17.4952 28.17 17.6319 28.6333 17.9052 28.96C18.1786 29.28 18.5419 29.44 18.9952 29.44ZM23.1419 30.07C23.0085 30.07 22.9052 30.0333 22.8319 29.96C22.7652 29.8867 22.7319 29.7833 22.7319 29.65V25.48C22.7319 25.3467 22.7652 25.2467 22.8319 25.18C22.8985 25.1067 22.9952 25.07 23.1219 25.07C23.2485 25.07 23.3452 25.1067 23.4119 25.18C23.4852 25.2467 23.5219 25.3467 23.5219 25.48V26.29H23.4219C23.5285 25.8967 23.7319 25.5933 24.0319 25.38C24.3319 25.1667 24.7019 25.0533 25.1419 25.04C25.2419 25.0333 25.3219 25.0567 25.3819 25.11C25.4419 25.1567 25.4752 25.24 25.4819 25.36C25.4885 25.4733 25.4619 25.5633 25.4019 25.63C25.3419 25.6967 25.2485 25.7367 25.1219 25.75L24.9619 25.77C24.5085 25.81 24.1585 25.9567 23.9119 26.21C23.6719 26.4567 23.5519 26.7967 23.5519 27.23V29.65C23.5519 29.7833 23.5152 29.8867 23.4419 29.96C23.3752 30.0333 23.2752 30.07 23.1419 30.07ZM26.9159 30.05C26.7825 30.05 26.6825 30.0133 26.6159 29.94C26.5492 29.86 26.5159 29.75 26.5159 29.61V25.52C26.5159 25.38 26.5492 25.2733 26.6159 25.2C26.6825 25.1267 26.7825 25.09 26.9159 25.09C27.0425 25.09 27.1425 25.1267 27.2159 25.2C27.2892 25.2733 27.3259 25.38 27.3259 25.52V29.61C27.3259 29.75 27.2892 29.86 27.2159 29.94C27.1492 30.0133 27.0492 30.05 26.9159 30.05ZM26.9159 23.97C26.7492 23.97 26.6192 23.9267 26.5259 23.84C26.4325 23.7467 26.3859 23.6233 26.3859 23.47C26.3859 23.31 26.4325 23.19 26.5259 23.11C26.6192 23.0233 26.7492 22.98 26.9159 22.98C27.0892 22.98 27.2192 23.0233 27.3059 23.11C27.3992 23.19 27.4459 23.31 27.4459 23.47C27.4459 23.6233 27.3992 23.7467 27.3059 23.84C27.2192 23.9267 27.0892 23.97 26.9159 23.97ZM30.9901 30.09C30.6101 30.09 30.2901 30.0233 30.0301 29.89C29.7767 29.75 29.5867 29.55 29.4601 29.29C29.3334 29.0233 29.2701 28.7 29.2701 28.32V25.77H28.6001C28.4867 25.77 28.4001 25.7433 28.3401 25.69C28.2801 25.63 28.2501 25.55 28.2501 25.45C28.2501 25.35 28.2801 25.2733 28.3401 25.22C28.4001 25.1667 28.4867 25.14 28.6001 25.14H29.2701V23.99C29.2701 23.8567 29.3067 23.7567 29.3801 23.69C29.4534 23.6167 29.5534 23.58 29.6801 23.58C29.8067 23.58 29.9034 23.6167 29.9701 23.69C30.0434 23.7567 30.0801 23.8567 30.0801 23.99V25.14H31.3401C31.4534 25.14 31.5401 25.1667 31.6001 25.22C31.6601 25.2733 31.6901 25.35 31.6901 25.45C31.6901 25.55 31.6601 25.63 31.6001 25.69C31.5401 25.7433 31.4534 25.77 31.3401 25.77H30.0801V28.24C30.0801 28.62 30.1601 28.91 30.3201 29.11C30.4801 29.3033 30.7401 29.4 31.1001 29.4C31.2267 29.4 31.3334 29.3867 31.4201 29.36C31.5134 29.3333 31.5901 29.32 31.6501 29.32C31.7101 29.3133 31.7601 29.3333 31.8001 29.38C31.8401 29.4267 31.8601 29.5067 31.8601 29.62C31.8601 29.7 31.8434 29.7733 31.8101 29.84C31.7834 29.9067 31.7334 29.9533 31.6601 29.98C31.5801 30.0067 31.4734 30.03 31.3401 30.05C31.2134 30.0767 31.0967 30.09 30.9901 30.09ZM34.8773 30.09C34.364 30.09 33.9207 29.99 33.5473 29.79C33.1807 29.5833 32.894 29.2933 32.6873 28.92C32.4873 28.5467 32.3873 28.1 32.3873 27.58C32.3873 27.0733 32.4873 26.6333 32.6873 26.26C32.8873 25.88 33.1607 25.5833 33.5073 25.37C33.8607 25.1567 34.2673 25.05 34.7273 25.05C35.054 25.05 35.3473 25.1067 35.6073 25.22C35.8673 25.3267 36.0873 25.4833 36.2673 25.69C36.454 25.8967 36.594 26.1467 36.6873 26.44C36.7873 26.7333 36.8373 27.0633 36.8373 27.43C36.8373 27.5367 36.8073 27.6167 36.7473 27.67C36.6873 27.7167 36.6007 27.74 36.4873 27.74H33.0073V27.21H36.2973L36.1373 27.34C36.1373 26.98 36.084 26.6767 35.9773 26.43C35.8707 26.1767 35.714 25.9833 35.5073 25.85C35.3073 25.7167 35.054 25.65 34.7473 25.65C34.4073 25.65 34.1173 25.73 33.8773 25.89C33.644 26.0433 33.4673 26.26 33.3473 26.54C33.2273 26.8133 33.1673 27.1333 33.1673 27.5V27.56C33.1673 28.1733 33.314 28.64 33.6073 28.96C33.9073 29.28 34.3307 29.44 34.8773 29.44C35.104 29.44 35.3273 29.41 35.5473 29.35C35.774 29.29 35.994 29.19 36.2073 29.05C36.3007 28.99 36.384 28.9633 36.4573 28.97C36.5373 28.97 36.6007 28.9933 36.6473 29.04C36.694 29.08 36.724 29.1333 36.7373 29.2C36.7573 29.26 36.7507 29.3267 36.7173 29.4C36.6907 29.4733 36.634 29.5367 36.5473 29.59C36.3273 29.75 36.0673 29.8733 35.7673 29.96C35.4673 30.0467 35.1707 30.09 34.8773 30.09Z" fill="#BCBBBB"/>
</svg>
