<svg width="81" height="99" viewBox="0 0 81 99" fill="none" xmlns="http://www.w3.org/2000/svg">
<path fill-rule="evenodd" clip-rule="evenodd" d="M16.6197 69.7666C17.4835 71.0035 18.3473 72.2635 19.2272 73.5235C19.4936 72.4555 19.7115 71.6719 19.8891 71.0573C21.7782 71.7487 23.7156 72.3557 25.6692 72.8858C26.2505 74.4223 27.5179 76.028 29.7863 78.0717C29.9155 76.2969 30.0204 74.9602 30.0204 73.8308C31.8126 74.1074 33.6209 74.2917 35.413 74.3993V74.4454C35.8943 75.6578 36.5171 76.8149 37.2697 77.895C38.0452 79.0256 38.8804 80.1179 39.7723 81.1679L40.3777 81.89L40.5795 82.1205C40.4261 80.4994 40.2809 79.0935 40.1598 77.8182C40.0387 76.5428 39.9095 75.4057 39.7723 74.3378C42.3599 74.0898 44.9187 73.6192 47.4171 72.9319C47.8692 73.8154 48.4746 74.7988 49.2577 76.005C49.8994 74.625 50.4179 73.1961 50.8077 71.7333C53.0434 70.8065 55.2023 69.7202 57.2659 68.4835C57.6614 69.3747 58.2184 70.4427 58.9934 71.9946C59.5977 70.8082 60.1366 69.5927 60.6079 68.3529C60.9295 67.5519 61.128 66.711 61.1973 65.856C62.8118 64.6882 64.3376 63.4359 65.7745 62.1913C67.2114 60.9467 67.0508 61.178 65.5242 62.6834C64.4924 63.701 67.1388 61.1468 67.1388 61.1468C64.6473 62.5099 62.4647 62.5831 60.4142 63.6434C59.6069 62.66 57.9924 61.7841 55.6755 60.5703C55.8047 61.8149 55.9177 62.7906 56.0146 63.6434C56.1114 64.4962 56.2002 65.1108 56.3294 65.687C54.4 66.5705 52.511 67.2927 50.6785 67.9457C50.3093 67.1657 49.8432 66.4306 49.29 65.7561C48.6684 64.9879 47.9015 64.0966 46.9732 63.0441C46.7552 64.45 46.5776 65.5948 46.4807 66.5782C46.3753 67.4296 46.3375 68.2874 46.3677 69.1442C43.9748 69.6538 41.5469 70.0004 39.1023 70.1815C38.8601 68.9215 38.5452 67.6154 38.1658 66.1326C37.7864 64.6498 37.3181 62.9903 36.745 61.0082C36.1638 63.0134 35.7036 64.7113 35.3565 66.2171C35.0289 67.5389 34.8289 68.8864 34.7591 70.2429C32.9912 70.1584 31.2233 70.0355 29.4473 69.828C29.2132 69.1289 28.8902 68.3837 28.4866 67.5232C28.083 66.6627 27.5825 65.6409 26.9609 64.4501C26.35 66.0313 25.8458 67.6479 25.4513 69.2902C23.6833 68.9752 21.8993 68.6218 20.0587 68.2147C19.6954 67.4464 18.9366 66.1941 17.6369 63.5051C17.2386 64.8112 16.8404 66.0916 16.4421 67.3465C12.9118 66.3385 10.2885 66.5669 6.99703 64.9882C8.45043 66.2021 9.18929 65.7822 10.8154 66.778C12.6701 67.9272 14.6224 68.9268 16.652 69.7666" fill="#CD605F"/>
<path fill-rule="evenodd" clip-rule="evenodd" d="M30.0042 54.9903C35.6412 57.7652 38.4806 56.9212 44.1315 54.6062C44.2207 54.5512 44.4828 54.3106 44.5351 54.222C44.5318 54.3238 44.5874 54.1335 44.5351 54.222C44.5361 54.1199 44.5827 54.3134 44.5351 54.222C44.4875 54.1307 44.5306 54.3908 44.4449 54.3304C41.1002 52.0514 41.1394 49.1271 39.4008 45.9331C39.1528 45.5011 38.7792 45.1477 38.3255 44.9161C37.8719 44.6845 37.3579 44.5847 36.8461 44.6287C36.3344 44.6727 35.8471 44.8587 35.4435 45.164C35.04 45.4694 34.7377 45.8808 34.5736 46.3482C32.9675 49.9743 33.393 52.8807 30.0042 54.9903C30.0042 54.9903 32.0114 55.4541 30.2289 54.8325C32.4639 55.6119 30.9614 55.0444 30.9614 55.0444C30.9614 55.0444 33.5347 55.5323 30.8115 54.9903C30.8735 55.0826 29.9017 54.9404 30.0042 54.9903Z" fill="#CD605F"/>
<path fill-rule="evenodd" clip-rule="evenodd" d="M29.9203 56.0234C34.9451 58.455 39.8607 58.2251 44.6673 55.334C44.748 55.2859 44.815 55.2202 44.8623 55.1427C44.9096 55.0653 44.9358 54.9782 44.9388 54.8892C44.9397 54.7998 44.9178 54.7116 44.8747 54.6317C44.8317 54.5518 44.7688 54.4825 44.6913 54.4296C41.6652 52.4354 40.771 50.8787 39.1981 48.0839C38.9736 47.7059 38.6356 47.3967 38.2252 47.1941C37.8147 46.9914 37.3497 46.904 36.8867 46.9425C36.4237 46.9811 35.9828 47.1438 35.6177 47.411C35.2526 47.6781 34.9791 48.0381 34.8306 48.4471C33.3775 51.62 32.9384 53.2731 29.8724 55.119C29.7865 55.171 29.7164 55.2427 29.6688 55.327C29.6213 55.4114 29.5979 55.5057 29.6009 55.6009C29.6054 55.6969 29.6373 55.7901 29.6934 55.8709C29.7496 55.9517 29.8279 56.0171 29.9203 56.0605" fill="url(#paint0_linear_1_258)"/>
<g filter="url(#filter0_i_1_258)">
<path fill-rule="evenodd" clip-rule="evenodd" d="M25.9678 17.3548C18.7992 13.7131 10.2583 17.7205 5.42272 27.8157C0.587162 37.9109 2.48425 49.0587 9.6609 52.708C16.8375 56.3573 26.5652 51.1253 31.4007 41.0301C31.6187 40.5691 31.8205 40.1159 32.0143 39.6549L24.9103 36.7124C22.4885 35.7059 19.6791 36.7124 18.218 39.1863L17.8305 39.847L21.3986 41.76C19.5338 43.2966 17.3057 43.8036 15.4894 42.8817C12.6559 41.4373 11.9051 37.0351 13.8103 33.04C15.7154 29.045 19.5742 26.986 22.4077 28.4303C23.1261 28.8469 23.7348 29.4145 24.1868 30.0898C24.6388 30.765 24.9222 31.5298 25.0152 32.3255L30.4078 33.8728C30.4078 25.4217 31.6187 20.2051 25.9678 17.3548Z" fill="#CD605F"/>
</g>
<path fill-rule="evenodd" clip-rule="evenodd" d="M53.2773 3.57519C63.4059 0.708971 74.2316 9.56869 77.4675 23.356C80.7034 37.1432 75.1086 50.6376 64.9877 53.5044C54.8667 56.3712 44.0328 47.5182 40.7969 33.731C40.6571 33.1129 40.5256 32.4881 40.4163 31.8724L50.2486 29.8722C53.6278 29.1836 56.8689 31.1211 58.0151 34.5568L58.3221 35.4692L53.2479 37.02C55.1763 39.39 57.8529 40.5509 60.4155 39.7923C64.424 38.6632 66.6294 33.3222 65.3544 27.8695C64.0793 22.4168 59.7938 18.9253 55.793 20.0549C54.7721 20.3965 53.8445 20.9568 53.0803 21.6936C52.3161 22.4303 51.7352 23.3243 51.3814 24.3081L37.6733 24.3078C38.0006 14.0085 45.3571 5.78147 53.2798 3.54577" fill="#CD605F"/>
<g filter="url(#filter1_i_1_258)">
<path fill-rule="evenodd" clip-rule="evenodd" d="M51.6627 2.80666C61.7913 -0.0595594 72.617 8.80016 75.8529 22.5874C79.0888 36.3747 73.494 49.869 63.3731 52.7358C53.2521 55.6026 42.4182 46.7497 39.1823 32.9624C39.0425 32.3444 38.911 31.7196 38.8017 31.1039L48.634 29.1036C52.0132 28.4151 55.2543 30.3526 56.4005 33.7883L56.7075 34.7006L51.6333 36.2515C53.5617 38.6215 56.2383 39.7824 58.8009 39.0237C62.8094 37.8947 65.0148 32.5537 63.7398 27.101C62.4647 21.6483 58.1792 18.1567 54.1784 19.2864C53.1575 19.628 52.2299 20.1883 51.4657 20.9251C50.7015 21.6618 50.1206 22.5558 49.7668 23.5396L38.2851 24.0504C38.6124 13.7511 43.7425 5.01294 51.6652 2.77724" fill="#CD605F"/>
</g>
<g filter="url(#filter2_i_1_258)">
<path fill-rule="evenodd" clip-rule="evenodd" d="M49.75 0.979455C60.1316 -2.80049 72.2891 5.52769 76.9148 19.5719C81.5404 33.616 76.8664 48.0597 66.4929 51.8397C56.1195 55.6196 43.9539 47.2991 39.3282 33.2549C39.1264 32.625 38.9326 31.9873 38.7631 31.3573L48.9105 28.4993C52.3979 27.5159 55.9741 29.2676 57.4837 32.7402L57.8874 33.6622L52.6966 35.675C54.9327 37.9799 57.847 38.971 60.4706 37.9799C64.5797 36.4894 66.4202 30.7734 64.5958 25.2187C62.7714 19.664 57.96 16.3835 53.8591 17.8739C52.8173 18.3096 51.8931 18.9647 51.1562 19.7899C50.4192 20.615 49.8887 21.5886 49.6047 22.6373L37.5925 24.0817C37.0194 13.3718 41.6289 3.89894 49.75 0.94874" fill="url(#paint1_linear_1_258)"/>
</g>
<g filter="url(#filter3_i_1_258)">
<path fill-rule="evenodd" clip-rule="evenodd" d="M24.7408 16.1378C17.5722 12.4962 7.83654 17.7205 3.00098 27.8157C-1.83457 37.9109 0.0625135 49.0587 7.23916 52.708C14.4158 56.3573 24.1434 51.1253 28.979 41.0301C29.1969 40.5691 29.3988 40.1159 29.5925 39.6549L22.4885 36.7124C20.0667 35.7059 17.2574 36.7124 15.7962 39.1863L15.4087 39.847L18.9769 41.76C17.1121 43.2965 14.884 43.8036 13.0676 42.8817C10.2341 41.4373 9.48339 37.0351 11.3885 33.04C13.2937 29.045 17.1524 26.986 19.986 28.4303C20.7044 28.8469 21.313 29.4145 21.765 30.0897C22.217 30.765 22.5004 31.5298 22.5935 32.3255L31.199 34.3614C32.7328 26.4328 30.3917 18.9958 24.7408 16.1455" fill="url(#paint2_linear_1_258)"/>
</g>
<g filter="url(#filter4_d_1_258)">
<path fill-rule="evenodd" clip-rule="evenodd" d="M70.707 10.9815C69.0157 8.64076 66.8309 6.66073 64.2917 5.1674C61.7525 3.67407 58.9144 2.70014 55.9582 2.30761C50.1054 1.39336 47.0782 3.88259 44.1316 7.83155C45.6735 5.15794 46.8279 3.22186 50.1216 1.84664C58.5414 -1.7105 67.0258 4.79685 70.707 10.9815Z" fill="#050606"/>
</g>
<g filter="url(#filter5_d_1_258)">
<path fill-rule="evenodd" clip-rule="evenodd" d="M5.38245 25.5788C8.65997 20.8385 12.8336 17.896 18.7751 16.905C24.0869 15.9907 26.8478 18.4799 29.5118 22.4212C28.1152 19.7553 27.09 17.8115 24.0708 16.444C16.4259 12.8869 8.73263 19.3942 5.38245 25.5788Z" fill="#050606"/>
</g>
<g filter="url(#filter6_i_1_258)">
<path fill-rule="evenodd" clip-rule="evenodd" d="M16.7086 70.9853C17.5724 72.2223 18.4362 73.4823 19.3161 74.7422C19.5825 73.6743 19.8004 72.8907 19.978 72.276C21.867 72.9675 23.8045 73.5744 25.7581 74.1045C26.3393 75.6411 27.6067 77.2468 29.8752 79.2904C30.0043 77.5157 30.1093 76.1789 30.1093 75.0496C31.9015 75.3261 33.7097 75.5105 35.5019 75.6181V75.6642C35.9832 76.8765 36.606 78.0336 37.3586 79.1138C38.134 80.2443 38.9693 81.3367 39.8611 82.3866L40.4666 83.1088L40.6684 83.3393C40.515 81.7182 40.3697 80.3123 40.2487 79.0369C40.1276 77.7616 39.9984 76.6245 39.8611 75.5566C42.4488 75.3086 45.0076 74.838 47.506 74.1506C47.9581 75.0342 48.5635 76.0176 49.3466 77.2238C49.9883 75.8438 50.5068 74.4149 50.8966 72.9521C53.1323 72.0253 55.2912 70.939 57.3547 69.7023C57.7503 70.5935 58.3073 71.6614 59.0823 73.2134C59.6866 72.027 60.2255 70.8115 60.6968 69.5717C61.0183 68.7707 61.2169 67.9297 61.2862 67.0748C62.9007 65.907 64.4264 64.6547 65.8634 63.4101C67.3003 62.1655 68.6404 60.9132 69.8997 59.6763C68.8745 60.2141 67.8654 60.7672 66.8563 61.328C64.6686 62.6111 62.5535 63.8019 60.5031 64.8622C59.6958 63.8788 58.0813 63.0029 55.7644 61.789C55.8936 63.0336 56.0066 64.0094 56.1034 64.8622C56.2003 65.7149 56.2891 66.3295 56.4183 66.9058C54.4889 67.7893 52.5999 68.5115 50.7674 69.1645C50.3982 68.3844 49.932 67.6493 49.3789 66.9749C48.7573 66.2066 47.9904 65.3154 47.062 64.2629C46.8441 65.6688 46.6664 66.8136 46.5696 67.797C46.4641 68.6484 46.4264 69.5062 46.4566 70.363C44.0637 70.8725 41.6358 71.2192 39.1911 71.4002C38.9489 70.1402 38.6341 68.8342 38.2547 67.3514C37.8752 65.8686 37.407 64.2091 36.8339 62.227C36.2526 64.2322 35.7925 65.93 35.4454 67.4359C35.1177 68.7577 34.9178 70.1052 34.848 71.4617C33.0801 71.3771 31.3121 71.2542 29.5361 71.0468C29.302 70.3477 28.9791 69.6024 28.5755 68.742C28.1718 67.8815 27.6713 66.8597 27.0497 65.6688C26.4389 67.25 25.9347 68.8667 25.5401 70.509C23.7722 70.194 21.9881 69.8406 20.1476 69.4334C19.7843 68.6651 19.0255 67.4128 17.7257 64.7239C17.3275 66.0299 16.9293 67.3104 16.531 68.5653C13.0007 67.5572 9.57007 66.2564 6.27864 64.6778C7.73204 65.8916 9.27816 67.001 10.9043 67.9967C12.7589 69.146 14.7113 70.1456 16.7409 70.9853" fill="url(#paint3_linear_1_258)"/>
</g>
<path d="M24.1096 90.8896V88.2533C24.1096 88.2145 24.141 88.1758 24.141 88.137C24.1725 88.137 24.2354 88.0982 24.2669 88.0982H25.3995C25.4309 88.0982 25.4624 88.137 25.4939 88.1758C25.5253 88.1758 25.5253 88.2533 25.5253 88.2921C25.5253 88.3308 25.5253 88.4084 25.4939 88.4084C25.4624 88.4472 25.4309 88.4859 25.3995 88.4859H24.4556V89.4164H24.959C24.9905 89.4164 25.0219 89.4164 25.0534 89.4551C25.0534 89.4939 25.0849 89.5327 25.0849 89.5715C25.0849 89.6102 25.0534 89.649 25.0534 89.6878C25.0219 89.7265 24.9905 89.7265 24.959 89.7265H24.4556V90.8896C24.4556 90.9671 24.4242 91.0059 24.3927 91.0059C24.3613 91.0447 24.3298 91.0447 24.2983 91.0447C24.2354 91.0447 24.204 91.0447 24.1725 91.0059C24.141 91.0059 24.1096 90.9671 24.1096 90.8896V90.8896Z" fill="#333333"/>
<path d="M27.5074 90.1646V88.9783C27.5074 88.6722 27.5797 88.4809 27.7604 88.3278C27.905 88.1748 28.0858 88.0982 28.3388 88.0982C28.628 88.0982 28.8087 88.1748 28.9533 88.3278C29.134 88.4809 29.2063 88.6722 29.2063 88.9783V90.1646C29.2063 90.4707 29.134 90.662 28.9533 90.8151C28.8087 90.9681 28.628 91.0447 28.3388 91.0447C28.0858 91.0447 27.905 90.9681 27.7604 90.8151C27.5797 90.662 27.5074 90.4707 27.5074 90.1646ZM27.905 90.1646C27.905 90.5089 28.0496 90.662 28.3388 90.662C28.4834 90.662 28.5918 90.6237 28.7003 90.5472C28.7726 90.4324 28.8087 90.3176 28.8087 90.1646V88.9783C28.8087 88.8253 28.7726 88.6722 28.7003 88.5957C28.5918 88.5192 28.4834 88.4809 28.3388 88.4809C28.0496 88.4809 27.905 88.6339 27.905 88.9783V90.1646Z" fill="#333333"/>
<path d="M31.1884 90.8896V88.2533C31.1884 88.2145 31.1884 88.1758 31.2246 88.137C31.2246 88.137 31.2607 88.0982 31.2968 88.0982H32.0198C32.5981 88.0982 32.8873 88.3696 32.8873 88.9124C32.8873 89.145 32.815 89.3388 32.7427 89.4551C32.6343 89.6102 32.5259 89.6878 32.3451 89.7265L32.8873 90.7733C32.8873 90.8121 32.8873 90.8121 32.8873 90.8508C32.8873 90.8896 32.8512 90.9284 32.815 91.0059C32.7789 91.0447 32.7066 91.0447 32.6343 91.0447C32.5981 91.0447 32.5259 91.0059 32.4897 90.9284L31.9475 89.7653H31.5499V90.8896C31.5499 90.9671 31.5499 90.9671 31.5137 91.0059C31.4776 91.0447 31.4053 91.0447 31.3691 91.0447C31.2968 91.0447 31.2607 91.0447 31.2246 91.0059C31.1884 90.9671 31.1884 90.9671 31.1884 90.8896ZM31.5499 89.4551H32.0198C32.3451 89.4551 32.4897 89.3001 32.4897 88.9511C32.4897 88.641 32.3451 88.4859 32.0198 88.4859H31.5499V89.4551Z" fill="#333333"/>
<path d="M37.1346 90.1646V88.9783C37.1346 88.6722 37.219 88.4809 37.3877 88.3278C37.5985 88.1748 37.8094 88.0982 38.1046 88.0982C38.3998 88.0982 38.6528 88.1748 38.8215 88.2896C38.9902 88.4426 39.1167 88.6339 39.1167 88.8253C39.1167 88.9018 39.0745 88.9783 39.0324 89.0166C38.9902 89.0166 38.948 89.0549 38.8637 89.0549C38.695 89.0549 38.6528 88.9783 38.6528 88.9018C38.6106 88.634 38.4419 88.4809 38.1046 88.4809C37.7672 88.4809 37.5985 88.6339 37.5985 88.9783V90.1646C37.5985 90.5089 37.7672 90.662 38.1046 90.662C38.2733 90.662 38.3998 90.6237 38.4841 90.5472C38.6106 90.4324 38.6528 90.3176 38.6528 90.1263V89.8202H38.1889C38.1467 89.8202 38.1046 89.8202 38.1046 89.7819C38.0624 89.7436 38.0624 89.7054 38.0624 89.6288C38.0624 89.5906 38.0624 89.5523 38.1046 89.5523C38.1046 89.5141 38.1467 89.4758 38.1889 89.4758H38.948C38.9902 89.4758 39.0324 89.5141 39.0745 89.5141C39.0745 89.5523 39.1167 89.5906 39.1167 89.6288V90.1646C39.1167 90.4707 39.0324 90.662 38.8215 90.8151C38.6528 90.9681 38.3998 91.0447 38.1046 91.0447C37.8094 91.0447 37.5985 90.9681 37.3877 90.8151C37.219 90.662 37.1346 90.4707 37.1346 90.1646Z" fill="#333333"/>
<path d="M40.8156 90.8896C40.8156 90.8508 40.8156 90.8508 40.8156 90.8508L41.5589 88.2145C41.5589 88.137 41.6651 88.0982 41.8067 88.0982C41.9482 88.0982 42.0544 88.137 42.0544 88.2145L42.7977 90.8121C42.7977 90.8508 42.7977 90.8508 42.7977 90.8508C42.7977 90.9284 42.7623 90.9671 42.7269 91.0059C42.6561 91.0447 42.6207 91.0447 42.5499 91.0447C42.4438 91.0447 42.4084 91.0059 42.4084 90.9671L42.2314 90.3856H41.3465L41.205 90.9671C41.1696 91.0059 41.1342 91.0447 41.0634 91.0447C40.9926 91.0447 40.9218 91.0447 40.8864 91.0059C40.851 90.9671 40.8156 90.9284 40.8156 90.8896ZM41.4173 90.0367H42.1606L41.7713 88.6798L41.4173 90.0367Z" fill="#333333"/>
<path d="M44.7798 90.8896V88.3308C44.7798 88.2533 44.8139 88.1758 44.8481 88.1758C44.8823 88.137 44.9165 88.0982 44.9848 88.0982C45.0532 88.0982 45.1215 88.137 45.1557 88.137C45.1899 88.1758 45.224 88.2533 45.2924 88.3308L45.7708 89.4164L46.2834 88.3308C46.3176 88.2533 46.3518 88.1758 46.4201 88.137C46.4543 88.137 46.5226 88.0982 46.591 88.0982C46.6251 88.0982 46.6593 88.137 46.7277 88.1758C46.7618 88.1758 46.7618 88.2533 46.7618 88.3308V90.8896C46.7618 90.9671 46.7618 90.9671 46.7277 91.0059C46.6593 91.0447 46.6251 91.0447 46.591 91.0447C46.5226 91.0447 46.4884 91.0447 46.4543 91.0059C46.4201 90.9671 46.3859 90.9671 46.3859 90.8896V88.9899L45.9075 89.9591C45.8733 90.0367 45.8392 90.0754 45.7708 90.0754C45.7025 90.0754 45.6683 90.0367 45.6341 89.9591L45.1557 88.9511V90.8896C45.1557 90.9671 45.1557 90.9671 45.1215 91.0059C45.0873 91.0447 45.0532 91.0447 44.9848 91.0447C44.9165 91.0447 44.8823 91.0447 44.8481 91.0059C44.8139 90.9671 44.7798 90.9671 44.7798 90.8896Z" fill="#333333"/>
<path d="M49.0271 90.8896V88.2533C49.0271 88.2145 49.0271 88.1758 49.0528 88.137C49.0786 88.137 49.13 88.0982 49.1558 88.0982C49.2073 88.0982 49.233 88.137 49.2587 88.137C49.2845 88.1758 49.3102 88.2145 49.3102 88.2533V90.8896C49.3102 90.9671 49.2845 90.9671 49.2587 91.0059C49.233 91.0447 49.2073 91.0447 49.1558 91.0447C49.13 91.0447 49.0786 91.0447 49.0528 91.0059C49.0271 90.9671 49.0271 90.9671 49.0271 90.8896Z" fill="#333333"/>
<path d="M51.5755 90.8896V88.2533C51.5755 88.137 51.6462 88.0982 51.7878 88.0982C51.8586 88.0982 51.894 88.137 51.9294 88.137C51.9648 88.1758 52.0356 88.2533 52.071 88.3308L52.885 90.0754V88.2533C52.885 88.2145 52.9204 88.1758 52.9558 88.137C52.9912 88.137 53.0266 88.0982 53.0974 88.0982C53.1328 88.0982 53.1682 88.137 53.2036 88.137C53.2744 88.1758 53.2744 88.2145 53.2744 88.2533V90.8896C53.2744 90.9671 53.2744 90.9671 53.2036 91.0059C53.1682 91.0447 53.1328 91.0447 53.0974 91.0447C52.9912 91.0447 52.885 91.0059 52.8496 90.8896L51.9648 89.0675V90.8896C51.9648 90.9671 51.9648 90.9671 51.9294 91.0059C51.8586 91.0447 51.8232 91.0447 51.7878 91.0447C51.717 91.0447 51.6816 91.0447 51.6462 91.0059C51.6108 90.9671 51.5755 90.9671 51.5755 90.8896Z" fill="#333333"/>
<path d="M55.2564 90.1646V88.9783C55.2564 88.6722 55.3303 88.4809 55.478 88.3278C55.6258 88.1748 55.8474 88.0982 56.1059 88.0982C56.3644 88.0982 56.5491 88.1748 56.7338 88.2896C56.8815 88.4426 56.9554 88.6339 56.9554 88.8253C56.9554 88.9018 56.9554 88.9783 56.9184 89.0166C56.8815 89.0166 56.8446 89.0549 56.7707 89.0549C56.623 89.0549 56.586 88.9783 56.5491 88.9018C56.5491 88.634 56.4014 88.4809 56.1059 88.4809C55.8104 88.4809 55.6627 88.6339 55.6627 88.9783V90.1646C55.6627 90.5089 55.8104 90.662 56.1059 90.662C56.2536 90.662 56.3644 90.6237 56.4383 90.5472C56.5122 90.4324 56.5491 90.3176 56.5491 90.1263V89.8202H56.1798C56.1428 89.8202 56.1059 89.8202 56.069 89.7819C56.069 89.7436 56.032 89.7054 56.032 89.6288C56.032 89.5906 56.069 89.5523 56.069 89.5523C56.1059 89.5141 56.1428 89.4758 56.1798 89.4758H56.8446C56.8815 89.4758 56.9184 89.5141 56.9554 89.5141C56.9554 89.5523 56.9554 89.5906 56.9554 89.6288V90.1646C56.9554 90.4707 56.8815 90.662 56.7338 90.8151C56.586 90.9681 56.3644 91.0447 56.1059 91.0447C55.8474 91.0447 55.6258 90.9681 55.478 90.8151C55.3303 90.662 55.2564 90.4707 55.2564 90.1646Z" fill="#333333"/>
<defs>
<filter id="filter0_i_1_258" x="2.74641" y="16.0326" width="29.2678" height="41.8376" filterUnits="userSpaceOnUse" color-interpolation-filters="sRGB">
<feFlood flood-opacity="0" result="BackgroundImageFix"/>
<feBlend mode="normal" in="SourceGraphic" in2="BackgroundImageFix" result="shape"/>
<feColorMatrix in="SourceAlpha" type="matrix" values="0 0 0 0 0 0 0 0 0 0 0 0 0 0 0 0 0 0 127 0" result="hardAlpha"/>
<feOffset dy="4"/>
<feGaussianBlur stdDeviation="2"/>
<feComposite in2="hardAlpha" operator="arithmetic" k2="-1" k3="1"/>
<feColorMatrix type="matrix" values="0 0 0 0 0 0 0 0 0 0 0 0 0 0 0 0 0 0 0.25 0"/>
<feBlend mode="normal" in2="shape" result="effect1_innerShadow_1_258"/>
</filter>
<filter id="filter1_i_1_258" x="38.2851" y="2.2681" width="38.4856" height="55.0068" filterUnits="userSpaceOnUse" color-interpolation-filters="sRGB">
<feFlood flood-opacity="0" result="BackgroundImageFix"/>
<feBlend mode="normal" in="SourceGraphic" in2="BackgroundImageFix" result="shape"/>
<feColorMatrix in="SourceAlpha" type="matrix" values="0 0 0 0 0 0 0 0 0 0 0 0 0 0 0 0 0 0 127 0" result="hardAlpha"/>
<feOffset dy="4"/>
<feGaussianBlur stdDeviation="2"/>
<feComposite in2="hardAlpha" operator="arithmetic" k2="-1" k3="1"/>
<feColorMatrix type="matrix" values="0 0 0 0 0 0 0 0 0 0 0 0 0 0 0 0 0 0 0.25 0"/>
<feBlend mode="normal" in2="shape" result="effect1_innerShadow_1_258"/>
</filter>
<filter id="filter2_i_1_258" x="37.5447" y="0.0684814" width="41.1555" height="56.6827" filterUnits="userSpaceOnUse" color-interpolation-filters="sRGB">
<feFlood flood-opacity="0" result="BackgroundImageFix"/>
<feBlend mode="normal" in="SourceGraphic" in2="BackgroundImageFix" result="shape"/>
<feColorMatrix in="SourceAlpha" type="matrix" values="0 0 0 0 0 0 0 0 0 0 0 0 0 0 0 0 0 0 127 0" result="hardAlpha"/>
<feOffset dy="4"/>
<feGaussianBlur stdDeviation="2"/>
<feComposite in2="hardAlpha" operator="arithmetic" k2="-1" k3="1"/>
<feColorMatrix type="matrix" values="0 0 0 0 0 0 0 0 0 0 0 0 0 0 0 0 0 0 0.25 0"/>
<feBlend mode="normal" in2="shape" result="effect1_innerShadow_1_258"/>
</filter>
<filter id="filter3_i_1_258" x="0.324677" y="14.9787" width="31.3341" height="42.8914" filterUnits="userSpaceOnUse" color-interpolation-filters="sRGB">
<feFlood flood-opacity="0" result="BackgroundImageFix"/>
<feBlend mode="normal" in="SourceGraphic" in2="BackgroundImageFix" result="shape"/>
<feColorMatrix in="SourceAlpha" type="matrix" values="0 0 0 0 0 0 0 0 0 0 0 0 0 0 0 0 0 0 127 0" result="hardAlpha"/>
<feOffset dy="4"/>
<feGaussianBlur stdDeviation="2"/>
<feComposite in2="hardAlpha" operator="arithmetic" k2="-1" k3="1"/>
<feColorMatrix type="matrix" values="0 0 0 0 0 0 0 0 0 0 0 0 0 0 0 0 0 0 0.25 0"/>
<feBlend mode="normal" in2="shape" result="effect1_innerShadow_1_258"/>
</filter>
<filter id="filter4_d_1_258" x="40.1316" y="0.836731" width="34.5754" height="18.1448" filterUnits="userSpaceOnUse" color-interpolation-filters="sRGB">
<feFlood flood-opacity="0" result="BackgroundImageFix"/>
<feColorMatrix in="SourceAlpha" type="matrix" values="0 0 0 0 0 0 0 0 0 0 0 0 0 0 0 0 0 0 127 0" result="hardAlpha"/>
<feOffset dy="4"/>
<feGaussianBlur stdDeviation="2"/>
<feComposite in2="hardAlpha" operator="out"/>
<feColorMatrix type="matrix" values="0 0 0 0 0 0 0 0 0 0 0 0 0 0 0 0 0 0 0.25 0"/>
<feBlend mode="normal" in2="BackgroundImageFix" result="effect1_dropShadow_1_258"/>
<feBlend mode="normal" in="SourceGraphic" in2="effect1_dropShadow_1_258" result="shape"/>
</filter>
<filter id="filter5_d_1_258" x="1.38245" y="15.4341" width="32.1294" height="18.1447" filterUnits="userSpaceOnUse" color-interpolation-filters="sRGB">
<feFlood flood-opacity="0" result="BackgroundImageFix"/>
<feColorMatrix in="SourceAlpha" type="matrix" values="0 0 0 0 0 0 0 0 0 0 0 0 0 0 0 0 0 0 127 0" result="hardAlpha"/>
<feOffset dy="4"/>
<feGaussianBlur stdDeviation="2"/>
<feComposite in2="hardAlpha" operator="out"/>
<feColorMatrix type="matrix" values="0 0 0 0 0 0 0 0 0 0 0 0 0 0 0 0 0 0 0.25 0"/>
<feBlend mode="normal" in2="BackgroundImageFix" result="effect1_dropShadow_1_258"/>
<feBlend mode="normal" in="SourceGraphic" in2="effect1_dropShadow_1_258" result="shape"/>
</filter>
<filter id="filter6_i_1_258" x="6.27864" y="59.6763" width="63.6211" height="27.663" filterUnits="userSpaceOnUse" color-interpolation-filters="sRGB">
<feFlood flood-opacity="0" result="BackgroundImageFix"/>
<feBlend mode="normal" in="SourceGraphic" in2="BackgroundImageFix" result="shape"/>
<feColorMatrix in="SourceAlpha" type="matrix" values="0 0 0 0 0 0 0 0 0 0 0 0 0 0 0 0 0 0 127 0" result="hardAlpha"/>
<feOffset dy="4"/>
<feGaussianBlur stdDeviation="2"/>
<feComposite in2="hardAlpha" operator="arithmetic" k2="-1" k3="1"/>
<feColorMatrix type="matrix" values="0 0 0 0 0 0 0 0 0 0 0 0 0 0 0 0 0 0 0.25 0"/>
<feBlend mode="normal" in2="shape" result="effect1_innerShadow_1_258"/>
</filter>
<linearGradient id="paint0_linear_1_258" x1="34.4908" y1="58.7397" x2="40.0248" y2="48.4093" gradientUnits="userSpaceOnUse">
<stop stop-color="#F65F6F"/>
<stop offset="1" stop-color="#F78164"/>
</linearGradient>
<linearGradient id="paint1_linear_1_258" x1="50.6659" y1="57.8945" x2="83.2173" y2="24.607" gradientUnits="userSpaceOnUse">
<stop stop-color="#F65F6F"/>
<stop offset="1" stop-color="#F78164"/>
</linearGradient>
<linearGradient id="paint2_linear_1_258" x1="10.3146" y1="57.667" x2="34.3167" y2="32.3528" gradientUnits="userSpaceOnUse">
<stop stop-color="#F65F6F"/>
<stop offset="1" stop-color="#F78164"/>
</linearGradient>
<linearGradient id="paint3_linear_1_258" x1="26.5623" y1="85.6495" x2="34.252" y2="58.5854" gradientUnits="userSpaceOnUse">
<stop stop-color="#F65F6F"/>
<stop offset="1" stop-color="#F78164"/>
</linearGradient>
</defs>
</svg>
