<svg width="126" height="150" viewBox="0 0 126 150" fill="none" xmlns="http://www.w3.org/2000/svg">
<path fill-rule="evenodd" clip-rule="evenodd" d="M25.532 105.707C26.8855 107.581 28.2389 109.49 29.6177 111.399C30.0351 109.781 30.3765 108.594 30.6548 107.663C33.6146 108.71 36.6504 109.63 39.7114 110.433C40.6221 112.761 42.6079 115.194 46.1623 118.29C46.3647 115.601 46.5291 113.576 46.5291 111.865C49.3372 112.284 52.1705 112.563 54.9785 112.726V112.796C55.7327 114.633 56.7085 116.386 57.8878 118.023C59.1027 119.736 60.4114 121.391 61.8089 122.982L62.7575 124.076L63.0737 124.425C62.8334 121.969 62.6058 119.839 62.4161 117.906C62.2263 115.974 62.0239 114.251 61.8089 112.633C65.8634 112.257 69.8726 111.544 73.7873 110.503C74.4957 111.842 75.4443 113.332 76.6712 115.159C77.6767 113.068 78.4891 110.903 79.0999 108.687C82.6029 107.283 85.9856 105.637 89.2189 103.763C89.8387 105.113 90.7114 106.731 91.9257 109.083C92.8725 107.285 93.7169 105.443 94.4555 103.565C94.9592 102.351 95.2703 101.077 95.3789 99.7819C97.9086 98.0125 100.299 96.1151 102.551 94.2293C104.802 92.3435 104.55 92.694 102.159 94.9749C100.542 96.5166 104.688 92.6467 104.688 92.6467C100.785 94.712 97.3647 94.823 94.1519 96.4294C92.887 94.9394 90.3573 93.6124 86.7271 91.7731C86.9294 93.6589 87.1065 95.1373 87.2583 96.4294C87.4101 97.7215 87.5492 98.6527 87.7516 99.5258C84.7285 100.864 81.7687 101.959 78.8974 102.948C78.3189 101.766 77.5886 100.652 76.7219 99.6306C75.7479 98.4665 74.5463 97.1161 73.0917 95.5214C72.7501 97.6516 72.4718 99.3861 72.32 100.876C72.1549 102.166 72.0957 103.466 72.143 104.764C68.3937 105.536 64.5895 106.061 60.7591 106.336C60.3796 104.426 59.8862 102.448 59.2918 100.201C58.6973 97.9543 57.9636 95.4399 57.0655 92.4367C56.1548 95.4749 55.4339 98.0474 54.89 100.329C54.3766 102.332 54.0633 104.373 53.954 106.429C51.1839 106.301 48.4138 106.114 45.631 105.8C45.2642 104.741 44.7583 103.612 44.1258 102.308C43.4934 101.004 42.7091 99.4559 41.7352 97.6516C40.7781 100.047 39.988 102.497 39.3699 104.985C36.5998 104.508 33.8044 103.973 30.9205 103.356C30.3513 102.191 29.1623 100.294 27.1258 96.2199C26.5018 98.1988 25.8778 100.139 25.2538 102.04C19.7223 100.513 15.6119 100.859 10.4547 98.4671C12.7319 100.306 13.8896 99.67 16.4375 101.179C19.3435 102.92 22.4026 104.435 25.5827 105.707" fill="#CD605F"/>
<path fill-rule="evenodd" clip-rule="evenodd" d="M46.5036 83.3187C55.3361 87.523 59.7849 86.2442 68.6391 82.7366C68.7789 82.6533 69.1896 82.2888 69.2715 82.1546C69.2664 82.3088 69.3534 82.0204 69.2715 82.1546C69.2732 81.9999 69.3461 82.293 69.2715 82.1546C69.197 82.0162 69.2645 82.4104 69.1302 82.3188C63.8896 78.8657 63.9509 74.435 61.2269 69.5955C60.8382 68.941 60.2528 68.4057 59.542 68.0547C58.8312 67.7038 58.0258 67.5525 57.224 67.6192C56.4222 67.6859 55.6586 67.9677 55.0263 68.4303C54.3941 68.893 53.9204 69.5163 53.6633 70.2245C51.1467 75.7186 51.8134 80.1223 46.5036 83.3187C46.5036 83.3187 49.6486 84.0213 46.8557 83.0796C50.3577 84.2604 48.0035 83.4006 48.0035 83.4006C48.0035 83.4006 52.0354 84.1398 47.7685 83.3187C47.8657 83.4585 46.343 83.2431 46.5036 83.3187Z" fill="#CD605F"/>
<path fill-rule="evenodd" clip-rule="evenodd" d="M46.3722 84.884C54.2453 88.5681 61.9475 88.2199 69.4787 83.8394C69.6052 83.7665 69.7101 83.667 69.7842 83.5496C69.8583 83.4322 69.8994 83.3003 69.9041 83.1654C69.9055 83.0301 69.8712 82.8964 69.8037 82.7753C69.7363 82.6542 69.6378 82.5492 69.5162 82.4691C64.7748 79.4476 63.3737 77.0889 60.9091 72.8544C60.5575 72.2817 60.0278 71.8133 59.3848 71.5062C58.7417 71.1991 58.013 71.0667 57.2875 71.1251C56.5621 71.1834 55.8712 71.43 55.2992 71.8348C54.7272 72.2396 54.2986 72.7851 54.066 73.4047C51.7891 78.2121 51.1011 80.7168 46.2971 83.5136C46.1625 83.5924 46.0527 83.701 45.9782 83.8289C45.9037 83.9567 45.8671 84.0995 45.8717 84.2438C45.8787 84.3893 45.9288 84.5305 46.0167 84.6529C46.1047 84.7753 46.2274 84.8744 46.3722 84.9401" fill="url(#paint0_linear_200_2781)"/>
<g filter="url(#filter0_i_200_2781)">
<path fill-rule="evenodd" clip-rule="evenodd" d="M40.1792 26.2951C28.947 20.7774 15.5645 26.8492 7.98789 42.1449C0.411248 57.4407 3.38372 74.3313 14.6285 79.8606C25.8733 85.3899 41.1152 77.4626 48.6918 62.1668C49.0333 61.4684 49.3496 60.7816 49.6531 60.0832L38.5222 55.6248C34.7275 54.0999 30.3257 55.6248 28.0363 59.3731L27.4291 60.3742L33.0199 63.2727C30.098 65.6008 26.6069 66.3691 23.7609 64.9723C19.3212 62.7838 18.1449 56.1137 21.13 50.0606C24.1152 44.0075 30.1613 40.8878 34.601 43.0763C35.7267 43.7073 36.6803 44.5674 37.3885 45.5905C38.0968 46.6136 38.5408 47.7724 38.6866 48.978L47.136 51.3224C47.136 38.5177 49.0333 30.6137 40.1792 26.2951Z" fill="#CD605F"/>
</g>
<path fill-rule="evenodd" clip-rule="evenodd" d="M82.9694 5.41697C98.8395 1.07422 115.802 14.498 120.872 35.3878C125.942 56.2776 117.176 76.7236 101.318 81.0672C85.4598 85.4109 68.4845 71.9973 63.4143 51.1075C63.1953 50.1711 62.9892 49.2244 62.818 48.2915L78.2238 45.2609C83.5185 44.2176 88.5969 47.1533 90.3929 52.3589L90.8739 53.7412L82.9232 56.091C85.9448 59.6818 90.1387 61.4408 94.154 60.2913C100.435 58.5807 103.89 50.4882 101.892 42.2266C99.8946 33.9649 93.1799 28.6747 86.9112 30.3862C85.3115 30.9038 83.8581 31.7528 82.6607 32.8691C81.4633 33.9854 80.553 35.3399 79.9987 36.8305L58.5201 36.8301C59.033 21.2251 70.5595 8.75983 82.9733 5.3724" fill="#CD605F"/>
<g filter="url(#filter1_i_200_2781)">
<path fill-rule="evenodd" clip-rule="evenodd" d="M80.4396 4.25252C96.3097 -0.0902284 113.272 13.3336 118.342 34.2234C123.412 55.1132 114.646 75.5591 98.7881 79.9028C82.93 84.2464 65.9547 70.8329 60.8845 49.9431C60.6655 49.0066 60.4594 48.06 60.2882 47.1271L75.694 44.0964C80.9887 43.0532 86.0671 45.9888 87.8631 51.1944L88.3441 52.5767L80.3934 54.9265C83.415 58.5174 87.6089 60.2764 91.6241 59.1269C97.9048 57.4162 101.36 49.3238 99.3626 41.0621C97.3648 32.8005 90.65 27.5102 84.3813 29.2218C82.7817 29.7394 81.3283 30.5883 80.1309 31.7046C78.9335 32.8209 78.0232 34.1755 77.4689 35.666L59.4787 36.44C59.9915 20.8349 68.0297 7.59538 80.4435 4.20795" fill="#CD605F"/>
</g>
<g filter="url(#filter2_i_200_2781)">
<path fill-rule="evenodd" clip-rule="evenodd" d="M77.4427 1.48402C93.7091 -4.24316 112.758 8.37528 120.006 29.6543C127.254 50.9334 119.93 72.8177 103.676 78.5449C87.4227 84.2721 68.3608 71.6653 61.1131 50.3863C60.7968 49.4317 60.4933 48.4656 60.2276 47.5111L76.1272 43.1807C81.5915 41.6907 87.1949 44.3448 89.5603 49.6064L90.1927 51.0033L82.0595 54.0531C85.5632 57.5453 90.1295 59.0469 94.2403 57.5453C100.679 55.287 103.563 46.6263 100.704 38.2102C97.8452 29.794 90.3066 24.8235 83.881 27.0817C82.2487 27.7418 80.8006 28.7344 79.6459 29.9846C78.4912 31.2348 77.6599 32.71 77.215 34.2989L58.3935 36.4874C57.4955 20.2604 64.718 5.90748 77.4427 1.43749" fill="url(#paint1_linear_200_2781)"/>
</g>
<g filter="url(#filter3_i_200_2781)">
<path fill-rule="evenodd" clip-rule="evenodd" d="M38.2567 24.4513C27.0245 18.9336 11.77 26.8492 4.1934 42.145C-3.38325 57.4407 -0.410773 74.3313 10.834 79.8606C22.0788 85.3899 37.3207 77.4626 44.8973 62.1669C45.2388 61.4684 45.5551 60.7816 45.8586 60.0832L34.7277 55.6248C30.933 54.0999 26.5312 55.6249 24.2418 59.3731L23.6346 60.3742L29.2254 63.2727C26.3035 65.6008 22.8124 66.3692 19.9664 64.9723C15.5267 62.7838 14.3504 56.1138 17.3355 50.0606C20.3207 44.0075 26.3668 40.8878 30.8065 43.0763C31.9322 43.7074 32.8858 44.5675 33.594 45.5905C34.3023 46.6136 34.7463 47.7724 34.8921 48.978L48.3757 52.0628C50.779 40.0497 47.1108 28.7815 38.2567 24.4629" fill="url(#paint2_linear_200_2781)"/>
</g>
<g filter="url(#filter4_d_200_2781)">
<path fill-rule="evenodd" clip-rule="evenodd" d="M110.279 16.6386C107.629 13.0921 104.206 10.092 100.227 7.82938C96.2488 5.56676 91.802 4.0911 87.1699 3.49637C77.9995 2.11114 73.2562 5.8827 68.6393 11.866C71.0553 7.81504 72.864 4.8816 78.0248 2.79792C91.2175 -2.59168 104.511 7.26794 110.279 16.6386Z" fill="white"/>
</g>
<g filter="url(#filter5_d_200_2781)">
<path fill-rule="evenodd" clip-rule="evenodd" d="M7.9248 38.7558C13.0602 31.5735 19.5997 27.1152 28.9092 25.6136C37.2321 24.2283 41.558 27.9999 45.7321 33.9715C43.5439 29.9322 41.9375 26.9871 37.2068 24.9151C25.2284 19.5255 13.1741 29.3851 7.9248 38.7558Z" fill="white"/>
</g>
<g filter="url(#filter6_i_200_2781)">
<path fill-rule="evenodd" clip-rule="evenodd" d="M25.6713 107.554C27.0247 109.428 28.3782 111.337 29.7569 113.246C30.1743 111.628 30.5158 110.44 30.7941 109.509C33.7539 110.557 36.7896 111.476 39.8507 112.28C40.7614 114.608 42.7472 117.041 46.3015 120.137C46.5039 117.448 46.6684 115.423 46.6684 113.711C49.4764 114.131 52.3098 114.41 55.1178 114.573V114.643C55.872 116.48 56.8478 118.233 58.027 119.869C59.242 121.582 60.5507 123.237 61.9481 124.828L62.8968 125.922L63.213 126.272C62.9727 123.815 62.745 121.685 62.5553 119.753C62.3656 117.821 62.1631 116.098 61.9481 114.48C66.0026 114.104 70.0119 113.391 73.9266 112.349C74.6349 113.688 75.5835 115.178 76.8105 117.006C77.8159 114.915 78.6283 112.75 79.2391 110.534C82.7422 109.129 86.1248 107.483 89.3582 105.61C89.978 106.96 90.8507 108.578 92.0649 110.929C93.0118 109.132 93.8562 107.29 94.5947 105.412C95.0985 104.198 95.4095 102.924 95.5181 101.628C98.0479 99.8591 100.438 97.9617 102.69 96.0759C104.941 94.1901 107.041 92.2927 109.014 90.4186C107.408 91.2334 105.827 92.0715 104.246 92.9213C100.818 94.8653 97.504 96.6696 94.2912 98.276C93.0263 96.786 90.4965 95.459 86.8663 93.6197C87.0687 95.5055 87.2458 96.9839 87.3975 98.276C87.5493 99.5681 87.6885 100.499 87.8909 101.372C84.8678 102.711 81.908 103.805 79.0367 104.795C78.4582 103.613 77.7278 102.499 76.8611 101.477C75.8872 100.313 74.6855 98.9628 73.2309 97.368C72.8894 99.4982 72.6111 101.233 72.4593 102.723C72.2941 104.013 72.235 105.312 72.2823 106.611C68.533 107.383 64.7287 107.908 60.8983 108.182C60.5188 106.273 60.0255 104.294 59.431 102.048C58.8365 99.8009 58.1029 97.2866 57.2048 94.2833C56.2941 97.3215 55.5731 99.894 55.0292 102.176C54.5159 104.178 54.2026 106.22 54.0932 108.275C51.3231 108.147 48.553 107.961 45.7703 107.647C45.4035 106.587 44.8975 105.458 44.2651 104.154C43.6326 102.851 42.8484 101.303 41.8744 99.4982C40.9173 101.894 40.1273 104.343 39.5091 106.832C36.739 106.355 33.9436 105.819 31.0597 105.202C30.4905 104.038 29.3015 102.141 27.2651 98.0665C26.6411 100.045 26.0171 101.985 25.3931 103.887C19.8615 102.359 14.4863 100.389 9.32904 97.9966C11.6063 99.8358 14.0289 101.517 16.5768 103.025C19.4827 104.767 22.5418 106.281 25.7219 107.554" fill="url(#paint3_linear_200_2781)"/>
</g>
<path d="M37.2676 137.711V133.717C37.2676 133.658 37.3169 133.6 37.3169 133.541C37.3662 133.541 37.4648 133.482 37.5141 133.482H39.2887C39.338 133.482 39.3873 133.541 39.4366 133.6C39.4859 133.6 39.4859 133.717 39.4859 133.776C39.4859 133.835 39.4859 133.952 39.4366 133.952C39.3873 134.011 39.338 134.07 39.2887 134.07H37.8098V135.479H38.5986C38.6479 135.479 38.6972 135.479 38.7465 135.538C38.7465 135.597 38.7957 135.656 38.7957 135.714C38.7957 135.773 38.7465 135.832 38.7465 135.891C38.6972 135.949 38.6479 135.949 38.5986 135.949H37.8098V137.711C37.8098 137.829 37.7605 137.888 37.7112 137.888C37.6619 137.946 37.6126 137.946 37.5634 137.946C37.4648 137.946 37.4155 137.946 37.3662 137.888C37.3169 137.888 37.2676 137.829 37.2676 137.711V137.711Z" fill="#BCBBBB"/>
<path d="M42.5916 136.613V134.816C42.5916 134.352 42.7048 134.062 42.988 133.83C43.2146 133.598 43.4978 133.482 43.8942 133.482C44.3473 133.482 44.6305 133.598 44.8571 133.83C45.1402 134.062 45.2535 134.352 45.2535 134.816V136.613C45.2535 137.077 45.1402 137.367 44.8571 137.599C44.6305 137.831 44.3473 137.946 43.8942 137.946C43.4978 137.946 43.2146 137.831 42.988 137.599C42.7048 137.367 42.5916 137.077 42.5916 136.613ZM43.2146 136.613C43.2146 137.135 43.4411 137.367 43.8942 137.367C44.1208 137.367 44.2907 137.309 44.4606 137.193C44.5739 137.019 44.6305 136.845 44.6305 136.613V134.816C44.6305 134.584 44.5739 134.352 44.4606 134.236C44.2907 134.12 44.1208 134.062 43.8942 134.062C43.4411 134.062 43.2146 134.294 43.2146 134.816V136.613Z" fill="#BCBBBB"/>
<path d="M48.3591 137.711V133.717C48.3591 133.658 48.3591 133.6 48.4158 133.541C48.4158 133.541 48.4724 133.482 48.529 133.482H49.6618C50.568 133.482 51.0211 133.893 51.0211 134.716C51.0211 135.068 50.9078 135.362 50.7946 135.538C50.6246 135.773 50.4547 135.891 50.1715 135.949L51.0211 137.535C51.0211 137.594 51.0211 137.594 51.0211 137.653C51.0211 137.711 50.9645 137.77 50.9078 137.888C50.8512 137.946 50.7379 137.946 50.6246 137.946C50.568 137.946 50.4547 137.888 50.3981 137.77L49.5485 136.008H48.9255V137.711C48.9255 137.829 48.9255 137.829 48.8689 137.888C48.8122 137.946 48.699 137.946 48.6423 137.946C48.529 137.946 48.4724 137.946 48.4158 137.888C48.3591 137.829 48.3591 137.829 48.3591 137.711ZM48.9255 135.538H49.6618C50.1715 135.538 50.3981 135.303 50.3981 134.774C50.3981 134.305 50.1715 134.07 49.6618 134.07H48.9255V135.538Z" fill="#BCBBBB"/>
<path d="M57.676 136.613V134.816C57.676 134.352 57.8082 134.062 58.0725 133.83C58.4029 133.598 58.7333 133.482 59.1958 133.482C59.6583 133.482 60.0548 133.598 60.3191 133.772C60.5834 134.004 60.7817 134.294 60.7817 134.584C60.7817 134.7 60.7156 134.816 60.6495 134.874C60.5834 134.874 60.5173 134.932 60.3852 134.932C60.1209 134.932 60.0548 134.816 60.0548 134.7C59.9887 134.294 59.7244 134.062 59.1958 134.062C58.6672 134.062 58.4029 134.294 58.4029 134.816V136.613C58.4029 137.135 58.6672 137.367 59.1958 137.367C59.4601 137.367 59.6583 137.309 59.7905 137.193C59.9887 137.019 60.0548 136.845 60.0548 136.555V136.091H59.328C59.2619 136.091 59.1958 136.091 59.1958 136.033C59.1297 135.975 59.1297 135.917 59.1297 135.801C59.1297 135.743 59.1297 135.685 59.1958 135.685C59.1958 135.627 59.2619 135.569 59.328 135.569H60.5173C60.5834 135.569 60.6495 135.627 60.7156 135.627C60.7156 135.685 60.7817 135.743 60.7817 135.801V136.613C60.7817 137.077 60.6495 137.367 60.3191 137.599C60.0548 137.831 59.6583 137.946 59.1958 137.946C58.7333 137.946 58.4029 137.831 58.0725 137.599C57.8082 137.367 57.676 137.077 57.676 136.613Z" fill="#BCBBBB"/>
<path d="M63.4436 137.711C63.4436 137.653 63.4436 137.653 63.4436 137.653L64.6082 133.658C64.6082 133.541 64.7746 133.482 64.9964 133.482C65.2183 133.482 65.3846 133.541 65.3846 133.658L66.5492 137.594C66.5492 137.653 66.5492 137.653 66.5492 137.653C66.5492 137.77 66.4938 137.829 66.4383 137.888C66.3274 137.946 66.2719 137.946 66.161 137.946C65.9947 137.946 65.9392 137.888 65.9392 137.829L65.6619 136.948H64.2755L64.0536 137.829C63.9982 137.888 63.9427 137.946 63.8318 137.946C63.7209 137.946 63.61 137.946 63.5545 137.888C63.4991 137.829 63.4436 137.77 63.4436 137.711ZM64.3864 136.419H65.551L64.941 134.363L64.3864 136.419Z" fill="#BCBBBB"/>
<path d="M69.6549 137.711V133.835C69.6549 133.717 69.7085 133.6 69.762 133.6C69.8155 133.541 69.8691 133.482 69.9762 133.482C70.0833 133.482 70.1904 133.541 70.2439 133.541C70.2975 133.6 70.351 133.717 70.4581 133.835L71.2077 135.479L72.0109 133.835C72.0645 133.717 72.118 133.6 72.2251 133.541C72.2786 133.541 72.3857 133.482 72.4928 133.482C72.5464 133.482 72.5999 133.541 72.707 133.6C72.7605 133.6 72.7605 133.717 72.7605 133.835V137.711C72.7605 137.829 72.7605 137.829 72.707 137.888C72.5999 137.946 72.5464 137.946 72.4928 137.946C72.3857 137.946 72.3322 137.946 72.2786 137.888C72.2251 137.829 72.1715 137.829 72.1715 137.711V134.833L71.4219 136.302C71.3684 136.419 71.3148 136.478 71.2077 136.478C71.1006 136.478 71.0471 136.419 70.9935 136.302L70.2439 134.774V137.711C70.2439 137.829 70.2439 137.829 70.1904 137.888C70.1368 137.946 70.0833 137.946 69.9762 137.946C69.8691 137.946 69.8155 137.946 69.762 137.888C69.7085 137.829 69.6549 137.829 69.6549 137.711Z" fill="#BCBBBB"/>
<path d="M76.3098 137.711V133.717C76.3098 133.658 76.3098 133.6 76.3501 133.541C76.3905 133.541 76.4711 133.482 76.5115 133.482C76.5921 133.482 76.6325 133.541 76.6728 133.541C76.7131 133.6 76.7535 133.658 76.7535 133.717V137.711C76.7535 137.829 76.7131 137.829 76.6728 137.888C76.6325 137.946 76.5921 137.946 76.5115 137.946C76.4711 137.946 76.3905 137.946 76.3501 137.888C76.3098 137.829 76.3098 137.829 76.3098 137.711Z" fill="#BCBBBB"/>
<path d="M80.3028 137.711V133.717C80.3028 133.541 80.4137 133.482 80.6355 133.482C80.7465 133.482 80.8019 133.541 80.8574 133.541C80.9128 133.6 81.0237 133.717 81.0792 133.835L82.3547 136.478V133.717C82.3547 133.658 82.4102 133.6 82.4656 133.541C82.5211 133.541 82.5766 133.482 82.6875 133.482C82.7429 133.482 82.7984 133.541 82.8539 133.541C82.9648 133.6 82.9648 133.658 82.9648 133.717V137.711C82.9648 137.829 82.9648 137.829 82.8539 137.888C82.7984 137.946 82.7429 137.946 82.6875 137.946C82.5211 137.946 82.3547 137.888 82.2993 137.711L80.9128 134.951V137.711C80.9128 137.829 80.9128 137.829 80.8574 137.888C80.7465 137.946 80.691 137.946 80.6355 137.946C80.5246 137.946 80.4692 137.946 80.4137 137.888C80.3583 137.829 80.3028 137.829 80.3028 137.711Z" fill="#BCBBBB"/>
<path d="M86.0704 136.613V134.816C86.0704 134.352 86.1861 134.062 86.4176 133.83C86.6491 133.598 86.9963 133.482 87.4014 133.482C87.8064 133.482 88.0958 133.598 88.3851 133.772C88.6166 134.004 88.7323 134.294 88.7323 134.584C88.7323 134.7 88.7323 134.816 88.6745 134.874C88.6166 134.874 88.5587 134.932 88.443 134.932C88.2115 134.932 88.1537 134.816 88.0958 134.7C88.0958 134.294 87.8643 134.062 87.4014 134.062C86.9384 134.062 86.7069 134.294 86.7069 134.816V136.613C86.7069 137.135 86.9384 137.367 87.4014 137.367C87.6328 137.367 87.8064 137.309 87.9222 137.193C88.0379 137.019 88.0958 136.845 88.0958 136.555V136.091H87.5171C87.4592 136.091 87.4014 136.091 87.3435 136.033C87.3435 135.975 87.2856 135.917 87.2856 135.801C87.2856 135.743 87.3435 135.685 87.3435 135.685C87.4014 135.627 87.4592 135.569 87.5171 135.569H88.5587C88.6166 135.569 88.6745 135.627 88.7323 135.627C88.7323 135.685 88.7323 135.743 88.7323 135.801V136.613C88.7323 137.077 88.6166 137.367 88.3851 137.599C88.1537 137.831 87.8064 137.946 87.4014 137.946C86.9963 137.946 86.6491 137.831 86.4176 137.599C86.1861 137.367 86.0704 137.077 86.0704 136.613Z" fill="#BCBBBB"/>
<defs>
<filter id="filter0_i_200_2781" x="3.79449" y="24.2917" width="45.8586" height="61.3297" filterUnits="userSpaceOnUse" color-interpolation-filters="sRGB">
<feFlood flood-opacity="0" result="BackgroundImageFix"/>
<feBlend mode="normal" in="SourceGraphic" in2="BackgroundImageFix" result="shape"/>
<feColorMatrix in="SourceAlpha" type="matrix" values="0 0 0 0 0 0 0 0 0 0 0 0 0 0 0 0 0 0 127 0" result="hardAlpha"/>
<feOffset dy="4"/>
<feGaussianBlur stdDeviation="2"/>
<feComposite in2="hardAlpha" operator="arithmetic" k2="-1" k3="1"/>
<feColorMatrix type="matrix" values="0 0 0 0 0 0 0 0 0 0 0 0 0 0 0 0 0 0 0.25 0"/>
<feBlend mode="normal" in2="shape" result="effect1_innerShadow_200_2781"/>
</filter>
<filter id="filter1_i_200_2781" x="59.4786" y="3.43652" width="60.3016" height="81.283" filterUnits="userSpaceOnUse" color-interpolation-filters="sRGB">
<feFlood flood-opacity="0" result="BackgroundImageFix"/>
<feBlend mode="normal" in="SourceGraphic" in2="BackgroundImageFix" result="shape"/>
<feColorMatrix in="SourceAlpha" type="matrix" values="0 0 0 0 0 0 0 0 0 0 0 0 0 0 0 0 0 0 127 0" result="hardAlpha"/>
<feOffset dy="4"/>
<feGaussianBlur stdDeviation="2"/>
<feComposite in2="hardAlpha" operator="arithmetic" k2="-1" k3="1"/>
<feColorMatrix type="matrix" values="0 0 0 0 0 0 0 0 0 0 0 0 0 0 0 0 0 0 0.25 0"/>
<feBlend mode="normal" in2="shape" result="effect1_innerShadow_200_2781"/>
</filter>
<filter id="filter2_i_200_2781" x="58.3186" y="0.10376" width="64.4849" height="83.8223" filterUnits="userSpaceOnUse" color-interpolation-filters="sRGB">
<feFlood flood-opacity="0" result="BackgroundImageFix"/>
<feBlend mode="normal" in="SourceGraphic" in2="BackgroundImageFix" result="shape"/>
<feColorMatrix in="SourceAlpha" type="matrix" values="0 0 0 0 0 0 0 0 0 0 0 0 0 0 0 0 0 0 127 0" result="hardAlpha"/>
<feOffset dy="4"/>
<feGaussianBlur stdDeviation="2"/>
<feComposite in2="hardAlpha" operator="arithmetic" k2="-1" k3="1"/>
<feColorMatrix type="matrix" values="0 0 0 0 0 0 0 0 0 0 0 0 0 0 0 0 0 0 0.25 0"/>
<feBlend mode="normal" in2="shape" result="effect1_innerShadow_200_2781"/>
</filter>
<filter id="filter3_i_200_2781" x="0" y="22.6951" width="49.0962" height="62.9264" filterUnits="userSpaceOnUse" color-interpolation-filters="sRGB">
<feFlood flood-opacity="0" result="BackgroundImageFix"/>
<feBlend mode="normal" in="SourceGraphic" in2="BackgroundImageFix" result="shape"/>
<feColorMatrix in="SourceAlpha" type="matrix" values="0 0 0 0 0 0 0 0 0 0 0 0 0 0 0 0 0 0 127 0" result="hardAlpha"/>
<feOffset dy="4"/>
<feGaussianBlur stdDeviation="2"/>
<feComposite in2="hardAlpha" operator="arithmetic" k2="-1" k3="1"/>
<feColorMatrix type="matrix" values="0 0 0 0 0 0 0 0 0 0 0 0 0 0 0 0 0 0 0.25 0"/>
<feBlend mode="normal" in2="shape" result="effect1_innerShadow_200_2781"/>
</filter>
<filter id="filter4_d_200_2781" x="64.6393" y="1.26776" width="49.64" height="23.3708" filterUnits="userSpaceOnUse" color-interpolation-filters="sRGB">
<feFlood flood-opacity="0" result="BackgroundImageFix"/>
<feColorMatrix in="SourceAlpha" type="matrix" values="0 0 0 0 0 0 0 0 0 0 0 0 0 0 0 0 0 0 127 0" result="hardAlpha"/>
<feOffset dy="4"/>
<feGaussianBlur stdDeviation="2"/>
<feComposite in2="hardAlpha" operator="out"/>
<feColorMatrix type="matrix" values="0 0 0 0 0 0 0 0 0 0 0 0 0 0 0 0 0 0 0.25 0"/>
<feBlend mode="normal" in2="BackgroundImageFix" result="effect1_dropShadow_200_2781"/>
<feBlend mode="normal" in="SourceGraphic" in2="effect1_dropShadow_200_2781" result="shape"/>
</filter>
<filter id="filter5_d_200_2781" x="3.9248" y="23.3849" width="45.8073" height="23.3708" filterUnits="userSpaceOnUse" color-interpolation-filters="sRGB">
<feFlood flood-opacity="0" result="BackgroundImageFix"/>
<feColorMatrix in="SourceAlpha" type="matrix" values="0 0 0 0 0 0 0 0 0 0 0 0 0 0 0 0 0 0 127 0" result="hardAlpha"/>
<feOffset dy="4"/>
<feGaussianBlur stdDeviation="2"/>
<feComposite in2="hardAlpha" operator="out"/>
<feColorMatrix type="matrix" values="0 0 0 0 0 0 0 0 0 0 0 0 0 0 0 0 0 0 0.25 0"/>
<feBlend mode="normal" in2="BackgroundImageFix" result="effect1_dropShadow_200_2781"/>
<feBlend mode="normal" in="SourceGraphic" in2="effect1_dropShadow_200_2781" result="shape"/>
</filter>
<filter id="filter6_i_200_2781" x="9.32904" y="90.4186" width="99.6854" height="39.8531" filterUnits="userSpaceOnUse" color-interpolation-filters="sRGB">
<feFlood flood-opacity="0" result="BackgroundImageFix"/>
<feBlend mode="normal" in="SourceGraphic" in2="BackgroundImageFix" result="shape"/>
<feColorMatrix in="SourceAlpha" type="matrix" values="0 0 0 0 0 0 0 0 0 0 0 0 0 0 0 0 0 0 127 0" result="hardAlpha"/>
<feOffset dy="4"/>
<feGaussianBlur stdDeviation="2"/>
<feComposite in2="hardAlpha" operator="arithmetic" k2="-1" k3="1"/>
<feColorMatrix type="matrix" values="0 0 0 0 0 0 0 0 0 0 0 0 0 0 0 0 0 0 0.25 0"/>
<feBlend mode="normal" in2="shape" result="effect1_innerShadow_200_2781"/>
</filter>
<linearGradient id="paint0_linear_200_2781" x1="53.5335" y1="88.9995" x2="61.7607" y2="73.1175" gradientUnits="userSpaceOnUse">
<stop stop-color="#F65F6F"/>
<stop offset="1" stop-color="#F78164"/>
</linearGradient>
<linearGradient id="paint1_linear_200_2781" x1="78.8776" y1="87.7189" x2="128.133" y2="35.6306" gradientUnits="userSpaceOnUse">
<stop stop-color="#F65F6F"/>
<stop offset="1" stop-color="#F78164"/>
</linearGradient>
<linearGradient id="paint2_linear_200_2781" x1="15.6528" y1="87.3743" x2="51.9345" y2="47.8034" gradientUnits="userSpaceOnUse">
<stop stop-color="#F65F6F"/>
<stop offset="1" stop-color="#F78164"/>
</linearGradient>
<linearGradient id="paint3_linear_200_2781" x1="41.1107" y1="129.772" x2="52.4322" y2="88.5659" gradientUnits="userSpaceOnUse">
<stop stop-color="#F65F6F"/>
<stop offset="1" stop-color="#F78164"/>
</linearGradient>
</defs>
</svg>
