<svg width="40" height="40" viewBox="0 0 40 40" fill="none" xmlns="http://www.w3.org/2000/svg">
<path d="M15.1724 17.9167C12.7264 17.9167 10.7471 15.8667 10.7471 13.3333C10.7471 10.8 12.7264 8.75 15.1724 8.75C17.6184 8.75 19.5977 10.8 19.5977 13.3333C19.5977 15.8667 17.6184 17.9167 15.1724 17.9167ZM15.1724 11.25C14.0621 11.25 13.1609 12.1833 13.1609 13.3333C13.1609 14.4833 14.0621 15.4167 15.1724 15.4167C16.2828 15.4167 17.1839 14.4833 17.1839 13.3333C17.1839 12.1833 16.2828 11.25 15.1724 11.25Z" fill="url(#paint0_linear_200_10300)"/>
<path d="M24.8275 37.9166H15.1724C6.43444 37.9166 2.70111 34.0499 2.70111 24.9999V14.9999C2.70111 5.94992 6.43444 2.08325 15.1724 2.08325H21.6092C22.2689 2.08325 22.8161 2.64992 22.8161 3.33325C22.8161 4.01659 22.2689 4.58325 21.6092 4.58325H15.1724C7.75398 4.58325 5.1149 7.31659 5.1149 14.9999V24.9999C5.1149 32.6833 7.75398 35.4166 15.1724 35.4166H24.8275C32.2459 35.4166 34.885 32.6833 34.885 24.9999V16.6666C34.885 15.9833 35.4321 15.4166 36.0919 15.4166C36.7517 15.4166 37.2988 15.9833 37.2988 16.6666V24.9999C37.2988 34.0499 33.5655 37.9166 24.8275 37.9166Z" fill="url(#paint1_linear_200_10300)"/>
<path d="M34.885 9.58325H26.0345C25.3747 9.58325 24.8276 9.01658 24.8276 8.33325C24.8276 7.64992 25.3747 7.08325 26.0345 7.08325H34.885C35.5448 7.08325 36.0919 7.64992 36.0919 8.33325C36.0919 9.01658 35.5448 9.58325 34.885 9.58325Z" fill="url(#paint2_linear_200_10300)"/>
<path d="M30.4598 14.1667C29.8 14.1667 29.2529 13.6 29.2529 12.9167V3.75C29.2529 3.06667 29.8 2.5 30.4598 2.5C31.1195 2.5 31.6667 3.06667 31.6667 3.75V12.9167C31.6667 13.6 31.1195 14.1667 30.4598 14.1667Z" fill="url(#paint3_linear_200_10300)"/>
<path d="M4.98617 32.8334C4.59996 32.8334 4.21375 32.6334 3.98846 32.2834C3.61835 31.7167 3.76318 30.9333 4.3103 30.55L12.2436 25.0334C13.9816 23.8334 16.3793 23.9667 17.9563 25.35L18.4873 25.8333C19.2919 26.55 20.6597 26.55 21.4482 25.8333L28.1425 19.8833C29.8643 18.3667 32.5356 18.3667 34.2574 19.8833L36.8804 22.2167C37.3793 22.6667 37.4436 23.45 37.0092 23.9834C36.5747 24.5 35.8184 24.5667 35.3034 24.1167L32.6804 21.7833C31.8758 21.0667 30.508 21.0667 29.7195 21.7833L23.0252 27.7333C21.3195 29.25 18.6321 29.25 16.9103 27.7333L16.3793 27.25C15.639 26.6 14.4161 26.5333 13.5954 27.1167L5.67812 32.6333C5.45283 32.7667 5.21145 32.8334 4.98617 32.8334Z" fill="url(#paint4_linear_200_10300)"/>
<defs>
<linearGradient id="paint0_linear_200_10300" x1="13.5689" y1="18.8116" x2="19.0823" y2="11.8432" gradientUnits="userSpaceOnUse">
<stop stop-color="#F65F6F"/>
<stop offset="1" stop-color="#F78164"/>
</linearGradient>
<linearGradient id="paint1_linear_200_10300" x1="13.7315" y1="41.4149" x2="35.2839" y2="14.175" gradientUnits="userSpaceOnUse">
<stop stop-color="#F65F6F"/>
<stop offset="1" stop-color="#F78164"/>
</linearGradient>
<linearGradient id="paint2_linear_200_10300" x1="28.4189" y1="9.82732" x2="28.9282" y2="6.82351" gradientUnits="userSpaceOnUse">
<stop stop-color="#F65F6F"/>
<stop offset="1" stop-color="#F78164"/>
</linearGradient>
<linearGradient id="paint3_linear_200_10300" x1="30.0224" y1="15.3057" x2="33.6612" y2="14.3202" gradientUnits="userSpaceOnUse">
<stop stop-color="#F65F6F"/>
<stop offset="1" stop-color="#F78164"/>
</linearGradient>
<linearGradient id="paint4_linear_200_10300" x1="14.4687" y1="34.2087" x2="19.5374" y2="18.4232" gradientUnits="userSpaceOnUse">
<stop stop-color="#F65F6F"/>
<stop offset="1" stop-color="#F78164"/>
</linearGradient>
</defs>
</svg>
