<svg width="160" height="176" viewBox="0 0 160 176" fill="none" xmlns="http://www.w3.org/2000/svg">
<g clip-path="url(#clip0_200_2816)">
<path d="M84.7771 0.179812C82.8928 1.95795 81.4842 4.18009 80.68 6.64308C79.8759 9.10608 79.7019 11.7314 80.1738 14.279C81.0369 19.9498 84.7172 24.9133 88.9249 28.6659C93.5521 32.7542 99.4621 35.3678 103.574 40.0556C106.93 44.031 108.858 49.0156 109.052 54.2147C109.202 57.0968 108.841 59.9828 107.985 62.7389C107.146 65.4605 105.588 67.7624 104.473 70.352C104.436 70.4987 104.443 70.6531 104.492 70.7961C104.541 70.9391 104.631 71.0647 104.751 71.1575C104.87 71.2503 105.014 71.3063 105.165 71.3187C105.316 71.3311 105.467 71.2993 105.6 71.2272C109.412 68.4338 110.91 62.7509 111.402 58.267C111.926 53.3425 111.097 48.3682 109.004 43.8801C106.607 38.6768 102.339 35.164 97.6759 31.9989C92.6051 28.558 87.5822 24.9733 84.6093 19.4463C81.6363 13.9193 81.2767 6.06646 85.7002 1.11496C85.8021 0.990728 85.8542 0.833003 85.8463 0.672476C85.8384 0.511948 85.7711 0.360094 85.6575 0.246447C85.5439 0.1328 85.392 0.0654878 85.2315 0.0576037C85.071 0.0497196 84.9133 0.101827 84.7891 0.20379L84.7771 0.179812Z" fill="#413147"/>
<path d="M62.468 49.2872C62.468 49.2872 63.499 41.0267 68.0183 41.2905C72.5377 41.5542 83.8901 44.6355 85.4365 47.9924C86.9829 51.3493 84.2377 56.6485 84.2377 56.6485L62.468 49.2872Z" fill="url(#paint0_linear_200_2816)"/>
<path d="M129.971 73.9368C129.971 73.9368 130.486 68.7814 133.963 66.8392C137.439 64.897 146.358 68.3858 150.482 70.4359C154.606 72.4861 154.234 76.2387 153.97 77.9171C153.603 79.5133 153.086 81.0709 152.424 82.5689L129.971 73.9368Z" fill="url(#paint1_linear_200_2816)"/>
<path d="M158.022 94.8578C157.566 89.5706 156.643 84.2834 153.479 79.8954C150.715 76.0008 146.727 73.1435 142.15 71.7788C137.12 70.26 131.695 70.7811 127.046 73.2295H126.926H126.77C126.71 73.238 126.65 73.238 126.59 73.2295L126.099 73.0856L120.98 71.4191C117.252 70.2202 113.512 68.9374 109.795 67.6905C103.554 65.5964 97.2923 63.5982 91.0107 61.6959C90.9148 61.5041 90.7949 61.3123 90.687 61.1325L90.5312 60.8687L90.0037 60.0055C89.6681 59.5139 89.3444 59.0224 89.0088 58.5548C87.1978 55.9608 85.0123 53.6497 82.5234 51.697C77.057 47.4169 70.0802 44.6954 63.1393 46.5417C55.5391 48.5559 50.0607 54.4785 45.2296 60.3292C40.272 66.1363 35.6645 72.2336 31.4318 78.5886C27.3559 84.8829 21.7097 92.6398 19.0724 100.589C18.7143 101.629 18.4181 102.69 18.1853 103.766C17.7696 105.578 17.5763 107.434 17.6099 109.293C17.7178 114.448 20.1753 119.567 25.0064 121.857C30.5327 124.447 36.9221 123.344 42.4844 121.474C47.7614 119.677 52.7066 117.024 57.1214 113.621C59.5547 111.772 61.843 109.74 63.9664 107.542C65.1652 106.343 66.5558 104.953 67.7665 103.49C70.5357 104.569 73.2329 105.888 75.9301 107.087C80.929 109.185 86.0238 111.103 91.1066 113.009C96.1894 114.916 101.32 116.738 106.355 118.764C108.944 119.795 111.534 120.85 114.075 121.977L114.603 122.217C114.207 134.877 116.029 147.922 125.248 157.321C130.043 162.261 137.451 166.493 143.948 161.925C146.849 159.899 148.552 156.841 149.942 153.652C150.721 151.878 151.417 150.056 152.04 148.197C152.663 146.339 153.239 144.601 153.682 142.706C153.862 142.059 154.018 141.411 154.174 140.74C155.565 134.986 156.629 129.158 157.363 123.284C157.782 120.263 158.082 117.205 158.262 114.148C158.648 107.721 158.568 101.274 158.022 94.8578Z" fill="#5F5265"/>
<path d="M126.746 73.1455C125.379 77.8093 123.893 82.4131 122.095 83.3602C118.906 85.0387 111.833 83.2763 101.428 79.5717C91.0227 75.867 89.0208 73.9848 88.6132 69.9804C88.4573 68.2899 89.4523 64.6213 90.6631 60.9406C90.771 61.1204 90.8909 61.3123 90.9868 61.5041C97.2683 63.4224 103.53 65.4205 109.771 67.4987C113.488 68.6976 117.228 70.0284 120.956 71.2273L126.075 72.8937L126.566 73.0376C126.62 73.0833 126.681 73.1198 126.746 73.1455Z" fill="url(#paint2_linear_200_2816)"/>
<path d="M120.464 94.8218C119.33 92.8225 117.634 91.2007 115.585 90.158C113.085 89.1327 110.282 89.1327 107.781 90.158C105.891 90.9802 104.33 92.4108 103.346 94.2223C102.347 96.1206 102.013 98.299 102.398 100.409C102.783 102.52 103.863 104.44 105.468 105.864C106.677 106.897 108.098 107.654 109.63 108.081C111.162 108.507 112.77 108.594 114.339 108.333C115.913 108.004 117.372 107.265 118.57 106.192C119.767 105.118 120.661 103.748 121.16 102.219C121.619 101.015 121.796 99.7221 121.675 98.4393C121.555 97.1565 121.14 95.9187 120.464 94.8218Z" fill="url(#paint3_linear_200_2816)"/>
<path d="M118.043 95.9967C117.258 94.5631 116.064 93.3948 114.615 92.6398C113.425 92.0457 112.071 91.8644 110.767 92.1243C110.114 92.1687 109.474 92.3228 108.872 92.5799C107.517 93.1622 106.398 94.1843 105.696 95.4812C104.979 96.831 104.733 98.3817 104.998 99.887C105.263 101.392 106.024 102.766 107.158 103.79C108.412 104.816 109.953 105.428 111.57 105.54C112.502 105.697 113.457 105.66 114.375 105.432C115.139 105.167 115.847 104.76 116.461 104.233C117.626 103.248 118.418 101.893 118.706 100.394C118.994 98.8958 118.76 97.3438 118.043 95.9967ZM116.401 102.591C115.419 103.675 114.093 104.387 112.647 104.606C111.2 104.824 109.723 104.536 108.465 103.79C107.306 103.097 106.421 102.026 105.96 100.757C105.499 99.4881 105.491 98.0988 105.935 96.824C107.218 92.8676 112.936 91.8126 115.897 94.4262C116.792 95.2767 117.402 96.3826 117.644 97.5928C117.887 98.803 117.75 100.059 117.252 101.188C117.042 101.689 116.755 102.154 116.401 102.567V102.591Z" fill="#413147"/>
<path d="M88.8889 83.7199C87.7549 81.7206 86.0582 80.0988 84.0099 79.0562C81.5096 78.0308 78.7063 78.0308 76.2059 79.0562C74.3145 79.8705 72.7521 81.2979 71.7705 83.1085C70.7685 85.008 70.4331 87.189 70.8178 89.3019C71.2025 91.4148 72.2851 93.3375 73.8923 94.7619C75.1088 95.7808 76.5322 96.5229 78.064 96.937C79.5957 97.351 81.1992 97.427 82.7632 97.1597C84.3383 96.8325 85.7988 96.0946 86.9967 95.0207C88.1946 93.9469 89.0873 92.5754 89.5842 91.0453C90.0323 89.8516 90.2026 88.5716 90.0821 87.3023C89.9616 86.033 89.5536 84.8079 88.8889 83.7199Z" fill="url(#paint4_linear_200_2816)"/>
<path d="M86.4674 84.8948C85.6818 83.4612 84.4887 82.2929 83.0389 81.5379C81.8475 80.9479 80.4938 80.7707 79.1908 81.0343C78.5379 81.0672 77.8963 81.2175 77.2967 81.4779C75.9417 82.0602 74.8226 83.0824 74.12 84.3793C73.4032 85.7291 73.1577 87.2798 73.4227 88.785C73.6877 90.2903 74.4478 91.6639 75.5825 92.6877C76.8361 93.7144 78.3776 94.3261 79.994 94.4382C80.9262 94.6007 81.8822 94.5639 82.7991 94.3302C83.5655 94.0696 84.2739 93.6624 84.885 93.1313C86.0519 92.1472 86.8457 90.7923 87.1337 89.2932C87.4217 87.794 87.1865 86.2414 86.4674 84.8948ZM84.825 91.4888C83.8434 92.5733 82.5171 93.2851 81.0709 93.5036C79.6246 93.7221 78.1473 93.4339 76.8892 92.6877C75.7283 91.9972 74.8422 90.9262 74.3811 89.6565C73.9201 88.3868 73.9125 86.9967 74.3598 85.7221C75.6424 81.7657 81.3606 80.7226 84.3215 83.3242C85.2096 84.1814 85.815 85.2892 86.0571 86.4995C86.2991 87.7099 86.1662 88.9653 85.6762 90.0981C85.4636 90.6016 85.1767 91.0704 84.825 91.4888Z" fill="#413147"/>
<path d="M120.417 119.016C120.445 119.147 120.446 119.282 120.421 119.413C120.397 119.544 120.346 119.67 120.272 119.781C120.199 119.893 120.104 119.989 119.992 120.063C119.881 120.137 119.757 120.189 119.625 120.215C119.419 120.26 119.204 120.235 119.014 120.143C102.231 112.398 84.0339 108.154 67.9464 99.006C63.1513 103.802 58.1764 108.453 52.3624 111.822C43.1198 117.134 30.6166 118.764 22.3931 110.623C20.4189 108.679 18.9782 106.26 18.2094 103.598C18.4421 102.522 18.7383 101.461 19.0964 100.421C19.9955 110.108 29.8854 115.659 39.2478 114.712C50.8039 113.513 59.3272 105.12 67.3949 97.6153C67.5049 97.5139 67.6443 97.4499 67.7929 97.4327C67.9415 97.4155 68.0918 97.4458 68.2221 97.5194C84.5374 106.775 103.07 110.707 120.021 118.476C120.125 118.528 120.215 118.604 120.284 118.698C120.353 118.792 120.398 118.901 120.417 119.016Z" fill="#413147"/>
<path d="M152.004 147.981C150.747 149.586 149.236 150.975 147.533 152.094C145.34 153.621 142.754 154.484 140.084 154.58C137.414 154.675 134.773 154 132.476 152.633C127.873 149.816 124.984 144.84 123.054 139.937C120.609 133.64 119.443 126.919 119.625 120.167C119.625 119.927 119.625 119.699 119.625 119.471C119.628 119.381 119.653 119.293 119.699 119.214C119.745 119.136 119.81 119.071 119.887 119.024C119.965 118.978 120.053 118.952 120.143 118.948C120.234 118.944 120.324 118.964 120.405 119.004C120.499 119.034 120.581 119.095 120.636 119.178C120.69 119.261 120.714 119.361 120.704 119.459C120.645 126.612 122.082 133.697 124.924 140.261C126.866 144.696 129.947 149.24 134.406 151.482C139.441 154.012 145.099 152.202 148.971 148.437C151.214 146.188 152.972 143.503 154.138 140.548L152.004 147.981Z" fill="#413147"/>
<path d="M58.8597 73.1695C59.9855 74.2447 61.4269 74.9297 62.9714 75.1237C63.2897 75.2315 63.627 75.2712 63.9615 75.2402C64.2961 75.2092 64.6204 75.1083 64.9135 74.9439C65.421 74.3546 65.797 73.6639 66.0163 72.9177L67.0712 70.5199C67.1551 70.3281 67.2391 70.1362 67.335 69.9564C67.3659 69.8743 67.4019 69.7942 67.4428 69.7166C67.5507 69.5727 67.4428 69.5368 67.1432 69.5967C67.1432 69.5967 67.8984 70.2082 67.9703 70.2561C69.2622 71.2891 70.8853 71.8174 72.5376 71.7428C72.7209 71.6888 72.8844 71.5827 73.0083 71.4373C73.1322 71.2919 73.211 71.1135 73.2352 70.924C73.2593 70.7345 73.2278 70.5421 73.1443 70.3703C73.0609 70.1984 72.9292 70.0546 72.7654 69.9564C72.0838 69.7118 71.387 69.5115 70.6795 69.3569C69.9804 69.1074 69.3126 68.7775 68.6896 68.3738C68.4229 68.1733 68.106 68.0504 67.7739 68.0186C67.4418 67.9869 67.1073 68.0476 66.8075 68.194C66.2627 68.6066 65.8705 69.1886 65.6926 69.8485L64.7096 72.1144L64.2182 73.3133C64.1462 73.4692 64.0863 73.6131 64.0024 73.7689C63.9185 73.9248 64.0024 73.8648 64.0743 73.7689H63.9185C63.5708 73.685 63.1752 73.7689 62.8276 73.649C62.4211 73.5687 62.0205 73.4605 61.6288 73.3253C60.9171 72.9836 60.2354 72.5825 59.5909 72.1264C59.4564 72.057 59.3019 72.0369 59.1541 72.0697C59.0063 72.1024 58.8747 72.1859 58.7821 72.3056C58.6895 72.4253 58.6417 72.5736 58.6471 72.7249C58.6525 72.8761 58.7108 73.0207 58.8117 73.1335L58.8597 73.1695Z" fill="#413147"/>
<path d="M55.8987 64.0098C56.2722 64.5218 56.7663 64.9336 57.3372 65.2087C57.7808 65.5084 58.2243 65.8322 58.6799 66.1319C59.1354 66.4316 59.6029 66.7074 60.0704 66.9951L60.8017 67.4507C61.1897 67.7191 61.6667 67.8266 62.1323 67.7504C62.4009 67.6747 62.6292 67.4967 62.7681 67.2547C62.907 67.0126 62.9456 66.7258 62.8756 66.4556C62.6118 65.7003 61.8686 65.4005 61.2093 65.0409C60.7417 64.7771 60.2622 64.5014 59.7827 64.2496C59.3032 63.9978 58.8117 63.758 58.3202 63.5063C57.7806 63.1441 57.1576 62.9254 56.5101 62.8708C56.3862 62.8762 56.2657 62.913 56.1599 62.9777C56.0542 63.0425 55.9666 63.133 55.9055 63.2409C55.8443 63.3488 55.8116 63.4705 55.8105 63.5945C55.8093 63.7186 55.8396 63.8408 55.8987 63.9499V64.0098Z" fill="#413147"/>
<path d="M72.5017 71.515C72.6744 71.4671 72.8342 71.3811 72.9692 71.2632C73.0785 71.1443 73.1712 71.0112 73.245 70.8676C73.3888 70.6518 73.5207 70.436 73.6525 70.2202C73.9163 69.7886 74.168 69.357 74.4078 68.9134C74.6475 68.4698 74.8753 68.0262 75.1031 67.5706L75.4267 66.8992C75.4267 66.7793 75.5346 66.6714 75.5826 66.5515C75.6657 66.3492 75.7143 66.1345 75.7264 65.9161C75.7259 65.7441 75.6747 65.5761 75.5792 65.4331C75.4838 65.29 75.3483 65.1782 75.1897 65.1117C75.0312 65.0452 74.8565 65.0269 74.6876 65.0591C74.5187 65.0913 74.363 65.1725 74.2399 65.2927C74.0952 65.4566 73.9778 65.6429 73.8923 65.8442L73.8204 66.012C73.8204 66.1199 73.8204 66.1319 73.8204 66.012C73.7125 66.2398 73.6166 66.4676 73.5087 66.7074C73.3169 67.151 73.1131 67.5946 72.8973 68.0262C72.6815 68.4578 72.4657 68.9134 72.238 69.345C72.1301 69.5728 72.0102 69.7886 71.8903 70.0164C71.8082 70.1531 71.74 70.2977 71.6866 70.448C71.6437 70.6293 71.6437 70.8181 71.6866 70.9995C71.7087 71.0854 71.7479 71.166 71.8018 71.2364C71.8558 71.3068 71.9234 71.3656 72.0007 71.4093C72.0779 71.4529 72.1631 71.4805 72.2513 71.4905C72.3395 71.5004 72.4287 71.4924 72.5137 71.467L72.5017 71.515Z" fill="#413147"/>
<path d="M69.8764 63.6262C70.2799 63.35 70.6535 63.0326 70.9913 62.679C71.3292 62.3066 71.634 61.9054 71.9023 61.4801C72.416 60.6821 72.8727 59.8488 73.2689 58.9864C73.5327 58.4229 73.9762 57.7035 73.6166 57.0921C73.507 56.9008 73.3364 56.7519 73.132 56.6693C72.9276 56.5866 72.7014 56.5751 72.4897 56.6365C72.2841 56.7188 72.1008 56.8486 71.955 57.0153C71.8091 57.182 71.7048 57.3809 71.6506 57.5956L71.5427 57.8834L71.4708 58.0632C71.4708 58.0632 71.3989 58.2191 71.4708 58.1352C71.4708 58.1352 71.5427 58.0512 71.4708 58.1352C71.4479 58.2012 71.4198 58.2653 71.3869 58.327C71.3869 58.4469 71.279 58.5668 71.219 58.6986C71.0272 59.1063 70.8234 59.5139 70.5957 59.8976C70.3679 60.2812 70.0442 60.7847 69.8045 61.2523C69.5647 61.7199 69.325 62.2114 69.0972 62.703C69.0342 62.8215 69.0095 62.9568 69.0267 63.09C69.0439 63.2231 69.102 63.3477 69.1931 63.4463C69.2877 63.5444 69.4128 63.6073 69.5479 63.6248C69.683 63.6422 69.82 63.6131 69.9364 63.5422L69.8764 63.6262Z" fill="#413147"/>
<path d="M132.248 103.981C132.845 105.127 133.867 105.994 135.094 106.397C136.321 106.801 137.658 106.708 138.818 106.14C139.954 105.504 140.81 104.464 141.215 103.226C141.443 102.664 141.546 102.059 141.519 101.453C141.492 100.847 141.336 100.254 141.059 99.7134C140.544 98.7422 139.081 96.7161 137.859 97.891C137.78 97.9691 137.723 98.0673 137.696 98.1751C137.668 98.2828 137.671 98.396 137.703 98.5025C137.703 98.6224 137.703 98.3106 137.703 98.4305C137.718 98.619 137.771 98.8025 137.859 98.97C137.98 99.1734 138.134 99.3556 138.314 99.5095C138.47 99.6534 138.626 99.7973 138.77 99.9531C138.897 100.089 139.009 100.238 139.105 100.397C139.229 100.573 139.341 100.758 139.441 100.948C139.441 100.948 139.537 101.188 139.441 101.032C139.474 101.114 139.502 101.198 139.525 101.284C139.597 101.524 139.525 101.128 139.525 101.368C139.531 101.484 139.531 101.6 139.525 101.716C139.527 101.926 139.498 102.136 139.441 102.339C139.265 103.166 138.786 103.897 138.098 104.389C137.752 104.628 137.362 104.797 136.951 104.886C136.54 104.974 136.115 104.981 135.701 104.905C134.643 104.752 133.681 104.209 133.004 103.382C132.632 102.914 131.985 103.514 132.224 103.981H132.248Z" fill="#413147"/>
<path d="M142.498 97.8551C143.054 99.0637 143.908 100.111 144.979 100.9C145.532 101.262 146.161 101.488 146.817 101.561C147.473 101.634 148.137 101.551 148.756 101.32C150.026 100.917 151.094 100.043 151.739 98.876C152.383 97.7093 152.556 96.3397 152.22 95.0496C152.011 94.3333 151.656 93.668 151.177 93.0954C150.956 92.7689 150.663 92.4982 150.32 92.3047C149.976 92.1112 149.593 92.0002 149.199 91.9804C149.06 91.9845 148.925 92.0239 148.806 92.0949C148.687 92.1659 148.587 92.2662 148.518 92.3863C148.448 92.5064 148.41 92.6422 148.408 92.781C148.405 92.9198 148.438 93.0569 148.504 93.1793C148.672 93.4613 148.887 93.7126 149.139 93.9226C149.253 94.0245 149.361 94.1325 149.463 94.2463L149.655 94.4741C149.996 94.9142 150.219 95.4342 150.302 95.9848C150.375 96.4996 150.325 97.0242 150.156 97.516C149.987 98.0077 149.704 98.4525 149.331 98.8142C148.957 99.2254 148.479 99.5281 147.947 99.6906C147.416 99.853 146.85 99.8692 146.31 99.7374C145.111 99.2672 144.118 98.388 143.505 97.2556C143.418 97.1418 143.293 97.0636 143.152 97.0358C143.012 97.008 142.866 97.0325 142.742 97.1047C142.618 97.1769 142.525 97.2917 142.48 97.4277C142.435 97.5637 142.442 97.7114 142.498 97.8431V97.8551Z" fill="#413147"/>
<path d="M136.912 86.7771C137.644 87.8793 138.754 88.6755 140.032 89.0156C141.311 89.3557 142.67 89.2163 143.853 88.6235C146.25 87.5324 147.713 84.2474 146.034 81.9335C145.608 81.2905 144.992 80.796 144.272 80.5188C143.95 80.3851 143.594 80.3559 143.254 80.4355C142.914 80.5151 142.608 80.6994 142.378 80.9624C142.335 81.0261 142.312 81.1013 142.312 81.1782C142.312 81.2552 142.335 81.3304 142.378 81.394C142.534 81.6404 142.743 81.8492 142.989 82.0055C143.166 82.1263 143.334 82.2585 143.493 82.4011C143.904 82.661 144.239 83.025 144.464 83.4561L144.536 83.6719C144.536 83.7918 144.608 83.9237 144.632 84.0436C144.644 84.2753 144.644 84.5073 144.632 84.739C144.545 85.2415 144.344 85.7174 144.044 86.1297C143.674 86.5814 143.207 86.9442 142.678 87.1911C142.149 87.4381 141.571 87.5629 140.988 87.5564C140.369 87.5761 139.755 87.4496 139.194 87.1871C138.634 86.9246 138.144 86.5336 137.763 86.0458C137.367 85.5423 136.564 86.1897 136.888 86.7172L136.912 86.7771Z" fill="#413147"/>
<path d="M127.909 93.6349C128.677 94.4304 129.646 95.0022 130.714 95.2894C131.257 95.3862 131.814 95.3723 132.352 95.2487C132.889 95.1251 133.397 94.8943 133.843 94.57C134.694 94.04 135.358 93.2564 135.741 92.3295C136.123 91.4026 136.206 90.379 135.977 89.4027C135.733 88.4364 135.155 87.5872 134.346 87.0049C134.114 86.8335 133.832 86.7411 133.543 86.7411C133.254 86.7411 132.973 86.8335 132.74 87.0049C132.38 87.3766 132.596 87.8681 132.836 88.2038C132.983 88.3947 133.143 88.575 133.315 88.7433L133.519 88.9591C133.519 88.9591 133.627 89.079 133.519 88.9591C133.411 88.8393 133.591 89.067 133.603 89.091C133.713 89.2504 133.809 89.4189 133.891 89.5946C133.831 89.4627 133.891 89.6785 133.891 89.7264L133.999 90.0981C133.999 90.0981 133.999 90.3739 133.999 90.218C134.005 90.3138 134.005 90.4099 133.999 90.5057C134.011 90.6213 134.011 90.7378 133.999 90.8534C134.005 90.9012 134.005 90.9495 133.999 90.9973C133.999 90.8894 133.999 90.9973 133.999 90.9973C133.933 91.3796 133.794 91.7458 133.591 92.0763C133.138 92.8462 132.403 93.4094 131.541 93.6469C130.361 93.8044 129.16 93.6257 128.077 93.1313C128.015 93.118 127.951 93.1245 127.893 93.15C127.835 93.1754 127.787 93.2184 127.755 93.2729C127.723 93.3274 127.709 93.3906 127.715 93.4534C127.721 93.5163 127.747 93.5756 127.789 93.6229L127.909 93.6349Z" fill="#413147"/>
<path d="M145.375 83.696C145.362 83.0621 145.191 82.4415 144.877 81.8908C144.563 81.3401 144.116 80.8767 143.577 80.5428C142.835 80.1106 141.993 79.8769 141.135 79.8643C140.276 79.8517 139.428 80.0606 138.674 80.4709C137.806 80.9965 137.149 81.8096 136.819 82.769C136.488 83.7283 136.504 84.7732 136.864 85.7221C137.266 86.6811 137.985 87.4727 138.902 87.9641C139.953 88.4584 141.144 88.5728 142.27 88.2878C143.244 88.0088 144.089 87.3958 144.657 86.5562C145.225 85.7167 145.479 84.7041 145.375 83.696Z" fill="url(#paint5_linear_200_2816)"/>
<path d="M134.682 89.5106C134.514 86.2975 130.57 84.7989 127.981 86.2855C127.111 86.8094 126.453 87.6225 126.122 88.5824C125.791 89.5424 125.808 90.5882 126.171 91.5368C126.568 92.5019 127.288 93.2987 128.209 93.7907C129.263 94.2763 130.452 94.3863 131.577 94.1024C132.551 93.8234 133.396 93.2105 133.964 92.3709C134.532 91.5313 134.786 90.5188 134.682 89.5106Z" fill="url(#paint6_linear_200_2816)"/>
<path d="M149.235 92.1842C148.495 91.7519 147.656 91.5181 146.799 91.5055C145.942 91.4929 145.096 91.7019 144.344 92.1123C143.474 92.6362 142.816 93.4492 142.486 94.4092C142.155 95.3691 142.172 96.4149 142.534 97.3635C142.928 98.3238 143.644 99.1167 144.56 99.6055C145.611 100.1 146.802 100.214 147.928 99.9292C148.897 99.6533 149.739 99.0462 150.306 98.2137C150.873 97.3812 151.131 96.3761 151.033 95.3733C151.026 94.7333 150.858 94.1055 150.543 93.5479C150.229 92.9904 149.779 92.5214 149.235 92.1842Z" fill="url(#paint7_linear_200_2816)"/>
<path d="M138.47 97.4954C137.743 97.0427 136.909 96.7928 136.053 96.7717C135.197 96.7506 134.351 96.9591 133.603 97.3755C132.732 97.8977 132.072 98.7106 131.741 99.6712C131.41 100.632 131.428 101.678 131.793 102.627C132.187 103.591 132.909 104.385 133.831 104.869C134.882 105.364 136.073 105.478 137.199 105.192C138.174 104.913 139.019 104.3 139.586 103.461C140.154 102.621 140.408 101.609 140.304 100.601C140.277 99.972 140.096 99.3598 139.776 98.8182C139.456 98.2765 139.008 97.8222 138.47 97.4954Z" fill="url(#paint8_linear_200_2816)"/>
<path d="M67.3949 54.6104C67.251 54.8382 58.6678 71.503 59.0874 72.0425C59.507 72.582 62.9235 74.3564 63.8825 73.9608C64.8415 73.5651 72.19 56.9842 72.2739 56.4687C72.3578 55.9531 67.9703 53.6752 67.3949 54.6104Z" fill="url(#paint9_linear_200_2816)"/>
<path d="M58.9675 57.5716C58.9675 57.5716 74.5515 64.7651 74.5515 65.2207C74.5515 65.6763 72.8253 70.1362 72.2379 70.1722C71.6505 70.2082 56.6539 63.83 56.4981 62.9787C56.3422 62.1275 57.8047 57.4398 58.9675 57.5716Z" fill="url(#paint10_linear_200_2816)"/>
<path d="M146.154 98.7542C146.558 98.9083 146.991 98.9678 147.421 98.9283C147.851 98.8888 148.267 98.7514 148.636 98.5265C149.017 98.2769 149.353 97.9648 149.631 97.6033C149.821 97.4158 149.943 97.17 149.978 96.905C150.013 96.6399 149.958 96.3709 149.822 96.1406L149.918 96.3085C149.9 96.2506 149.868 96.1983 149.824 96.1564C149.78 96.1145 149.726 96.0844 149.668 96.0688C149.609 96.0533 149.547 96.0528 149.488 96.0675C149.43 96.0821 149.375 96.1114 149.331 96.1526L149.487 96.0567C149.255 96.1529 149.065 96.3267 148.947 96.5483C148.863 96.6921 148.791 96.848 148.696 96.9919L148.624 97.0998C148.574 97.1653 148.518 97.2256 148.456 97.2796C148.394 97.3496 148.326 97.4138 148.252 97.4714C148.144 97.5673 148.348 97.3995 148.252 97.4714L148.144 97.5433C148 97.6393 147.844 97.7232 147.689 97.8071L147.473 97.915C147.473 97.915 147.569 97.915 147.473 97.915H147.353C147.038 98.0255 146.702 98.0664 146.37 98.0349C146.293 98.0344 146.219 98.0623 146.161 98.1131C146.104 98.164 146.067 98.2344 146.058 98.3106C146.047 98.3865 146.064 98.4639 146.106 98.528C146.148 98.5922 146.212 98.6385 146.286 98.6583L146.154 98.7542Z" fill="#413147"/>
<path d="M150.134 95.625C150.14 95.5372 150.14 95.4491 150.134 95.3613V95.1095C150.138 95.0686 150.127 95.0277 150.102 94.9945C150.078 94.9614 150.042 94.9383 150.002 94.9297C149.962 94.9182 149.919 94.9203 149.88 94.9354C149.841 94.9506 149.808 94.978 149.786 95.0136V95.1215C149.783 95.1574 149.783 95.1935 149.786 95.2294L149.679 95.4692C149.666 95.5204 149.666 95.5738 149.679 95.625C149.668 95.6764 149.668 95.7295 149.679 95.7809C149.725 95.8412 149.787 95.887 149.858 95.9128C149.935 95.9435 150.021 95.9435 150.098 95.9128C150.14 95.8831 150.176 95.8467 150.206 95.8049C150.217 95.7535 150.217 95.7004 150.206 95.649L150.134 95.625Z" fill="#413147"/>
<path d="M134.742 104.413C134.899 104.596 135.101 104.735 135.328 104.817C135.555 104.899 135.799 104.921 136.037 104.881C136.504 104.82 136.952 104.652 137.343 104.389C137.741 104.112 138.069 103.747 138.302 103.322C138.424 103.112 138.516 102.886 138.578 102.651C138.595 102.535 138.595 102.418 138.578 102.303C138.596 102.2 138.596 102.094 138.578 101.991C138.569 101.966 138.555 101.943 138.536 101.924C138.517 101.904 138.495 101.889 138.47 101.879C138.445 101.868 138.419 101.864 138.392 101.864C138.365 101.865 138.338 101.872 138.314 101.883C138.163 101.985 138.029 102.11 137.919 102.255C137.791 102.396 137.671 102.544 137.559 102.699C137.331 103.003 137.07 103.28 136.78 103.526C136.708 103.526 136.876 103.526 136.78 103.526L136.66 103.61L136.432 103.73L136.216 103.814H135.965C135.817 103.831 135.668 103.831 135.521 103.814C135.325 103.801 135.129 103.801 134.934 103.814C134.89 103.828 134.85 103.851 134.817 103.882C134.783 103.913 134.757 103.951 134.74 103.993C134.723 104.036 134.715 104.081 134.718 104.127C134.72 104.172 134.732 104.217 134.754 104.257L134.742 104.413Z" fill="#413147"/>
<path d="M129.156 92.5678C129.526 92.9613 130.021 93.2136 130.557 93.2814C131.093 93.3492 131.636 93.2283 132.093 92.9395C132.368 92.7915 132.574 92.542 132.668 92.2441C132.711 92.1666 132.723 92.076 132.703 91.9897C132.684 91.9034 132.633 91.8275 132.56 91.7766C132.506 91.7591 132.447 91.7591 132.392 91.7766C132.33 91.7586 132.263 91.7586 132.201 91.7766C132.105 91.8605 132.201 91.7766 132.201 91.7766H132.081L131.949 91.8725C131.949 91.8725 132.033 91.8725 131.949 91.8725L131.841 91.9444L131.685 92.0403L131.517 92.1242H131.445L131.086 92.2082H130.534C130.534 92.2082 130.63 92.2082 130.534 92.2082H130.426C130.187 92.1617 129.964 92.0543 129.779 91.8964C129.718 91.8503 129.643 91.8279 129.567 91.8335C129.491 91.8391 129.42 91.8724 129.367 91.927C129.314 91.9816 129.282 92.0538 129.279 92.1299C129.275 92.206 129.3 92.2807 129.347 92.34L129.156 92.5678Z" fill="#413147"/>
<path d="M140.22 87.4845C140.675 87.6222 141.153 87.6656 141.625 87.612C142.097 87.5584 142.553 87.409 142.965 87.1728C143.392 86.9269 143.76 86.5915 144.044 86.1897C144.197 85.9964 144.3 85.7684 144.344 85.5258C144.388 85.2833 144.372 85.0336 144.296 84.7989C144.296 84.6671 144.068 84.679 143.972 84.7989C143.844 84.9248 143.731 85.0657 143.637 85.2186C143.493 85.4344 143.397 85.5303 143.253 85.7221C143.211 85.7903 143.163 85.8545 143.109 85.9139C143.109 85.9139 142.989 86.0458 142.917 86.1057C142.787 86.2321 142.646 86.3483 142.498 86.4534C142.198 86.6746 141.856 86.8305 141.493 86.911C141.129 86.9916 140.753 86.995 140.388 86.921C140.31 86.9037 140.229 86.9169 140.16 86.9579C140.092 86.9989 140.042 87.0645 140.02 87.1413C139.999 87.218 140.008 87.3001 140.045 87.3707C140.082 87.4412 140.145 87.4948 140.22 87.5205V87.4845Z" fill="#413147"/>
<path d="M91.802 63.9259C91.424 64.5112 91.1709 65.1684 91.0587 65.8561C90.9847 66.1946 90.9525 66.5409 90.9628 66.8872C90.9634 67.0812 90.9876 67.2744 91.0348 67.4627C91.0728 67.6331 91.1555 67.7904 91.2745 67.9182C91.3213 67.9629 91.3836 67.9879 91.4483 67.9879C91.5131 67.9879 91.5753 67.9629 91.6222 67.9182C91.8124 67.6341 91.9164 67.301 91.9218 66.9591C91.9218 66.6714 91.9938 66.3716 92.0417 66.0839C92.1677 65.4562 92.3278 64.8359 92.5212 64.2256C92.543 64.135 92.5321 64.0396 92.4904 63.9563C92.4487 63.8729 92.379 63.807 92.2935 63.77C92.2059 63.7376 92.11 63.7353 92.021 63.7635C91.9319 63.7918 91.8549 63.8489 91.802 63.9259Z" fill="#413147"/>
<path d="M90.699 70.6997C90.7626 71.0065 90.8633 71.3044 90.9987 71.5869L91.0946 71.7667C91.1478 71.8478 91.2079 71.924 91.2744 71.9945H91.3583H91.4542C91.3823 71.9945 91.4542 71.9945 91.4542 71.9945L91.5381 72.0665C91.629 72.1424 91.7433 72.1848 91.8618 72.1864C91.9147 72.1876 91.9664 72.1702 92.008 72.1374C92.0496 72.1046 92.0784 72.0583 92.0896 72.0065C92.0952 71.9829 92.0952 71.9582 92.0896 71.9346C92.0955 71.8828 92.0955 71.8305 92.0896 71.7787V71.6349C92.0896 71.6349 92.0896 71.7188 92.0896 71.6349C92.1018 71.5836 92.1018 71.5302 92.0896 71.479C92.0938 71.4472 92.0938 71.4149 92.0896 71.3831C92.0896 71.2392 91.9577 71.0954 91.8858 70.9395V71.0474C91.7982 70.8383 91.7299 70.6216 91.682 70.4C91.6512 70.2907 91.5785 70.1979 91.4798 70.1418C91.381 70.0857 91.2642 70.0708 91.1545 70.1003C91.0469 70.1337 90.956 70.2068 90.9004 70.3048C90.8447 70.4027 90.8284 70.5182 90.8548 70.6278L90.699 70.6997Z" fill="#413147"/>
<path d="M112.085 102.783C112.504 102.872 112.937 102.872 113.356 102.783C113.753 102.665 114.126 102.478 114.459 102.231C114.803 101.961 115.106 101.642 115.358 101.284C115.61 100.912 115.873 100.373 115.562 99.9891C115.528 99.9552 115.485 99.9308 115.439 99.9182C115.393 99.9055 115.344 99.9052 115.298 99.9172C114.926 100.025 114.77 100.469 114.579 100.768C114.392 101.033 114.17 101.271 113.919 101.476C113.835 101.476 113.644 101.668 113.512 101.74C113.371 101.829 113.223 101.906 113.068 101.967C112.755 102.112 112.425 102.217 112.085 102.279C112.023 102.292 111.968 102.326 111.928 102.375C111.888 102.424 111.867 102.486 111.867 102.549C111.867 102.612 111.888 102.673 111.928 102.722C111.968 102.771 112.023 102.805 112.085 102.819V102.783Z" fill="#413147"/>
<path d="M115.645 99.1378C115.722 99.1378 115.795 99.1075 115.849 99.0536C115.903 98.9996 115.933 98.9264 115.933 98.8501C115.933 98.7738 115.903 98.7006 115.849 98.6466C115.795 98.5927 115.722 98.5624 115.645 98.5624C115.569 98.5624 115.496 98.5927 115.442 98.6466C115.388 98.7006 115.358 98.7738 115.358 98.8501C115.358 98.9264 115.388 98.9996 115.442 99.0536C115.496 99.1075 115.569 99.1378 115.645 99.1378Z" fill="#413147"/>
<path d="M79.095 91.8605C79.5024 92.0547 79.9446 92.1654 80.3955 92.186C80.8464 92.2066 81.2969 92.1367 81.7203 91.9804C82.1543 91.8246 82.5595 91.5977 82.9191 91.309C83.2547 91.0332 83.7343 90.5297 83.4945 90.1101C83.4695 90.0691 83.4342 90.0354 83.3921 90.0123C83.3501 89.9892 83.3027 89.9774 83.2547 89.9782C82.8591 89.9782 82.5714 90.4098 82.2957 90.6616C82.0485 90.8723 81.7693 91.0423 81.4686 91.1651C80.8006 91.4453 80.0585 91.4959 79.3587 91.309C79.0231 91.2131 78.7713 91.7526 79.107 91.9084L79.095 91.8605Z" fill="#413147"/>
<path d="M85.0768 88.2638C85.0768 88.048 85.0768 87.8322 85.0768 87.6164C85.0914 87.5736 85.0914 87.5272 85.0768 87.4845C85.0491 87.45 85.0114 87.4249 84.9689 87.4125C84.9222 87.3997 84.8726 87.402 84.8273 87.4193C84.7821 87.4365 84.7435 87.4678 84.7172 87.5085L84.4295 88.06C84.3912 88.121 84.3708 88.1917 84.3708 88.2638C84.3708 88.3359 84.3912 88.4065 84.4295 88.4676C84.4823 88.5595 84.5679 88.6281 84.6692 88.6594C84.7693 88.6994 84.8809 88.6994 84.9809 88.6594C85.0447 88.6272 85.0979 88.5773 85.134 88.5156C85.1701 88.4539 85.1877 88.3831 85.1847 88.3117L85.0768 88.2638Z" fill="#413147"/>
<path d="M151.285 75.2436C151.392 75.2603 151.496 75.2884 151.597 75.3275L151.92 75.4474H151.788L152.076 75.5793H152.256H152.388C152.451 75.5973 152.517 75.5973 152.58 75.5793C152.682 75.5429 152.767 75.4704 152.819 75.3755C152.839 75.2927 152.839 75.2065 152.819 75.1237C152.823 75.0587 152.812 74.9936 152.787 74.9334C152.762 74.8732 152.724 74.8194 152.676 74.776C152.613 74.7175 152.545 74.6653 152.472 74.6202C152.406 74.5725 152.333 74.536 152.256 74.5123L151.98 74.4403C151.853 74.4284 151.724 74.4284 151.597 74.4403H151.225H151.117C151.069 74.466 151.028 74.5031 150.997 74.5482C150.945 74.622 150.916 74.7096 150.913 74.8C150.897 74.8711 150.897 74.9448 150.913 75.0158C150.94 75.063 150.977 75.1042 151.02 75.1372C151.063 75.1701 151.112 75.1941 151.165 75.2076L151.285 75.2436Z" fill="#413147"/>
<path d="M151.201 73.3493L151.681 73.5771L152.004 73.697C152.094 73.7214 152.19 73.7214 152.28 73.697C152.33 73.6779 152.378 73.6538 152.424 73.6251C152.467 73.5918 152.501 73.5478 152.522 73.4973C152.543 73.4467 152.551 73.3916 152.544 73.3373C152.554 73.2818 152.554 73.225 152.544 73.1695C152.497 73.0918 152.425 73.0326 152.34 73.0016L152.232 72.9297L152.04 72.8578L151.549 72.6659C151.503 72.6454 151.454 72.6348 151.405 72.6348C151.355 72.6348 151.306 72.6454 151.261 72.6659C151.198 72.7071 151.148 72.7653 151.117 72.8338C151.088 72.911 151.088 72.9964 151.117 73.0736C151.145 73.1637 151.204 73.2405 151.285 73.2894L151.201 73.3493Z" fill="#413147"/>
<path d="M81.0129 49.2512C81.1815 49.4031 81.3665 49.5358 81.5644 49.6468L81.8281 49.7787C81.9439 49.8331 82.0642 49.8773 82.1877 49.9106C82.3555 49.9106 82.5354 49.9106 82.6672 49.8267C82.6883 49.7902 82.6993 49.7489 82.6993 49.7068C82.6993 49.6647 82.6883 49.6233 82.6672 49.5869C82.6588 49.5416 82.6404 49.4988 82.6135 49.4615C82.5865 49.4242 82.5517 49.3933 82.5114 49.3711C82.4717 49.3644 82.4312 49.3644 82.3915 49.3711C82.3915 49.3711 82.4514 49.3711 82.3915 49.3711L82.1757 49.2872H82.0319H81.9599C81.8562 49.2385 81.756 49.1824 81.6602 49.1193L81.5164 49.0114C81.5164 49.0114 81.5883 49.0114 81.5164 49.0114H81.4445C81.3825 48.9541 81.3011 48.9223 81.2167 48.9223C81.1323 48.9223 81.051 48.9541 80.9889 49.0114C80.9577 49.0406 80.9328 49.0759 80.9158 49.115C80.8988 49.1542 80.89 49.1965 80.89 49.2392C80.89 49.2819 80.8988 49.3242 80.9158 49.3634C80.9328 49.4026 80.9577 49.4378 80.9889 49.467L81.0129 49.2512Z" fill="#413147"/>
<path d="M82.8111 48.1842C82.852 48.1997 82.8889 48.2243 82.9189 48.2561H82.847L83.0029 48.4L83.1227 48.5439C83.1673 48.5982 83.2037 48.6588 83.2306 48.7237C83.2566 48.7653 83.2946 48.7979 83.3396 48.8172C83.3846 48.8365 83.4344 48.8415 83.4824 48.8316C83.5244 48.8117 83.5608 48.7815 83.5881 48.7438C83.6153 48.706 83.6326 48.662 83.6382 48.6158C83.6441 48.532 83.6441 48.4479 83.6382 48.3641C83.6438 48.2922 83.6438 48.2201 83.6382 48.1483C83.5678 47.9925 83.4704 47.8505 83.3505 47.7286C83.2821 47.6638 83.1929 47.6256 83.0988 47.6207C83.0431 47.6216 82.9883 47.635 82.9385 47.6599C82.8887 47.6848 82.8452 47.7206 82.8111 47.7646C82.7823 47.8059 82.7622 47.8527 82.752 47.902C82.7419 47.9513 82.7418 48.0022 82.7519 48.0515C82.762 48.1008 82.782 48.1476 82.8107 48.189C82.8394 48.2303 82.8763 48.2654 82.9189 48.2921L82.8111 48.1842Z" fill="#413147"/>
<path d="M142.738 146.926C143.984 147.043 145.241 146.883 146.418 146.459C147.026 146.23 147.602 145.924 148.132 145.548C148.464 145.323 148.766 145.057 149.031 144.756C149.031 144.756 149.319 144.265 149.295 144.289C149.271 144.313 149.295 144.433 149.295 144.289C149.38 144.152 149.436 144 149.461 143.842C149.485 143.683 149.478 143.521 149.439 143.366V143.869C149.493 143.718 149.529 143.561 149.547 143.402C149.547 143.27 149.547 143.162 149.547 143.03C149.513 142.906 149.439 142.797 149.338 142.719C149.236 142.642 149.111 142.599 148.983 142.598H148.672C148.565 142.601 148.46 142.634 148.372 142.694C148.252 142.694 148.264 142.694 148.372 142.694H148.875C148.593 142.63 148.297 142.663 148.036 142.79L147.868 142.886C148.096 142.754 147.737 142.886 147.677 142.958C147.437 143.078 147.221 143.27 146.993 143.414C146.543 143.72 146.07 143.992 145.579 144.229C145.507 144.229 145.183 144.397 145.411 144.313L144.86 144.529L144.68 144.613L144.308 144.744C144.041 144.831 143.769 144.899 143.493 144.948H143.277H142.822C142.574 144.954 142.337 145.057 142.163 145.233C141.989 145.41 141.89 145.647 141.887 145.895C141.893 146.143 141.993 146.378 142.166 146.554C142.34 146.73 142.574 146.833 142.822 146.843L142.738 146.926Z" fill="#413147"/>
<path d="M147.557 139.817C148.432 139.743 149.284 139.494 150.062 139.086C150.424 138.878 150.752 138.615 151.033 138.306C151.178 138.144 151.284 137.952 151.345 137.743C151.345 137.743 151.345 137.827 151.345 137.743C151.345 137.659 151.345 137.743 151.345 137.647C151.476 137.431 151.538 137.18 151.525 136.928C151.522 136.783 151.462 136.646 151.359 136.545C151.256 136.444 151.117 136.388 150.973 136.388C150.756 136.376 150.539 136.413 150.338 136.496H150.242H150.038H150.302H149.99L149.703 136.616L149.499 136.712L149.739 136.604L148.72 137.047L148.983 136.928C148.422 137.181 147.829 137.358 147.221 137.455H147.521C147.226 137.473 146.947 137.591 146.73 137.791C146.623 137.895 146.538 138.02 146.48 138.158C146.422 138.296 146.393 138.444 146.394 138.594C146.394 138.742 146.424 138.888 146.482 139.024C146.539 139.16 146.624 139.283 146.73 139.385C146.831 139.494 146.953 139.58 147.089 139.637C147.226 139.695 147.373 139.724 147.521 139.721L147.557 139.817Z" fill="#413147"/>
<path d="M36.8622 109.904C38.0659 110.249 39.3043 110.458 40.5545 110.528C41.1751 110.559 41.7973 110.531 42.4125 110.444C43.0839 110.372 44.1028 110.12 44.2347 109.341C44.3666 108.561 43.2996 108.298 42.6643 108.322C42.0289 108.346 41.4655 108.429 40.7942 108.465C39.6292 108.546 38.4589 108.493 37.3058 108.31C37.0944 108.254 36.8698 108.283 36.6795 108.39C36.4892 108.498 36.3483 108.675 36.2868 108.885C36.2312 109.096 36.2601 109.321 36.3676 109.511C36.4751 109.702 36.6525 109.843 36.8622 109.904Z" fill="#413147"/>
<path d="M44.5943 105.984L45.4334 105.792C45.7092 105.792 45.9968 105.684 46.2606 105.6C46.581 105.516 46.8907 105.395 47.1836 105.24C47.5672 105.025 48.0228 104.773 48.0108 104.257C48.0159 104.193 48.0159 104.129 48.0108 104.065L47.6392 103.61C47.4892 103.512 47.3148 103.458 47.1357 103.454H46.7401C46.3976 103.454 46.0561 103.49 45.7211 103.562C45.4375 103.607 45.1572 103.671 44.882 103.754L44.0548 103.958C43.7853 104.036 43.557 104.216 43.4182 104.46C43.2794 104.704 43.2412 104.993 43.3116 105.264C43.395 105.531 43.5762 105.755 43.8187 105.893C44.0611 106.031 44.3468 106.072 44.6183 106.008L44.5943 105.984Z" fill="#413147"/>
<path d="M6.22162 110.324C5.1865 110.198 4.13993 110.198 3.10481 110.324C2.05204 110.357 1.02663 110.667 0.131858 111.223C-0.0839204 111.391 -0.0479631 111.786 0.275705 111.774C1.27069 111.774 2.22972 111.403 3.21271 111.295C4.21245 111.181 5.22188 111.181 6.22162 111.295C6.28559 111.296 6.34923 111.285 6.4088 111.262C6.46837 111.238 6.52264 111.203 6.56845 111.159C6.61425 111.114 6.65065 111.061 6.67549 111.002C6.70034 110.943 6.71314 110.879 6.71312 110.815C6.71007 110.686 6.6573 110.563 6.56578 110.471C6.47426 110.38 6.35101 110.327 6.22162 110.324Z" fill="#413147"/>
<path d="M6.26951 119.028C5.74205 119.831 5.20261 120.634 4.66316 121.426C4.41142 121.809 4.17166 122.217 3.93191 122.625C3.81203 122.828 3.6562 123.044 3.54831 123.26C3.44042 123.476 3.36849 123.74 3.28458 123.967C3.20066 124.195 3.6562 124.567 3.91993 124.339C4.12108 124.178 4.30578 123.997 4.47135 123.799L4.92689 123.2C5.20261 122.828 5.49031 122.457 5.75404 122.001L7.36039 119.603C7.44296 119.46 7.46535 119.29 7.42264 119.131C7.37993 118.971 7.27562 118.835 7.13262 118.752C6.98915 118.668 6.81838 118.643 6.657 118.684C6.49562 118.724 6.35649 118.826 6.26951 118.968V119.028Z" fill="#413147"/>
<path d="M148.372 169.202C148.552 170.329 148.744 171.468 148.935 172.595C149.05 173.739 149.423 174.842 150.026 175.82C150.064 175.884 150.12 175.935 150.187 175.967C150.253 176 150.328 176.012 150.401 176.004C150.475 175.995 150.544 175.965 150.601 175.917C150.658 175.87 150.7 175.807 150.722 175.736C150.888 174.567 150.794 173.376 150.446 172.247C150.17 171.12 149.894 169.981 149.607 168.854C149.559 168.691 149.45 168.552 149.303 168.468C149.155 168.383 148.981 168.358 148.815 168.399C148.653 168.452 148.517 168.564 148.435 168.713C148.353 168.862 148.33 169.037 148.372 169.202Z" fill="#413147"/>
<path d="M153.383 164.035L155.061 165.378L155.876 166.025C156.032 166.166 156.205 166.287 156.392 166.385L156.883 166.613C156.951 166.662 157.033 166.689 157.117 166.689C157.201 166.689 157.283 166.662 157.351 166.613C157.406 166.549 157.436 166.468 157.436 166.385C157.436 166.301 157.406 166.22 157.351 166.157L157.063 165.761C156.941 165.594 156.796 165.444 156.631 165.318L155.804 164.634L154.138 163.28C154.085 163.226 154.021 163.183 153.951 163.154C153.881 163.125 153.806 163.11 153.73 163.11C153.655 163.11 153.58 163.125 153.51 163.154C153.44 163.183 153.376 163.226 153.323 163.28C153.268 163.332 153.224 163.395 153.194 163.466C153.164 163.536 153.148 163.611 153.148 163.687C153.148 163.763 153.164 163.839 153.194 163.909C153.224 163.979 153.268 164.042 153.323 164.095L153.383 164.035Z" fill="#413147"/>
<path d="M156.212 157.645C156.763 157.861 157.315 158.076 157.878 158.268L158.681 158.544C158.976 158.631 159.276 158.695 159.58 158.736C159.66 158.769 159.749 158.77 159.829 158.737C159.909 158.704 159.973 158.641 160.006 158.562C160.039 158.482 160.04 158.393 160.007 158.313C159.975 158.233 159.912 158.17 159.832 158.136C159.587 157.958 159.326 157.801 159.053 157.669L158.25 157.285C157.686 157.021 157.051 156.793 156.512 156.554C156.44 156.534 156.365 156.528 156.291 156.537C156.217 156.546 156.146 156.57 156.082 156.607C156.017 156.643 155.96 156.693 155.915 156.751C155.869 156.81 155.836 156.878 155.816 156.949C155.785 157.094 155.808 157.244 155.881 157.373C155.954 157.501 156.072 157.598 156.212 157.645Z" fill="#413147"/>
<g clip-path="url(#clip1_200_2816)">
<path d="M146.772 19.0378C145.559 21.8167 144.251 24.5505 142.847 27.2392C142.156 28.562 141.456 29.8898 140.719 31.193C140.367 31.8234 140.002 32.4502 139.673 33.1016C139.283 33.7345 139.031 34.4428 138.933 35.18C138.935 35.2765 138.962 35.3708 139.011 35.4538C139.06 35.5368 139.13 35.6057 139.214 35.6539C139.297 35.702 139.392 35.7278 139.488 35.7287C139.585 35.7295 139.68 35.7055 139.764 35.6589C140.35 35.2632 140.837 34.7372 141.186 34.1219C141.632 33.4948 142.009 32.827 142.368 32.1693C143.111 30.8165 143.841 29.46 144.506 28.0715C145.828 25.309 146.99 22.4718 147.983 19.5745C148.227 18.8565 147.045 18.3494 146.738 19.0578L146.772 19.0378Z" fill="#413147"/>
<path d="M130.568 17.3313C130.176 19.1514 129.834 20.9998 129.618 22.8452C129.52 23.7561 129.428 24.6756 129.416 25.5948C129.4 26.0528 129.415 26.5114 129.458 26.9677C129.534 27.4413 129.685 27.8996 129.907 28.3251C129.945 28.3918 130.001 28.4472 130.068 28.4856C130.135 28.5241 130.21 28.5443 130.288 28.5442C130.365 28.5441 130.44 28.5237 130.507 28.4851C130.574 28.4465 130.63 28.391 130.668 28.3242C130.867 27.9299 131.013 27.5115 131.104 27.0794C131.164 26.6151 131.198 26.1479 131.208 25.6798C131.243 24.7593 131.237 23.8502 131.272 22.9297C131.363 21.0873 131.464 19.2623 131.59 17.4806C131.662 16.8849 130.672 16.7516 130.551 17.3413L130.568 17.3313Z" fill="#413147"/>
<path d="M114.083 17.9579C114.787 20.0572 115.491 22.1565 116.248 24.2481C116.609 25.2524 116.943 26.2718 117.347 27.2511C117.751 28.2304 118.148 29.4789 119.06 30.038C119.138 30.0806 119.225 30.1049 119.314 30.1091C119.403 30.1133 119.492 30.0972 119.574 30.0621C119.656 30.027 119.729 29.9738 119.787 29.9064C119.846 29.8391 119.888 29.7593 119.911 29.6732C120.056 28.66 119.897 27.6267 119.455 26.7034C119.092 25.6544 118.672 24.6268 118.269 23.5891C117.484 21.5485 116.655 19.5329 115.83 17.5036C115.761 17.2772 115.61 17.0849 115.406 16.9651C115.202 16.8453 114.96 16.8068 114.729 16.8574C114.501 16.9238 114.308 17.0747 114.188 17.2793C114.067 17.4839 114.03 17.7267 114.083 17.9579Z" fill="#413147"/>
</g>
</g>
<defs>
<linearGradient id="paint0_linear_200_2816" x1="69.9414" y1="58.1485" x2="77.5443" y2="42.9642" gradientUnits="userSpaceOnUse">
<stop stop-color="#F65F6F"/>
<stop offset="1" stop-color="#F78164"/>
</linearGradient>
<linearGradient id="paint1_linear_200_2816" x1="137.669" y1="84.1601" x2="145.875" y2="68.2455" gradientUnits="userSpaceOnUse">
<stop stop-color="#F65F6F"/>
<stop offset="1" stop-color="#F78164"/>
</linearGradient>
<linearGradient id="paint2_linear_200_2816" x1="100.76" y1="86.249" x2="111.606" y2="62.7568" gradientUnits="userSpaceOnUse">
<stop stop-color="#F65F6F"/>
<stop offset="1" stop-color="#F78164"/>
</linearGradient>
<linearGradient id="paint3_linear_200_2816" x1="108.45" y1="110.344" x2="119.773" y2="95.228" gradientUnits="userSpaceOnUse">
<stop stop-color="#F65F6F"/>
<stop offset="1" stop-color="#F78164"/>
</linearGradient>
<linearGradient id="paint4_linear_200_2816" x1="76.8659" y1="99.1739" x2="88.1437" y2="84.0787" gradientUnits="userSpaceOnUse">
<stop stop-color="#F65F6F"/>
<stop offset="1" stop-color="#F78164"/>
</linearGradient>
<linearGradient id="paint5_linear_200_2816" x1="139.392" y1="89.2786" x2="144.469" y2="82.4492" gradientUnits="userSpaceOnUse">
<stop stop-color="#F65F6F"/>
<stop offset="1" stop-color="#F78164"/>
</linearGradient>
<linearGradient id="paint6_linear_200_2816" x1="128.698" y1="95.0912" x2="133.751" y2="88.2671" gradientUnits="userSpaceOnUse">
<stop stop-color="#F65F6F"/>
<stop offset="1" stop-color="#F78164"/>
</linearGradient>
<linearGradient id="paint7_linear_200_2816" x1="145.056" y1="100.92" x2="150.134" y2="94.0971" gradientUnits="userSpaceOnUse">
<stop stop-color="#F65F6F"/>
<stop offset="1" stop-color="#F78164"/>
</linearGradient>
<linearGradient id="paint8_linear_200_2816" x1="134.318" y1="106.184" x2="139.392" y2="99.3516" gradientUnits="userSpaceOnUse">
<stop stop-color="#F65F6F"/>
<stop offset="1" stop-color="#F78164"/>
</linearGradient>
<linearGradient id="paint9_linear_200_2816" x1="63.2817" y1="75.9342" x2="75.3161" y2="65.3391" gradientUnits="userSpaceOnUse">
<stop stop-color="#F65F6F"/>
<stop offset="1" stop-color="#F78164"/>
</linearGradient>
<linearGradient id="paint10_linear_200_2816" x1="62.246" y1="71.4028" x2="68.7122" y2="59.2704" gradientUnits="userSpaceOnUse">
<stop stop-color="#F65F6F"/>
<stop offset="1" stop-color="#F78164"/>
</linearGradient>
<clipPath id="clip0_200_2816">
<rect width="160" height="176" fill="white"/>
</clipPath>
<clipPath id="clip1_200_2816">
<rect width="30.82" height="28.82" fill="white" transform="translate(153.101 27.9589) rotate(150)"/>
</clipPath>
</defs>
</svg>
