<svg width="25" height="24" viewBox="0 0 25 24" fill="none" xmlns="http://www.w3.org/2000/svg">
<path d="M19.455 3.10571C19.7478 2.81282 19.7478 2.33794 19.455 2.04505C19.1621 1.75216 18.6872 1.75216 18.3943 2.04505L17.6872 2.75216C17.1917 3.24759 17.2171 4.01746 17.6493 4.49977C20.5518 7.73853 20.4465 12.7207 17.3336 15.8336C15.7236 17.4437 13.6135 18.2491 11.5032 18.25L11.5 18.25L11.497 18.25C9.52922 18.2493 7.56174 17.5491 5.99977 16.1493C5.51746 15.7171 4.74759 15.6917 4.25216 16.1872L3.54505 16.8943C3.25216 17.1872 3.25216 17.6621 3.54505 17.955C3.83794 18.2478 4.31282 18.2478 4.60571 17.955L5.15616 17.4045C6.77594 18.7951 8.74373 19.5674 10.75 19.7213V21.25H9C8.58579 21.25 8.25 21.5858 8.25 22C8.25 22.4142 8.58579 22.75 9 22.75H14C14.4142 22.75 14.75 22.4142 14.75 22C14.75 21.5858 14.4142 21.25 14 21.25H12.25V19.7213C14.4897 19.5496 16.6813 18.6073 18.3943 16.8943C22.0235 13.2651 22.1935 7.48724 18.9045 3.65616L19.455 3.10571Z" fill="white"/>
<path fill-rule="evenodd" clip-rule="evenodd" d="M5 10C5 6.41015 7.91015 3.5 11.5 3.5C15.0899 3.5 18 6.41015 18 10C18 13.5899 15.0899 16.5 11.5 16.5C7.91015 16.5 5 13.5899 5 10ZM13.5 6.25C11.9812 6.25 10.75 7.48122 10.75 9C10.75 10.5188 11.9812 11.75 13.5 11.75C15.0188 11.75 16.25 10.5188 16.25 9C16.25 7.48122 15.0188 6.25 13.5 6.25ZM6.75 12.5C6.75 11.8096 7.30964 11.25 8 11.25C8.69036 11.25 9.25 11.8096 9.25 12.5C9.25 13.1904 8.69036 13.75 8 13.75C7.30964 13.75 6.75 13.1904 6.75 12.5Z" fill="white"/>
</svg>
