<svg width="16" height="16" viewBox="0 0 16 16" fill="none" xmlns="http://www.w3.org/2000/svg">
<path fill-rule="evenodd" clip-rule="evenodd" d="M2.16669 8.00008C2.16669 4.77842 4.77836 2.16675 8.00002 2.16675C11.2217 2.16675 13.8334 4.77842 13.8334 8.00008C13.8334 11.2217 11.2217 13.8334 8.00002 13.8334C4.77836 13.8334 2.16669 11.2217 2.16669 8.00008ZM8.66669 5.33341C8.66669 5.7016 8.36821 6.00008 8.00002 6.00008C7.63183 6.00008 7.33335 5.7016 7.33335 5.33341C7.33335 4.96522 7.63183 4.66675 8.00002 4.66675C8.36821 4.66675 8.66669 4.96522 8.66669 5.33341ZM8.00002 7.16675C8.27616 7.16675 8.50002 7.39061 8.50002 7.66675V11.0001C8.50002 11.2762 8.27616 11.5001 8.00002 11.5001C7.72388 11.5001 7.50002 11.2762 7.50002 11.0001V7.66675C7.50002 7.39061 7.72388 7.16675 8.00002 7.16675Z" fill="#F6676D"/>
</svg>
