<svg width="295" height="133" viewBox="0 0 295 133" fill="none" xmlns="http://www.w3.org/2000/svg">
<path d="M36.3294 24.24C34.5694 24.24 33.0574 23.888 31.7934 23.184C30.5454 22.464 29.5854 21.456 28.9134 20.16C28.2414 18.848 27.9054 17.304 27.9054 15.528C27.9054 14.2 28.0974 13.008 28.4814 11.952C28.8654 10.88 29.4174 9.968 30.1374 9.216C30.8574 8.448 31.7374 7.864 32.7774 7.464C33.8334 7.048 35.0174 6.84 36.3294 6.84C37.2094 6.84 38.0734 6.952 38.9214 7.176C39.7694 7.4 40.5134 7.72 41.1534 8.136C41.4894 8.344 41.7134 8.6 41.8254 8.904C41.9374 9.192 41.9614 9.48 41.8974 9.768C41.8334 10.04 41.6974 10.272 41.4894 10.464C41.2974 10.656 41.0494 10.768 40.7454 10.8C40.4574 10.816 40.1374 10.712 39.7854 10.488C39.2894 10.168 38.7534 9.936 38.1774 9.792C37.6014 9.648 37.0174 9.576 36.4254 9.576C35.2894 9.576 34.3294 9.808 33.5454 10.272C32.7614 10.736 32.1694 11.408 31.7694 12.288C31.3694 13.168 31.1694 14.248 31.1694 15.528C31.1694 16.792 31.3694 17.872 31.7694 18.768C32.1694 19.664 32.7614 20.344 33.5454 20.808C34.3294 21.272 35.2894 21.504 36.4254 21.504C37.0334 21.504 37.6334 21.432 38.2254 21.288C38.8174 21.128 39.3774 20.888 39.9054 20.568C40.2574 20.36 40.5694 20.272 40.8414 20.304C41.1294 20.32 41.3694 20.416 41.5614 20.592C41.7534 20.768 41.8814 20.992 41.9454 21.264C42.0094 21.52 41.9934 21.792 41.8974 22.08C41.8014 22.352 41.6094 22.592 41.3214 22.8C40.6814 23.264 39.9134 23.624 39.0174 23.88C38.1374 24.12 37.2414 24.24 36.3294 24.24ZM48.9901 24.24C47.7741 24.24 46.7181 23.992 45.8221 23.496C44.9261 23 44.2301 22.296 43.7341 21.384C43.2381 20.456 42.9901 19.368 42.9901 18.12C42.9901 17.176 43.1261 16.336 43.3981 15.6C43.6861 14.848 44.0941 14.208 44.6221 13.68C45.1501 13.136 45.7821 12.728 46.5181 12.456C47.2541 12.168 48.0781 12.024 48.9901 12.024C50.2061 12.024 51.2621 12.272 52.1581 12.768C53.0541 13.264 53.7501 13.968 54.2461 14.88C54.7421 15.792 54.9901 16.872 54.9901 18.12C54.9901 19.064 54.8461 19.912 54.5581 20.664C54.2861 21.416 53.8861 22.064 53.3581 22.608C52.8301 23.136 52.1981 23.544 51.4621 23.832C50.7261 24.104 49.9021 24.24 48.9901 24.24ZM48.9901 21.96C49.5821 21.96 50.1021 21.816 50.5501 21.528C50.9981 21.24 51.3421 20.816 51.5821 20.256C51.8381 19.68 51.9661 18.968 51.9661 18.12C51.9661 16.84 51.6941 15.888 51.1501 15.264C50.6061 14.624 49.8861 14.304 48.9901 14.304C48.3981 14.304 47.8781 14.448 47.4301 14.736C46.9821 15.008 46.6301 15.432 46.3741 16.008C46.1341 16.568 46.0141 17.272 46.0141 18.12C46.0141 19.384 46.2861 20.344 46.8301 21C47.3741 21.64 48.0941 21.96 48.9901 21.96ZM58.9543 24.192C58.4743 24.192 58.1063 24.064 57.8503 23.808C57.5943 23.536 57.4663 23.152 57.4663 22.656V13.584C57.4663 13.088 57.5943 12.712 57.8503 12.456C58.1063 12.2 58.4663 12.072 58.9303 12.072C59.3943 12.072 59.7543 12.2 60.0103 12.456C60.2663 12.712 60.3943 13.088 60.3943 13.584V15.216L60.1303 14.616C60.4823 13.768 61.0263 13.128 61.7623 12.696C62.5143 12.248 63.3623 12.024 64.3063 12.024C65.2503 12.024 66.0263 12.2 66.6343 12.552C67.2423 12.904 67.6983 13.44 68.0023 14.16C68.3063 14.864 68.4583 15.76 68.4583 16.848V22.656C68.4583 23.152 68.3303 23.536 68.0743 23.808C67.8183 24.064 67.4503 24.192 66.9703 24.192C66.4903 24.192 66.1143 24.064 65.8423 23.808C65.5863 23.536 65.4583 23.152 65.4583 22.656V16.992C65.4583 16.08 65.2823 15.416 64.9303 15C64.5943 14.584 64.0663 14.376 63.3463 14.376C62.4663 14.376 61.7623 14.656 61.2343 15.216C60.7223 15.76 60.4663 16.488 60.4663 17.4V22.656C60.4663 23.68 59.9623 24.192 58.9543 24.192ZM76.9773 28.56C76.1133 28.56 75.2733 28.48 74.4573 28.32C73.6573 28.16 72.9293 27.912 72.2733 27.576C71.9693 27.416 71.7613 27.224 71.6493 27C71.5533 26.776 71.5213 26.544 71.5533 26.304C71.6013 26.08 71.6973 25.88 71.8413 25.704C72.0013 25.528 72.1933 25.408 72.4173 25.344C72.6413 25.28 72.8733 25.312 73.1133 25.44C73.8173 25.792 74.4813 26.016 75.1053 26.112C75.7453 26.224 76.2893 26.28 76.7373 26.28C77.8093 26.28 78.6093 26.016 79.1373 25.488C79.6813 24.976 79.9533 24.208 79.9533 23.184V21.024H80.1693C79.9293 21.84 79.4253 22.496 78.6573 22.992C77.9053 23.472 77.0493 23.712 76.0893 23.712C75.0333 23.712 74.1133 23.472 73.3293 22.992C72.5453 22.496 71.9373 21.808 71.5053 20.928C71.0733 20.048 70.8573 19.024 70.8573 17.856C70.8573 16.976 70.9773 16.184 71.2173 15.48C71.4733 14.76 71.8253 14.144 72.2733 13.632C72.7373 13.12 73.2893 12.728 73.9293 12.456C74.5853 12.168 75.3053 12.024 76.0893 12.024C77.0813 12.024 77.9453 12.272 78.6813 12.768C79.4333 13.248 79.9213 13.888 80.1453 14.688L79.9053 15.288V13.584C79.9053 13.088 80.0333 12.712 80.2893 12.456C80.5613 12.2 80.9293 12.072 81.3933 12.072C81.8733 12.072 82.2413 12.2 82.4973 12.456C82.7533 12.712 82.8813 13.088 82.8813 13.584V22.824C82.8813 24.728 82.3773 26.16 81.3693 27.12C80.3613 28.08 78.8973 28.56 76.9773 28.56ZM76.9053 21.432C77.5293 21.432 78.0653 21.288 78.5133 21C78.9613 20.712 79.3053 20.304 79.5453 19.776C79.8013 19.232 79.9293 18.592 79.9293 17.856C79.9293 16.752 79.6573 15.888 79.1133 15.264C78.5693 14.624 77.8333 14.304 76.9053 14.304C76.2813 14.304 75.7453 14.448 75.2973 14.736C74.8493 15.024 74.4973 15.432 74.2413 15.96C74.0013 16.488 73.8813 17.12 73.8813 17.856C73.8813 18.96 74.1533 19.832 74.6973 20.472C75.2413 21.112 75.9773 21.432 76.9053 21.432ZM87.5257 24.192C87.0297 24.192 86.6457 24.064 86.3737 23.808C86.1177 23.536 85.9897 23.152 85.9897 22.656V13.584C85.9897 13.088 86.1177 12.712 86.3737 12.456C86.6297 12.2 86.9897 12.072 87.4537 12.072C87.9177 12.072 88.2777 12.2 88.5337 12.456C88.7897 12.712 88.9177 13.088 88.9177 13.584V15.096H88.6777C88.9017 14.136 89.3417 13.408 89.9977 12.912C90.6537 12.416 91.5257 12.12 92.6137 12.024C92.9497 11.992 93.2137 12.08 93.4057 12.288C93.6137 12.48 93.7337 12.784 93.7657 13.2C93.7977 13.6 93.7017 13.928 93.4777 14.184C93.2697 14.424 92.9497 14.568 92.5177 14.616L91.9897 14.664C91.0137 14.76 90.2777 15.064 89.7817 15.576C89.2857 16.072 89.0377 16.776 89.0377 17.688V22.656C89.0377 23.152 88.9097 23.536 88.6537 23.808C88.3977 24.064 88.0217 24.192 87.5257 24.192ZM99.1349 24.24C98.2869 24.24 97.5269 24.08 96.8549 23.76C96.1989 23.424 95.6789 22.976 95.2949 22.416C94.9269 21.856 94.7429 21.224 94.7429 20.52C94.7429 19.656 94.9669 18.976 95.4149 18.48C95.8629 17.968 96.5909 17.6 97.5989 17.376C98.6069 17.152 99.9589 17.04 101.655 17.04H102.855V18.768H101.679C100.687 18.768 99.8949 18.816 99.3029 18.912C98.7109 19.008 98.2869 19.176 98.0309 19.416C97.7909 19.64 97.6709 19.96 97.6709 20.376C97.6709 20.904 97.8549 21.336 98.2229 21.672C98.5909 22.008 99.1029 22.176 99.7589 22.176C100.287 22.176 100.751 22.056 101.151 21.816C101.567 21.56 101.895 21.216 102.135 20.784C102.375 20.352 102.495 19.856 102.495 19.296V16.536C102.495 15.736 102.319 15.16 101.967 14.808C101.615 14.456 101.023 14.28 100.191 14.28C99.7269 14.28 99.2229 14.336 98.6789 14.448C98.1509 14.56 97.5909 14.752 96.9989 15.024C96.6949 15.168 96.4229 15.208 96.1829 15.144C95.9589 15.08 95.7829 14.952 95.6549 14.76C95.5269 14.552 95.4629 14.328 95.4629 14.088C95.4629 13.848 95.5269 13.616 95.6549 13.392C95.7829 13.152 95.9989 12.976 96.3029 12.864C97.0389 12.56 97.7429 12.344 98.4149 12.216C99.1029 12.088 99.7269 12.024 100.287 12.024C101.439 12.024 102.383 12.2 103.119 12.552C103.871 12.904 104.431 13.44 104.799 14.16C105.167 14.864 105.351 15.776 105.351 16.896V22.656C105.351 23.152 105.231 23.536 104.991 23.808C104.751 24.064 104.407 24.192 103.959 24.192C103.511 24.192 103.159 24.064 102.903 23.808C102.663 23.536 102.543 23.152 102.543 22.656V21.504H102.735C102.623 22.064 102.399 22.552 102.063 22.968C101.743 23.368 101.335 23.68 100.839 23.904C100.343 24.128 99.7749 24.24 99.1349 24.24ZM113.772 24.24C112.732 24.24 111.86 24.064 111.156 23.712C110.468 23.36 109.956 22.848 109.62 22.176C109.284 21.488 109.116 20.64 109.116 19.632V14.52H107.868C107.484 14.52 107.188 14.424 106.98 14.232C106.772 14.024 106.668 13.744 106.668 13.392C106.668 13.024 106.772 12.744 106.98 12.552C107.188 12.36 107.484 12.264 107.868 12.264H109.116V10.08C109.116 9.584 109.244 9.208 109.5 8.952C109.772 8.696 110.148 8.568 110.628 8.568C111.108 8.568 111.476 8.696 111.732 8.952C111.988 9.208 112.116 9.584 112.116 10.08V12.264H114.66C115.044 12.264 115.34 12.36 115.548 12.552C115.756 12.744 115.86 13.024 115.86 13.392C115.86 13.744 115.756 14.024 115.548 14.232C115.34 14.424 115.044 14.52 114.66 14.52H112.116V19.464C112.116 20.232 112.284 20.808 112.62 21.192C112.956 21.576 113.5 21.768 114.252 21.768C114.524 21.768 114.764 21.744 114.972 21.696C115.18 21.648 115.364 21.616 115.524 21.6C115.716 21.584 115.876 21.648 116.004 21.792C116.132 21.92 116.196 22.192 116.196 22.608C116.196 22.928 116.14 23.216 116.028 23.472C115.932 23.712 115.748 23.88 115.476 23.976C115.268 24.04 114.996 24.096 114.66 24.144C114.324 24.208 114.028 24.24 113.772 24.24ZM121.855 24.24C120.879 24.24 120.071 24.064 119.431 23.712C118.791 23.344 118.311 22.8 117.991 22.08C117.687 21.36 117.535 20.464 117.535 19.392V13.584C117.535 13.072 117.663 12.696 117.919 12.456C118.175 12.2 118.543 12.072 119.023 12.072C119.503 12.072 119.871 12.2 120.127 12.456C120.399 12.696 120.535 13.072 120.535 13.584V19.44C120.535 20.272 120.703 20.888 121.039 21.288C121.375 21.688 121.911 21.888 122.647 21.888C123.447 21.888 124.103 21.616 124.615 21.072C125.127 20.512 125.383 19.776 125.383 18.864V13.584C125.383 13.072 125.511 12.696 125.767 12.456C126.023 12.2 126.391 12.072 126.871 12.072C127.351 12.072 127.719 12.2 127.975 12.456C128.247 12.696 128.383 13.072 128.383 13.584V22.656C128.383 23.68 127.895 24.192 126.919 24.192C126.455 24.192 126.095 24.064 125.839 23.808C125.583 23.536 125.455 23.152 125.455 22.656V20.832L125.791 21.552C125.455 22.416 124.943 23.08 124.255 23.544C123.583 24.008 122.783 24.24 121.855 24.24ZM135.513 24.24C134.185 24.24 133.185 23.864 132.513 23.112C131.841 22.344 131.505 21.224 131.505 19.752V8.4C131.505 7.904 131.633 7.528 131.889 7.272C132.145 7.016 132.513 6.888 132.993 6.888C133.473 6.888 133.841 7.016 134.097 7.272C134.369 7.528 134.505 7.904 134.505 8.4V19.608C134.505 20.344 134.657 20.888 134.961 21.24C135.281 21.592 135.729 21.768 136.305 21.768C136.433 21.768 136.553 21.768 136.665 21.768C136.777 21.752 136.889 21.736 137.001 21.72C137.225 21.688 137.377 21.752 137.457 21.912C137.537 22.056 137.577 22.36 137.577 22.824C137.577 23.224 137.497 23.536 137.337 23.76C137.177 23.984 136.913 24.12 136.545 24.168C136.385 24.184 136.217 24.2 136.041 24.216C135.865 24.232 135.689 24.24 135.513 24.24ZM143.033 24.24C142.185 24.24 141.425 24.08 140.753 23.76C140.097 23.424 139.577 22.976 139.193 22.416C138.825 21.856 138.641 21.224 138.641 20.52C138.641 19.656 138.865 18.976 139.313 18.48C139.761 17.968 140.489 17.6 141.497 17.376C142.505 17.152 143.857 17.04 145.553 17.04H146.753V18.768H145.577C144.585 18.768 143.793 18.816 143.201 18.912C142.609 19.008 142.185 19.176 141.929 19.416C141.689 19.64 141.569 19.96 141.569 20.376C141.569 20.904 141.753 21.336 142.121 21.672C142.489 22.008 143.001 22.176 143.657 22.176C144.185 22.176 144.649 22.056 145.049 21.816C145.465 21.56 145.793 21.216 146.033 20.784C146.273 20.352 146.393 19.856 146.393 19.296V16.536C146.393 15.736 146.217 15.16 145.865 14.808C145.513 14.456 144.921 14.28 144.089 14.28C143.625 14.28 143.121 14.336 142.577 14.448C142.049 14.56 141.489 14.752 140.897 15.024C140.593 15.168 140.321 15.208 140.081 15.144C139.857 15.08 139.681 14.952 139.553 14.76C139.425 14.552 139.361 14.328 139.361 14.088C139.361 13.848 139.425 13.616 139.553 13.392C139.681 13.152 139.897 12.976 140.201 12.864C140.937 12.56 141.641 12.344 142.313 12.216C143.001 12.088 143.625 12.024 144.185 12.024C145.337 12.024 146.281 12.2 147.017 12.552C147.769 12.904 148.329 13.44 148.697 14.16C149.065 14.864 149.249 15.776 149.249 16.896V22.656C149.249 23.152 149.129 23.536 148.889 23.808C148.649 24.064 148.305 24.192 147.857 24.192C147.409 24.192 147.057 24.064 146.801 23.808C146.561 23.536 146.441 23.152 146.441 22.656V21.504H146.633C146.521 22.064 146.297 22.552 145.961 22.968C145.641 23.368 145.233 23.68 144.737 23.904C144.241 24.128 143.673 24.24 143.033 24.24ZM157.67 24.24C156.63 24.24 155.758 24.064 155.054 23.712C154.366 23.36 153.854 22.848 153.518 22.176C153.182 21.488 153.014 20.64 153.014 19.632V14.52H151.766C151.382 14.52 151.086 14.424 150.878 14.232C150.67 14.024 150.566 13.744 150.566 13.392C150.566 13.024 150.67 12.744 150.878 12.552C151.086 12.36 151.382 12.264 151.766 12.264H153.014V10.08C153.014 9.584 153.142 9.208 153.398 8.952C153.67 8.696 154.046 8.568 154.526 8.568C155.006 8.568 155.374 8.696 155.63 8.952C155.886 9.208 156.014 9.584 156.014 10.08V12.264H158.558C158.942 12.264 159.238 12.36 159.446 12.552C159.654 12.744 159.758 13.024 159.758 13.392C159.758 13.744 159.654 14.024 159.446 14.232C159.238 14.424 158.942 14.52 158.558 14.52H156.014V19.464C156.014 20.232 156.182 20.808 156.518 21.192C156.854 21.576 157.398 21.768 158.15 21.768C158.422 21.768 158.662 21.744 158.87 21.696C159.078 21.648 159.262 21.616 159.422 21.6C159.614 21.584 159.774 21.648 159.902 21.792C160.03 21.92 160.094 22.192 160.094 22.608C160.094 22.928 160.038 23.216 159.926 23.472C159.83 23.712 159.646 23.88 159.374 23.976C159.166 24.04 158.894 24.096 158.558 24.144C158.222 24.208 157.926 24.24 157.67 24.24ZM163.298 24.168C162.818 24.168 162.45 24.024 162.194 23.736C161.938 23.448 161.81 23.048 161.81 22.536V13.728C161.81 13.2 161.938 12.8 162.194 12.528C162.45 12.24 162.818 12.096 163.298 12.096C163.778 12.096 164.146 12.24 164.402 12.528C164.674 12.8 164.81 13.2 164.81 13.728V22.536C164.81 23.048 164.682 23.448 164.426 23.736C164.17 24.024 163.794 24.168 163.298 24.168ZM163.298 9.864C162.738 9.864 162.298 9.728 161.978 9.456C161.674 9.168 161.522 8.776 161.522 8.28C161.522 7.768 161.674 7.376 161.978 7.104C162.298 6.832 162.738 6.696 163.298 6.696C163.874 6.696 164.314 6.832 164.618 7.104C164.922 7.376 165.074 7.768 165.074 8.28C165.074 8.776 164.922 9.168 164.618 9.456C164.314 9.728 163.874 9.864 163.298 9.864ZM173.279 24.24C172.063 24.24 171.007 23.992 170.111 23.496C169.215 23 168.519 22.296 168.023 21.384C167.527 20.456 167.279 19.368 167.279 18.12C167.279 17.176 167.415 16.336 167.687 15.6C167.975 14.848 168.383 14.208 168.911 13.68C169.439 13.136 170.071 12.728 170.807 12.456C171.543 12.168 172.367 12.024 173.279 12.024C174.495 12.024 175.551 12.272 176.447 12.768C177.343 13.264 178.039 13.968 178.535 14.88C179.031 15.792 179.279 16.872 179.279 18.12C179.279 19.064 179.135 19.912 178.847 20.664C178.575 21.416 178.175 22.064 177.647 22.608C177.119 23.136 176.487 23.544 175.751 23.832C175.015 24.104 174.191 24.24 173.279 24.24ZM173.279 21.96C173.871 21.96 174.391 21.816 174.839 21.528C175.287 21.24 175.631 20.816 175.871 20.256C176.127 19.68 176.255 18.968 176.255 18.12C176.255 16.84 175.983 15.888 175.439 15.264C174.895 14.624 174.175 14.304 173.279 14.304C172.687 14.304 172.167 14.448 171.719 14.736C171.271 15.008 170.919 15.432 170.663 16.008C170.423 16.568 170.303 17.272 170.303 18.12C170.303 19.384 170.575 20.344 171.119 21C171.663 21.64 172.383 21.96 173.279 21.96ZM183.243 24.192C182.763 24.192 182.395 24.064 182.139 23.808C181.883 23.536 181.755 23.152 181.755 22.656V13.584C181.755 13.088 181.883 12.712 182.139 12.456C182.395 12.2 182.755 12.072 183.219 12.072C183.683 12.072 184.043 12.2 184.299 12.456C184.555 12.712 184.683 13.088 184.683 13.584V15.216L184.419 14.616C184.771 13.768 185.315 13.128 186.051 12.696C186.803 12.248 187.651 12.024 188.595 12.024C189.539 12.024 190.315 12.2 190.923 12.552C191.531 12.904 191.987 13.44 192.291 14.16C192.595 14.864 192.747 15.76 192.747 16.848V22.656C192.747 23.152 192.619 23.536 192.363 23.808C192.107 24.064 191.739 24.192 191.259 24.192C190.779 24.192 190.403 24.064 190.131 23.808C189.875 23.536 189.747 23.152 189.747 22.656V16.992C189.747 16.08 189.571 15.416 189.219 15C188.883 14.584 188.355 14.376 187.635 14.376C186.755 14.376 186.051 14.656 185.523 15.216C185.011 15.76 184.755 16.488 184.755 17.4V22.656C184.755 23.68 184.251 24.192 183.243 24.192ZM200.09 24.24C199.402 24.24 198.674 24.168 197.906 24.024C197.138 23.88 196.45 23.632 195.842 23.28C195.586 23.12 195.402 22.936 195.29 22.728C195.194 22.504 195.154 22.288 195.17 22.08C195.202 21.856 195.282 21.664 195.41 21.504C195.554 21.344 195.73 21.24 195.938 21.192C196.162 21.144 196.402 21.184 196.658 21.312C197.298 21.616 197.898 21.832 198.458 21.96C199.018 22.072 199.57 22.128 200.114 22.128C200.882 22.128 201.45 22 201.818 21.744C202.202 21.472 202.394 21.12 202.394 20.688C202.394 20.32 202.266 20.04 202.01 19.848C201.77 19.64 201.402 19.488 200.906 19.392L198.506 18.936C197.514 18.744 196.754 18.384 196.226 17.856C195.714 17.312 195.458 16.616 195.458 15.768C195.458 15 195.666 14.336 196.082 13.776C196.514 13.216 197.106 12.784 197.858 12.48C198.61 12.176 199.474 12.024 200.45 12.024C201.154 12.024 201.81 12.104 202.418 12.264C203.042 12.408 203.642 12.64 204.218 12.96C204.458 13.088 204.618 13.256 204.698 13.464C204.794 13.672 204.818 13.888 204.77 14.112C204.722 14.32 204.626 14.512 204.482 14.688C204.338 14.848 204.154 14.952 203.93 15C203.722 15.032 203.482 14.984 203.21 14.856C202.714 14.6 202.234 14.416 201.77 14.304C201.322 14.192 200.89 14.136 200.474 14.136C199.69 14.136 199.106 14.272 198.722 14.544C198.354 14.816 198.17 15.176 198.17 15.624C198.17 15.96 198.282 16.24 198.506 16.464C198.73 16.688 199.074 16.84 199.538 16.92L201.938 17.376C202.978 17.568 203.762 17.92 204.29 18.432C204.834 18.944 205.106 19.632 205.106 20.496C205.106 21.664 204.65 22.584 203.738 23.256C202.826 23.912 201.61 24.24 200.09 24.24ZM208.953 19.128C208.649 19.128 208.409 19.032 208.233 18.84C208.073 18.648 207.977 18.376 207.945 18.024L207.225 8.856C207.177 8.264 207.305 7.792 207.609 7.44C207.913 7.072 208.361 6.888 208.953 6.888C209.529 6.888 209.961 7.072 210.249 7.44C210.553 7.792 210.681 8.264 210.633 8.856L209.913 18.024C209.897 18.376 209.801 18.648 209.625 18.84C209.465 19.032 209.241 19.128 208.953 19.128ZM208.953 24.12C208.409 24.12 207.969 23.952 207.633 23.616C207.313 23.28 207.153 22.848 207.153 22.32C207.153 21.808 207.313 21.392 207.633 21.072C207.969 20.736 208.409 20.568 208.953 20.568C209.513 20.568 209.945 20.736 210.249 21.072C210.569 21.392 210.729 21.808 210.729 22.32C210.729 22.848 210.569 23.28 210.249 23.616C209.945 23.952 209.513 24.12 208.953 24.12ZM225.838 24.192C225.342 24.192 224.958 24.056 224.686 23.784C224.43 23.496 224.302 23.096 224.302 22.584V15.288L224.95 17.136L219.166 9C218.958 8.712 218.862 8.408 218.878 8.088C218.91 7.752 219.046 7.472 219.286 7.248C219.526 7.008 219.862 6.888 220.294 6.888C220.614 6.888 220.902 6.968 221.158 7.128C221.43 7.288 221.686 7.536 221.926 7.872L226.222 13.968H225.55L229.87 7.872C230.126 7.52 230.374 7.272 230.614 7.128C230.854 6.968 231.15 6.888 231.502 6.888C231.918 6.888 232.238 7 232.462 7.224C232.702 7.432 232.822 7.696 232.822 8.016C232.838 8.336 232.726 8.672 232.486 9.024L226.75 17.136L227.374 15.288V22.584C227.374 23.656 226.862 24.192 225.838 24.192ZM238.178 24.24C236.962 24.24 235.906 23.992 235.01 23.496C234.114 23 233.418 22.296 232.922 21.384C232.426 20.456 232.178 19.368 232.178 18.12C232.178 17.176 232.314 16.336 232.586 15.6C232.874 14.848 233.282 14.208 233.81 13.68C234.338 13.136 234.97 12.728 235.706 12.456C236.442 12.168 237.266 12.024 238.178 12.024C239.394 12.024 240.45 12.272 241.346 12.768C242.242 13.264 242.938 13.968 243.434 14.88C243.93 15.792 244.178 16.872 244.178 18.12C244.178 19.064 244.034 19.912 243.746 20.664C243.474 21.416 243.074 22.064 242.546 22.608C242.018 23.136 241.386 23.544 240.65 23.832C239.914 24.104 239.09 24.24 238.178 24.24ZM238.178 21.96C238.77 21.96 239.29 21.816 239.738 21.528C240.186 21.24 240.53 20.816 240.77 20.256C241.026 19.68 241.154 18.968 241.154 18.12C241.154 16.84 240.882 15.888 240.338 15.264C239.794 14.624 239.074 14.304 238.178 14.304C237.586 14.304 237.066 14.448 236.618 14.736C236.17 15.008 235.818 15.432 235.562 16.008C235.322 16.568 235.202 17.272 235.202 18.12C235.202 19.384 235.474 20.344 236.018 21C236.562 21.64 237.282 21.96 238.178 21.96ZM250.902 24.24C249.926 24.24 249.118 24.064 248.478 23.712C247.838 23.344 247.358 22.8 247.038 22.08C246.734 21.36 246.582 20.464 246.582 19.392V13.584C246.582 13.072 246.71 12.696 246.966 12.456C247.222 12.2 247.59 12.072 248.07 12.072C248.55 12.072 248.918 12.2 249.174 12.456C249.446 12.696 249.582 13.072 249.582 13.584V19.44C249.582 20.272 249.75 20.888 250.086 21.288C250.422 21.688 250.958 21.888 251.694 21.888C252.494 21.888 253.15 21.616 253.662 21.072C254.174 20.512 254.43 19.776 254.43 18.864V13.584C254.43 13.072 254.558 12.696 254.814 12.456C255.07 12.2 255.438 12.072 255.918 12.072C256.398 12.072 256.766 12.2 257.022 12.456C257.294 12.696 257.43 13.072 257.43 13.584V22.656C257.43 23.68 256.942 24.192 255.966 24.192C255.502 24.192 255.142 24.064 254.886 23.808C254.63 23.536 254.502 23.152 254.502 22.656V20.832L254.838 21.552C254.502 22.416 253.99 23.08 253.302 23.544C252.63 24.008 251.83 24.24 250.902 24.24ZM262.088 24.192C261.592 24.192 261.208 24.064 260.936 23.808C260.68 23.536 260.552 23.152 260.552 22.656V13.584C260.552 13.088 260.68 12.712 260.936 12.456C261.192 12.2 261.552 12.072 262.016 12.072C262.48 12.072 262.84 12.2 263.096 12.456C263.352 12.712 263.48 13.088 263.48 13.584V15.096H263.24C263.464 14.136 263.904 13.408 264.56 12.912C265.216 12.416 266.088 12.12 267.176 12.024C267.512 11.992 267.776 12.08 267.968 12.288C268.176 12.48 268.296 12.784 268.328 13.2C268.36 13.6 268.264 13.928 268.04 14.184C267.832 14.424 267.512 14.568 267.08 14.616L266.552 14.664C265.576 14.76 264.84 15.064 264.344 15.576C263.848 16.072 263.6 16.776 263.6 17.688V22.656C263.6 23.152 263.472 23.536 263.216 23.808C262.96 24.064 262.584 24.192 262.088 24.192ZM12.466 61.512C11.986 61.512 11.618 61.384 11.362 61.128C11.106 60.872 10.978 60.496 10.978 60V46.584C10.978 46.088 11.106 45.712 11.362 45.456C11.618 45.2 11.978 45.072 12.442 45.072C12.922 45.072 13.29 45.2 13.546 45.456C13.802 45.712 13.93 46.088 13.93 46.584V48.456L13.666 47.736C13.906 46.92 14.394 46.264 15.13 45.768C15.882 45.272 16.754 45.024 17.746 45.024C18.77 45.024 19.666 45.272 20.434 45.768C21.218 46.264 21.826 46.968 22.258 47.88C22.69 48.776 22.906 49.856 22.906 51.12C22.906 52.368 22.69 53.456 22.258 54.384C21.826 55.296 21.226 56 20.458 56.496C19.69 56.992 18.786 57.24 17.746 57.24C16.77 57.24 15.914 57 15.178 56.52C14.442 56.024 13.946 55.384 13.69 54.6H13.978V60C13.978 60.496 13.842 60.872 13.57 61.128C13.314 61.384 12.946 61.512 12.466 61.512ZM16.906 54.96C17.498 54.96 18.018 54.816 18.466 54.528C18.914 54.24 19.258 53.816 19.498 53.256C19.754 52.68 19.882 51.968 19.882 51.12C19.882 49.84 19.61 48.888 19.066 48.264C18.522 47.624 17.802 47.304 16.906 47.304C16.314 47.304 15.794 47.448 15.346 47.736C14.898 48.008 14.546 48.432 14.29 49.008C14.05 49.568 13.93 50.272 13.93 51.12C13.93 52.384 14.202 53.344 14.746 54C15.29 54.64 16.01 54.96 16.906 54.96ZM29.2326 57.24C28.3846 57.24 27.6246 57.08 26.9526 56.76C26.2966 56.424 25.7766 55.976 25.3926 55.416C25.0246 54.856 24.8406 54.224 24.8406 53.52C24.8406 52.656 25.0646 51.976 25.5126 51.48C25.9606 50.968 26.6886 50.6 27.6966 50.376C28.7046 50.152 30.0566 50.04 31.7526 50.04H32.9526V51.768H31.7766C30.7846 51.768 29.9926 51.816 29.4006 51.912C28.8086 52.008 28.3846 52.176 28.1286 52.416C27.8886 52.64 27.7686 52.96 27.7686 53.376C27.7686 53.904 27.9526 54.336 28.3206 54.672C28.6886 55.008 29.2006 55.176 29.8566 55.176C30.3846 55.176 30.8486 55.056 31.2486 54.816C31.6646 54.56 31.9926 54.216 32.2326 53.784C32.4726 53.352 32.5926 52.856 32.5926 52.296V49.536C32.5926 48.736 32.4166 48.16 32.0646 47.808C31.7126 47.456 31.1206 47.28 30.2886 47.28C29.8246 47.28 29.3206 47.336 28.7766 47.448C28.2486 47.56 27.6886 47.752 27.0966 48.024C26.7926 48.168 26.5206 48.208 26.2806 48.144C26.0566 48.08 25.8806 47.952 25.7526 47.76C25.6246 47.552 25.5606 47.328 25.5606 47.088C25.5606 46.848 25.6246 46.616 25.7526 46.392C25.8806 46.152 26.0966 45.976 26.4006 45.864C27.1366 45.56 27.8406 45.344 28.5126 45.216C29.2006 45.088 29.8246 45.024 30.3846 45.024C31.5366 45.024 32.4806 45.2 33.2166 45.552C33.9686 45.904 34.5286 46.44 34.8966 47.16C35.2646 47.864 35.4486 48.776 35.4486 49.896V55.656C35.4486 56.152 35.3286 56.536 35.0886 56.808C34.8486 57.064 34.5046 57.192 34.0566 57.192C33.6086 57.192 33.2566 57.064 33.0006 56.808C32.7606 56.536 32.6406 56.152 32.6406 55.656V54.504H32.8326C32.7206 55.064 32.4966 55.552 32.1606 55.968C31.8406 56.368 31.4326 56.68 30.9366 56.904C30.4406 57.128 29.8726 57.24 29.2326 57.24ZM41.3524 61.512C41.0004 61.512 40.7124 61.416 40.4884 61.224C40.2644 61.048 40.1284 60.808 40.0804 60.504C40.0484 60.2 40.1044 59.88 40.2484 59.544L41.8804 55.92V57.168L37.5124 47.064C37.3684 46.712 37.3204 46.384 37.3684 46.08C37.4164 45.776 37.5604 45.536 37.8004 45.36C38.0564 45.168 38.4004 45.072 38.8324 45.072C39.2004 45.072 39.4964 45.16 39.7204 45.336C39.9444 45.496 40.1444 45.808 40.3204 46.272L43.5604 54.36H42.8404L46.1524 46.248C46.3284 45.8 46.5364 45.496 46.7764 45.336C47.0164 45.16 47.3364 45.072 47.7364 45.072C48.0884 45.072 48.3684 45.168 48.5764 45.36C48.7844 45.536 48.9124 45.776 48.9604 46.08C49.0084 46.368 48.9524 46.688 48.7924 47.04L42.9604 60.36C42.7524 60.808 42.5284 61.112 42.2884 61.272C42.0484 61.432 41.7364 61.512 41.3524 61.512ZM52.5452 57.192C52.0652 57.192 51.6972 57.064 51.4412 56.808C51.1852 56.536 51.0572 56.152 51.0572 55.656V46.584C51.0572 46.088 51.1852 45.712 51.4412 45.456C51.6972 45.2 52.0572 45.072 52.5212 45.072C52.9852 45.072 53.3452 45.2 53.6012 45.456C53.8572 45.712 53.9852 46.088 53.9852 46.584V48.336L53.7212 47.616C54.0412 46.816 54.5372 46.184 55.2092 45.72C55.8812 45.256 56.6812 45.024 57.6092 45.024C58.5532 45.024 59.3292 45.248 59.9372 45.696C60.5452 46.144 60.9692 46.832 61.2092 47.76H60.8732C61.1932 46.912 61.7212 46.248 62.4572 45.768C63.1932 45.272 64.0412 45.024 65.0012 45.024C65.8972 45.024 66.6332 45.2 67.2092 45.552C67.8012 45.904 68.2412 46.44 68.5292 47.16C68.8172 47.864 68.9612 48.76 68.9612 49.848V55.656C68.9612 56.152 68.8252 56.536 68.5532 56.808C68.2972 57.064 67.9292 57.192 67.4492 57.192C66.9692 57.192 66.6012 57.064 66.3452 56.808C66.0892 56.536 65.9612 56.152 65.9612 55.656V49.968C65.9612 49.072 65.8092 48.416 65.5052 48C65.2172 47.584 64.7212 47.376 64.0172 47.376C63.2332 47.376 62.6172 47.656 62.1692 48.216C61.7212 48.76 61.4972 49.52 61.4972 50.496V55.656C61.4972 56.152 61.3692 56.536 61.1132 56.808C60.8572 57.064 60.4892 57.192 60.0092 57.192C59.5292 57.192 59.1532 57.064 58.8812 56.808C58.6252 56.536 58.4972 56.152 58.4972 55.656V49.968C58.4972 49.072 58.3452 48.416 58.0412 48C57.7532 47.584 57.2652 47.376 56.5772 47.376C55.7932 47.376 55.1772 47.656 54.7292 48.216C54.2812 48.76 54.0572 49.52 54.0572 50.496V55.656C54.0572 56.68 53.5532 57.192 52.5452 57.192ZM77.8401 57.24C76.5121 57.24 75.3681 56.992 74.4081 56.496C73.4481 56 72.7041 55.296 72.1761 54.384C71.6641 53.472 71.4081 52.392 71.4081 51.144C71.4081 49.928 71.6561 48.864 72.1521 47.952C72.6641 47.04 73.3601 46.328 74.2401 45.816C75.1361 45.288 76.1521 45.024 77.2881 45.024C78.1201 45.024 78.8641 45.16 79.5201 45.432C80.1921 45.704 80.7601 46.096 81.2241 46.608C81.7041 47.12 82.0641 47.744 82.3041 48.48C82.5601 49.2 82.6881 50.016 82.6881 50.928C82.6881 51.216 82.5841 51.44 82.3761 51.6C82.1841 51.744 81.9041 51.816 81.5361 51.816H73.8321V50.088H80.5761L80.1921 50.448C80.1921 49.712 80.0801 49.096 79.8561 48.6C79.6481 48.104 79.3361 47.728 78.9201 47.472C78.5201 47.2 78.0161 47.064 77.4081 47.064C76.7361 47.064 76.1601 47.224 75.6801 47.544C75.2161 47.848 74.8561 48.288 74.6001 48.864C74.3601 49.424 74.2401 50.096 74.2401 50.88V51.048C74.2401 52.36 74.5441 53.344 75.1521 54C75.7761 54.64 76.6881 54.96 77.8881 54.96C78.3041 54.96 78.7681 54.912 79.2801 54.816C79.8081 54.704 80.3041 54.52 80.7681 54.264C81.1041 54.072 81.4001 53.992 81.6561 54.024C81.9121 54.04 82.1121 54.128 82.2561 54.288C82.4161 54.448 82.5121 54.648 82.5441 54.888C82.5761 55.112 82.5281 55.344 82.4001 55.584C82.2881 55.824 82.0881 56.032 81.8001 56.208C81.2401 56.56 80.5921 56.824 79.8561 57C79.1361 57.16 78.4641 57.24 77.8401 57.24ZM86.5519 57.192C86.0719 57.192 85.7039 57.064 85.4479 56.808C85.1919 56.536 85.0639 56.152 85.0639 55.656V46.584C85.0639 46.088 85.1919 45.712 85.4479 45.456C85.7039 45.2 86.0639 45.072 86.5279 45.072C86.9919 45.072 87.3519 45.2 87.6079 45.456C87.8639 45.712 87.9919 46.088 87.9919 46.584V48.216L87.7279 47.616C88.0799 46.768 88.6239 46.128 89.3599 45.696C90.1119 45.248 90.9599 45.024 91.9039 45.024C92.8479 45.024 93.6239 45.2 94.2319 45.552C94.8399 45.904 95.2959 46.44 95.5999 47.16C95.9039 47.864 96.0559 48.76 96.0559 49.848V55.656C96.0559 56.152 95.9279 56.536 95.6719 56.808C95.4159 57.064 95.0479 57.192 94.5679 57.192C94.0879 57.192 93.7119 57.064 93.4399 56.808C93.1839 56.536 93.0559 56.152 93.0559 55.656V49.992C93.0559 49.08 92.8799 48.416 92.5279 48C92.1919 47.584 91.6639 47.376 90.9439 47.376C90.0639 47.376 89.3599 47.656 88.8319 48.216C88.3199 48.76 88.0639 49.488 88.0639 50.4V55.656C88.0639 56.68 87.5599 57.192 86.5519 57.192ZM104.479 57.24C103.439 57.24 102.567 57.064 101.863 56.712C101.175 56.36 100.663 55.848 100.327 55.176C99.991 54.488 99.823 53.64 99.823 52.632V47.52H98.575C98.191 47.52 97.895 47.424 97.687 47.232C97.479 47.024 97.375 46.744 97.375 46.392C97.375 46.024 97.479 45.744 97.687 45.552C97.895 45.36 98.191 45.264 98.575 45.264H99.823V43.08C99.823 42.584 99.951 42.208 100.207 41.952C100.479 41.696 100.855 41.568 101.335 41.568C101.815 41.568 102.183 41.696 102.439 41.952C102.695 42.208 102.823 42.584 102.823 43.08V45.264H105.367C105.751 45.264 106.047 45.36 106.255 45.552C106.463 45.744 106.567 46.024 106.567 46.392C106.567 46.744 106.463 47.024 106.255 47.232C106.047 47.424 105.751 47.52 105.367 47.52H102.823V52.464C102.823 53.232 102.991 53.808 103.327 54.192C103.663 54.576 104.207 54.768 104.959 54.768C105.231 54.768 105.471 54.744 105.679 54.696C105.887 54.648 106.071 54.616 106.231 54.6C106.423 54.584 106.583 54.648 106.711 54.792C106.839 54.92 106.903 55.192 106.903 55.608C106.903 55.928 106.847 56.216 106.735 56.472C106.639 56.712 106.455 56.88 106.183 56.976C105.975 57.04 105.703 57.096 105.367 57.144C105.031 57.208 104.735 57.24 104.479 57.24ZM119.366 57.192C118.966 57.192 118.622 57.096 118.334 56.904C118.046 56.696 117.814 56.376 117.638 55.944L114.158 47.064C114.014 46.68 113.966 46.344 114.014 46.056C114.078 45.752 114.23 45.512 114.47 45.336C114.71 45.16 115.03 45.072 115.43 45.072C115.782 45.072 116.07 45.16 116.294 45.336C116.518 45.496 116.71 45.808 116.87 46.272L119.774 54.264H119.222L122.222 46.08C122.35 45.728 122.518 45.472 122.726 45.312C122.95 45.152 123.238 45.072 123.59 45.072C123.942 45.072 124.23 45.16 124.454 45.336C124.678 45.496 124.846 45.744 124.958 46.08L127.91 54.264H127.406L130.334 46.2C130.494 45.768 130.694 45.472 130.934 45.312C131.19 45.152 131.47 45.072 131.774 45.072C132.158 45.072 132.454 45.168 132.662 45.36C132.87 45.552 132.99 45.8 133.022 46.104C133.054 46.392 132.998 46.712 132.854 47.064L129.398 55.944C129.238 56.36 129.006 56.672 128.702 56.88C128.414 57.088 128.07 57.192 127.67 57.192C127.27 57.192 126.918 57.088 126.614 56.88C126.326 56.672 126.102 56.36 125.942 55.944L122.798 47.616H124.166L121.094 55.92C120.934 56.352 120.71 56.672 120.422 56.88C120.134 57.088 119.782 57.192 119.366 57.192ZM138.92 57.24C138.072 57.24 137.312 57.08 136.64 56.76C135.984 56.424 135.464 55.976 135.08 55.416C134.712 54.856 134.528 54.224 134.528 53.52C134.528 52.656 134.752 51.976 135.2 51.48C135.648 50.968 136.376 50.6 137.384 50.376C138.392 50.152 139.744 50.04 141.44 50.04H142.64V51.768H141.464C140.472 51.768 139.68 51.816 139.088 51.912C138.496 52.008 138.072 52.176 137.816 52.416C137.576 52.64 137.456 52.96 137.456 53.376C137.456 53.904 137.64 54.336 138.008 54.672C138.376 55.008 138.888 55.176 139.544 55.176C140.072 55.176 140.536 55.056 140.936 54.816C141.352 54.56 141.68 54.216 141.92 53.784C142.16 53.352 142.28 52.856 142.28 52.296V49.536C142.28 48.736 142.104 48.16 141.752 47.808C141.4 47.456 140.808 47.28 139.976 47.28C139.512 47.28 139.008 47.336 138.464 47.448C137.936 47.56 137.376 47.752 136.784 48.024C136.48 48.168 136.208 48.208 135.968 48.144C135.744 48.08 135.568 47.952 135.44 47.76C135.312 47.552 135.248 47.328 135.248 47.088C135.248 46.848 135.312 46.616 135.44 46.392C135.568 46.152 135.784 45.976 136.088 45.864C136.824 45.56 137.528 45.344 138.2 45.216C138.888 45.088 139.512 45.024 140.072 45.024C141.224 45.024 142.168 45.2 142.904 45.552C143.656 45.904 144.216 46.44 144.584 47.16C144.952 47.864 145.136 48.776 145.136 49.896V55.656C145.136 56.152 145.016 56.536 144.776 56.808C144.536 57.064 144.192 57.192 143.744 57.192C143.296 57.192 142.944 57.064 142.688 56.808C142.448 56.536 142.328 56.152 142.328 55.656V54.504H142.52C142.408 55.064 142.184 55.552 141.848 55.968C141.528 56.368 141.12 56.68 140.624 56.904C140.128 57.128 139.56 57.24 138.92 57.24ZM152.477 57.24C151.789 57.24 151.061 57.168 150.293 57.024C149.525 56.88 148.837 56.632 148.229 56.28C147.973 56.12 147.789 55.936 147.677 55.728C147.581 55.504 147.541 55.288 147.557 55.08C147.589 54.856 147.669 54.664 147.797 54.504C147.941 54.344 148.117 54.24 148.325 54.192C148.549 54.144 148.789 54.184 149.045 54.312C149.685 54.616 150.285 54.832 150.845 54.96C151.405 55.072 151.957 55.128 152.501 55.128C153.269 55.128 153.837 55 154.205 54.744C154.589 54.472 154.781 54.12 154.781 53.688C154.781 53.32 154.653 53.04 154.397 52.848C154.157 52.64 153.789 52.488 153.293 52.392L150.893 51.936C149.901 51.744 149.141 51.384 148.613 50.856C148.101 50.312 147.845 49.616 147.845 48.768C147.845 48 148.053 47.336 148.469 46.776C148.901 46.216 149.493 45.784 150.245 45.48C150.997 45.176 151.861 45.024 152.837 45.024C153.541 45.024 154.197 45.104 154.805 45.264C155.429 45.408 156.029 45.64 156.605 45.96C156.845 46.088 157.005 46.256 157.085 46.464C157.181 46.672 157.205 46.888 157.157 47.112C157.109 47.32 157.013 47.512 156.869 47.688C156.725 47.848 156.541 47.952 156.317 48C156.109 48.032 155.869 47.984 155.597 47.856C155.101 47.6 154.621 47.416 154.157 47.304C153.709 47.192 153.277 47.136 152.861 47.136C152.077 47.136 151.493 47.272 151.109 47.544C150.741 47.816 150.557 48.176 150.557 48.624C150.557 48.96 150.669 49.24 150.893 49.464C151.117 49.688 151.461 49.84 151.925 49.92L154.325 50.376C155.365 50.568 156.149 50.92 156.677 51.432C157.221 51.944 157.493 52.632 157.493 53.496C157.493 54.664 157.037 55.584 156.125 56.256C155.213 56.912 153.997 57.24 152.477 57.24ZM170.711 57.24C170.023 57.24 169.295 57.168 168.527 57.024C167.759 56.88 167.071 56.632 166.463 56.28C166.207 56.12 166.023 55.936 165.911 55.728C165.815 55.504 165.775 55.288 165.791 55.08C165.823 54.856 165.903 54.664 166.031 54.504C166.175 54.344 166.351 54.24 166.559 54.192C166.783 54.144 167.023 54.184 167.279 54.312C167.919 54.616 168.519 54.832 169.079 54.96C169.639 55.072 170.191 55.128 170.735 55.128C171.503 55.128 172.071 55 172.439 54.744C172.823 54.472 173.015 54.12 173.015 53.688C173.015 53.32 172.887 53.04 172.631 52.848C172.391 52.64 172.023 52.488 171.527 52.392L169.127 51.936C168.135 51.744 167.375 51.384 166.847 50.856C166.335 50.312 166.079 49.616 166.079 48.768C166.079 48 166.287 47.336 166.703 46.776C167.135 46.216 167.727 45.784 168.479 45.48C169.231 45.176 170.095 45.024 171.071 45.024C171.775 45.024 172.431 45.104 173.039 45.264C173.663 45.408 174.263 45.64 174.839 45.96C175.079 46.088 175.239 46.256 175.319 46.464C175.415 46.672 175.439 46.888 175.391 47.112C175.343 47.32 175.247 47.512 175.103 47.688C174.959 47.848 174.775 47.952 174.551 48C174.343 48.032 174.103 47.984 173.831 47.856C173.335 47.6 172.855 47.416 172.391 47.304C171.943 47.192 171.511 47.136 171.095 47.136C170.311 47.136 169.727 47.272 169.343 47.544C168.975 47.816 168.791 48.176 168.791 48.624C168.791 48.96 168.903 49.24 169.127 49.464C169.351 49.688 169.695 49.84 170.159 49.92L172.559 50.376C173.599 50.568 174.383 50.92 174.911 51.432C175.455 51.944 175.727 52.632 175.727 53.496C175.727 54.664 175.271 55.584 174.359 56.256C173.447 56.912 172.231 57.24 170.711 57.24ZM182.382 57.24C181.406 57.24 180.598 57.064 179.958 56.712C179.318 56.344 178.838 55.8 178.518 55.08C178.214 54.36 178.062 53.464 178.062 52.392V46.584C178.062 46.072 178.19 45.696 178.446 45.456C178.702 45.2 179.07 45.072 179.55 45.072C180.03 45.072 180.398 45.2 180.654 45.456C180.926 45.696 181.062 46.072 181.062 46.584V52.44C181.062 53.272 181.23 53.888 181.566 54.288C181.902 54.688 182.438 54.888 183.174 54.888C183.974 54.888 184.63 54.616 185.142 54.072C185.654 53.512 185.91 52.776 185.91 51.864V46.584C185.91 46.072 186.038 45.696 186.294 45.456C186.55 45.2 186.918 45.072 187.398 45.072C187.878 45.072 188.246 45.2 188.502 45.456C188.774 45.696 188.91 46.072 188.91 46.584V55.656C188.91 56.68 188.422 57.192 187.446 57.192C186.982 57.192 186.622 57.064 186.366 56.808C186.11 56.536 185.982 56.152 185.982 55.656V53.832L186.318 54.552C185.982 55.416 185.47 56.08 184.782 56.544C184.11 57.008 183.31 57.24 182.382 57.24ZM197.457 57.24C196.225 57.24 195.153 56.992 194.241 56.496C193.329 55.984 192.625 55.264 192.129 54.336C191.633 53.408 191.385 52.32 191.385 51.072C191.385 50.128 191.521 49.288 191.793 48.552C192.081 47.8 192.489 47.168 193.017 46.656C193.545 46.128 194.185 45.728 194.937 45.456C195.689 45.168 196.529 45.024 197.457 45.024C197.985 45.024 198.553 45.096 199.161 45.24C199.785 45.384 200.369 45.624 200.913 45.96C201.169 46.12 201.337 46.312 201.417 46.536C201.497 46.76 201.513 46.992 201.465 47.232C201.417 47.456 201.313 47.656 201.153 47.832C201.009 47.992 200.825 48.096 200.601 48.144C200.377 48.176 200.129 48.12 199.857 47.976C199.505 47.768 199.145 47.616 198.777 47.52C198.409 47.408 198.057 47.352 197.721 47.352C197.193 47.352 196.729 47.44 196.329 47.616C195.929 47.776 195.585 48.016 195.297 48.336C195.025 48.64 194.817 49.024 194.673 49.488C194.529 49.952 194.457 50.488 194.457 51.096C194.457 52.28 194.737 53.216 195.297 53.904C195.873 54.576 196.681 54.912 197.721 54.912C198.057 54.912 198.401 54.864 198.753 54.768C199.121 54.672 199.489 54.52 199.857 54.312C200.129 54.168 200.369 54.12 200.577 54.168C200.801 54.216 200.985 54.328 201.129 54.504C201.273 54.664 201.361 54.864 201.393 55.104C201.425 55.328 201.393 55.552 201.297 55.776C201.217 56 201.057 56.184 200.817 56.328C200.289 56.648 199.729 56.88 199.137 57.024C198.545 57.168 197.985 57.24 197.457 57.24ZM208.543 57.24C207.311 57.24 206.239 56.992 205.327 56.496C204.415 55.984 203.711 55.264 203.215 54.336C202.719 53.408 202.471 52.32 202.471 51.072C202.471 50.128 202.607 49.288 202.879 48.552C203.167 47.8 203.575 47.168 204.103 46.656C204.631 46.128 205.271 45.728 206.023 45.456C206.775 45.168 207.615 45.024 208.543 45.024C209.071 45.024 209.639 45.096 210.247 45.24C210.871 45.384 211.455 45.624 211.999 45.96C212.255 46.12 212.423 46.312 212.503 46.536C212.583 46.76 212.599 46.992 212.551 47.232C212.503 47.456 212.399 47.656 212.239 47.832C212.095 47.992 211.911 48.096 211.687 48.144C211.463 48.176 211.215 48.12 210.943 47.976C210.591 47.768 210.231 47.616 209.863 47.52C209.495 47.408 209.143 47.352 208.807 47.352C208.279 47.352 207.815 47.44 207.415 47.616C207.015 47.776 206.671 48.016 206.383 48.336C206.111 48.64 205.903 49.024 205.759 49.488C205.615 49.952 205.543 50.488 205.543 51.096C205.543 52.28 205.823 53.216 206.383 53.904C206.959 54.576 207.767 54.912 208.807 54.912C209.143 54.912 209.487 54.864 209.839 54.768C210.207 54.672 210.575 54.52 210.943 54.312C211.215 54.168 211.455 54.12 211.663 54.168C211.887 54.216 212.071 54.328 212.215 54.504C212.359 54.664 212.447 54.864 212.479 55.104C212.511 55.328 212.479 55.552 212.383 55.776C212.303 56 212.143 56.184 211.903 56.328C211.375 56.648 210.815 56.88 210.223 57.024C209.631 57.168 209.071 57.24 208.543 57.24ZM219.989 57.24C218.661 57.24 217.517 56.992 216.557 56.496C215.597 56 214.853 55.296 214.325 54.384C213.813 53.472 213.557 52.392 213.557 51.144C213.557 49.928 213.805 48.864 214.301 47.952C214.813 47.04 215.509 46.328 216.389 45.816C217.285 45.288 218.301 45.024 219.437 45.024C220.269 45.024 221.013 45.16 221.669 45.432C222.341 45.704 222.909 46.096 223.373 46.608C223.853 47.12 224.213 47.744 224.453 48.48C224.709 49.2 224.837 50.016 224.837 50.928C224.837 51.216 224.733 51.44 224.525 51.6C224.333 51.744 224.053 51.816 223.685 51.816H215.981V50.088H222.725L222.341 50.448C222.341 49.712 222.229 49.096 222.005 48.6C221.797 48.104 221.485 47.728 221.069 47.472C220.669 47.2 220.165 47.064 219.557 47.064C218.885 47.064 218.309 47.224 217.829 47.544C217.365 47.848 217.005 48.288 216.749 48.864C216.509 49.424 216.389 50.096 216.389 50.88V51.048C216.389 52.36 216.693 53.344 217.301 54C217.925 54.64 218.837 54.96 220.037 54.96C220.453 54.96 220.917 54.912 221.429 54.816C221.957 54.704 222.453 54.52 222.917 54.264C223.253 54.072 223.549 53.992 223.805 54.024C224.061 54.04 224.261 54.128 224.405 54.288C224.565 54.448 224.661 54.648 224.693 54.888C224.725 55.112 224.677 55.344 224.549 55.584C224.437 55.824 224.237 56.032 223.949 56.208C223.389 56.56 222.741 56.824 222.005 57C221.285 57.16 220.613 57.24 219.989 57.24ZM231.508 57.24C230.82 57.24 230.092 57.168 229.324 57.024C228.556 56.88 227.868 56.632 227.26 56.28C227.004 56.12 226.82 55.936 226.708 55.728C226.612 55.504 226.572 55.288 226.588 55.08C226.62 54.856 226.7 54.664 226.828 54.504C226.972 54.344 227.148 54.24 227.356 54.192C227.58 54.144 227.82 54.184 228.076 54.312C228.716 54.616 229.316 54.832 229.876 54.96C230.436 55.072 230.988 55.128 231.532 55.128C232.3 55.128 232.868 55 233.236 54.744C233.62 54.472 233.812 54.12 233.812 53.688C233.812 53.32 233.684 53.04 233.428 52.848C233.188 52.64 232.82 52.488 232.324 52.392L229.924 51.936C228.932 51.744 228.172 51.384 227.644 50.856C227.132 50.312 226.876 49.616 226.876 48.768C226.876 48 227.084 47.336 227.5 46.776C227.932 46.216 228.524 45.784 229.276 45.48C230.028 45.176 230.892 45.024 231.868 45.024C232.572 45.024 233.228 45.104 233.836 45.264C234.46 45.408 235.06 45.64 235.636 45.96C235.876 46.088 236.036 46.256 236.116 46.464C236.212 46.672 236.236 46.888 236.188 47.112C236.14 47.32 236.044 47.512 235.9 47.688C235.756 47.848 235.572 47.952 235.348 48C235.14 48.032 234.9 47.984 234.628 47.856C234.132 47.6 233.652 47.416 233.188 47.304C232.74 47.192 232.308 47.136 231.892 47.136C231.108 47.136 230.524 47.272 230.14 47.544C229.772 47.816 229.588 48.176 229.588 48.624C229.588 48.96 229.7 49.24 229.924 49.464C230.148 49.688 230.492 49.84 230.956 49.92L233.356 50.376C234.396 50.568 235.18 50.92 235.708 51.432C236.252 51.944 236.524 52.632 236.524 53.496C236.524 54.664 236.068 55.584 235.156 56.256C234.244 56.912 233.028 57.24 231.508 57.24ZM243.227 57.24C242.539 57.24 241.811 57.168 241.043 57.024C240.275 56.88 239.587 56.632 238.979 56.28C238.723 56.12 238.539 55.936 238.427 55.728C238.331 55.504 238.291 55.288 238.307 55.08C238.339 54.856 238.419 54.664 238.547 54.504C238.691 54.344 238.867 54.24 239.075 54.192C239.299 54.144 239.539 54.184 239.795 54.312C240.435 54.616 241.035 54.832 241.595 54.96C242.155 55.072 242.707 55.128 243.251 55.128C244.019 55.128 244.587 55 244.955 54.744C245.339 54.472 245.531 54.12 245.531 53.688C245.531 53.32 245.403 53.04 245.147 52.848C244.907 52.64 244.539 52.488 244.043 52.392L241.643 51.936C240.651 51.744 239.891 51.384 239.363 50.856C238.851 50.312 238.595 49.616 238.595 48.768C238.595 48 238.803 47.336 239.219 46.776C239.651 46.216 240.243 45.784 240.995 45.48C241.747 45.176 242.611 45.024 243.587 45.024C244.291 45.024 244.947 45.104 245.555 45.264C246.179 45.408 246.779 45.64 247.355 45.96C247.595 46.088 247.755 46.256 247.835 46.464C247.931 46.672 247.955 46.888 247.907 47.112C247.859 47.32 247.763 47.512 247.619 47.688C247.475 47.848 247.291 47.952 247.067 48C246.859 48.032 246.619 47.984 246.347 47.856C245.851 47.6 245.371 47.416 244.907 47.304C244.459 47.192 244.027 47.136 243.611 47.136C242.827 47.136 242.243 47.272 241.859 47.544C241.491 47.816 241.307 48.176 241.307 48.624C241.307 48.96 241.419 49.24 241.643 49.464C241.867 49.688 242.211 49.84 242.675 49.92L245.075 50.376C246.115 50.568 246.899 50.92 247.427 51.432C247.971 51.944 248.243 52.632 248.243 53.496C248.243 54.664 247.787 55.584 246.875 56.256C245.963 56.912 244.747 57.24 243.227 57.24ZM252.954 57.192C252.474 57.192 252.098 57.064 251.826 56.808C251.57 56.536 251.442 56.152 251.442 55.656V47.52H250.338C249.954 47.52 249.658 47.424 249.45 47.232C249.242 47.024 249.138 46.744 249.138 46.392C249.138 46.024 249.242 45.744 249.45 45.552C249.658 45.36 249.954 45.264 250.338 45.264H252.306L251.442 46.056V45.24C251.442 43.592 251.858 42.36 252.69 41.544C253.522 40.712 254.722 40.224 256.29 40.08L257.106 40.008C257.426 39.976 257.682 40.032 257.874 40.176C258.066 40.304 258.194 40.48 258.258 40.704C258.322 40.912 258.33 41.128 258.282 41.352C258.234 41.576 258.13 41.776 257.97 41.952C257.826 42.112 257.634 42.2 257.394 42.216L257.058 42.24C256.146 42.304 255.482 42.536 255.066 42.936C254.65 43.336 254.442 43.944 254.442 44.76V45.648L254.058 45.264H256.482C256.866 45.264 257.162 45.36 257.37 45.552C257.578 45.744 257.682 46.024 257.682 46.392C257.682 46.744 257.578 47.024 257.37 47.232C257.162 47.424 256.866 47.52 256.482 47.52H254.442V55.656C254.442 56.68 253.946 57.192 252.954 57.192ZM263.64 57.24C262.664 57.24 261.856 57.064 261.216 56.712C260.576 56.344 260.096 55.8 259.776 55.08C259.472 54.36 259.32 53.464 259.32 52.392V46.584C259.32 46.072 259.448 45.696 259.704 45.456C259.96 45.2 260.328 45.072 260.808 45.072C261.288 45.072 261.656 45.2 261.912 45.456C262.184 45.696 262.32 46.072 262.32 46.584V52.44C262.32 53.272 262.488 53.888 262.824 54.288C263.16 54.688 263.696 54.888 264.432 54.888C265.232 54.888 265.888 54.616 266.4 54.072C266.912 53.512 267.168 52.776 267.168 51.864V46.584C267.168 46.072 267.296 45.696 267.552 45.456C267.808 45.2 268.176 45.072 268.656 45.072C269.136 45.072 269.504 45.2 269.76 45.456C270.032 45.696 270.168 46.072 270.168 46.584V55.656C270.168 56.68 269.68 57.192 268.704 57.192C268.24 57.192 267.88 57.064 267.624 56.808C267.368 56.536 267.24 56.152 267.24 55.656V53.832L267.576 54.552C267.24 55.416 266.728 56.08 266.04 56.544C265.368 57.008 264.568 57.24 263.64 57.24ZM277.298 57.24C275.97 57.24 274.97 56.864 274.298 56.112C273.626 55.344 273.29 54.224 273.29 52.752V41.4C273.29 40.904 273.418 40.528 273.674 40.272C273.93 40.016 274.298 39.888 274.778 39.888C275.258 39.888 275.626 40.016 275.882 40.272C276.154 40.528 276.29 40.904 276.29 41.4V52.608C276.29 53.344 276.442 53.888 276.746 54.24C277.066 54.592 277.514 54.768 278.09 54.768C278.218 54.768 278.338 54.768 278.45 54.768C278.562 54.752 278.674 54.736 278.786 54.72C279.01 54.688 279.162 54.752 279.242 54.912C279.322 55.056 279.362 55.36 279.362 55.824C279.362 56.224 279.282 56.536 279.122 56.76C278.962 56.984 278.698 57.12 278.33 57.168C278.17 57.184 278.002 57.2 277.826 57.216C277.65 57.232 277.474 57.24 277.298 57.24ZM282.629 57.12C282.085 57.12 281.645 56.952 281.309 56.616C280.989 56.28 280.829 55.848 280.829 55.32C280.829 54.808 280.989 54.392 281.309 54.072C281.645 53.736 282.085 53.568 282.629 53.568C283.189 53.568 283.621 53.736 283.925 54.072C284.245 54.392 284.405 54.808 284.405 55.32C284.405 55.848 284.245 56.28 283.925 56.616C283.621 56.952 283.189 57.12 282.629 57.12Z" fill="white"/>
<path d="M22.3773 94V87.826L17.5533 81.31H18.4353L22.7913 87.196L27.1293 81.31H27.9753L23.1333 87.844V94H22.3773ZM31.4484 94.144C30.6564 94.144 29.9664 93.958 29.3784 93.586C28.8024 93.214 28.3524 92.692 28.0284 92.02C27.7164 91.348 27.5604 90.556 27.5604 89.644C27.5604 88.732 27.7164 87.94 28.0284 87.268C28.3524 86.596 28.8024 86.074 29.3784 85.702C29.9664 85.33 30.6564 85.144 31.4484 85.144C32.2404 85.144 32.9244 85.33 33.5004 85.702C34.0884 86.074 34.5384 86.596 34.8504 87.268C35.1744 87.94 35.3364 88.732 35.3364 89.644C35.3364 90.556 35.1744 91.348 34.8504 92.02C34.5384 92.692 34.0884 93.214 33.5004 93.586C32.9244 93.958 32.2404 94.144 31.4484 94.144ZM31.4484 93.442C32.4084 93.442 33.1644 93.112 33.7164 92.452C34.2804 91.78 34.5624 90.844 34.5624 89.644C34.5624 88.444 34.2804 87.514 33.7164 86.854C33.1644 86.182 32.4084 85.846 31.4484 85.846C30.5004 85.846 29.7444 86.182 29.1804 86.854C28.6164 87.514 28.3344 88.444 28.3344 89.644C28.3344 90.844 28.6164 91.78 29.1804 92.452C29.7444 93.112 30.5004 93.442 31.4484 93.442ZM40.864 94.144C39.832 94.144 39.058 93.862 38.542 93.298C38.038 92.734 37.786 91.906 37.786 90.814V85.288H38.542V90.742C38.542 91.654 38.728 92.332 39.1 92.776C39.472 93.22 40.06 93.442 40.864 93.442C41.74 93.442 42.448 93.154 42.988 92.578C43.54 91.99 43.816 91.222 43.816 90.274V85.288H44.572V94H43.834V92.38C43.558 92.956 43.156 93.394 42.628 93.694C42.1 93.994 41.512 94.144 40.864 94.144ZM47.6306 94V85.288H48.3686V86.872C48.6326 86.32 49.0046 85.906 49.4846 85.63C49.9766 85.342 50.6006 85.168 51.3566 85.108L51.7346 85.072L51.8246 85.756L51.2126 85.828C50.3246 85.912 49.6286 86.212 49.1246 86.728C48.6326 87.244 48.3866 87.928 48.3866 88.78V94H47.6306ZM61.2609 94.144C60.4689 94.144 59.7789 93.958 59.1909 93.586C58.6149 93.214 58.1649 92.692 57.8409 92.02C57.5289 91.348 57.3729 90.556 57.3729 89.644C57.3729 88.732 57.5289 87.94 57.8409 87.268C58.1649 86.596 58.6149 86.074 59.1909 85.702C59.7789 85.33 60.4689 85.144 61.2609 85.144C62.0529 85.144 62.7369 85.33 63.3129 85.702C63.9009 86.074 64.3509 86.596 64.6629 87.268C64.9869 87.94 65.1489 88.732 65.1489 89.644C65.1489 90.556 64.9869 91.348 64.6629 92.02C64.3509 92.692 63.9009 93.214 63.3129 93.586C62.7369 93.958 62.0529 94.144 61.2609 94.144ZM61.2609 93.442C62.2209 93.442 62.9769 93.112 63.5289 92.452C64.0929 91.78 64.3749 90.844 64.3749 89.644C64.3749 88.444 64.0929 87.514 63.5289 86.854C62.9769 86.182 62.2209 85.846 61.2609 85.846C60.3129 85.846 59.5569 86.182 58.9929 86.854C58.4289 87.514 58.1469 88.444 58.1469 89.644C58.1469 90.844 58.4289 91.78 58.9929 92.452C59.5569 93.112 60.3129 93.442 61.2609 93.442ZM67.6345 94V85.288H68.3725V86.872C68.6365 86.32 69.0085 85.906 69.4885 85.63C69.9805 85.342 70.6045 85.168 71.3605 85.108L71.7385 85.072L71.8285 85.756L71.2165 85.828C70.3285 85.912 69.6325 86.212 69.1285 86.728C68.6365 87.244 68.3905 87.928 68.3905 88.78V94H67.6345ZM76.7293 94.144C75.9493 94.144 75.2653 93.964 74.6773 93.604C74.1013 93.232 73.6513 92.71 73.3273 92.038C73.0153 91.354 72.8593 90.556 72.8593 89.644C72.8593 88.264 73.2073 87.172 73.9033 86.368C74.5993 85.552 75.5413 85.144 76.7293 85.144C77.4613 85.144 78.0973 85.312 78.6373 85.648C79.1773 85.972 79.5793 86.422 79.8433 86.998V81.31H80.5993V94H79.8433V92.29C79.5793 92.866 79.1773 93.322 78.6373 93.658C78.0973 93.982 77.4613 94.144 76.7293 94.144ZM76.7473 93.442C77.7073 93.442 78.4633 93.112 79.0153 92.452C79.5793 91.78 79.8613 90.844 79.8613 89.644C79.8613 88.444 79.5793 87.514 79.0153 86.854C78.4633 86.182 77.7073 85.846 76.7473 85.846C75.7993 85.846 75.0433 86.182 74.4793 86.854C73.9153 87.514 73.6333 88.444 73.6333 89.644C73.6333 90.844 73.9153 91.78 74.4793 92.452C75.0433 93.112 75.7993 93.442 76.7473 93.442ZM87.2837 94.144C85.9877 94.144 84.9617 93.748 84.2057 92.956C83.4617 92.152 83.0897 91.06 83.0897 89.68C83.0897 88.768 83.2577 87.976 83.5937 87.304C83.9417 86.62 84.4157 86.092 85.0157 85.72C85.6277 85.336 86.3297 85.144 87.1217 85.144C88.2497 85.144 89.1257 85.516 89.7497 86.26C90.3737 86.992 90.6857 88.012 90.6857 89.32V89.788H83.8637C83.8877 90.952 84.1937 91.852 84.7817 92.488C85.3697 93.124 86.1917 93.442 87.2477 93.442C87.7877 93.442 88.2917 93.358 88.7597 93.19C89.2397 93.01 89.7137 92.716 90.1817 92.308L90.5417 92.92C90.1697 93.292 89.6897 93.592 89.1017 93.82C88.5137 94.036 87.9077 94.144 87.2837 94.144ZM87.1037 85.828C86.1317 85.828 85.3697 86.14 84.8177 86.764C84.2777 87.388 83.9657 88.174 83.8817 89.122H89.9837C89.9477 88.102 89.6897 87.298 89.2097 86.71C88.7297 86.122 88.0277 85.828 87.1037 85.828ZM93.0876 94V85.288H93.8256V86.872C94.0896 86.32 94.4616 85.906 94.9416 85.63C95.4336 85.342 96.0576 85.168 96.8136 85.108L97.1916 85.072L97.2816 85.756L96.6696 85.828C95.7816 85.912 95.0856 86.212 94.5816 86.728C94.0896 87.244 93.8436 87.928 93.8436 88.78V94H93.0876ZM105.656 94L102.596 85.288H103.424L106.088 93.1L108.896 85.288H109.832L112.568 93.1L115.304 85.288H116.114L113.018 94H112.136L109.364 86.188L106.556 94H105.656ZM118.149 82.858V81.724H119.301V82.858H118.149ZM118.347 94V85.288H119.103V94H118.347ZM124.538 94.144C123.782 94.144 123.194 93.904 122.774 93.424C122.366 92.932 122.162 92.248 122.162 91.372V81.31H122.918V91.246C122.918 92.71 123.482 93.442 124.61 93.442C124.91 93.442 125.192 93.406 125.456 93.334L125.402 94.036C125.078 94.108 124.79 94.144 124.538 94.144ZM129.495 94.144C128.739 94.144 128.151 93.904 127.731 93.424C127.323 92.932 127.119 92.248 127.119 91.372V81.31H127.875V91.246C127.875 92.71 128.439 93.442 129.567 93.442C129.867 93.442 130.149 93.406 130.413 93.334L130.359 94.036C130.035 94.108 129.747 94.144 129.495 94.144ZM140.376 94.144C139.644 94.144 139.008 93.982 138.468 93.658C137.928 93.322 137.526 92.866 137.262 92.29V94H136.506V81.31H137.262V86.998C137.526 86.422 137.928 85.972 138.468 85.648C139.008 85.312 139.644 85.144 140.376 85.144C141.564 85.144 142.506 85.552 143.202 86.368C143.898 87.172 144.246 88.264 144.246 89.644C144.246 90.556 144.084 91.354 143.76 92.038C143.448 92.71 143.004 93.232 142.428 93.604C141.852 93.964 141.168 94.144 140.376 94.144ZM140.358 93.442C141.318 93.442 142.074 93.112 142.626 92.452C143.19 91.78 143.472 90.844 143.472 89.644C143.472 88.444 143.19 87.514 142.626 86.854C142.074 86.182 141.318 85.846 140.358 85.846C139.41 85.846 138.654 86.182 138.09 86.854C137.526 87.514 137.244 88.444 137.244 89.644C137.244 90.844 137.526 91.78 138.09 92.452C138.654 93.112 139.41 93.442 140.358 93.442ZM150.354 94.144C149.058 94.144 148.032 93.748 147.276 92.956C146.532 92.152 146.16 91.06 146.16 89.68C146.16 88.768 146.328 87.976 146.664 87.304C147.012 86.62 147.486 86.092 148.086 85.72C148.698 85.336 149.4 85.144 150.192 85.144C151.32 85.144 152.196 85.516 152.82 86.26C153.444 86.992 153.756 88.012 153.756 89.32V89.788H146.934C146.958 90.952 147.264 91.852 147.852 92.488C148.44 93.124 149.262 93.442 150.318 93.442C150.858 93.442 151.362 93.358 151.83 93.19C152.31 93.01 152.784 92.716 153.252 92.308L153.612 92.92C153.24 93.292 152.76 93.592 152.172 93.82C151.584 94.036 150.978 94.144 150.354 94.144ZM150.174 85.828C149.202 85.828 148.44 86.14 147.888 86.764C147.348 87.388 147.036 88.174 146.952 89.122H153.054C153.018 88.102 152.76 87.298 152.28 86.71C151.8 86.122 151.098 85.828 150.174 85.828ZM163.882 94.144C163.102 94.144 162.418 93.964 161.83 93.604C161.254 93.232 160.804 92.71 160.48 92.038C160.168 91.354 160.012 90.556 160.012 89.644C160.012 88.264 160.36 87.172 161.056 86.368C161.752 85.552 162.694 85.144 163.882 85.144C164.614 85.144 165.25 85.312 165.79 85.648C166.33 85.972 166.732 86.422 166.996 86.998V81.31H167.752V94H166.996V92.29C166.732 92.866 166.33 93.322 165.79 93.658C165.25 93.982 164.614 94.144 163.882 94.144ZM163.9 93.442C164.86 93.442 165.616 93.112 166.168 92.452C166.732 91.78 167.014 90.844 167.014 89.644C167.014 88.444 166.732 87.514 166.168 86.854C165.616 86.182 164.86 85.846 163.9 85.846C162.952 85.846 162.196 86.182 161.632 86.854C161.068 87.514 160.786 88.444 160.786 89.644C160.786 90.844 161.068 91.78 161.632 92.452C162.196 93.112 162.952 93.442 163.9 93.442ZM174.436 94.144C173.14 94.144 172.114 93.748 171.358 92.956C170.614 92.152 170.242 91.06 170.242 89.68C170.242 88.768 170.41 87.976 170.746 87.304C171.094 86.62 171.568 86.092 172.168 85.72C172.78 85.336 173.482 85.144 174.274 85.144C175.402 85.144 176.278 85.516 176.902 86.26C177.526 86.992 177.838 88.012 177.838 89.32V89.788H171.016C171.04 90.952 171.346 91.852 171.934 92.488C172.522 93.124 173.344 93.442 174.4 93.442C174.94 93.442 175.444 93.358 175.912 93.19C176.392 93.01 176.866 92.716 177.334 92.308L177.694 92.92C177.322 93.292 176.842 93.592 176.254 93.82C175.666 94.036 175.06 94.144 174.436 94.144ZM174.256 85.828C173.284 85.828 172.522 86.14 171.97 86.764C171.43 87.388 171.118 88.174 171.034 89.122H177.136C177.1 88.102 176.842 87.298 176.362 86.71C175.882 86.122 175.18 85.828 174.256 85.828ZM182.616 94.144C181.86 94.144 181.272 93.904 180.852 93.424C180.444 92.932 180.24 92.248 180.24 91.372V81.31H180.996V91.246C180.996 92.71 181.56 93.442 182.688 93.442C182.988 93.442 183.27 93.406 183.534 93.334L183.48 94.036C183.156 94.108 182.868 94.144 182.616 94.144ZM184.999 82.858V81.724H186.151V82.858H184.999ZM185.197 94V85.288H185.953V94H185.197ZM191.585 94L187.877 85.288H188.741L192.017 93.208L195.311 85.288H196.157L192.449 94H191.585ZM201.612 94.144C200.316 94.144 199.29 93.748 198.534 92.956C197.79 92.152 197.418 91.06 197.418 89.68C197.418 88.768 197.586 87.976 197.922 87.304C198.27 86.62 198.744 86.092 199.344 85.72C199.956 85.336 200.658 85.144 201.45 85.144C202.578 85.144 203.454 85.516 204.078 86.26C204.702 86.992 205.014 88.012 205.014 89.32V89.788H198.192C198.216 90.952 198.522 91.852 199.11 92.488C199.698 93.124 200.52 93.442 201.576 93.442C202.116 93.442 202.62 93.358 203.088 93.19C203.568 93.01 204.042 92.716 204.51 92.308L204.87 92.92C204.498 93.292 204.018 93.592 203.43 93.82C202.842 94.036 202.236 94.144 201.612 94.144ZM201.432 85.828C200.46 85.828 199.698 86.14 199.146 86.764C198.606 87.388 198.294 88.174 198.21 89.122H204.312C204.276 88.102 204.018 87.298 203.538 86.71C203.058 86.122 202.356 85.828 201.432 85.828ZM207.416 94V85.288H208.154V86.872C208.418 86.32 208.79 85.906 209.27 85.63C209.762 85.342 210.386 85.168 211.142 85.108L211.52 85.072L211.61 85.756L210.998 85.828C210.11 85.912 209.414 86.212 208.91 86.728C208.418 87.244 208.172 87.928 208.172 88.78V94H207.416ZM216.835 94.144C215.539 94.144 214.513 93.748 213.757 92.956C213.013 92.152 212.641 91.06 212.641 89.68C212.641 88.768 212.809 87.976 213.145 87.304C213.493 86.62 213.967 86.092 214.567 85.72C215.179 85.336 215.881 85.144 216.673 85.144C217.801 85.144 218.677 85.516 219.301 86.26C219.925 86.992 220.237 88.012 220.237 89.32V89.788H213.415C213.439 90.952 213.745 91.852 214.333 92.488C214.921 93.124 215.743 93.442 216.799 93.442C217.339 93.442 217.843 93.358 218.311 93.19C218.791 93.01 219.265 92.716 219.733 92.308L220.093 92.92C219.721 93.292 219.241 93.592 218.653 93.82C218.065 94.036 217.459 94.144 216.835 94.144ZM216.655 85.828C215.683 85.828 214.921 86.14 214.369 86.764C213.829 87.388 213.517 88.174 213.433 89.122H219.535C219.499 88.102 219.241 87.298 218.761 86.71C218.281 86.122 217.579 85.828 216.655 85.828ZM225.932 94.144C225.152 94.144 224.468 93.964 223.88 93.604C223.304 93.232 222.854 92.71 222.53 92.038C222.218 91.354 222.062 90.556 222.062 89.644C222.062 88.264 222.41 87.172 223.106 86.368C223.802 85.552 224.744 85.144 225.932 85.144C226.664 85.144 227.3 85.312 227.84 85.648C228.38 85.972 228.782 86.422 229.046 86.998V81.31H229.802V94H229.046V92.29C228.782 92.866 228.38 93.322 227.84 93.658C227.3 93.982 226.664 94.144 225.932 94.144ZM225.95 93.442C226.91 93.442 227.666 93.112 228.218 92.452C228.782 91.78 229.064 90.844 229.064 89.644C229.064 88.444 228.782 87.514 228.218 86.854C227.666 86.182 226.91 85.846 225.95 85.846C225.002 85.846 224.246 86.182 223.682 86.854C223.118 87.514 222.836 88.444 222.836 89.644C222.836 90.844 223.118 91.78 223.682 92.452C224.246 93.112 225.002 93.442 225.95 93.442ZM240.017 94.144C239.393 94.144 238.793 94.048 238.217 93.856C237.641 93.652 237.167 93.364 236.795 92.992L237.155 92.38C237.587 92.752 238.049 93.022 238.541 93.19C239.045 93.358 239.555 93.442 240.071 93.442C240.851 93.442 241.445 93.292 241.853 92.992C242.273 92.692 242.483 92.284 242.483 91.768C242.483 91.36 242.345 91.042 242.069 90.814C241.805 90.574 241.373 90.382 240.773 90.238L239.279 89.878C238.523 89.698 237.965 89.422 237.605 89.05C237.257 88.678 237.083 88.198 237.083 87.61C237.083 86.866 237.365 86.272 237.929 85.828C238.505 85.372 239.267 85.144 240.215 85.144C240.815 85.144 241.367 85.246 241.871 85.45C242.387 85.654 242.801 85.942 243.113 86.314L242.753 86.926C242.057 86.206 241.205 85.846 240.197 85.846C239.465 85.846 238.895 86.008 238.487 86.332C238.079 86.644 237.875 87.064 237.875 87.592C237.875 88 238.001 88.33 238.253 88.582C238.505 88.834 238.907 89.026 239.459 89.158L240.953 89.518C241.733 89.71 242.315 89.98 242.699 90.328C243.083 90.676 243.275 91.144 243.275 91.732C243.275 92.464 242.981 93.052 242.393 93.496C241.805 93.928 241.013 94.144 240.017 94.144ZM249.154 94.144C248.362 94.144 247.672 93.958 247.084 93.586C246.508 93.214 246.058 92.692 245.734 92.02C245.422 91.348 245.266 90.556 245.266 89.644C245.266 88.732 245.422 87.94 245.734 87.268C246.058 86.596 246.508 86.074 247.084 85.702C247.672 85.33 248.362 85.144 249.154 85.144C249.946 85.144 250.63 85.33 251.206 85.702C251.794 86.074 252.244 86.596 252.556 87.268C252.88 87.94 253.042 88.732 253.042 89.644C253.042 90.556 252.88 91.348 252.556 92.02C252.244 92.692 251.794 93.214 251.206 93.586C250.63 93.958 249.946 94.144 249.154 94.144ZM249.154 93.442C250.114 93.442 250.87 93.112 251.422 92.452C251.986 91.78 252.268 90.844 252.268 89.644C252.268 88.444 251.986 87.514 251.422 86.854C250.87 86.182 250.114 85.846 249.154 85.846C248.206 85.846 247.45 86.182 246.886 86.854C246.322 87.514 246.04 88.444 246.04 89.644C246.04 90.844 246.322 91.78 246.886 92.452C247.45 93.112 248.206 93.442 249.154 93.442ZM258.839 94.144C258.047 94.144 257.357 93.958 256.769 93.586C256.193 93.214 255.743 92.692 255.419 92.02C255.107 91.348 254.951 90.556 254.951 89.644C254.951 88.732 255.107 87.94 255.419 87.268C255.743 86.596 256.193 86.074 256.769 85.702C257.357 85.33 258.047 85.144 258.839 85.144C259.631 85.144 260.315 85.33 260.891 85.702C261.479 86.074 261.929 86.596 262.241 87.268C262.565 87.94 262.727 88.732 262.727 89.644C262.727 90.556 262.565 91.348 262.241 92.02C261.929 92.692 261.479 93.214 260.891 93.586C260.315 93.958 259.631 94.144 258.839 94.144ZM258.839 93.442C259.799 93.442 260.555 93.112 261.107 92.452C261.671 91.78 261.953 90.844 261.953 89.644C261.953 88.444 261.671 87.514 261.107 86.854C260.555 86.182 259.799 85.846 258.839 85.846C257.891 85.846 257.135 86.182 256.571 86.854C256.007 87.514 255.725 88.444 255.725 89.644C255.725 90.844 256.007 91.78 256.571 92.452C257.135 93.112 257.891 93.442 258.839 93.442ZM265.213 94V85.288H265.951V86.908C266.239 86.32 266.653 85.882 267.193 85.594C267.745 85.294 268.357 85.144 269.029 85.144C271.105 85.144 272.143 86.248 272.143 88.456V94H271.387V88.528C271.387 87.604 271.201 86.926 270.829 86.494C270.457 86.062 269.857 85.846 269.029 85.846C268.105 85.846 267.361 86.134 266.797 86.71C266.245 87.274 265.969 88.036 265.969 88.996V94H265.213ZM274.91 94V92.74H276.152V94H274.91ZM28.1362 115V103.012H23.2942V102.31H33.7342V103.012H28.8922V115H28.1362ZM35.3171 115V102.31H36.0731V107.872C36.3611 107.296 36.7751 106.864 37.3151 106.576C37.8551 106.288 38.4611 106.144 39.1331 106.144C41.2091 106.144 42.2471 107.248 42.2471 109.456V115H41.4911V109.528C41.4911 108.604 41.3051 107.926 40.9331 107.494C40.5611 107.062 39.9611 106.846 39.1331 106.846C38.2091 106.846 37.4651 107.134 36.9011 107.71C36.3491 108.274 36.0731 109.036 36.0731 109.996V115H35.3171ZM47.8943 115.144C47.3303 115.144 46.8203 115.03 46.3643 114.802C45.9083 114.574 45.5483 114.268 45.2843 113.884C45.0203 113.488 44.8883 113.05 44.8883 112.57C44.8883 111.922 45.0443 111.418 45.3563 111.058C45.6803 110.686 46.2263 110.428 46.9943 110.284C47.7743 110.128 48.8423 110.05 50.1983 110.05H50.7383V109.33C50.7383 108.466 50.5703 107.836 50.2343 107.44C49.8983 107.044 49.3583 106.846 48.6143 106.846C48.0743 106.846 47.5643 106.924 47.0843 107.08C46.6163 107.236 46.1243 107.488 45.6083 107.836L45.2483 107.188C45.7043 106.864 46.2263 106.612 46.8143 106.432C47.4143 106.24 48.0023 106.144 48.5783 106.144C49.5743 106.144 50.3063 106.402 50.7743 106.918C51.2543 107.434 51.4943 108.238 51.4943 109.33V115H50.7563V113.38C50.5043 113.932 50.1263 114.364 49.6223 114.676C49.1303 114.988 48.5543 115.144 47.8943 115.144ZM47.9483 114.46C48.5003 114.46 48.9803 114.328 49.3883 114.064C49.8083 113.788 50.1383 113.422 50.3783 112.966C50.6183 112.498 50.7383 111.97 50.7383 111.382V110.716H50.2343C49.0463 110.716 48.1223 110.77 47.4623 110.878C46.8143 110.974 46.3583 111.154 46.0943 111.418C45.8423 111.67 45.7163 112.03 45.7163 112.498C45.7163 113.074 45.9143 113.548 46.3103 113.92C46.7183 114.28 47.2643 114.46 47.9483 114.46ZM54.5124 115V106.288H55.2504V107.908C55.5384 107.32 55.9524 106.882 56.4924 106.594C57.0444 106.294 57.6564 106.144 58.3284 106.144C60.4044 106.144 61.4424 107.248 61.4424 109.456V115H60.6864V109.528C60.6864 108.604 60.5004 107.926 60.1284 107.494C59.7564 107.062 59.1564 106.846 58.3284 106.846C57.4044 106.846 56.6604 107.134 56.0964 107.71C55.5444 108.274 55.2684 109.036 55.2684 109.996V115H54.5124ZM64.4616 115V102.31H65.2176V110.32H65.2536L69.7716 106.288H70.8516L66.0816 110.518L71.3376 115H70.2756L65.2536 110.734H65.2176V115H64.4616ZM78.5173 118.24L79.9033 115.054L76.1773 106.288H77.0413L80.3173 114.208L83.6113 106.288H84.4753L79.3633 118.24H78.5173ZM89.6057 115.144C88.8137 115.144 88.1237 114.958 87.5357 114.586C86.9597 114.214 86.5097 113.692 86.1857 113.02C85.8737 112.348 85.7177 111.556 85.7177 110.644C85.7177 109.732 85.8737 108.94 86.1857 108.268C86.5097 107.596 86.9597 107.074 87.5357 106.702C88.1237 106.33 88.8137 106.144 89.6057 106.144C90.3977 106.144 91.0817 106.33 91.6577 106.702C92.2457 107.074 92.6957 107.596 93.0077 108.268C93.3317 108.94 93.4937 109.732 93.4937 110.644C93.4937 111.556 93.3317 112.348 93.0077 113.02C92.6957 113.692 92.2457 114.214 91.6577 114.586C91.0817 114.958 90.3977 115.144 89.6057 115.144ZM89.6057 114.442C90.5657 114.442 91.3217 114.112 91.8737 113.452C92.4377 112.78 92.7197 111.844 92.7197 110.644C92.7197 109.444 92.4377 108.514 91.8737 107.854C91.3217 107.182 90.5657 106.846 89.6057 106.846C88.6577 106.846 87.9017 107.182 87.3377 107.854C86.7737 108.514 86.4917 109.444 86.4917 110.644C86.4917 111.844 86.7737 112.78 87.3377 113.452C87.9017 114.112 88.6577 114.442 89.6057 114.442ZM99.0212 115.144C97.9892 115.144 97.2152 114.862 96.6992 114.298C96.1952 113.734 95.9432 112.906 95.9432 111.814V106.288H96.6992V111.742C96.6992 112.654 96.8852 113.332 97.2572 113.776C97.6292 114.22 98.2172 114.442 99.0212 114.442C99.8972 114.442 100.605 114.154 101.145 113.578C101.697 112.99 101.973 112.222 101.973 111.274V106.288H102.729V115H101.991V113.38C101.715 113.956 101.313 114.394 100.785 114.694C100.257 114.994 99.6692 115.144 99.0212 115.144ZM110.578 115V106.936H108.832V106.288H110.578V105.73C110.578 103.57 111.628 102.43 113.728 102.31L114.286 102.274L114.376 102.94L113.548 102.994C112.072 103.102 111.333 104.014 111.333 105.73V106.288H113.962V106.936H111.333V115H110.578ZM118.768 115.144C117.976 115.144 117.286 114.958 116.698 114.586C116.122 114.214 115.672 113.692 115.348 113.02C115.036 112.348 114.88 111.556 114.88 110.644C114.88 109.732 115.036 108.94 115.348 108.268C115.672 107.596 116.122 107.074 116.698 106.702C117.286 106.33 117.976 106.144 118.768 106.144C119.56 106.144 120.244 106.33 120.82 106.702C121.408 107.074 121.858 107.596 122.17 108.268C122.494 108.94 122.656 109.732 122.656 110.644C122.656 111.556 122.494 112.348 122.17 113.02C121.858 113.692 121.408 114.214 120.82 114.586C120.244 114.958 119.56 115.144 118.768 115.144ZM118.768 114.442C119.728 114.442 120.484 114.112 121.036 113.452C121.6 112.78 121.882 111.844 121.882 110.644C121.882 109.444 121.6 108.514 121.036 107.854C120.484 107.182 119.728 106.846 118.768 106.846C117.82 106.846 117.064 107.182 116.5 107.854C115.936 108.514 115.654 109.444 115.654 110.644C115.654 111.844 115.936 112.78 116.5 113.452C117.064 114.112 117.82 114.442 118.768 114.442ZM125.141 115V106.288H125.879V107.872C126.143 107.32 126.515 106.906 126.995 106.63C127.487 106.342 128.111 106.168 128.867 106.108L129.245 106.072L129.335 106.756L128.723 106.828C127.835 106.912 127.139 107.212 126.635 107.728C126.143 108.244 125.897 108.928 125.897 109.78V115H125.141ZM138.862 115.144C138.034 115.144 137.32 114.952 136.72 114.568C136.132 114.184 135.676 113.65 135.352 112.966C135.04 112.282 134.884 111.484 134.884 110.572C134.884 109.204 135.238 108.124 135.946 107.332C136.654 106.54 137.626 106.144 138.862 106.144C139.39 106.144 139.906 106.252 140.41 106.468C140.914 106.672 141.334 106.96 141.67 107.332L141.31 107.926C140.926 107.542 140.518 107.266 140.086 107.098C139.654 106.93 139.24 106.846 138.844 106.846C137.824 106.846 137.038 107.17 136.486 107.818C135.934 108.466 135.658 109.39 135.658 110.59C135.658 111.79 135.934 112.732 136.486 113.416C137.038 114.1 137.824 114.442 138.844 114.442C139.24 114.442 139.654 114.358 140.086 114.19C140.518 114.022 140.926 113.746 141.31 113.362L141.67 113.956C141.334 114.328 140.908 114.622 140.392 114.838C139.876 115.042 139.366 115.144 138.862 115.144ZM143.651 115V102.31H144.407V107.872C144.695 107.296 145.109 106.864 145.649 106.576C146.189 106.288 146.795 106.144 147.467 106.144C149.543 106.144 150.581 107.248 150.581 109.456V115H149.825V109.528C149.825 108.604 149.639 107.926 149.267 107.494C148.895 107.062 148.295 106.846 147.467 106.846C146.543 106.846 145.799 107.134 145.235 107.71C144.683 108.274 144.407 109.036 144.407 109.996V115H143.651ZM156.912 115.144C156.12 115.144 155.43 114.958 154.842 114.586C154.266 114.214 153.816 113.692 153.492 113.02C153.18 112.348 153.024 111.556 153.024 110.644C153.024 109.732 153.18 108.94 153.492 108.268C153.816 107.596 154.266 107.074 154.842 106.702C155.43 106.33 156.12 106.144 156.912 106.144C157.704 106.144 158.388 106.33 158.964 106.702C159.552 107.074 160.002 107.596 160.314 108.268C160.638 108.94 160.8 109.732 160.8 110.644C160.8 111.556 160.638 112.348 160.314 113.02C160.002 113.692 159.552 114.214 158.964 114.586C158.388 114.958 157.704 115.144 156.912 115.144ZM156.912 114.442C157.872 114.442 158.628 114.112 159.18 113.452C159.744 112.78 160.026 111.844 160.026 110.644C160.026 109.444 159.744 108.514 159.18 107.854C158.628 107.182 157.872 106.846 156.912 106.846C155.964 106.846 155.208 107.182 154.644 107.854C154.08 108.514 153.798 109.444 153.798 110.644C153.798 111.844 154.08 112.78 154.644 113.452C155.208 114.112 155.964 114.442 156.912 114.442ZM166.598 115.144C165.806 115.144 165.116 114.958 164.528 114.586C163.952 114.214 163.502 113.692 163.178 113.02C162.866 112.348 162.71 111.556 162.71 110.644C162.71 109.732 162.866 108.94 163.178 108.268C163.502 107.596 163.952 107.074 164.528 106.702C165.116 106.33 165.806 106.144 166.598 106.144C167.39 106.144 168.074 106.33 168.65 106.702C169.238 107.074 169.688 107.596 170 108.268C170.324 108.94 170.486 109.732 170.486 110.644C170.486 111.556 170.324 112.348 170 113.02C169.688 113.692 169.238 114.214 168.65 114.586C168.074 114.958 167.39 115.144 166.598 115.144ZM166.598 114.442C167.558 114.442 168.314 114.112 168.866 113.452C169.43 112.78 169.712 111.844 169.712 110.644C169.712 109.444 169.43 108.514 168.866 107.854C168.314 107.182 167.558 106.846 166.598 106.846C165.65 106.846 164.894 107.182 164.33 107.854C163.766 108.514 163.484 109.444 163.484 110.644C163.484 111.844 163.766 112.78 164.33 113.452C164.894 114.112 165.65 114.442 166.598 114.442ZM175.689 115.144C175.065 115.144 174.465 115.048 173.889 114.856C173.313 114.652 172.839 114.364 172.467 113.992L172.827 113.38C173.259 113.752 173.721 114.022 174.213 114.19C174.717 114.358 175.227 114.442 175.743 114.442C176.523 114.442 177.117 114.292 177.525 113.992C177.945 113.692 178.155 113.284 178.155 112.768C178.155 112.36 178.017 112.042 177.741 111.814C177.477 111.574 177.045 111.382 176.445 111.238L174.951 110.878C174.195 110.698 173.637 110.422 173.277 110.05C172.929 109.678 172.755 109.198 172.755 108.61C172.755 107.866 173.037 107.272 173.601 106.828C174.177 106.372 174.939 106.144 175.887 106.144C176.487 106.144 177.039 106.246 177.543 106.45C178.059 106.654 178.473 106.942 178.785 107.314L178.425 107.926C177.729 107.206 176.877 106.846 175.869 106.846C175.137 106.846 174.567 107.008 174.159 107.332C173.751 107.644 173.547 108.064 173.547 108.592C173.547 109 173.673 109.33 173.925 109.582C174.177 109.834 174.579 110.026 175.131 110.158L176.625 110.518C177.405 110.71 177.987 110.98 178.371 111.328C178.755 111.676 178.947 112.144 178.947 112.732C178.947 113.464 178.653 114.052 178.065 114.496C177.477 114.928 176.685 115.144 175.689 115.144ZM181.316 103.858V102.724H182.468V103.858H181.316ZM181.514 115V106.288H182.27V115H181.514ZM185.329 115V106.288H186.067V107.908C186.355 107.32 186.769 106.882 187.309 106.594C187.861 106.294 188.473 106.144 189.145 106.144C191.221 106.144 192.259 107.248 192.259 109.456V115H191.503V109.528C191.503 108.604 191.317 107.926 190.945 107.494C190.573 107.062 189.973 106.846 189.145 106.846C188.221 106.846 187.477 107.134 186.913 107.71C186.361 108.274 186.085 109.036 186.085 109.996V115H185.329ZM198.968 118.384C197.516 118.384 196.286 117.97 195.278 117.142L195.638 116.53C196.202 116.95 196.73 117.244 197.222 117.412C197.726 117.592 198.314 117.682 198.986 117.682C199.886 117.682 200.57 117.424 201.038 116.908C201.506 116.404 201.74 115.678 201.74 114.73V112.894C201.488 113.494 201.086 113.962 200.534 114.298C199.982 114.634 199.346 114.802 198.626 114.802C197.822 114.802 197.126 114.622 196.538 114.262C195.95 113.89 195.494 113.38 195.17 112.732C194.858 112.072 194.702 111.316 194.702 110.464C194.702 109.6 194.858 108.844 195.17 108.196C195.494 107.548 195.95 107.044 196.538 106.684C197.126 106.324 197.822 106.144 198.626 106.144C199.334 106.144 199.964 106.312 200.516 106.648C201.068 106.972 201.47 107.422 201.722 107.998V106.288H202.478V114.604C202.478 117.124 201.308 118.384 198.968 118.384ZM198.608 114.1C199.568 114.1 200.33 113.77 200.894 113.11C201.458 112.45 201.74 111.568 201.74 110.464C201.74 109.36 201.458 108.484 200.894 107.836C200.33 107.176 199.568 106.846 198.608 106.846C197.648 106.846 196.886 107.176 196.322 107.836C195.758 108.484 195.476 109.36 195.476 110.464C195.476 111.568 195.758 112.45 196.322 113.11C196.886 113.77 197.648 114.1 198.608 114.1ZM213.285 115.144C212.493 115.144 211.803 114.958 211.215 114.586C210.639 114.214 210.189 113.692 209.865 113.02C209.553 112.348 209.397 111.556 209.397 110.644C209.397 109.732 209.553 108.94 209.865 108.268C210.189 107.596 210.639 107.074 211.215 106.702C211.803 106.33 212.493 106.144 213.285 106.144C214.077 106.144 214.761 106.33 215.337 106.702C215.925 107.074 216.375 107.596 216.687 108.268C217.011 108.94 217.173 109.732 217.173 110.644C217.173 111.556 217.011 112.348 216.687 113.02C216.375 113.692 215.925 114.214 215.337 114.586C214.761 114.958 214.077 115.144 213.285 115.144ZM213.285 114.442C214.245 114.442 215.001 114.112 215.553 113.452C216.117 112.78 216.399 111.844 216.399 110.644C216.399 109.444 216.117 108.514 215.553 107.854C215.001 107.182 214.245 106.846 213.285 106.846C212.337 106.846 211.581 107.182 211.017 107.854C210.453 108.514 210.171 109.444 210.171 110.644C210.171 111.844 210.453 112.78 211.017 113.452C211.581 114.112 212.337 114.442 213.285 114.442ZM222.701 115.144C221.669 115.144 220.895 114.862 220.379 114.298C219.875 113.734 219.623 112.906 219.623 111.814V106.288H220.379V111.742C220.379 112.654 220.565 113.332 220.937 113.776C221.309 114.22 221.897 114.442 222.701 114.442C223.577 114.442 224.285 114.154 224.825 113.578C225.377 112.99 225.653 112.222 225.653 111.274V106.288H226.409V115H225.671V113.38C225.395 113.956 224.993 114.394 224.465 114.694C223.937 114.994 223.349 115.144 222.701 115.144ZM229.468 115V106.288H230.206V107.872C230.47 107.32 230.842 106.906 231.322 106.63C231.814 106.342 232.438 106.168 233.194 106.108L233.572 106.072L233.662 106.756L233.05 106.828C232.162 106.912 231.466 107.212 230.962 107.728C230.47 108.244 230.224 108.928 230.224 109.78V115H229.468ZM242.414 115.144C241.85 115.144 241.34 115.03 240.884 114.802C240.428 114.574 240.068 114.268 239.804 113.884C239.54 113.488 239.408 113.05 239.408 112.57C239.408 111.922 239.564 111.418 239.876 111.058C240.2 110.686 240.746 110.428 241.514 110.284C242.294 110.128 243.362 110.05 244.718 110.05H245.258V109.33C245.258 108.466 245.09 107.836 244.754 107.44C244.418 107.044 243.878 106.846 243.134 106.846C242.594 106.846 242.084 106.924 241.604 107.08C241.136 107.236 240.644 107.488 240.128 107.836L239.768 107.188C240.224 106.864 240.746 106.612 241.334 106.432C241.934 106.24 242.522 106.144 243.098 106.144C244.094 106.144 244.826 106.402 245.294 106.918C245.774 107.434 246.014 108.238 246.014 109.33V115H245.276V113.38C245.024 113.932 244.646 114.364 244.142 114.676C243.65 114.988 243.074 115.144 242.414 115.144ZM242.468 114.46C243.02 114.46 243.5 114.328 243.908 114.064C244.328 113.788 244.658 113.422 244.898 112.966C245.138 112.498 245.258 111.97 245.258 111.382V110.716H244.754C243.566 110.716 242.642 110.77 241.982 110.878C241.334 110.974 240.878 111.154 240.614 111.418C240.362 111.67 240.236 112.03 240.236 112.498C240.236 113.074 240.434 113.548 240.83 113.92C241.238 114.28 241.784 114.46 242.468 114.46ZM249.032 118.24V106.288H249.788V107.998C250.052 107.422 250.454 106.972 250.994 106.648C251.534 106.312 252.17 106.144 252.902 106.144C253.694 106.144 254.378 106.33 254.954 106.702C255.53 107.062 255.974 107.578 256.286 108.25C256.61 108.922 256.772 109.72 256.772 110.644C256.772 112.024 256.424 113.122 255.728 113.938C255.032 114.742 254.09 115.144 252.902 115.144C252.17 115.144 251.534 114.982 250.994 114.658C250.454 114.322 250.052 113.866 249.788 113.29V118.24H249.032ZM252.884 114.442C253.844 114.442 254.6 114.112 255.152 113.452C255.716 112.78 255.998 111.844 255.998 110.644C255.998 109.444 255.716 108.514 255.152 107.854C254.6 107.182 253.844 106.846 252.884 106.846C251.936 106.846 251.18 107.182 250.616 107.854C250.052 108.514 249.77 109.444 249.77 110.644C249.77 111.844 250.052 112.78 250.616 113.452C251.18 114.112 251.936 114.442 252.884 114.442ZM259.262 118.24V106.288H260.018V107.998C260.282 107.422 260.684 106.972 261.224 106.648C261.764 106.312 262.4 106.144 263.132 106.144C263.924 106.144 264.608 106.33 265.184 106.702C265.76 107.062 266.204 107.578 266.516 108.25C266.84 108.922 267.002 109.72 267.002 110.644C267.002 112.024 266.654 113.122 265.958 113.938C265.262 114.742 264.32 115.144 263.132 115.144C262.4 115.144 261.764 114.982 261.224 114.658C260.684 114.322 260.282 113.866 260.018 113.29V118.24H259.262ZM263.114 114.442C264.074 114.442 264.83 114.112 265.382 113.452C265.946 112.78 266.228 111.844 266.228 110.644C266.228 109.444 265.946 108.514 265.382 107.854C264.83 107.182 264.074 106.846 263.114 106.846C262.166 106.846 261.41 107.182 260.846 107.854C260.282 108.514 260 109.444 260 110.644C260 111.844 260.282 112.78 260.846 113.452C261.41 114.112 262.166 114.442 263.114 114.442ZM269.619 112.084L269.385 102.31H270.339L270.105 112.084H269.619ZM269.241 115V113.74H270.483V115H269.241Z" fill="#BCBBBB"/>
<path d="M32.75 132H262.25" stroke="url(#paint0_linear_31_2133)"/>
<defs>
<linearGradient id="paint0_linear_31_2133" x1="32.75" y1="132" x2="32.8217" y2="127.947" gradientUnits="userSpaceOnUse">
<stop stop-color="#0F0F0F"/>
<stop offset="0.492519" stop-color="#F6646D"/>
<stop offset="1" stop-color="#171717"/>
</linearGradient>
</defs>
</svg>
