<svg width="25" height="24" viewBox="0 0 25 24" fill="none" xmlns="http://www.w3.org/2000/svg">
<path fill-rule="evenodd" clip-rule="evenodd" d="M7.80621 7.75819L8.14927 10.8457L7.45505 10.9012C6.48695 10.9785 5.69645 11.7062 5.53952 12.6646C5.17783 14.8735 5.17783 17.1265 5.53952 19.3354C5.69645 20.2938 6.48695 21.0216 7.45505 21.0989L8.95118 21.2183C11.3133 21.4069 13.6867 21.4069 16.0489 21.2183L17.545 21.0989C18.5131 21.0216 19.3036 20.2938 19.4605 19.3354C19.8222 17.1265 19.8222 14.8735 19.4605 12.6646C19.3036 11.7062 18.5131 10.9785 17.545 10.9012L16.8507 10.8457L17.1937 7.75819C17.2342 7.39421 17.2342 7.02687 17.1937 6.66289L17.171 6.458C16.9295 4.28461 15.2209 2.56495 13.0491 2.30944C12.6843 2.26652 12.3157 2.26652 11.9509 2.30944C9.77907 2.56495 8.07046 4.28461 7.82898 6.45799L7.80621 6.66289C7.76577 7.02687 7.76577 7.39421 7.80621 7.75819ZM12.8738 3.79917C12.6255 3.76995 12.3745 3.76995 12.1261 3.79917C10.6475 3.97312 9.48422 5.14393 9.3198 6.62364L9.29704 6.82854C9.26883 7.08242 9.26883 7.33865 9.29704 7.59254L9.64583 10.7317C11.5466 10.6098 13.4533 10.6098 15.3541 10.7317L15.7029 7.59254C15.7311 7.33865 15.7311 7.08242 15.7029 6.82854L15.6802 6.62364C15.5157 5.14393 14.3525 3.97312 12.8738 3.79917ZM12.5 14.5C11.6716 14.5 11 15.1716 11 16C11 16.8284 11.6716 17.5 12.5 17.5C13.3284 17.5 14 16.8284 14 16C14 15.1716 13.3284 14.5 12.5 14.5Z" fill="white"/>
</svg>
