<svg width="94" height="112" viewBox="0 0 94 112" fill="none" xmlns="http://www.w3.org/2000/svg">
<path fill-rule="evenodd" clip-rule="evenodd" d="M19.0478 78.9278C20.0575 80.3272 21.0672 81.7526 22.0958 83.1781C22.4072 81.9699 22.6619 81.0833 22.8695 80.388C25.0776 81.1703 27.3424 81.8569 29.626 82.4566C30.3054 84.195 31.7869 86.0115 34.4386 88.3235C34.5896 86.3157 34.7123 84.8034 34.7123 83.5257C36.8072 83.8386 38.9209 84.0472 41.0158 84.1689V84.2211C41.5784 85.5926 42.3064 86.9017 43.1862 88.1236C44.0926 89.4027 45.0689 90.6385 46.1114 91.8263L46.8192 92.6433L47.0551 92.904C46.8758 91.0701 46.706 89.4795 46.5644 88.0367C46.4229 86.5939 46.2718 85.3075 46.1114 84.0994C49.1362 83.8188 52.1272 83.2864 55.0477 82.5088C55.5762 83.5083 56.2839 84.6209 57.1992 85.9854C57.9493 84.4243 58.5554 82.8077 59.0111 81.1529C61.6245 80.1044 64.148 78.8754 66.5602 77.4763C67.0226 78.4846 67.6736 79.6927 68.5795 81.4484C69.2859 80.1063 69.9159 78.7311 70.4668 77.3286C70.8427 76.4224 71.0747 75.471 71.1557 74.5038C73.043 73.1827 74.8265 71.7659 76.5062 70.3579C78.1858 68.9498 77.998 69.2115 76.2136 70.9146C75.0075 72.0657 78.1009 69.1762 78.1009 69.1762C75.1885 70.7183 72.6372 70.8011 70.2404 72.0006C69.2967 70.8881 67.4094 69.8972 64.7012 68.5239C64.8522 69.932 64.9843 71.0358 65.0975 72.0006C65.2107 72.9654 65.3146 73.6607 65.4655 74.3126C63.2102 75.3121 61.0021 76.1291 58.86 76.8679C58.4285 75.9854 57.8836 75.1538 57.237 74.3908C56.5104 73.5216 55.6139 72.5134 54.5288 71.3226C54.274 72.9132 54.0663 74.2083 53.9531 75.3208C53.8299 76.2841 53.7858 77.2544 53.821 78.2238C51.0239 78.8002 48.1858 79.1924 45.3282 79.3972C45.0452 77.9718 44.6771 76.4942 44.2336 74.8167C43.7901 73.1392 43.2428 71.2618 42.5728 69.0194C41.8933 71.2879 41.3555 73.2087 40.9497 74.9123C40.5667 76.4076 40.333 77.9321 40.2514 79.4667C38.1849 79.3711 36.1183 79.232 34.0423 78.9974C33.7686 78.2064 33.3911 77.3633 32.9193 76.3899C32.4475 75.4164 31.8624 74.2604 31.1358 72.9132C30.4218 74.702 29.8324 76.531 29.3712 78.3889C27.3046 78.0326 25.2192 77.6328 23.0677 77.1721C22.6431 76.303 21.756 74.8862 20.2368 71.8441C19.7712 73.3217 19.3057 74.7703 18.8402 76.19C14.7135 75.0496 11.647 75.308 7.79956 73.5221C9.49847 74.8953 10.3622 74.4203 12.263 75.5468C14.4309 76.8469 16.7131 77.9778 19.0856 78.9278" fill="#CD605F"/>
<path fill-rule="evenodd" clip-rule="evenodd" d="M34.6932 62.2113C41.2825 65.3505 44.6014 64.3957 51.2069 61.7767C51.3113 61.7145 51.6177 61.4423 51.6788 61.3421C51.6749 61.4572 51.7399 61.2419 51.6788 61.3421C51.68 61.2266 51.7344 61.4454 51.6788 61.3421C51.6232 61.2388 51.6735 61.5331 51.5733 61.4647C47.6637 58.8864 47.7094 55.5781 45.6772 51.9647C45.3872 51.476 44.9505 51.0763 44.4202 50.8142C43.89 50.5522 43.2891 50.4392 42.6909 50.489C42.0927 50.5388 41.5231 50.7492 41.0514 51.0947C40.5797 51.4401 40.2264 51.9055 40.0345 52.4343C38.157 56.5366 38.6544 59.8247 34.6932 62.2113C34.6932 62.2113 37.0394 62.7359 34.9558 62.0328C37.5685 62.9145 35.8122 62.2725 35.8122 62.2725C35.8122 62.2725 38.82 62.8244 35.6368 62.2113C35.7094 62.3157 34.5733 62.1548 34.6932 62.2113Z" fill="#CD605F"/>
<path fill-rule="evenodd" clip-rule="evenodd" d="M34.5951 63.38C40.4687 66.1309 46.2147 65.8709 51.8333 62.6001C51.9276 62.5457 52.0059 62.4714 52.0612 62.3837C52.1165 62.296 52.1471 62.1976 52.1506 62.0969C52.1517 61.9958 52.1261 61.896 52.0758 61.8056C52.0254 61.7151 51.9519 61.6367 51.8613 61.5769C48.324 59.3209 47.2787 57.5597 45.4401 54.3979C45.1778 53.9703 44.7826 53.6206 44.3029 53.3913C43.8231 53.162 43.2795 53.0632 42.7383 53.1067C42.1971 53.1503 41.6817 53.3344 41.2549 53.6367C40.8282 53.9389 40.5085 54.3462 40.3349 54.8089C38.6363 58.3984 38.123 60.2686 34.5391 62.3568C34.4387 62.4157 34.3567 62.4968 34.3011 62.5922C34.2456 62.6877 34.2182 62.7943 34.2217 62.902C34.227 63.0107 34.2643 63.1161 34.3299 63.2075C34.3955 63.2989 34.4871 63.3729 34.5951 63.422" fill="url(#paint0_linear_200_2751)"/>
<g filter="url(#filter0_i_200_2751)">
<path fill-rule="evenodd" clip-rule="evenodd" d="M29.9749 19.6337C21.5954 15.5138 11.6116 20.0474 5.95922 31.4683C0.306801 42.8891 2.52436 55.5007 10.9133 59.6293C19.3023 63.7578 30.6732 57.8388 36.3256 46.4179C36.5804 45.8964 36.8163 45.3836 37.0428 44.8621L28.7388 41.5332C25.9078 40.3946 22.6239 41.5332 20.9159 44.332L20.463 45.0794L24.6339 47.2437C22.4541 48.982 19.8496 49.5557 17.7264 48.5127C14.4142 46.8786 13.5367 41.8983 15.7637 37.3786C17.9907 32.859 22.5012 30.5296 25.8134 32.1636C26.6532 32.6349 27.3647 33.2771 27.893 34.041C28.4214 34.8049 28.7527 35.6701 28.8614 36.5703L35.165 38.3207C35.165 28.7599 36.5804 22.8583 29.9749 19.6337Z" fill="#CD605F"/>
</g>
<path fill-rule="evenodd" clip-rule="evenodd" d="M61.8978 4.04466C73.7374 0.802074 86.3919 10.8252 90.1744 26.4229C93.9569 42.0206 87.417 57.2869 75.5864 60.5302C63.7557 63.7734 51.0916 53.758 47.3091 38.1603C47.1457 37.4611 46.9919 36.7542 46.8642 36.0577L58.3574 33.7948C62.3075 33.0158 66.0961 35.2078 67.436 39.0946L67.7948 40.1267L61.8634 41.8812C64.1175 44.5624 67.2463 45.8758 70.2418 45.0175C74.9274 43.7402 77.5054 37.6979 76.015 31.5292C74.5246 25.3605 69.5151 21.4104 64.8385 22.6884C63.6451 23.0748 62.5608 23.7087 61.6675 24.5422C60.7742 25.3758 60.0951 26.3871 59.6816 27.5001L43.6578 27.4998C44.0405 15.848 52.6396 6.54066 61.9007 4.01138" fill="#CD605F"/>
<g filter="url(#filter1_i_200_2751)">
<path fill-rule="evenodd" clip-rule="evenodd" d="M60.0105 3.1752C71.8501 -0.0673903 84.5046 9.95573 88.2871 25.5534C92.0696 41.1512 85.5297 56.4175 73.6991 59.6607C61.8684 62.904 49.2043 52.8885 45.4218 37.2908C45.2584 36.5916 45.1046 35.8848 44.977 35.1882L56.4701 32.9253C60.4202 32.1464 64.2088 34.3383 65.5487 38.2251L65.9075 39.2573L59.9761 41.0118C62.2303 43.6929 65.359 45.0063 68.3546 44.1481C73.0401 42.8708 75.6181 36.8284 74.1277 30.6597C72.6373 24.491 67.6278 20.5409 62.9512 21.8189C61.7578 22.2054 60.6735 22.8393 59.7802 23.6728C58.8869 24.5063 58.2078 25.5177 57.7943 26.6306L44.373 27.2085C44.7556 15.5567 50.7523 5.6712 60.0135 3.14192" fill="#CD605F"/>
</g>
<g filter="url(#filter2_i_200_2751)">
<path fill-rule="evenodd" clip-rule="evenodd" d="M57.7747 1.10805C69.91 -3.16825 84.1213 6.25352 89.5283 22.1419C94.9354 38.0302 89.4717 54.3706 77.3459 58.6469C65.2201 62.9232 50.9994 53.5101 45.5923 37.6217C45.3564 36.909 45.1299 36.1876 44.9318 35.4749L56.7934 32.2416C60.8699 31.1291 65.0502 33.1108 66.8148 37.0394L67.2867 38.0824L61.219 40.3596C63.8329 42.9671 67.2395 44.0884 70.3063 42.9671C75.1095 41.2809 77.261 34.8143 75.1283 28.5302C72.9957 22.2462 67.3716 18.5348 62.5779 20.221C61.3602 20.7139 60.2798 21.455 59.4184 22.3885C58.5569 23.322 57.9368 24.4235 57.6049 25.6098L43.5635 27.2439C42.8935 15.1277 48.2817 4.4109 57.7747 1.0733" fill="url(#paint1_linear_200_2751)"/>
</g>
<g filter="url(#filter3_i_200_2751)">
<path fill-rule="evenodd" clip-rule="evenodd" d="M28.5407 18.2569C20.1611 14.1371 8.78083 20.0474 3.12841 31.4682C-2.52401 42.8891 -0.30645 55.5007 8.08253 59.6292C16.4715 63.7578 27.8424 57.8387 33.4948 46.4179C33.7496 45.8964 33.9855 45.3836 34.212 44.8621L25.908 41.5332C23.077 40.3946 19.7931 41.5332 18.0851 44.3319L17.6322 45.0794L21.8031 47.2436C19.6233 48.9819 17.0188 49.5556 14.8956 48.5126C11.5834 46.8786 10.7059 41.8983 12.9329 37.3786C15.1599 32.8589 19.6704 30.5296 22.9826 32.1636C23.8224 32.6348 24.5339 33.277 25.0622 34.0409C25.5906 34.8048 25.9219 35.67 26.0306 36.5702L36.0898 38.8735C37.8828 29.9037 35.1462 21.4902 28.5407 18.2656" fill="url(#paint2_linear_200_2751)"/>
</g>
<g filter="url(#filter4_d_200_2751)">
<path fill-rule="evenodd" clip-rule="evenodd" d="M82.2719 12.4235C80.2949 9.7754 77.741 7.53536 74.7729 5.84594C71.8047 4.15651 68.4872 3.05469 65.0315 2.61062C58.1901 1.57631 54.6514 4.39241 51.2072 8.85993C53.0095 5.83523 54.3589 3.64492 58.209 2.08912C68.0512 -1.93512 77.9689 5.42673 82.2719 12.4235Z" fill="white"/>
</g>
<g filter="url(#filter5_d_200_2751)">
<path fill-rule="evenodd" clip-rule="evenodd" d="M5.91223 28.9377C9.74342 23.5749 14.622 20.246 21.5673 19.1248C27.7764 18.0905 31.0037 20.9066 34.1177 25.3654C32.4852 22.3494 31.2868 20.1504 27.7575 18.6033C18.8213 14.579 9.82835 21.9409 5.91223 28.9377Z" fill="white"/>
</g>
<g filter="url(#filter6_i_200_2751)">
<path fill-rule="evenodd" clip-rule="evenodd" d="M19.1516 80.3066C20.1613 81.706 21.171 83.1314 22.1996 84.5569C22.511 83.3487 22.7657 82.4621 22.9733 81.7668C25.1814 82.5491 27.4462 83.2357 29.7298 83.8354C30.4092 85.5738 31.8907 87.3903 34.5424 89.7023C34.6933 87.6945 34.8161 86.1822 34.8161 84.9045C36.9109 85.2174 39.0247 85.426 41.1196 85.5477V85.5999C41.6822 86.9714 42.4102 88.2805 43.2899 89.5024C44.1964 90.7814 45.1727 92.0173 46.2152 93.2051L46.9229 94.0221L47.1589 94.2828C46.9796 92.4489 46.8097 90.8583 46.6682 89.4155C46.5267 87.9727 46.3756 86.6863 46.2152 85.4782C49.24 85.1976 52.231 84.6652 55.1515 83.8876C55.68 84.8871 56.3877 85.9996 57.303 87.3642C58.0531 85.8031 58.6592 84.1865 59.1148 82.5317C61.7282 81.4832 64.2518 80.2542 66.664 78.8551C67.1264 79.8634 67.7774 81.0715 68.6833 82.8272C69.3897 81.4851 70.0197 80.1099 70.5706 78.7074C70.9465 77.8012 71.1785 76.8498 71.2595 75.8826C73.1468 74.5615 74.9303 73.1447 76.6099 71.7366C78.2896 70.3286 79.8561 68.9119 81.3282 67.5125C80.1297 68.1209 78.9502 68.7467 77.7706 69.3812C75.2133 70.8327 72.741 72.1799 70.3442 73.3794C69.4005 72.2669 67.5132 71.276 64.805 69.9027C64.956 71.3108 65.0881 72.4146 65.2013 73.3794C65.3145 74.3442 65.4183 75.0395 65.5693 75.6913C63.314 76.6909 61.1059 77.5079 58.9638 78.2467C58.5322 77.3642 57.9874 76.5326 57.3408 75.7696C56.6142 74.9004 55.7177 73.8922 54.6325 72.7014C54.3778 74.292 54.1701 75.5871 54.0569 76.6996C53.9337 77.6628 53.8895 78.6332 53.9248 79.6026C51.1277 80.179 48.2896 80.5712 45.432 80.776C45.1489 79.3506 44.7809 77.873 44.3374 76.1955C43.8939 74.518 43.3465 72.6406 42.6766 70.3982C41.9971 72.6667 41.4593 74.5875 41.0535 76.2911C40.6705 77.7864 40.4368 79.3109 40.3552 80.8455C38.2887 80.7499 36.2221 80.6108 34.146 80.3762C33.8724 79.5852 33.4949 78.7421 33.0231 77.7687C32.5513 76.7952 31.9662 75.6392 31.2396 74.292C30.5256 76.0808 29.9362 77.9098 29.475 79.7677C27.4084 79.4114 25.323 79.0116 23.1715 78.5509C22.7468 77.6818 21.8598 76.265 20.3406 73.2229C19.875 74.7005 19.4095 76.1491 18.944 77.5688C14.8173 76.4284 10.8072 74.9567 6.95972 73.1708C8.65863 74.544 10.4659 75.7991 12.3668 76.9256C14.5347 78.2257 16.8169 79.3566 19.1893 80.3066" fill="url(#paint3_linear_200_2751)"/>
</g>
<path d="M27.8029 102.825V99.8421C27.8029 99.7983 27.8396 99.7544 27.8396 99.7105C27.8764 99.7105 27.95 99.6667 27.9867 99.6667H29.3107C29.3475 99.6667 29.3842 99.7105 29.421 99.7544C29.4578 99.7544 29.4578 99.8421 29.4578 99.886C29.4578 99.9298 29.4578 100.018 29.421 100.018C29.3842 100.061 29.3475 100.105 29.3107 100.105H28.2074V101.158H28.7958C28.8326 101.158 28.8694 101.158 28.9061 101.202C28.9061 101.246 28.9429 101.289 28.9429 101.333C28.9429 101.377 28.9061 101.421 28.9061 101.465C28.8694 101.509 28.8326 101.509 28.7958 101.509H28.2074V102.825C28.2074 102.912 28.1706 102.956 28.1338 102.956C28.0971 103 28.0603 103 28.0235 103C27.95 103 27.9132 103 27.8764 102.956C27.8396 102.956 27.8029 102.912 27.8029 102.825V102.825Z" fill="#333333"/>
<path d="M31.7747 102.004V100.662C31.7747 100.316 31.8592 100.1 32.0704 99.9264C32.2394 99.7533 32.4507 99.6667 32.7465 99.6667C33.0845 99.6667 33.2958 99.7533 33.4648 99.9264C33.6761 100.1 33.7606 100.316 33.7606 100.662V102.004C33.7606 102.351 33.6761 102.567 33.4648 102.74C33.2958 102.913 33.0845 103 32.7465 103C32.4507 103 32.2394 102.913 32.0704 102.74C31.8592 102.567 31.7747 102.351 31.7747 102.004ZM32.2394 102.004C32.2394 102.394 32.4085 102.567 32.7465 102.567C32.9155 102.567 33.0423 102.524 33.169 102.437C33.2535 102.307 33.2958 102.178 33.2958 102.004V100.662C33.2958 100.489 33.2535 100.316 33.169 100.229C33.0423 100.143 32.9155 100.1 32.7465 100.1C32.4085 100.1 32.2394 100.273 32.2394 100.662V102.004Z" fill="#333333"/>
<path d="M36.0775 102.825V99.8421C36.0775 99.7983 36.0775 99.7544 36.1198 99.7105C36.1198 99.7105 36.162 99.6667 36.2043 99.6667H37.0493C37.7254 99.6667 38.0634 99.9737 38.0634 100.588C38.0634 100.851 37.9789 101.07 37.8944 101.202C37.7677 101.377 37.6409 101.465 37.4296 101.509L38.0634 102.693C38.0634 102.737 38.0634 102.737 38.0634 102.781C38.0634 102.825 38.0212 102.868 37.9789 102.956C37.9367 103 37.8522 103 37.7677 103C37.7254 103 37.6409 102.956 37.5986 102.868L36.9648 101.553H36.5V102.825C36.5 102.912 36.5 102.912 36.4578 102.956C36.4155 103 36.331 103 36.2888 103C36.2043 103 36.162 103 36.1198 102.956C36.0775 102.912 36.0775 102.912 36.0775 102.825ZM36.5 101.202H37.0493C37.4296 101.202 37.5986 101.026 37.5986 100.632C37.5986 100.281 37.4296 100.105 37.0493 100.105H36.5V101.202Z" fill="#333333"/>
<path d="M43.0282 102.004V100.662C43.0282 100.316 43.1268 100.1 43.324 99.9264C43.5705 99.7533 43.8169 99.6667 44.162 99.6667C44.5071 99.6667 44.8028 99.7533 45 99.8831C45.1972 100.056 45.3451 100.273 45.3451 100.489C45.3451 100.576 45.2958 100.662 45.2465 100.706C45.1972 100.706 45.1479 100.749 45.0493 100.749C44.8521 100.749 44.8028 100.662 44.8028 100.576C44.7536 100.273 44.5564 100.1 44.162 100.1C43.7676 100.1 43.5705 100.273 43.5705 100.662V102.004C43.5705 102.394 43.7676 102.567 44.162 102.567C44.3592 102.567 44.5071 102.524 44.6057 102.437C44.7536 102.307 44.8028 102.178 44.8028 101.961V101.615H44.2606C44.2113 101.615 44.162 101.615 44.162 101.571C44.1127 101.528 44.1127 101.485 44.1127 101.398C44.1127 101.355 44.1127 101.312 44.162 101.312C44.162 101.268 44.2113 101.225 44.2606 101.225H45.1479C45.1972 101.225 45.2465 101.268 45.2958 101.268C45.2958 101.312 45.3451 101.355 45.3451 101.398V102.004C45.3451 102.351 45.2465 102.567 45 102.74C44.8028 102.913 44.5071 103 44.162 103C43.8169 103 43.5705 102.913 43.324 102.74C43.1268 102.567 43.0282 102.351 43.0282 102.004Z" fill="#333333"/>
<path d="M47.3311 102.825C47.3311 102.781 47.3311 102.781 47.3311 102.781L48.1999 99.7983C48.1999 99.7105 48.324 99.6667 48.4895 99.6667C48.655 99.6667 48.7791 99.7105 48.7791 99.7983L49.648 102.737C49.648 102.781 49.648 102.781 49.648 102.781C49.648 102.868 49.6066 102.912 49.5652 102.956C49.4825 103 49.4411 103 49.3583 103C49.2342 103 49.1929 102.956 49.1929 102.912L48.986 102.254H47.9517L47.7862 102.912C47.7448 102.956 47.7034 103 47.6207 103C47.5379 103 47.4552 103 47.4138 102.956C47.3724 102.912 47.3311 102.868 47.3311 102.825ZM48.0344 101.86H48.9032L48.4481 100.325L48.0344 101.86Z" fill="#333333"/>
<path d="M51.9648 102.825V99.9298C51.9648 99.8421 52.0048 99.7544 52.0447 99.7544C52.0847 99.7105 52.1246 99.6667 52.2045 99.6667C52.2844 99.6667 52.3643 99.7105 52.4043 99.7105C52.4442 99.7544 52.4841 99.8421 52.564 99.9298L53.1233 101.158L53.7225 99.9298C53.7624 99.8421 53.8024 99.7544 53.8823 99.7105C53.9222 99.7105 54.0021 99.6667 54.082 99.6667C54.122 99.6667 54.1619 99.7105 54.2418 99.7544C54.2817 99.7544 54.2817 99.8421 54.2817 99.9298V102.825C54.2817 102.912 54.2817 102.912 54.2418 102.956C54.1619 103 54.122 103 54.082 103C54.0021 103 53.9622 103 53.9222 102.956C53.8823 102.912 53.8423 102.912 53.8423 102.825V100.675L53.2831 101.772C53.2431 101.86 53.2032 101.904 53.1233 101.904C53.0434 101.904 53.0035 101.86 52.9635 101.772L52.4043 100.632V102.825C52.4043 102.912 52.4043 102.912 52.3643 102.956C52.3244 103 52.2844 103 52.2045 103C52.1246 103 52.0847 103 52.0447 102.956C52.0048 102.912 51.9648 102.912 51.9648 102.825Z" fill="#333333"/>
<path d="M56.9296 102.825V99.8421C56.9296 99.7983 56.9296 99.7544 56.9597 99.7105C56.9897 99.7105 57.0499 99.6667 57.08 99.6667C57.1402 99.6667 57.1703 99.7105 57.2004 99.7105C57.2305 99.7544 57.2606 99.7983 57.2606 99.8421V102.825C57.2606 102.912 57.2305 102.912 57.2004 102.956C57.1703 103 57.1402 103 57.08 103C57.0499 103 56.9897 103 56.9597 102.956C56.9296 102.912 56.9296 102.912 56.9296 102.825Z" fill="#333333"/>
<path d="M59.9084 102.825V99.8421C59.9084 99.7105 59.9912 99.6667 60.1567 99.6667C60.2394 99.6667 60.2808 99.7105 60.3222 99.7105C60.3636 99.7544 60.4463 99.8421 60.4877 99.9298L61.4393 101.904V99.8421C61.4393 99.7983 61.4806 99.7544 61.522 99.7105C61.5634 99.7105 61.6048 99.6667 61.6875 99.6667C61.7289 99.6667 61.7702 99.7105 61.8116 99.7105C61.8944 99.7544 61.8944 99.7983 61.8944 99.8421V102.825C61.8944 102.912 61.8944 102.912 61.8116 102.956C61.7702 103 61.7289 103 61.6875 103C61.5634 103 61.4393 102.956 61.3979 102.825L60.3636 100.763V102.825C60.3636 102.912 60.3636 102.912 60.3222 102.956C60.2394 103 60.1981 103 60.1567 103C60.0739 103 60.0326 103 59.9912 102.956C59.9498 102.912 59.9084 102.912 59.9084 102.825Z" fill="#333333"/>
<path d="M64.2113 102.004V100.662C64.2113 100.316 64.2976 100.1 64.4703 99.9264C64.643 99.7533 64.9021 99.6667 65.2043 99.6667C65.5065 99.6667 65.7223 99.7533 65.9382 99.8831C66.1109 100.056 66.1972 100.273 66.1972 100.489C66.1972 100.576 66.1972 100.662 66.154 100.706C66.1109 100.706 66.0677 100.749 65.9814 100.749C65.8087 100.749 65.7655 100.662 65.7223 100.576C65.7223 100.273 65.5496 100.1 65.2043 100.1C64.8589 100.1 64.6862 100.273 64.6862 100.662V102.004C64.6862 102.394 64.8589 102.567 65.2043 102.567C65.377 102.567 65.5065 102.524 65.5928 102.437C65.6792 102.307 65.7223 102.178 65.7223 101.961V101.615H65.2906C65.2474 101.615 65.2043 101.615 65.1611 101.571C65.1611 101.528 65.1179 101.485 65.1179 101.398C65.1179 101.355 65.1611 101.312 65.1611 101.312C65.2043 101.268 65.2474 101.225 65.2906 101.225H66.0677C66.1109 101.225 66.154 101.268 66.1972 101.268C66.1972 101.312 66.1972 101.355 66.1972 101.398V102.004C66.1972 102.351 66.1109 102.567 65.9382 102.74C65.7655 102.913 65.5065 103 65.2043 103C64.9021 103 64.643 102.913 64.4703 102.74C64.2976 102.567 64.2113 102.351 64.2113 102.004Z" fill="#333333"/>
<defs>
<filter id="filter0_i_200_2751" x="2.83081" y="18.1379" width="34.212" height="46.8062" filterUnits="userSpaceOnUse" color-interpolation-filters="sRGB">
<feFlood flood-opacity="0" result="BackgroundImageFix"/>
<feBlend mode="normal" in="SourceGraphic" in2="BackgroundImageFix" result="shape"/>
<feColorMatrix in="SourceAlpha" type="matrix" values="0 0 0 0 0 0 0 0 0 0 0 0 0 0 0 0 0 0 127 0" result="hardAlpha"/>
<feOffset dy="4"/>
<feGaussianBlur stdDeviation="2"/>
<feComposite in2="hardAlpha" operator="arithmetic" k2="-1" k3="1"/>
<feColorMatrix type="matrix" values="0 0 0 0 0 0 0 0 0 0 0 0 0 0 0 0 0 0 0.25 0"/>
<feBlend mode="normal" in2="shape" result="effect1_innerShadow_200_2751"/>
</filter>
<filter id="filter1_i_200_2751" x="44.373" y="2.56592" width="44.9868" height="61.7047" filterUnits="userSpaceOnUse" color-interpolation-filters="sRGB">
<feFlood flood-opacity="0" result="BackgroundImageFix"/>
<feBlend mode="normal" in="SourceGraphic" in2="BackgroundImageFix" result="shape"/>
<feColorMatrix in="SourceAlpha" type="matrix" values="0 0 0 0 0 0 0 0 0 0 0 0 0 0 0 0 0 0 127 0" result="hardAlpha"/>
<feOffset dy="4"/>
<feGaussianBlur stdDeviation="2"/>
<feComposite in2="hardAlpha" operator="arithmetic" k2="-1" k3="1"/>
<feColorMatrix type="matrix" values="0 0 0 0 0 0 0 0 0 0 0 0 0 0 0 0 0 0 0.25 0"/>
<feBlend mode="normal" in2="shape" result="effect1_innerShadow_200_2751"/>
</filter>
<filter id="filter2_i_200_2751" x="43.5076" y="0.0774536" width="48.1078" height="63.6006" filterUnits="userSpaceOnUse" color-interpolation-filters="sRGB">
<feFlood flood-opacity="0" result="BackgroundImageFix"/>
<feBlend mode="normal" in="SourceGraphic" in2="BackgroundImageFix" result="shape"/>
<feColorMatrix in="SourceAlpha" type="matrix" values="0 0 0 0 0 0 0 0 0 0 0 0 0 0 0 0 0 0 127 0" result="hardAlpha"/>
<feOffset dy="4"/>
<feGaussianBlur stdDeviation="2"/>
<feComposite in2="hardAlpha" operator="arithmetic" k2="-1" k3="1"/>
<feColorMatrix type="matrix" values="0 0 0 0 0 0 0 0 0 0 0 0 0 0 0 0 0 0 0.25 0"/>
<feBlend mode="normal" in2="shape" result="effect1_innerShadow_200_2751"/>
</filter>
<filter id="filter3_i_200_2751" x="0" y="16.9456" width="36.6273" height="47.9984" filterUnits="userSpaceOnUse" color-interpolation-filters="sRGB">
<feFlood flood-opacity="0" result="BackgroundImageFix"/>
<feBlend mode="normal" in="SourceGraphic" in2="BackgroundImageFix" result="shape"/>
<feColorMatrix in="SourceAlpha" type="matrix" values="0 0 0 0 0 0 0 0 0 0 0 0 0 0 0 0 0 0 127 0" result="hardAlpha"/>
<feOffset dy="4"/>
<feGaussianBlur stdDeviation="2"/>
<feComposite in2="hardAlpha" operator="arithmetic" k2="-1" k3="1"/>
<feColorMatrix type="matrix" values="0 0 0 0 0 0 0 0 0 0 0 0 0 0 0 0 0 0 0.25 0"/>
<feBlend mode="normal" in2="shape" result="effect1_innerShadow_200_2751"/>
</filter>
<filter id="filter4_d_200_2751" x="47.2072" y="0.946594" width="39.0647" height="19.4769" filterUnits="userSpaceOnUse" color-interpolation-filters="sRGB">
<feFlood flood-opacity="0" result="BackgroundImageFix"/>
<feColorMatrix in="SourceAlpha" type="matrix" values="0 0 0 0 0 0 0 0 0 0 0 0 0 0 0 0 0 0 127 0" result="hardAlpha"/>
<feOffset dy="4"/>
<feGaussianBlur stdDeviation="2"/>
<feComposite in2="hardAlpha" operator="out"/>
<feColorMatrix type="matrix" values="0 0 0 0 0 0 0 0 0 0 0 0 0 0 0 0 0 0 0.25 0"/>
<feBlend mode="normal" in2="BackgroundImageFix" result="effect1_dropShadow_200_2751"/>
<feBlend mode="normal" in="SourceGraphic" in2="effect1_dropShadow_200_2751" result="shape"/>
</filter>
<filter id="filter5_d_200_2751" x="1.91223" y="17.4608" width="36.2054" height="19.4769" filterUnits="userSpaceOnUse" color-interpolation-filters="sRGB">
<feFlood flood-opacity="0" result="BackgroundImageFix"/>
<feColorMatrix in="SourceAlpha" type="matrix" values="0 0 0 0 0 0 0 0 0 0 0 0 0 0 0 0 0 0 127 0" result="hardAlpha"/>
<feOffset dy="4"/>
<feGaussianBlur stdDeviation="2"/>
<feComposite in2="hardAlpha" operator="out"/>
<feColorMatrix type="matrix" values="0 0 0 0 0 0 0 0 0 0 0 0 0 0 0 0 0 0 0.25 0"/>
<feBlend mode="normal" in2="BackgroundImageFix" result="effect1_dropShadow_200_2751"/>
<feBlend mode="normal" in="SourceGraphic" in2="effect1_dropShadow_200_2751" result="shape"/>
</filter>
<filter id="filter6_i_200_2751" x="6.95972" y="67.5125" width="74.3684" height="30.7703" filterUnits="userSpaceOnUse" color-interpolation-filters="sRGB">
<feFlood flood-opacity="0" result="BackgroundImageFix"/>
<feBlend mode="normal" in="SourceGraphic" in2="BackgroundImageFix" result="shape"/>
<feColorMatrix in="SourceAlpha" type="matrix" values="0 0 0 0 0 0 0 0 0 0 0 0 0 0 0 0 0 0 127 0" result="hardAlpha"/>
<feOffset dy="4"/>
<feGaussianBlur stdDeviation="2"/>
<feComposite in2="hardAlpha" operator="arithmetic" k2="-1" k3="1"/>
<feColorMatrix type="matrix" values="0 0 0 0 0 0 0 0 0 0 0 0 0 0 0 0 0 0 0.25 0"/>
<feBlend mode="normal" in2="shape" result="effect1_innerShadow_200_2751"/>
</filter>
<linearGradient id="paint0_linear_200_2751" x1="39.9376" y1="66.453" x2="46.0837" y2="54.5987" gradientUnits="userSpaceOnUse">
<stop stop-color="#F65F6F"/>
<stop offset="1" stop-color="#F78164"/>
</linearGradient>
<linearGradient id="paint1_linear_200_2751" x1="58.8453" y1="65.4968" x2="95.6245" y2="26.6354" gradientUnits="userSpaceOnUse">
<stop stop-color="#F65F6F"/>
<stop offset="1" stop-color="#F78164"/>
</linearGradient>
<linearGradient id="paint2_linear_200_2751" x1="11.6775" y1="65.2395" x2="38.7698" y2="35.7161" gradientUnits="userSpaceOnUse">
<stop stop-color="#F65F6F"/>
<stop offset="1" stop-color="#F78164"/>
</linearGradient>
<linearGradient id="paint3_linear_200_2751" x1="30.6698" y1="96.8964" x2="39.1294" y2="66.1329" gradientUnits="userSpaceOnUse">
<stop stop-color="#F65F6F"/>
<stop offset="1" stop-color="#F78164"/>
</linearGradient>
</defs>
</svg>
