<svg width="48" height="48" viewBox="0 0 48 48" fill="none" xmlns="http://www.w3.org/2000/svg">
<path d="M22.5 38C22.5 37.1716 23.1716 36.5 24 36.5H36C36.2762 36.5 36.5 36.2761 36.5 36L36.5 12C36.5 11.7239 36.2762 11.5 36 11.5L24 11.5C23.1716 11.5 22.5 10.8284 22.5 10C22.5 9.17158 23.1716 8.5 24 8.5H36C37.933 8.5 39.5 10.067 39.5 12V36C39.5 37.933 37.933 39.5 36 39.5H24C23.1716 39.5 22.5 38.8284 22.5 38Z" fill="url(#paint0_linear_200_11705)"/>
<path d="M31.2232 26.2304C31.2232 27.335 30.3278 28.2304 29.2232 28.2304H19.5112C19.4654 28.9413 19.408 29.6516 19.339 30.361L19.2797 30.9714C19.1832 31.9639 18.1293 32.5583 17.2301 32.1273C13.5742 30.3753 10.2647 27.9777 7.46056 25.05L7.40065 24.9874C6.86645 24.4297 6.86645 23.5501 7.40065 22.9924L7.46057 22.9298C10.2647 20.0021 13.5742 17.6045 17.2301 15.8525C18.1293 15.4215 19.1832 16.0159 19.2797 17.0084L19.339 17.6188C19.408 18.3283 19.4654 19.0386 19.5112 19.7494L29.2232 19.7494C30.3278 19.7494 31.2232 20.6448 31.2232 21.7494V26.2304Z" fill="url(#paint1_linear_200_11705)"/>
<defs>
<linearGradient id="paint0_linear_200_11705" x1="17.3616" y1="42.5265" x2="35.5992" y2="17.4976" gradientUnits="userSpaceOnUse">
<stop stop-color="#F65F6F"/>
<stop offset="1" stop-color="#F78164"/>
</linearGradient>
<linearGradient id="paint1_linear_200_11705" x1="17.3616" y1="42.5265" x2="35.5992" y2="17.4976" gradientUnits="userSpaceOnUse">
<stop stop-color="#F65F6F"/>
<stop offset="1" stop-color="#F78164"/>
</linearGradient>
</defs>
</svg>
