<svg width="23" height="24" viewBox="0 0 23 24" fill="none" xmlns="http://www.w3.org/2000/svg">
<path d="M8.94279 9C8.94279 7.75736 9.86675 6.75 11.0065 6.75C12.1463 6.75 13.0702 7.75736 13.0702 9C13.0702 10.2426 12.1463 11.25 11.0065 11.25C9.86675 11.25 8.94279 10.2426 8.94279 9Z" fill="url(#paint0_linear_200_4041)"/>
<path fill-rule="evenodd" clip-rule="evenodd" d="M10.858 2.5C7.92071 2.5 5.47449 4.95623 5.23319 8.14777C5.10348 9.8635 5.58957 11.5671 6.5891 12.8999L9.88628 17.2962C10.4653 18.0682 11.5478 18.0682 12.1267 17.2962L15.4239 12.8999C16.4235 11.5671 16.9096 9.8635 16.7798 8.14777C16.5386 4.95623 14.0923 2.5 11.1551 2.5H10.858ZM11.0065 5.25C9.10691 5.25 7.56697 6.92893 7.56697 9C7.56697 11.0711 9.10691 12.75 11.0065 12.75C12.9061 12.75 14.4461 11.0711 14.4461 9C14.4461 6.92893 12.9061 5.25 11.0065 5.25Z" fill="url(#paint1_linear_200_4041)"/>
<path d="M6.7281 15.3292C7.06792 15.5144 7.20565 15.9649 7.03575 16.3354L5.6991 19.25H16.3139L14.9773 16.3354C14.8074 15.9649 14.9451 15.5144 15.2849 15.3292C15.6247 15.1439 16.0379 15.2941 16.2079 15.6646L18.0423 19.6646C18.1489 19.8971 18.1375 20.1732 18.0122 20.3943C17.8868 20.6154 17.6654 20.75 17.427 20.75H4.58604C4.34763 20.75 4.12621 20.6154 4.00087 20.3943C3.87553 20.1732 3.86414 19.8971 3.97076 19.6646L5.80518 15.6646C5.97508 15.2941 6.38829 15.1439 6.7281 15.3292Z" fill="url(#paint2_linear_200_4041)"/>
<defs>
<linearGradient id="paint0_linear_200_4041" x1="8.43072" y1="22.5317" x2="19.7076" y2="11.0322" gradientUnits="userSpaceOnUse">
<stop stop-color="#F65F6F"/>
<stop offset="1" stop-color="#F78164"/>
</linearGradient>
<linearGradient id="paint1_linear_200_4041" x1="8.43072" y1="22.5317" x2="19.7076" y2="11.0322" gradientUnits="userSpaceOnUse">
<stop stop-color="#F65F6F"/>
<stop offset="1" stop-color="#F78164"/>
</linearGradient>
<linearGradient id="paint2_linear_200_4041" x1="8.43072" y1="22.5317" x2="19.7076" y2="11.0322" gradientUnits="userSpaceOnUse">
<stop stop-color="#F65F6F"/>
<stop offset="1" stop-color="#F78164"/>
</linearGradient>
</defs>
</svg>
