<svg width="25" height="24" viewBox="0 0 25 24" fill="none" xmlns="http://www.w3.org/2000/svg">
<path fill-rule="evenodd" clip-rule="evenodd" d="M19.2502 11.0001L19.2441 11.2433L19.2502 11.5001L19.2443 11.745L19.2502 12.0001L19.0615 20.2533C19.038 21.2804 18.2568 22.131 17.2354 22.2416C14.0877 22.5825 10.9123 22.5825 7.76453 22.2416C6.74313 22.131 5.96194 21.2804 5.93846 20.2533L5.74979 12.0001L5.75566 11.7433L5.74981 11.5001L5.75596 11.2443L5.74976 11.0001L5.91846 4.3586C5.91957 4.31471 5.9217 4.27106 5.92481 4.22767L5.93593 3.7655C5.96136 2.70879 6.76844 1.83578 7.8199 1.7276C7.9074 1.7186 7.99493 1.70985 8.08247 1.70135C8.20121 1.67376 8.32296 1.65364 8.44722 1.64153C11.1427 1.37881 13.8573 1.37881 16.5528 1.64153C16.677 1.65364 16.7988 1.67375 16.9175 1.70134C17.0051 1.70984 17.0926 1.7186 17.1802 1.7276C18.2316 1.83578 19.0387 2.70879 19.0641 3.7655L19.0753 4.22872C19.0783 4.27176 19.0804 4.31506 19.0815 4.3586L19.2502 11.0001ZM16.5 17.75C16.9142 17.75 17.25 17.4142 17.25 17C17.25 16.5858 16.9142 16.25 16.5 16.25H8.5C8.08579 16.25 7.75 16.5858 7.75 17C7.75 17.4142 8.08579 17.75 8.5 17.75H16.5ZM12.5 21.7001C13.3284 21.7001 14 21.0285 14 20.2001C14 19.3716 13.3284 18.7001 12.5 18.7001C11.6716 18.7001 11 19.3716 11 20.2001C11 21.0285 11.6716 21.7001 12.5 21.7001Z" fill="white"/>
</svg>
