<svg width="142" height="142" viewBox="0 0 142 142" fill="none" xmlns="http://www.w3.org/2000/svg">
<g clip-path="url(#clip0_200_3335)">
<path d="M62.2413 60.0604C60.0792 61.9662 58.5434 64.4808 57.8353 67.2746C57.1272 70.0684 57.2798 73.011 58.2731 75.7165C59.2664 78.4221 61.0541 80.7643 63.4018 82.4362C65.7495 84.1081 68.5475 85.0316 71.4291 85.0856C74.3867 85.1136 77.3027 84.3877 79.9019 82.9764C81.6122 82.121 83.1369 80.9364 84.3886 79.4907C86.2049 77.1066 87.0597 74.1274 86.7839 71.143C86.613 68.4858 85.8299 65.9041 84.4958 63.5997C83.9845 62.8507 83.3843 62.1665 82.7083 61.5619C81.6944 60.4935 80.5811 59.5239 79.3836 58.6662C76.8731 57.0852 73.9237 56.3463 70.9644 56.5569C68.0922 56.7233 65.3323 57.7304 63.0278 59.4527C62.7557 59.6421 62.4932 59.8449 62.2413 60.0604Z" fill="url(#paint0_linear_200_3335)"/>
<path d="M83.6735 75.6833C82.3865 76.9882 81.6 78.6506 80.313 79.9733C78.8879 81.3793 77.1091 82.3737 75.1649 82.8512C71.143 83.8701 65.9771 83.4411 62.849 80.4738C56.5748 74.5393 58.9701 61.9909 67.1032 58.8807C69.1165 58.1296 71.2861 57.8961 73.4131 58.2014C75.5354 58.4272 77.5715 59.1631 79.3477 60.3464C79.6873 60.6146 80.0985 60.0604 79.7946 59.7744C78.3133 58.1571 76.4046 56.992 74.2891 56.4139C72.1391 55.8957 69.8967 55.8957 67.7468 56.4139C65.3822 57.0988 63.2217 58.3532 61.4547 60.0673C59.6877 61.7813 58.3681 63.9026 57.6115 66.2452C56.69 68.6986 56.4034 71.3451 56.7784 73.9389C57.1535 76.5327 58.1779 78.9897 59.7566 81.0816C61.537 83.1196 63.8003 84.6785 66.3393 85.6153C68.8782 86.5522 71.6115 86.8372 74.2891 86.4441C77.1522 86.1146 79.8557 84.9524 82.0648 83.1015C84.0489 81.457 85.9436 78.8293 85.2644 76.1302C85.2201 75.97 85.1352 75.8239 85.018 75.7061C84.9007 75.5884 84.755 75.5028 84.595 75.4579C84.435 75.413 84.2661 75.4101 84.1047 75.4496C83.9432 75.4891 83.7947 75.5696 83.6735 75.6833Z" fill="white"/>
<path d="M141.517 70.142C138.049 68.5332 133.187 69.4091 129.434 69.4091H109.449C109.303 66.2817 108.701 63.1926 107.662 60.2392C104.933 52.0017 99.1844 45.1038 91.5741 40.934C85.8461 37.7795 79.2929 36.4451 72.7874 37.1087V35.1961C72.7874 31.2516 72.7874 27.2953 72.7874 23.327C72.7874 19.3766 72.7874 15.4262 72.7874 11.4579C72.7874 7.8829 73.4667 3.70012 71.7685 0.428976C71.6832 0.284444 71.5616 0.164674 71.4158 0.0814615C71.2701 -0.00175072 71.1052 -0.0455322 70.9373 -0.0455322C70.7695 -0.0455322 70.6045 -0.00175072 70.4588 0.0814615C70.313 0.164674 70.1915 0.284444 70.1061 0.428976C68.4259 3.70012 69.0872 7.90078 69.0872 11.4579C69.0872 15.4262 69.0872 19.3766 69.0872 23.327C69.0872 27.2774 69.0872 31.2457 69.0872 35.1961V38.0382C55.2519 38.0382 42.918 50.0324 37.8415 62.1697C36.9167 64.4116 36.2452 66.7499 35.8395 69.141H11.5115C7.93646 69.141 3.73577 68.4617 0.464619 70.1598C0.319752 70.2427 0.199391 70.3625 0.115659 70.5069C0.031928 70.6513 -0.012207 70.8152 -0.012207 70.9821C-0.012207 71.149 0.031928 71.313 0.115659 71.4573C0.199391 71.6017 0.319752 71.7215 0.464619 71.8044C3.73577 73.5919 7.93646 72.8411 11.5115 72.8411H35.482C35.1889 78.584 36.3451 84.3084 38.844 89.4874C41.3429 94.6664 45.1043 99.1337 49.7821 102.478C55.5322 106.585 62.3806 108.877 69.4447 109.056C69.4447 111.666 69.4447 114.294 69.4447 116.903C69.4447 121.086 69.4447 125.287 69.4447 129.416C69.4447 133.17 68.5689 138.032 70.1955 141.499C70.2796 141.648 70.4018 141.772 70.5494 141.858C70.697 141.944 70.8648 141.989 71.0356 141.989C71.2065 141.989 71.3743 141.944 71.5219 141.858C71.6695 141.772 71.7916 141.648 71.8758 141.499C73.4845 138.032 72.6087 133.17 72.6087 129.416C72.6087 125.233 72.6087 121.032 72.6087 116.903C72.6087 114.276 72.6087 111.648 72.6087 109.02C80.4901 108.654 88.0778 105.919 94.3805 101.173C98.8212 97.7875 102.471 93.4752 105.077 88.5361C107.682 83.597 109.18 78.1497 109.467 72.573H129.434C133.187 72.573 138.067 73.4489 141.517 71.8222C141.666 71.7381 141.79 71.616 141.876 71.4684C141.962 71.3208 142.007 71.153 142.007 70.9821C142.007 70.8112 141.962 70.6434 141.876 70.4958C141.79 70.3482 141.666 70.2261 141.517 70.142ZM96.0429 94.8096C89.7845 101.118 81.4096 104.882 72.5371 105.374V104.301C72.5371 100.136 73.0198 95.5425 72.0009 91.467C71.9311 91.2567 71.7969 91.0736 71.6172 90.9439C71.4375 90.8142 71.2215 90.7444 70.9999 90.7444C70.7783 90.7444 70.5623 90.8142 70.3826 90.9439C70.2029 91.0736 70.0687 91.2567 69.9989 91.467C68.98 95.5425 69.4626 100.136 69.4447 104.301V105.41C65.1497 105.309 60.9091 104.425 56.9321 102.8C51.0971 100.341 46.1641 96.1404 42.8077 90.7714C39.4513 85.4025 37.8354 79.1277 38.1811 72.8054C40.8691 72.9471 43.5564 72.5144 46.0641 71.5362C46.1564 71.4783 46.2325 71.3979 46.2853 71.3026C46.338 71.2072 46.3657 71.1 46.3657 70.9911C46.3657 70.8821 46.338 70.7749 46.2853 70.6795C46.2325 70.5842 46.1564 70.5037 46.0641 70.4458C43.7042 69.52 41.1794 69.0881 38.6459 69.1767C38.6543 69.1415 38.6543 69.1047 38.6459 69.0695C40.2476 61.986 43.864 55.517 49.0591 50.4425C54.2542 45.3679 60.8063 41.9043 67.9254 40.4692C68.0622 40.546 68.2154 40.5889 68.3723 40.5944H69.1588C69.2265 42.5285 69.6381 44.4352 70.3743 46.225C70.4322 46.3174 70.5125 46.3935 70.6079 46.4463C70.7033 46.499 70.8105 46.5267 70.9194 46.5267C71.0284 46.5267 71.1356 46.499 71.231 46.4463C71.3263 46.3935 71.4067 46.3174 71.4646 46.225C72.2353 44.3772 72.6478 42.3997 72.6802 40.3978C74.382 40.2728 76.0906 40.2728 77.7924 40.3978C81.4766 40.7425 85.071 41.7349 88.4103 43.3293C94.5422 46.2113 99.5145 51.0891 102.514 57.1646C104.427 61.071 105.51 65.3314 105.696 69.6772H104.248C100.065 69.6772 95.4709 69.1946 91.3954 70.2135C91.1851 70.2832 91.002 70.4175 90.8723 70.5972C90.7426 70.7769 90.6728 70.9929 90.6728 71.2145C90.6728 71.4361 90.7426 71.6521 90.8723 71.8318C91.002 72.0115 91.1851 72.1457 91.3954 72.2155C95.4709 73.2344 100.065 72.7339 104.248 72.7696H105.696C105.249 81.0419 101.82 88.8722 96.0429 94.8096Z" fill="white"/>
<path d="M83.9951 14.4074C89.1228 15.0111 94.1513 16.2727 98.9566 18.1611C105.319 20.9907 111.064 25.0415 115.866 30.0838C120.533 35.2036 124.201 41.151 126.681 47.6193C127.838 50.7264 128.706 53.9337 129.273 57.2004C129.827 60.1319 129.416 64.0823 130.846 66.71C130.921 66.8398 131.03 66.9476 131.16 67.0225C131.29 67.0974 131.437 67.1368 131.588 67.1368C131.738 67.1368 131.885 67.0974 132.016 67.0225C132.146 66.9476 132.254 66.8398 132.329 66.71C133.581 63.993 132.58 60.1856 132.097 57.3077C131.433 53.6249 130.47 50.0022 129.219 46.4753C126.875 39.5334 123.161 33.1327 118.298 27.6528C113.384 22.0588 107.275 17.6419 100.422 14.7291C97.1106 13.1851 93.6484 11.987 90.0906 11.1541C87.302 10.5463 82.6545 9.02694 80.3129 11.0647C80.0398 11.3479 79.8872 11.7259 79.8872 12.1193C79.8872 12.5127 80.0398 12.8908 80.3129 13.174C81.4032 14.3716 82.44 14.2644 83.9951 14.4074Z" fill="white"/>
<path d="M129.38 79.4907C127.825 80.2236 127.807 81.6357 127.378 83.1729C126.949 84.7102 126.484 86.0866 125.966 87.5166C124.894 90.5925 123.585 93.5807 122.051 96.4542C118.796 102.202 114.752 107.466 110.039 112.095C105.374 116.58 100.103 120.389 94.3807 123.41C91.3494 124.951 88.1691 126.178 84.889 127.074C82.315 127.807 78.6505 127.825 76.5413 129.487C75.9871 129.934 76.4161 130.685 76.9345 130.917C79.5085 131.99 83.7986 130.292 86.3369 129.523C89.5701 128.501 92.7296 127.259 95.7928 125.805C102.021 122.892 107.742 118.999 112.738 114.276C117.85 109.592 122.161 104.103 125.501 98.0272C127.249 95.0172 128.755 91.8732 130.006 88.6249C130.935 86.1045 133.045 82.0826 131.203 79.6873C130.961 79.463 130.653 79.3228 130.324 79.2874C129.996 79.252 129.665 79.3232 129.38 79.4907Z" fill="white"/>
<path d="M60.5072 127.414C58.7197 127.056 57.1109 126.592 55.4306 126.073C52.4448 125.207 49.5527 124.045 46.797 122.605C41.4252 119.636 36.5171 115.896 32.2288 111.505C28.0638 107.002 24.5172 101.965 21.6825 96.5257C20.2263 93.7628 19.1099 90.8338 18.3577 87.8026C17.8355 85.8831 17.4119 83.9381 17.0885 81.9753C16.9804 80.2523 16.5816 78.5601 15.9088 76.9703C15.8185 76.8301 15.6902 76.7186 15.5388 76.6488C15.3873 76.5791 15.2192 76.554 15.054 76.5765C14.8888 76.599 14.7334 76.6682 14.6062 76.776C14.479 76.8837 14.3852 77.0256 14.3358 77.1848C13.2275 80.4917 14.8005 85.2822 15.6943 88.5355C16.6523 91.759 17.7861 94.9276 19.0905 98.0272C21.6859 103.939 25.3182 109.339 29.8156 113.972C34.128 118.789 39.2525 122.813 44.9559 125.859C47.8153 127.471 50.805 128.84 53.8934 129.952C56.6819 130.917 61.7406 133.045 64.4397 131.364C64.6328 131.244 64.7967 131.082 64.9197 130.89C65.0426 130.699 65.1214 130.482 65.1505 130.256C65.1796 130.031 65.1582 129.801 65.0878 129.585C65.0174 129.368 64.8999 129.17 64.7436 129.005C63.5639 127.718 62.1338 127.753 60.5072 127.414Z" fill="white"/>
<path d="M16.5882 65.5481C17.8037 64.6007 17.768 63.5103 18.0361 61.9731C18.3042 60.4358 18.6975 58.8628 19.0907 57.3255C19.8206 54.2665 20.8134 51.2762 22.058 48.388C24.5356 42.8104 27.8776 37.6586 31.9608 33.1226C35.763 28.9602 40.1031 25.3234 44.8666 22.3082C47.4633 20.7387 50.1764 19.3702 52.9819 18.2148C55.1448 17.3389 58.3445 16.9099 59.9175 15.2118C60.0227 15.1058 60.0984 14.9742 60.1371 14.83C60.1759 14.6857 60.1763 14.5339 60.1384 14.3895C60.1005 14.2451 60.0256 14.113 59.921 14.0064C59.8164 13.8998 59.6858 13.8224 59.5421 13.7817C57.0218 13.1561 53.8221 14.9079 51.5162 15.8553C48.7496 17.0315 46.0626 18.387 43.4724 19.9129C38.1977 22.8523 33.4101 26.5908 29.2796 30.9955C24.8358 35.6445 21.2097 41.0111 18.5545 46.8686C17.1315 49.9098 15.9365 53.0526 14.9795 56.2709C14.3181 58.6662 12.5842 63.0277 14.1751 65.2085C14.2886 65.4162 14.4492 65.5944 14.6439 65.7291C14.8386 65.8637 15.062 65.951 15.2964 65.984C15.5308 66.017 15.7697 65.9948 15.994 65.9191C16.2182 65.8434 16.4217 65.7164 16.5882 65.5481Z" fill="white"/>
<g clip-path="url(#clip1_200_3335)">
<path d="M138.929 18.5981C136.857 19.7127 134.748 20.7542 132.603 21.7225C131.547 22.1986 130.484 22.6736 129.409 23.1157C128.893 23.3318 128.369 23.5391 127.857 23.7793C127.315 23.9784 126.822 24.2899 126.409 24.6932C126.364 24.753 126.335 24.8234 126.325 24.8976C126.316 24.9718 126.325 25.0473 126.353 25.1167C126.381 25.1861 126.426 25.2472 126.485 25.2939C126.543 25.3407 126.613 25.3715 126.687 25.3835C127.234 25.4231 127.783 25.3352 128.291 25.127C128.864 24.9581 129.414 24.731 129.948 24.5017C131.05 24.0322 132.145 23.5539 133.216 23.0251C135.347 21.973 137.416 20.7979 139.41 19.5057C139.903 19.1842 139.425 18.3084 138.898 18.5937L138.929 18.5981Z" fill="white"/>
<path d="M129.857 9.7915C128.745 10.7142 127.651 11.6786 126.635 12.7012C126.138 13.2104 125.641 13.7271 125.193 14.2823C124.965 14.5547 124.754 14.8413 124.561 15.1404C124.381 15.4659 124.254 15.8182 124.185 16.1839C124.176 16.2432 124.184 16.3037 124.206 16.3592C124.229 16.4147 124.265 16.4633 124.312 16.5003C124.359 16.5372 124.415 16.561 124.475 16.5695C124.534 16.5779 124.594 16.5706 124.65 16.5483C124.96 16.4029 125.25 16.2177 125.513 15.9976C125.771 15.7428 126.017 15.4743 126.247 15.1933C126.709 14.648 127.141 14.0906 127.603 13.5453C128.542 12.4645 129.478 11.3991 130.409 10.3721C130.738 10.0429 130.198 9.48758 129.841 9.7893L129.857 9.7915Z" fill="white"/>
<path d="M119.495 2.27416C118.919 3.89269 118.343 5.51123 117.803 7.15062C117.541 7.9363 117.257 8.7187 117.034 9.50987C116.811 10.301 116.455 11.2535 116.744 12.0316C116.771 12.0951 116.813 12.1516 116.865 12.1969C116.918 12.2421 116.979 12.2749 117.046 12.2928C117.113 12.3106 117.183 12.3131 117.251 12.3C117.319 12.2869 117.383 12.2585 117.439 12.2171C118.012 11.6678 118.41 10.9612 118.583 10.1861C118.864 9.37185 119.101 8.54337 119.352 7.71708C119.85 6.09525 120.31 4.46792 120.779 2.83401C120.846 2.663 120.846 2.47311 120.779 2.30223C120.712 2.13136 120.583 1.99209 120.417 1.91218C120.246 1.84354 120.056 1.84277 119.884 1.91007C119.713 1.97737 119.574 2.10761 119.495 2.27416Z" fill="white"/>
</g>
<g clip-path="url(#clip2_200_3335)">
<path d="M7.40899 117.887C9.48098 116.772 11.5895 115.731 13.7347 114.763C14.7904 114.286 15.8538 113.811 16.9282 113.369C17.4451 113.153 17.9686 112.946 18.4811 112.706C19.0227 112.507 19.516 112.195 19.9286 111.792C19.9737 111.732 20.0025 111.662 20.0123 111.587C20.0221 111.513 20.0126 111.438 19.9847 111.368C19.9568 111.299 19.9114 111.238 19.8529 111.191C19.7945 111.144 19.725 111.114 19.6511 111.102C19.1037 111.062 18.5545 111.15 18.0467 111.358C17.4739 111.527 16.9241 111.754 16.3896 111.983C15.2878 112.453 14.1925 112.931 13.1214 113.46C10.9903 114.512 8.92209 115.687 6.92738 116.979C6.43461 117.301 6.91293 118.177 7.43971 117.891L7.40899 117.887Z" fill="white"/>
<path d="M16.4808 126.694C17.5926 125.771 18.6868 124.806 19.7031 123.784C20.1992 123.275 20.6964 122.758 21.1442 122.203C21.3729 121.93 21.584 121.644 21.7764 121.345C21.957 121.019 22.0841 120.667 22.1529 120.301C22.1613 120.242 22.1539 120.181 22.1315 120.126C22.1091 120.07 22.0725 120.022 22.0253 119.985C21.9782 119.948 21.9222 119.924 21.863 119.916C21.8037 119.907 21.7432 119.914 21.6877 119.937C21.3775 120.082 21.0876 120.267 20.8251 120.487C20.5662 120.742 20.3211 121.011 20.0908 121.292C19.6288 121.837 19.1963 122.394 18.7342 122.94C17.7958 124.021 16.8596 125.086 15.9289 126.113C15.5997 126.442 16.1395 126.997 16.4962 126.696L16.4808 126.694Z" fill="white"/>
<path d="M26.8422 134.211C27.4186 132.592 27.9949 130.974 28.5351 129.334C28.7964 128.549 29.0807 127.766 29.3036 126.975C29.5265 126.184 29.8822 125.232 29.5937 124.453C29.5663 124.39 29.5248 124.333 29.4725 124.288C29.4201 124.243 29.3582 124.21 29.2913 124.192C29.2245 124.174 29.1545 124.172 29.0865 124.185C29.0186 124.198 28.9545 124.226 28.899 124.268C28.3255 124.817 27.9272 125.524 27.7542 126.299C27.4732 127.113 27.2371 127.942 26.9857 128.768C26.4873 130.39 26.0272 132.017 25.5584 133.651C25.4917 133.822 25.4919 134.012 25.559 134.183C25.6261 134.354 25.7551 134.493 25.9204 134.573C26.0912 134.642 26.2819 134.642 26.4532 134.575C26.6246 134.508 26.7638 134.377 26.8422 134.211Z" fill="white"/>
</g>
</g>
<defs>
<linearGradient id="paint0_linear_200_3335" x1="66.7823" y1="87.8751" x2="83.6734" y2="65.0882" gradientUnits="userSpaceOnUse">
<stop stop-color="#F65F6F"/>
<stop offset="1" stop-color="#F78164"/>
</linearGradient>
<clipPath id="clip0_200_3335">
<rect width="142" height="142" fill="white"/>
</clipPath>
<clipPath id="clip1_200_3335">
<rect width="23.915" height="22.3631" fill="white" transform="translate(138.516 27.0752) rotate(-171.862)"/>
</clipPath>
<clipPath id="clip2_200_3335">
<rect width="23.915" height="22.3631" fill="white" transform="translate(7.82178 109.41) rotate(8.13835)"/>
</clipPath>
</defs>
</svg>
