<svg width="30" height="36" viewBox="0 0 30 36" fill="none" xmlns="http://www.w3.org/2000/svg">
<path d="M19.5834 2.58325C18.2027 2.58325 17.0834 3.70254 17.0834 5.08325C17.0834 5.30365 17.1119 5.51738 17.1655 5.72097C17.1064 5.73317 17.0482 5.75419 16.9925 5.78456L14.6954 7.03752L11.7733 8.70726C11.7435 8.72433 11.7155 8.74349 11.6896 8.76444C11.3168 8.54345 10.8816 8.41658 10.4167 8.41658C9.03604 8.41658 7.91675 9.53587 7.91675 10.9166C7.91675 12.2973 9.03604 13.4166 10.4167 13.4166C11.1451 13.4166 11.8008 13.1051 12.2577 12.608L14.6965 13.9629L17.1585 15.3059C17.1095 15.5013 17.0834 15.7059 17.0834 15.9166C17.0834 17.2973 18.2027 18.4166 19.5834 18.4166C20.9641 18.4166 22.0834 17.2973 22.0834 15.9166C22.0834 14.5359 20.9641 13.4166 19.5834 13.4166C18.8631 13.4166 18.2138 13.7213 17.7576 14.2088L15.3015 12.8691L12.847 11.5055C12.8926 11.3166 12.9167 11.1194 12.9167 10.9166C12.9167 10.4668 12.798 10.0448 12.5901 9.68021L15.3048 8.12897L17.591 6.88193C17.6469 6.85146 17.6963 6.81369 17.7386 6.77047C18.1957 7.26998 18.853 7.58325 19.5834 7.58325C20.9641 7.58325 22.0834 6.46396 22.0834 5.08325C22.0834 3.70254 20.9641 2.58325 19.5834 2.58325Z" fill="#BCBBBB"/>
<path d="M3.465 31.599C3.12033 31.599 2.783 31.5697 2.453 31.511C2.123 31.4523 1.815 31.368 1.529 31.258C1.25033 31.148 0.997333 31.0087 0.77 30.84C0.682 30.774 0.619667 30.7007 0.583 30.62C0.553667 30.532 0.546333 30.4477 0.561 30.367C0.583 30.279 0.619667 30.2057 0.671 30.147C0.729667 30.0883 0.799333 30.0553 0.88 30.048C0.960667 30.0407 1.04867 30.0663 1.144 30.125C1.474 30.3597 1.826 30.532 2.2 30.642C2.574 30.7447 2.99567 30.796 3.465 30.796C4.125 30.796 4.61267 30.675 4.928 30.433C5.25067 30.1837 5.412 29.8573 5.412 29.454C5.412 29.124 5.29467 28.8673 5.06 28.684C4.83267 28.4933 4.44767 28.343 3.905 28.233L2.761 28.002C2.07167 27.8553 1.55467 27.617 1.21 27.287C0.872667 26.9497 0.704 26.5023 0.704 25.945C0.704 25.6003 0.773667 25.2887 0.913 25.01C1.05233 24.724 1.24667 24.482 1.496 24.284C1.74533 24.0787 2.04233 23.921 2.387 23.811C2.73167 23.701 3.113 23.646 3.531 23.646C3.993 23.646 4.422 23.712 4.818 23.844C5.22133 23.9687 5.58433 24.1593 5.907 24.416C5.98767 24.482 6.04267 24.559 6.072 24.647C6.10133 24.7277 6.105 24.8083 6.083 24.889C6.061 24.9623 6.02067 25.0247 5.962 25.076C5.91067 25.1273 5.841 25.1567 5.753 25.164C5.67233 25.1713 5.58067 25.142 5.478 25.076C5.18467 24.856 4.88033 24.6983 4.565 24.603C4.24967 24.5003 3.90133 24.449 3.52 24.449C3.13133 24.449 2.794 24.5077 2.508 24.625C2.22933 24.7423 2.00933 24.9147 1.848 25.142C1.694 25.362 1.617 25.6187 1.617 25.912C1.617 26.264 1.72333 26.5427 1.936 26.748C2.156 26.9533 2.51167 27.1037 3.003 27.199L4.147 27.441C4.88767 27.595 5.434 27.8297 5.786 28.145C6.14533 28.453 6.325 28.8747 6.325 29.41C6.325 29.7327 6.259 30.0297 6.127 30.301C5.995 30.5723 5.80433 30.807 5.555 31.005C5.30567 31.1957 5.005 31.3423 4.653 31.445C4.301 31.5477 3.905 31.599 3.465 31.599ZM8.26358 31.577C8.11691 31.577 8.00691 31.5367 7.93358 31.456C7.86024 31.3753 7.82358 31.2617 7.82358 31.115V24.119C7.82358 23.9723 7.86024 23.8623 7.93358 23.789C8.00691 23.7083 8.11691 23.668 8.26358 23.668C8.40291 23.668 8.51291 23.7083 8.59358 23.789C8.67424 23.8623 8.71458 23.9723 8.71458 24.119V27.342H8.57158C8.72558 26.9167 8.97491 26.5977 9.31958 26.385C9.67158 26.165 10.0749 26.055 10.5296 26.055C10.9549 26.055 11.3069 26.132 11.5856 26.286C11.8716 26.44 12.0842 26.6747 12.2236 26.99C12.3629 27.298 12.4326 27.6903 12.4326 28.167V31.115C12.4326 31.2617 12.3922 31.3753 12.3116 31.456C12.2382 31.5367 12.1319 31.577 11.9926 31.577C11.8459 31.577 11.7322 31.5367 11.6516 31.456C11.5782 31.3753 11.5416 31.2617 11.5416 31.115V28.222C11.5416 27.7233 11.4426 27.3603 11.2446 27.133C11.0539 26.8983 10.7459 26.781 10.3206 26.781C9.82924 26.781 9.43691 26.935 9.14358 27.243C8.85758 27.5437 8.71458 27.947 8.71458 28.453V31.115C8.71458 31.423 8.56424 31.577 8.26358 31.577ZM15.9785 31.599C15.6119 31.599 15.2819 31.5293 14.9885 31.39C14.7025 31.2433 14.4752 31.0453 14.3065 30.796C14.1379 30.5467 14.0535 30.268 14.0535 29.96C14.0535 29.564 14.1525 29.2523 14.3505 29.025C14.5559 28.7977 14.8895 28.6363 15.3515 28.541C15.8209 28.4457 16.4589 28.398 17.2655 28.398H17.7605V28.981H17.2765C16.6825 28.981 16.2132 29.0103 15.8685 29.069C15.5312 29.1203 15.2929 29.212 15.1535 29.344C15.0215 29.476 14.9555 29.663 14.9555 29.905C14.9555 30.2057 15.0582 30.4513 15.2635 30.642C15.4762 30.8327 15.7622 30.928 16.1215 30.928C16.4149 30.928 16.6715 30.8583 16.8915 30.719C17.1189 30.5797 17.2949 30.389 17.4195 30.147C17.5515 29.905 17.6175 29.6263 17.6175 29.311V28.057C17.6175 27.6023 17.5259 27.276 17.3425 27.078C17.1592 26.8727 16.8585 26.77 16.4405 26.77C16.1839 26.77 15.9272 26.803 15.6705 26.869C15.4139 26.935 15.1425 27.0413 14.8565 27.188C14.7539 27.2393 14.6659 27.2577 14.5925 27.243C14.5192 27.221 14.4605 27.1807 14.4165 27.122C14.3725 27.0633 14.3469 26.9973 14.3395 26.924C14.3322 26.8433 14.3469 26.7663 14.3835 26.693C14.4275 26.6197 14.4935 26.561 14.5815 26.517C14.9042 26.3557 15.2232 26.2383 15.5385 26.165C15.8539 26.0917 16.1545 26.055 16.4405 26.055C16.9025 26.055 17.2839 26.132 17.5845 26.286C17.8852 26.4327 18.1089 26.66 18.2555 26.968C18.4022 27.2687 18.4755 27.6573 18.4755 28.134V31.115C18.4755 31.2617 18.4389 31.3753 18.3655 31.456C18.2995 31.5367 18.2005 31.577 18.0685 31.577C17.9292 31.577 17.8229 31.5367 17.7495 31.456C17.6762 31.3753 17.6395 31.2617 17.6395 31.115V30.257H17.7385C17.6799 30.5357 17.5662 30.774 17.3975 30.972C17.2362 31.17 17.0345 31.324 16.7925 31.434C16.5505 31.544 16.2792 31.599 15.9785 31.599ZM20.7995 31.577C20.6529 31.577 20.5392 31.5367 20.4585 31.456C20.3852 31.3753 20.3485 31.2617 20.3485 31.115V26.528C20.3485 26.3813 20.3852 26.2713 20.4585 26.198C20.5319 26.1173 20.6382 26.077 20.7775 26.077C20.9169 26.077 21.0232 26.1173 21.0965 26.198C21.1772 26.2713 21.2175 26.3813 21.2175 26.528V27.419H21.1075C21.2249 26.9863 21.4485 26.6527 21.7785 26.418C22.1085 26.1833 22.5155 26.0587 22.9995 26.044C23.1095 26.0367 23.1975 26.0623 23.2635 26.121C23.3295 26.1723 23.3662 26.264 23.3735 26.396C23.3809 26.5207 23.3515 26.6197 23.2855 26.693C23.2195 26.7663 23.1169 26.8103 22.9775 26.825L22.8015 26.847C22.3029 26.891 21.9179 27.0523 21.6465 27.331C21.3825 27.6023 21.2505 27.9763 21.2505 28.453V31.115C21.2505 31.2617 21.2102 31.3753 21.1295 31.456C21.0562 31.5367 20.9462 31.577 20.7995 31.577ZM26.8555 31.599C26.2908 31.599 25.8031 31.489 25.3925 31.269C24.9891 31.0417 24.6738 30.7227 24.4465 30.312C24.2265 29.9013 24.1165 29.41 24.1165 28.838C24.1165 28.2807 24.2265 27.7967 24.4465 27.386C24.6665 26.968 24.9671 26.6417 25.3485 26.407C25.7371 26.1723 26.1845 26.055 26.6905 26.055C27.0498 26.055 27.3725 26.1173 27.6585 26.242C27.9445 26.3593 28.1865 26.5317 28.3845 26.759C28.5898 26.9863 28.7438 27.2613 28.8465 27.584C28.9565 27.9067 29.0115 28.2697 29.0115 28.673C29.0115 28.7903 28.9785 28.8783 28.9125 28.937C28.8465 28.9883 28.7511 29.014 28.6265 29.014H24.7985V28.431H28.4175L28.2415 28.574C28.2415 28.178 28.1828 27.8443 28.0655 27.573C27.9481 27.2943 27.7758 27.0817 27.5485 26.935C27.3285 26.7883 27.0498 26.715 26.7125 26.715C26.3385 26.715 26.0195 26.803 25.7555 26.979C25.4988 27.1477 25.3045 27.386 25.1725 27.694C25.0405 27.9947 24.9745 28.3467 24.9745 28.75V28.816C24.9745 29.4907 25.1358 30.004 25.4585 30.356C25.7885 30.708 26.2541 30.884 26.8555 30.884C27.1048 30.884 27.3505 30.851 27.5925 30.785C27.8418 30.719 28.0838 30.609 28.3185 30.455C28.4211 30.389 28.5128 30.3597 28.5935 30.367C28.6815 30.367 28.7511 30.3927 28.8025 30.444C28.8538 30.488 28.8868 30.5467 28.9015 30.62C28.9235 30.686 28.9161 30.7593 28.8795 30.84C28.8501 30.9207 28.7878 30.9903 28.6925 31.049C28.4505 31.225 28.1645 31.3607 27.8345 31.456C27.5045 31.5513 27.1781 31.599 26.8555 31.599Z" fill="#BCBBBB"/>
</svg>
