<svg width="20" height="19" viewBox="0 0 20 19" fill="none" xmlns="http://www.w3.org/2000/svg">
<path d="M17.8977 2.75H4.08514L2.90497 0.634597C2.7725 0.397154 2.5219 0.25 2.25 0.25H0.75C0.335786 0.25 0 0.585786 0 1C0 1.41421 0.335786 1.75 0.75 1.75H1.8096L2.97429 3.83765L5.66037 9.78088L5.66312 9.78695L5.89971 10.3104L3.20287 13.187C3.00895 13.3939 2.94825 13.6924 3.04599 13.9585C3.14372 14.2247 3.38317 14.413 3.66486 14.4452L6.12299 14.7261C9.19767 15.0775 12.3024 15.0775 15.377 14.7261L17.8352 14.4452C18.2467 14.3981 18.5422 14.0264 18.4952 13.6148C18.4481 13.2033 18.0764 12.9078 17.6649 12.9549L15.2067 13.2358C12.2452 13.5742 9.25481 13.5742 6.29331 13.2358L5.31779 13.1243L7.29717 11.013C7.31632 10.9925 7.3341 10.9713 7.35052 10.9494L8.10334 11.0474C9.15826 11.1847 10.2246 11.2116 11.2851 11.1277C13.7586 10.9321 16.051 9.75509 17.6515 7.85907L18.2295 7.17425C18.249 7.15125 18.267 7.12711 18.2835 7.10194L19.3609 5.46009C20.1245 4.29633 19.2897 2.75 17.8977 2.75Z" fill="#797979"/>
<path d="M5.25 16C4.42157 16 3.75 16.6716 3.75 17.5C3.75 18.3284 4.42157 19 5.25 19C6.07843 19 6.75 18.3284 6.75 17.5C6.75 16.6716 6.07843 16 5.25 16Z" fill="#797979"/>
<path d="M14.75 17.5C14.75 16.6716 15.4216 16 16.25 16C17.0784 16 17.75 16.6716 17.75 17.5C17.75 18.3284 17.0784 19 16.25 19C15.4216 19 14.75 18.3284 14.75 17.5Z" fill="#797979"/>
</svg>
