<svg width="14" height="14" viewBox="0 0 14 14" fill="none" xmlns="http://www.w3.org/2000/svg">
<path d="M7.57666 0.997497C7.31974 0.554729 6.68034 0.554728 6.42342 0.997496L4.61405 4.1157C4.48713 4.33442 4.26777 4.48369 4.01772 4.52145L0.626849 5.0336C0.0573272 5.11962 -0.142446 5.83869 0.301091 6.20616L2.82715 8.29898C3.06098 8.4927 3.17093 8.79828 3.11413 9.09657L2.45335 12.5667C2.34889 13.1152 2.92475 13.5414 3.41885 13.2813L6.61179 11.6C6.85481 11.4721 7.14527 11.4721 7.38829 11.6L10.5812 13.2813C11.0753 13.5414 11.6512 13.1152 11.5467 12.5667L10.886 9.09657C10.8292 8.79828 10.9391 8.4927 11.1729 8.29898L13.699 6.20616C14.1425 5.8387 13.9428 5.11962 13.3732 5.0336L9.98236 4.52145C9.73231 4.48369 9.51295 4.33442 9.38603 4.1157L7.57666 0.997497Z" fill="#FFC01F"/>
</svg>
