<svg width="325" height="334" viewBox="0 0 325 334" fill="none" xmlns="http://www.w3.org/2000/svg">
<g clip-path="url(#clip0_31_2138)">
<path d="M281.248 231.306C285.093 232.115 288.756 229.028 289.43 224.406C290.147 225.635 290.864 226.866 291.581 228.098C290.908 232.719 287.243 235.807 283.402 234.998C282.685 233.766 281.967 232.535 281.248 231.306Z" fill="#FFBA49"/>
<path d="M167.707 330.178C171.551 330.987 175.214 327.9 175.888 323.279C176.605 324.508 177.322 325.738 178.039 326.97C177.367 331.591 173.701 334.68 169.861 333.871C169.144 332.639 168.426 331.408 167.707 330.178Z" fill="#9B9B9B"/>
<path d="M289.835 153.936C291.447 158.207 295.632 160.105 299.188 158.167C298.748 159.575 298.307 160.982 297.865 162.388C294.309 164.323 290.124 162.428 288.513 158.155C288.956 156.75 289.397 155.344 289.835 153.936Z" fill="#FF5C00"/>
<path d="M264.955 123.595C265.604 118.968 263.011 114.586 259.162 113.807C260.18 112.935 261.199 112.063 262.219 111.191C266.065 111.971 268.659 116.354 268.012 120.98C266.994 121.852 265.975 122.724 264.955 123.595Z" fill="#021193"/>
<path d="M33.9183 104.92C34.5672 100.293 31.9744 95.911 28.125 95.1315C29.1429 94.2595 30.1618 93.3878 31.1817 92.5164C35.0281 93.2957 37.6223 97.6791 36.975 102.305C35.9571 103.177 34.9382 104.049 33.9183 104.92Z" fill="#FF5C00"/>
<path d="M112.647 268.886C113.296 264.257 110.704 259.876 106.854 259.096C107.872 258.224 108.891 257.353 109.911 256.481C113.757 257.26 116.351 261.644 115.704 266.27C114.686 267.141 113.667 268.013 112.647 268.886Z" fill="#FF5C00"/>
<path d="M314.581 95.4787C318.401 96.4461 322.146 93.5085 322.951 88.9148C323.634 90.1734 324.317 91.4329 325 92.6934C324.197 97.2825 320.448 100.222 316.632 99.2573C315.947 97.9987 315.264 96.7392 314.581 95.4787Z" fill="#FFBA49"/>
<path d="M9.09498 152.325C7.72602 147.93 3.65523 145.701 0 147.349C0.517059 145.983 1.03488 144.614 1.55346 143.244C5.20566 141.598 9.27872 143.825 10.6484 148.218C10.1314 149.587 9.61358 150.955 9.09498 152.325Z" fill="#FFBA49"/>
<path d="M103.959 205.856C104.229 210.536 107.604 214.067 111.497 213.741C110.676 214.878 109.853 216.009 109.034 217.146C105.14 217.468 101.767 213.935 101.497 209.255C102.318 208.124 103.139 206.991 103.959 205.856Z" fill="#DB3022"/>
<path d="M76.4509 120.825C80.3166 120.18 83.0146 115.888 82.4768 111.241C83.4754 112.148 84.4725 113.055 85.4682 113.96C86.0046 118.61 83.3081 122.899 79.4424 123.546C78.4466 122.639 77.4495 121.732 76.4509 120.825Z" fill="#021193"/>
<path d="M234.081 63.8294C229.068 63.996 232.672 72.8599 227.658 73.0301C226.701 72.0636 225.743 71.0971 224.785 70.1306C229.799 69.9631 226.195 61.0992 231.208 60.9292C232.166 61.8957 233.124 62.8624 234.081 63.8294Z" fill="#FF5C00"/>
<path d="M243.19 296.802C238.311 295.412 239.892 305.093 235.011 303.705C234.293 302.474 233.575 301.243 232.857 300.012C237.738 301.402 236.155 291.721 241.037 293.111C241.754 294.342 242.472 295.572 243.19 296.802Z" fill="#FFBA49"/>
<path d="M98.0947 309.404C94.6485 313.787 102.409 316.997 98.9629 321.376C97.7184 321.504 96.4723 321.638 95.2278 321.764C98.6741 317.385 90.9132 314.179 94.3595 309.796C95.6055 309.668 96.8506 309.537 98.0947 309.404Z" fill="#021193"/>
<path d="M209.727 6.82851C204.82 8.08174 209.69 16.0238 204.786 17.2744C203.701 16.5297 202.611 15.7878 201.526 15.0413C206.432 13.7915 201.559 5.85226 206.466 4.59897C207.554 5.34543 208.641 6.08861 209.727 6.82851Z" fill="#DB3022"/>
<path d="M52.256 32.9356C54.6696 38.223 59.5892 30.3256 61.9992 35.6114C61.7192 37.0748 61.4428 38.5437 61.1614 40.008C58.7515 34.7206 53.8347 42.6205 51.4211 37.3331C51.7019 35.8652 51.9802 34.3993 52.256 32.9356Z" fill="#9B9B9B"/>
<path d="M10.6484 240.83C11.2958 240.712 11.8815 240.37 12.3033 239.863C12.7251 239.356 12.9561 238.716 12.9561 238.055C12.9561 237.394 12.7251 236.755 12.3033 236.247C11.8815 235.74 11.2958 235.398 10.6484 235.28" fill="url(#paint0_linear_31_2138)"/>
<path d="M272.575 26.4468C270.466 26.4468 268.75 24.3838 268.75 21.8478C268.75 19.3118 270.466 17.2488 272.575 17.2488C274.684 17.2488 276.4 19.3118 276.4 21.8478C276.4 24.3838 274.684 26.4468 272.575 26.4468ZM272.575 19.0731C271.905 19.1396 271.288 19.4676 270.856 19.9865C270.425 20.5055 270.213 21.1738 270.267 21.8478C270.206 22.1871 270.22 22.5358 270.308 22.8692C270.395 23.2025 270.555 23.5125 270.775 23.7772C270.995 24.0418 271.27 24.2547 271.581 24.4008C271.892 24.5469 272.232 24.6226 272.575 24.6226C272.918 24.6226 273.257 24.5469 273.568 24.4008C273.879 24.2547 274.155 24.0418 274.375 23.7772C274.595 23.5125 274.754 23.2025 274.842 22.8692C274.93 22.5358 274.944 22.1871 274.882 21.8478C274.937 21.1738 274.725 20.5055 274.294 19.9866C273.862 19.4676 273.245 19.1396 272.575 19.0731Z" fill="url(#paint1_linear_31_2138)"/>
<path d="M49.9178 200.687C47.8088 200.687 46.093 198.624 46.093 196.088C46.093 193.552 47.8088 191.489 49.9178 191.489C52.0269 191.489 53.7427 193.552 53.7427 196.088C53.7427 198.624 52.0269 200.687 49.9178 200.687ZM49.9178 193.314C49.2705 193.431 48.6848 193.773 48.263 194.281C47.8412 194.788 47.6102 195.427 47.6102 196.088C47.6102 196.749 47.8412 197.389 48.263 197.896C48.6848 198.403 49.2705 198.745 49.9178 198.863C50.5652 198.745 51.1509 198.403 51.5727 197.896C51.9945 197.389 52.2255 196.749 52.2255 196.088C52.2255 195.427 51.9945 194.788 51.5727 194.281C51.1509 193.773 50.5652 193.431 49.9178 193.314Z" fill="url(#paint2_linear_31_2138)"/>
<g clip-path="url(#clip1_31_2138)">
<path d="M121.307 169.318C120.441 167.018 117.866 165.865 115.573 166.738L105.88 170.44C103.635 171.3 102.482 173.783 103.275 176.052L103.306 176.144" fill="#74697C"/>
<g opacity="0.55">
<path d="M121.301 169.318L120.959 169.446C119.764 168.159 117.86 167.653 116.116 168.318L106.423 172.02C104.697 172.679 103.617 174.302 103.568 176.04L103.294 176.144L103.263 176.052C102.47 173.783 103.629 171.3 105.868 170.44L115.561 166.738C117.86 165.865 120.435 167.018 121.301 169.318Z" fill="white"/>
</g>
<path d="M209.403 169.318C210.269 167.018 212.843 165.865 215.137 166.738L224.83 170.44C227.075 171.3 228.228 173.783 227.435 176.052L227.404 176.144" fill="#74697C"/>
<g opacity="0.55">
<path d="M227.441 176.052L227.41 176.144L227.056 176.01C226.965 174.308 225.891 172.746 224.208 172.1L214.515 168.397C212.807 167.744 210.946 168.22 209.751 169.446L209.409 169.318C210.275 167.018 212.843 165.865 215.143 166.738L224.836 170.44C227.081 171.3 228.234 173.789 227.441 176.052Z" fill="white"/>
</g>
<path d="M168.789 180.969H193.183C194.562 180.969 195.855 180.292 196.636 179.151L200.967 172.844C203.175 169.623 207.311 168.348 210.952 169.757L226.928 175.949C229.466 176.931 231.369 179.078 232.046 181.713L247.919 243.604C248.309 245.123 248.48 246.696 248.388 248.264C247.949 255.395 244.997 259.543 238.433 259.403C234.669 259.324 231.089 257.756 228.362 255.157L209.873 237.577C207.207 235.046 203.675 233.63 199.997 233.63H168.795H161.927H130.725C127.047 233.63 123.515 235.046 120.849 237.577L102.354 255.145C99.6275 257.738 96.0468 259.311 92.2831 259.391C85.7195 259.531 82.7671 255.383 82.3279 248.252C82.2303 246.684 82.4072 245.111 82.7976 243.592L98.6698 181.701C99.3469 179.066 101.25 176.919 103.788 175.937L119.764 169.745C123.405 168.336 127.541 169.611 129.749 172.832L134.08 179.139C134.861 180.274 136.154 180.957 137.533 180.957H161.927H168.789V180.969Z" fill="#74697C"/>
<g opacity="0.1">
<path d="M181.337 211.975H147.372C145.597 211.975 144.157 210.536 144.157 208.761V203.045C144.157 201.27 145.597 199.83 147.372 199.83H181.337C183.112 199.83 184.552 201.27 184.552 203.045V208.761C184.558 210.536 183.118 211.975 181.337 211.975Z" fill="white"/>
</g>
<g opacity="0.3">
<path d="M248.382 248.258C247.943 255.389 244.99 259.531 238.427 259.397C234.663 259.317 231.082 257.75 228.35 255.157L209.861 237.577C207.195 235.045 203.663 233.63 199.985 233.63H130.713C127.041 233.63 123.503 235.039 120.837 237.577L102.348 255.157C99.6214 257.75 96.0407 259.317 92.277 259.397C85.7134 259.537 82.761 255.389 82.3218 248.258C82.2242 246.69 82.4011 245.117 82.7915 243.598L83.1087 242.372C84.4141 246.611 87.3177 248.96 92.2831 248.856C96.0468 248.777 99.6275 247.203 102.354 244.61L120.843 227.036C123.509 224.505 127.047 223.09 130.719 223.09H199.997C203.675 223.09 207.207 224.505 209.873 227.036L228.362 244.61C231.095 247.203 234.669 248.777 238.439 248.856C243.405 248.96 246.302 246.617 247.613 242.378L247.925 243.604C248.303 245.117 248.48 246.684 248.382 248.258Z" fill="#232323"/>
</g>
<g opacity="0.55">
<path d="M248.382 248.258C248.37 248.441 248.358 248.624 248.345 248.795C248.272 247.965 248.12 247.136 247.912 246.331L232.046 184.446C231.369 181.811 229.466 179.67 226.928 178.682L210.952 172.49C207.311 171.081 203.175 172.356 200.967 175.577L196.636 181.884C195.855 183.025 194.562 183.702 193.183 183.702H137.527C136.148 183.702 134.855 183.025 134.074 181.884L129.743 175.577C127.535 172.356 123.399 171.081 119.757 172.49L103.782 178.682C101.25 179.664 99.3408 181.811 98.6637 184.446L82.7915 246.331C82.5841 247.136 82.4377 247.965 82.3645 248.795C82.3523 248.618 82.3401 248.441 82.3279 248.258C82.2303 246.69 82.4072 245.117 82.7976 243.598L98.6637 181.701C99.3408 179.066 101.244 176.925 103.782 175.943L119.757 169.751C123.399 168.342 127.535 169.617 129.743 172.838L134.074 179.145C134.855 180.28 136.148 180.963 137.527 180.963H193.183C194.562 180.963 195.855 180.286 196.636 179.145L200.967 172.838C203.175 169.617 207.311 168.342 210.952 169.751L226.928 175.943C229.466 176.925 231.369 179.072 232.046 181.701L247.912 243.592C248.303 245.117 248.48 246.684 248.382 248.258Z" fill="white"/>
</g>
<g opacity="0.3">
<path d="M211.788 189.649C214.099 189.649 215.973 187.776 215.973 185.465C215.973 183.154 214.099 181.28 211.788 181.28C209.477 181.28 207.604 183.154 207.604 185.465C207.604 187.776 209.477 189.649 211.788 189.649Z" fill="#232323"/>
</g>
<g opacity="0.3">
<path d="M211.788 206.772C214.099 206.772 215.973 204.898 215.973 202.587C215.973 200.276 214.099 198.403 211.788 198.403C209.477 198.403 207.604 200.276 207.604 202.587C207.604 204.898 209.477 206.772 211.788 206.772Z" fill="#232323"/>
</g>
<g opacity="0.3">
<path d="M203.23 198.214C205.541 198.214 207.415 196.34 207.415 194.029C207.415 191.718 205.541 189.845 203.23 189.845C200.919 189.845 199.045 191.718 199.045 194.029C199.045 196.34 200.919 198.214 203.23 198.214Z" fill="#232323"/>
</g>
<g opacity="0.3">
<path d="M220.353 198.214C222.664 198.214 224.537 196.34 224.537 194.029C224.537 191.718 222.664 189.845 220.353 189.845C218.041 189.845 216.168 191.718 216.168 194.029C216.168 196.34 218.041 198.214 220.353 198.214Z" fill="#232323"/>
</g>
<path d="M238.75 260.342C238.634 260.342 238.525 260.342 238.409 260.336C234.474 260.251 230.668 258.653 227.703 255.834L209.214 238.254C206.713 235.875 203.437 234.57 199.991 234.57H130.719C127.273 234.57 123.997 235.881 121.496 238.254L103.007 255.834C100.042 258.653 96.236 260.257 92.3015 260.336C92.1856 260.336 92.0697 260.342 91.9599 260.342C85.4329 260.342 81.8705 256.298 81.3825 248.313C81.2849 246.697 81.4496 245.025 81.8766 243.36L97.7427 181.469C98.493 178.547 100.622 176.15 103.434 175.058L119.41 168.867C123.479 167.293 128.047 168.702 130.518 172.301L134.849 178.608C135.453 179.487 136.453 180.017 137.521 180.017H193.177C194.245 180.017 195.245 179.493 195.849 178.608L200.18 172.301C202.65 168.702 207.219 167.287 211.288 168.867L227.264 175.058C230.076 176.15 232.205 178.541 232.955 181.469L248.821 243.36C249.248 245.031 249.419 246.697 249.315 248.313C248.84 256.298 245.277 260.342 238.75 260.342ZM130.719 232.679H199.997C203.931 232.679 207.671 234.173 210.526 236.888L229.015 254.468C231.638 256.963 234.993 258.378 238.457 258.451C238.561 258.451 238.659 258.457 238.762 258.457C244.259 258.457 247.022 255.194 247.449 248.203C247.534 246.782 247.388 245.312 247.01 243.836L231.144 181.945C230.546 179.615 228.85 177.699 226.605 176.833L210.629 170.642C207.384 169.385 203.736 170.508 201.766 173.381L197.435 179.688C196.477 181.085 194.897 181.915 193.202 181.915H137.545C135.855 181.915 134.269 181.079 133.312 179.688L128.981 173.381C127.01 170.508 123.363 169.385 120.117 170.642L104.142 176.833C101.897 177.706 100.201 179.615 99.6032 181.945L83.7127 243.83C83.3345 245.306 83.1881 246.776 83.2735 248.197C83.7127 255.31 86.5736 258.573 92.2649 258.445C95.7297 258.372 99.0786 256.957 101.708 254.462L120.197 236.882C123.039 234.173 126.779 232.679 130.719 232.679Z" fill="#232323"/>
<path d="M103.3 177.096C102.909 177.096 102.543 176.852 102.409 176.461L102.379 176.37C101.409 173.6 102.799 170.605 105.538 169.562L115.231 165.859C116.579 165.347 118.043 165.39 119.361 165.981C120.679 166.573 121.679 167.641 122.191 168.989C122.374 169.477 122.13 170.026 121.642 170.209C121.154 170.392 120.605 170.148 120.422 169.66C120.093 168.787 119.44 168.092 118.586 167.708C117.732 167.323 116.781 167.299 115.908 167.628L106.215 171.331C104.44 172.008 103.538 173.948 104.166 175.747L104.196 175.839C104.367 176.333 104.111 176.87 103.617 177.047C103.513 177.077 103.403 177.096 103.3 177.096Z" fill="#232323"/>
<path d="M155.711 193.328H148.58C147.824 193.328 147.214 192.718 147.214 191.961V190.07C147.214 189.314 147.824 188.704 148.58 188.704H155.711C156.467 188.704 157.077 189.314 157.077 190.07V191.961C157.077 192.718 156.467 193.328 155.711 193.328Z" fill="#232323"/>
<path d="M227.41 177.096C227.307 177.096 227.203 177.077 227.099 177.041C226.605 176.87 226.349 176.327 226.52 175.833L226.55 175.741C227.178 173.948 226.276 172.008 224.501 171.325L214.808 167.622C213.935 167.287 212.984 167.317 212.13 167.702C211.276 168.086 210.623 168.775 210.294 169.654C210.111 170.142 209.562 170.392 209.074 170.203C208.586 170.02 208.336 169.471 208.525 168.983C209.037 167.634 210.037 166.567 211.355 165.975C212.673 165.384 214.137 165.341 215.485 165.853L225.178 169.556C227.923 170.605 229.307 173.594 228.337 176.364L228.307 176.455C228.167 176.852 227.801 177.096 227.41 177.096Z" fill="#232323"/>
<path d="M173.053 193.328H181.99C182.819 193.328 183.497 192.657 183.497 191.821V190.204C183.497 189.375 182.826 188.698 181.99 188.698H173.053C172.224 188.698 171.547 189.369 171.547 190.204V191.821C171.547 192.657 172.218 193.328 173.053 193.328Z" fill="#232323"/>
<path d="M135.782 225.755C143.073 225.755 148.983 219.845 148.983 212.555C148.983 205.264 143.073 199.354 135.782 199.354C128.492 199.354 122.582 205.264 122.582 212.555C122.582 219.845 128.492 225.755 135.782 225.755Z" fill="#665E6D"/>
<g opacity="0.55">
<path d="M150.001 214.287C150.001 221.577 144.091 227.482 136.807 227.482C131.598 227.482 127.096 224.468 124.949 220.094C127.334 223.51 131.299 225.749 135.782 225.749C143.072 225.749 148.977 219.838 148.977 212.555C148.977 210.463 148.489 208.492 147.629 206.735C149.129 208.876 150.001 211.481 150.001 214.287Z" fill="white"/>
</g>
<g opacity="0.3">
<path d="M148.763 210.151C146.561 205.924 142.138 203.033 137.045 203.033C129.755 203.033 123.844 208.944 123.844 216.227C123.844 217.051 123.918 217.85 124.064 218.63C123.119 216.813 122.582 214.745 122.582 212.549C122.582 205.259 128.493 199.348 135.782 199.348C142.248 199.354 147.628 204.009 148.763 210.151Z" fill="#232323"/>
</g>
<path d="M135.782 226.701C127.98 226.701 121.636 220.357 121.636 212.555C121.636 204.753 127.98 198.409 135.782 198.409C143.584 198.409 149.928 204.753 149.928 212.555C149.928 220.357 143.578 226.701 135.782 226.701ZM135.782 200.306C129.03 200.306 123.534 205.802 123.534 212.555C123.534 219.308 129.03 224.804 135.782 224.804C142.535 224.804 148.031 219.308 148.031 212.555C148.031 205.802 142.535 200.306 135.782 200.306Z" fill="#232323"/>
<path d="M127.364 189.851C127.364 195.78 122.558 200.587 116.628 200.587C110.699 200.587 105.892 195.78 105.892 189.851C105.892 189.674 105.898 189.497 105.905 189.32C106.185 183.635 110.876 179.109 116.628 179.109C121.533 179.109 125.662 182.396 126.95 186.88C127.218 187.825 127.364 188.82 127.364 189.851Z" fill="#665E6D"/>
<g opacity="0.3">
<path d="M128.413 193.065C128.413 198.995 123.607 203.801 117.677 203.801C112.322 203.801 107.881 199.879 107.07 194.755C108.851 198.22 112.462 200.587 116.622 200.587C122.551 200.587 127.358 195.78 127.358 189.851C127.358 189.277 127.315 188.716 127.224 188.167C127.541 188.777 127.797 189.424 127.993 190.101C128.267 191.04 128.413 192.041 128.413 193.065Z" fill="#232323"/>
</g>
<g opacity="0.55">
<path d="M126.95 186.88C125.089 183.696 121.63 181.567 117.678 181.567C111.748 181.567 106.942 186.374 106.942 192.303C106.942 192.748 106.972 193.193 107.021 193.627C106.362 192.321 105.972 190.863 105.898 189.32C106.179 183.635 110.87 179.109 116.622 179.109C121.527 179.109 125.662 182.396 126.95 186.88Z" fill="white"/>
</g>
<g opacity="0.3">
<path d="M127.364 189.851C127.364 195.78 122.558 200.587 116.628 200.587C111.09 200.587 106.539 196.396 105.953 191.022C107.814 194.212 111.279 196.353 115.238 196.353C121.167 196.353 125.974 191.546 125.974 185.617C125.974 185.221 125.949 184.83 125.913 184.452C126.834 186.032 127.364 187.88 127.364 189.851Z" fill="#232323"/>
</g>
<path d="M116.628 201.532C110.187 201.532 104.941 196.292 104.941 189.845C104.941 183.397 110.181 178.157 116.628 178.157C123.076 178.157 128.316 183.397 128.316 189.845C128.316 196.292 123.07 201.532 116.628 201.532ZM116.628 180.06C111.23 180.06 106.838 184.452 106.838 189.851C106.838 195.249 111.23 199.641 116.628 199.641C122.027 199.641 126.419 195.249 126.419 189.851C126.419 184.452 122.027 180.06 116.628 180.06Z" fill="#232323"/>
<path d="M116.628 196.353C120.22 196.353 123.131 193.442 123.131 189.851C123.131 186.259 120.22 183.348 116.628 183.348C113.037 183.348 110.126 186.259 110.126 189.851C110.126 193.442 113.037 196.353 116.628 196.353Z" fill="#74697C"/>
<g opacity="0.3">
<path d="M123.131 189.851C123.131 193.444 120.215 196.353 116.628 196.353C113.182 196.353 110.364 193.675 110.138 190.284C111.279 192.144 113.334 193.383 115.683 193.383C119.276 193.383 122.185 190.473 122.185 186.88C122.185 186.734 122.179 186.587 122.167 186.441C122.777 187.435 123.131 188.6 123.131 189.851Z" fill="#232323"/>
</g>
<g opacity="0.55">
<path d="M123.113 189.399C122.106 187.106 119.819 185.501 117.153 185.501C113.56 185.501 110.65 188.417 110.65 192.004C110.65 192.156 110.656 192.309 110.669 192.455C110.321 191.656 110.12 190.778 110.12 189.851C110.12 186.258 113.035 183.348 116.622 183.348C120.069 183.348 122.887 186.014 123.113 189.399Z" fill="white"/>
</g>
<path d="M116.628 197.146C112.608 197.146 109.333 193.877 109.333 189.851C109.333 185.831 112.602 182.555 116.628 182.555C120.654 182.555 123.924 185.825 123.924 189.851C123.918 193.871 120.648 197.146 116.628 197.146ZM116.628 184.135C113.475 184.135 110.913 186.697 110.913 189.851C110.913 193.004 113.475 195.566 116.628 195.566C119.782 195.566 122.344 193.004 122.344 189.851C122.344 186.697 119.776 184.135 116.628 184.135Z" fill="#232323"/>
<path d="M198.332 214.684C198.332 220.613 193.525 225.42 187.596 225.42C181.666 225.42 176.86 220.613 176.86 214.684C176.86 214.507 176.866 214.33 176.872 214.153C177.152 208.468 181.843 203.942 187.596 203.942C192.5 203.942 196.63 207.229 197.917 211.713C198.185 212.658 198.332 213.653 198.332 214.684Z" fill="#665E6D"/>
<g opacity="0.3">
<path d="M199.381 217.898C199.381 223.828 194.574 228.634 188.645 228.634C183.289 228.634 178.848 224.712 178.037 219.588C179.818 223.053 183.429 225.42 187.589 225.42C193.519 225.42 198.325 220.613 198.325 214.684C198.325 214.11 198.283 213.549 198.191 213C198.508 213.61 198.765 214.257 198.96 214.934C199.234 215.873 199.381 216.874 199.381 217.898Z" fill="#232323"/>
</g>
<g opacity="0.55">
<path d="M197.911 211.713C196.05 208.529 192.592 206.4 188.639 206.4C182.71 206.4 177.903 211.207 177.903 217.136C177.903 217.581 177.933 218.027 177.982 218.46C177.323 217.154 176.933 215.696 176.86 214.153C177.14 208.468 181.831 203.942 187.583 203.942C192.494 203.942 196.624 207.229 197.911 211.713Z" fill="white"/>
</g>
<g opacity="0.3">
<path d="M198.332 214.684C198.332 220.613 193.525 225.42 187.596 225.42C182.057 225.42 177.506 221.229 176.921 215.855C178.781 219.045 182.246 221.186 186.205 221.186C192.134 221.186 196.941 216.38 196.941 210.45C196.941 210.054 196.916 209.663 196.88 209.285C197.801 210.871 198.332 212.713 198.332 214.684Z" fill="#232323"/>
</g>
<path d="M187.589 226.371C181.148 226.371 175.902 221.131 175.902 214.684C175.902 208.242 181.142 202.996 187.589 202.996C194.031 202.996 199.277 208.236 199.277 214.684C199.277 221.125 194.037 226.371 187.589 226.371ZM187.589 204.893C182.191 204.893 177.799 209.285 177.799 214.684C177.799 220.082 182.191 224.474 187.589 224.474C192.988 224.474 197.38 220.082 197.38 214.684C197.386 209.285 192.994 204.893 187.589 204.893Z" fill="#232323"/>
<path d="M187.59 221.186C191.181 221.186 194.092 218.275 194.092 214.684C194.092 211.092 191.181 208.181 187.59 208.181C183.998 208.181 181.087 211.092 181.087 214.684C181.087 218.275 183.998 221.186 187.59 221.186Z" fill="#74697C"/>
<g opacity="0.3">
<path d="M194.098 214.684C194.098 218.277 191.182 221.186 187.596 221.186C184.149 221.186 181.331 218.508 181.105 215.117C182.246 216.977 184.302 218.216 186.65 218.216C190.243 218.216 193.153 215.306 193.153 211.713C193.153 211.567 193.147 211.42 193.134 211.274C193.744 212.268 194.098 213.433 194.098 214.684Z" fill="#232323"/>
</g>
<g opacity="0.55">
<path d="M194.08 214.232C193.073 211.939 190.786 210.334 188.12 210.334C184.527 210.334 181.618 213.25 181.618 216.837C181.618 216.99 181.624 217.142 181.636 217.288C181.288 216.489 181.087 215.611 181.087 214.684C181.087 211.091 184.003 208.181 187.59 208.181C191.03 208.181 193.848 210.847 194.08 214.232Z" fill="white"/>
</g>
<path d="M187.59 221.979C183.57 221.979 180.294 218.71 180.294 214.684C180.294 210.658 183.564 207.388 187.59 207.388C191.609 207.388 194.885 210.658 194.885 214.684C194.885 218.71 191.616 221.979 187.59 221.979ZM187.59 208.968C184.436 208.968 181.874 211.53 181.874 214.684C181.874 217.837 184.436 220.399 187.59 220.399C190.743 220.399 193.305 217.837 193.305 214.684C193.305 211.53 190.743 208.968 187.59 208.968Z" fill="#232323"/>
<path d="M139.113 204.375V209.877L135.831 213.086L132.616 209.798V204.375H139.113Z" fill="#74697C"/>
<g opacity="0.55">
<path d="M139.113 204.375H132.616V205.9H139.113V204.375Z" fill="white"/>
</g>
<path d="M139.034 216.367V221.815H132.543V216.288L135.831 213.086L139.034 216.367Z" fill="#74697C"/>
<g opacity="0.55">
<path d="M139.076 216.172V221.619H138.96V218.539L135.752 215.257L132.58 218.35V216.093L135.868 212.884L139.076 216.172Z" fill="white"/>
</g>
<path d="M135.831 213.086L132.543 216.288H127.096V209.798H132.616L135.831 213.086Z" fill="#74697C"/>
<g opacity="0.55">
<path d="M135.831 213.086L134.794 214.092L132.067 211.292H127.096V209.798H132.616L135.831 213.086Z" fill="white"/>
</g>
<path d="M135.831 213.085L139.119 209.877H144.56V216.373H139.04L135.831 213.085Z" fill="#74697C"/>
<g opacity="0.55">
<path d="M144.56 209.877V211.432H139.564L136.825 214.104L135.831 213.085L139.119 209.877H144.56Z" fill="white"/>
</g>
<path d="M135.831 213.872C135.831 213.872 135.825 213.872 135.819 213.872C135.612 213.872 135.41 213.787 135.264 213.635L132.055 210.347C131.909 210.2 131.83 209.999 131.83 209.798V204.381C131.83 203.948 132.183 203.594 132.616 203.594H139.113C139.546 203.594 139.9 203.948 139.9 204.381V209.877C139.9 210.09 139.814 210.292 139.662 210.444L136.374 213.653C136.234 213.793 136.032 213.872 135.831 213.872ZM133.409 209.474L135.843 211.969L138.326 209.541V205.162H133.409V209.474Z" fill="#232323"/>
<path d="M139.034 222.602H132.537C132.104 222.602 131.75 222.248 131.75 221.815V216.288C131.75 216.075 131.836 215.873 131.988 215.721L135.276 212.512C135.587 212.207 136.087 212.213 136.392 212.524L139.601 215.812C139.747 215.959 139.827 216.16 139.827 216.361V221.809C139.827 222.248 139.473 222.602 139.034 222.602ZM133.33 221.028H138.247V216.691L135.813 214.202L133.324 216.624V221.028H133.33Z" fill="#232323"/>
<path d="M132.543 217.081H127.096C126.663 217.081 126.309 216.727 126.309 216.294V209.798C126.309 209.365 126.663 209.011 127.096 209.011H132.623C132.836 209.011 133.037 209.096 133.19 209.249L136.398 212.536C136.545 212.689 136.624 212.89 136.624 213.098C136.624 213.305 136.539 213.506 136.386 213.653L133.098 216.861C132.946 217.002 132.745 217.081 132.543 217.081ZM127.883 215.501H132.22L134.715 213.067L132.287 210.578H127.883V215.501Z" fill="#232323"/>
<path d="M144.56 217.16H139.034C138.82 217.16 138.619 217.075 138.466 216.922L135.258 213.634C135.111 213.482 135.032 213.281 135.032 213.073C135.032 212.866 135.117 212.665 135.27 212.518L138.558 209.31C138.704 209.163 138.905 209.084 139.107 209.084H144.554C144.987 209.084 145.341 209.438 145.341 209.871V216.367C145.353 216.807 144.999 217.16 144.56 217.16ZM139.369 215.586H143.773V210.67H139.436L136.941 213.104L139.369 215.586Z" fill="#232323"/>
<path d="M211.788 186.624C214.099 186.624 215.973 184.75 215.973 182.439C215.973 180.128 214.099 178.255 211.788 178.255C209.477 178.255 207.604 180.128 207.604 182.439C207.604 184.75 209.477 186.624 211.788 186.624Z" fill="#41E049"/>
<path d="M211.788 187.411C209.049 187.411 206.817 185.178 206.817 182.439C206.817 179.7 209.049 177.468 211.788 177.468C214.527 177.468 216.76 179.7 216.76 182.439C216.76 185.178 214.533 187.411 211.788 187.411ZM211.788 179.047C209.915 179.047 208.397 180.573 208.397 182.439C208.397 184.312 209.922 185.831 211.788 185.831C213.661 185.831 215.18 184.306 215.18 182.439C215.18 180.566 213.661 179.047 211.788 179.047Z" fill="#232323"/>
<path d="M211.788 203.746C214.099 203.746 215.973 201.873 215.973 199.562C215.973 197.251 214.099 195.377 211.788 195.377C209.477 195.377 207.604 197.251 207.604 199.562C207.604 201.873 209.477 203.746 211.788 203.746Z" fill="#7D7AF4"/>
<path d="M211.788 204.533C209.049 204.533 206.817 202.301 206.817 199.562C206.817 196.823 209.049 194.59 211.788 194.59C214.527 194.59 216.76 196.823 216.76 199.562C216.76 202.307 214.533 204.533 211.788 204.533ZM211.788 196.17C209.915 196.17 208.397 197.695 208.397 199.562C208.397 201.435 209.922 202.953 211.788 202.953C213.661 202.953 215.18 201.428 215.18 199.562C215.18 197.695 213.661 196.17 211.788 196.17Z" fill="#232323"/>
<path d="M203.23 195.188C205.541 195.188 207.415 193.315 207.415 191.004C207.415 188.692 205.541 186.819 203.23 186.819C200.919 186.819 199.045 188.692 199.045 191.004C199.045 193.315 200.919 195.188 203.23 195.188Z" fill="#E8C534"/>
<path d="M203.23 195.975C200.491 195.975 198.259 193.742 198.259 191.004C198.259 188.265 200.491 186.032 203.23 186.032C205.969 186.032 208.202 188.265 208.202 191.004C208.202 193.742 205.969 195.975 203.23 195.975ZM203.23 187.606C201.357 187.606 199.838 189.131 199.838 190.997C199.838 192.87 201.363 194.389 203.23 194.389C205.097 194.389 206.622 192.864 206.622 190.997C206.622 189.131 205.097 187.606 203.23 187.606Z" fill="#232323"/>
<path d="M220.353 195.188C222.664 195.188 224.537 193.315 224.537 191.004C224.537 188.692 222.664 186.819 220.353 186.819C218.041 186.819 216.168 188.692 216.168 191.004C216.168 193.315 218.041 195.188 220.353 195.188Z" fill="#F4375B"/>
<path d="M220.353 195.975C217.614 195.975 215.381 193.742 215.381 191.004C215.381 188.265 217.614 186.032 220.353 186.032C223.092 186.032 225.324 188.265 225.324 191.004C225.324 193.742 223.092 195.975 220.353 195.975ZM220.353 187.606C218.48 187.606 216.961 189.131 216.961 190.997C216.961 192.87 218.486 194.389 220.353 194.389C222.225 194.389 223.744 192.864 223.744 190.997C223.744 189.131 222.225 187.606 220.353 187.606Z" fill="#232323"/>
<g opacity="0.55">
<path d="M203.2 191.461C204.237 191.461 205.078 190.836 205.078 190.064C205.078 189.293 204.237 188.667 203.2 188.667C202.162 188.667 201.321 189.293 201.321 190.064C201.321 190.836 202.162 191.461 203.2 191.461Z" fill="white"/>
</g>
<g opacity="0.55">
<path d="M211.788 182.677C212.826 182.677 213.667 182.052 213.667 181.28C213.667 180.509 212.826 179.883 211.788 179.883C210.751 179.883 209.909 180.509 209.909 181.28C209.909 182.052 210.751 182.677 211.788 182.677Z" fill="white"/>
</g>
<g opacity="0.55">
<path d="M220.353 191.199C221.39 191.199 222.231 190.573 222.231 189.802C222.231 189.03 221.39 188.405 220.353 188.405C219.315 188.405 218.474 189.03 218.474 189.802C218.474 190.573 219.315 191.199 220.353 191.199Z" fill="white"/>
</g>
<g opacity="0.55">
<path d="M211.788 199.568C212.826 199.568 213.667 198.942 213.667 198.171C213.667 197.4 212.826 196.774 211.788 196.774C210.751 196.774 209.909 197.4 209.909 198.171C209.909 198.942 210.751 199.568 211.788 199.568Z" fill="white"/>
</g>
<g opacity="0.1">
<path d="M225.849 205.088L220.859 208.181C219.243 209.182 218.663 211.256 219.517 212.951L230.735 235.137C231.321 236.29 232.461 237.046 233.748 237.138L235.383 237.254C237.951 237.431 239.903 234.972 239.141 232.514L231.278 207.12C230.57 204.826 227.886 203.82 225.849 205.088Z" fill="white"/>
</g>
<g opacity="0.1">
<path d="M105.435 205.088L110.425 208.181C112.041 209.182 112.621 211.256 111.767 212.951L100.543 235.137C99.9569 236.29 98.8162 237.046 97.5291 237.138L95.8943 237.254C93.3262 237.431 91.3742 234.972 92.1367 232.514L99.9996 207.12C100.713 204.826 103.397 203.82 105.435 205.088Z" fill="white"/>
</g>
<path d="M222.982 113.784C222.402 116.51 220.621 118.828 218.218 120.231L187.285 138.367L178.861 135.945L174.713 134.755L170.418 133.517L186.065 120.811L192.921 117.413L208.903 109.495C211.38 104.78 213.643 104.847 215.772 108.288C216.76 107.891 217.651 107.671 218.437 107.592C222.262 107.19 223.744 110.166 222.982 113.784Z" fill="white"/>
<path d="M129.145 131.297C118.739 123.672 123.466 115.723 123.466 115.723L134.483 128.619" fill="white"/>
<path d="M196.862 164.536C196.929 165.878 196.368 167.177 195.349 168.055L194.495 168.793L194.312 168.952L141.596 165.621L138.308 146.065L192.201 135.689C194.324 143.35 195.66 150.762 196.368 157.868C196.599 160.119 196.758 162.346 196.862 164.536Z" fill="white"/>
<path d="M155.827 139.257C174.606 139.257 189.828 124.034 189.828 105.256C189.828 86.4774 174.606 71.2544 155.827 71.2544C137.049 71.2544 121.826 86.4774 121.826 105.256C121.826 124.034 137.049 139.257 155.827 139.257Z" fill="white"/>
<g opacity="0.3">
<path d="M189.828 105.256C189.828 124.038 174.603 139.257 155.827 139.257C150.825 139.257 146.073 138.178 141.797 136.238C142.224 136.256 142.657 136.268 143.09 136.268C161.872 136.268 177.091 121.043 177.091 102.267C177.091 88.4869 168.899 76.6285 157.114 71.2849C175.298 71.9559 189.828 86.907 189.828 105.256Z" fill="#232323"/>
</g>
<g opacity="0.3">
<path d="M147.702 138.373C147.842 138.373 147.982 138.373 148.123 138.367C148.117 138.367 148.111 138.373 148.111 138.373L147.543 138.83C147.159 138.678 146.781 138.513 146.409 138.348C146.836 138.367 147.269 138.373 147.702 138.373Z" fill="#232323"/>
</g>
<g opacity="0.3">
<path d="M222.982 113.784C222.402 116.51 220.621 118.828 218.218 120.231L187.285 138.367L184.796 131.077C184.723 131.156 184.643 131.242 184.564 131.321C182.838 133.06 180.922 134.609 178.861 135.945C173.547 139.379 167.222 141.368 160.432 141.368C156.962 141.368 153.607 140.849 150.453 139.879C152.204 140.154 153.997 140.294 155.821 140.294C162.775 140.294 169.253 138.257 174.713 134.755L173.389 134.377C178.763 131.12 183.173 126.429 186.059 120.817L186.065 120.811L192.921 117.413C191.61 121.659 189.493 125.551 186.742 128.906C188.316 130.266 191.152 129.9 191.152 129.9C191.152 129.9 214.82 116.144 217.669 113.643C220.127 111.484 218.84 108.403 218.437 107.592C222.262 107.19 223.744 110.166 222.982 113.784Z" fill="#232323"/>
</g>
<path d="M153.893 136.158C152.521 136.787 151.099 137.354 149.648 137.86C149.141 138.037 148.623 138.214 148.104 138.373C148.001 138.348 147.891 138.324 147.787 138.3C141.583 136.799 136.045 133.59 131.689 129.211C132.543 128.735 133.477 128.399 134.446 128.21L152.624 124.611C156.858 120.64 160.835 120.073 159.969 124.611C170.046 124.379 167.545 135.927 153.893 136.158Z" fill="white"/>
<path d="M155.827 140.294C136.508 140.294 120.789 124.575 120.789 105.256C120.789 85.9371 136.508 70.2174 155.827 70.2174C175.146 70.2174 190.865 85.9371 190.865 105.256C190.865 124.575 175.146 140.294 155.827 140.294ZM155.827 72.2853C137.649 72.2853 122.863 87.0717 122.863 105.25C122.863 123.428 137.649 138.214 155.827 138.214C174.005 138.214 188.791 123.428 188.791 105.25C188.791 87.0717 174.005 72.2853 155.827 72.2853Z" fill="#232323"/>
<path d="M187.004 108.763C183.844 122.726 168.106 135.829 152.686 136.689L149.007 138.367C140.315 136.165 134.325 131.492 130.396 127.137C125.894 122.141 124.113 117.553 124.113 117.553C120.484 90.8232 160.744 77.2141 181.478 94.9712L181.508 95.0383L187.004 108.763Z" fill="#232323"/>
<path d="M187.004 108.763C183.844 122.726 168.106 135.829 152.685 136.689L149.007 138.367C140.315 136.165 134.324 131.492 130.396 127.137C159.408 129.375 178.391 120.774 181.508 95.0444L187.004 108.763Z" fill="#020202"/>
<path d="M203.437 212.036C203.456 212.89 203.248 213.805 202.84 214.769C202.406 215.788 201.406 216.471 200.296 216.477C195.495 216.495 191.323 215.715 187.834 214.068C186.687 213.519 185.613 212.884 184.613 212.152C183.789 211.548 183.374 210.53 183.527 209.523L185.888 193.639L174.658 181.201L162.799 181.115L147.964 182.756L151.825 193.529C154.796 198.238 155.016 201.367 152.746 203.088L141.632 208.443C137.045 209.938 135.099 207.541 135.123 204.546C135.142 202.13 136.435 199.33 138.649 197.878L132.696 183.684C131.683 181.274 131.39 178.584 132.031 176.046C133.379 170.672 138.131 167.537 145.664 163.236L143.102 146.071C135.618 148.157 123.052 138.696 129.152 131.303C129.64 130.717 130.201 130.199 130.811 129.766C131.091 129.564 131.39 129.381 131.701 129.217C132.031 129.034 132.366 128.875 132.72 128.735C133.281 128.509 133.867 128.338 134.465 128.222L152.643 124.623C156.876 120.652 160.853 120.085 159.987 124.623C161.366 124.593 162.512 124.782 163.421 125.13C168.991 127.271 165.904 135.433 155.009 136.122C154.656 136.152 154.29 136.165 153.911 136.171C152.667 136.738 151.386 137.256 150.081 137.726C150.081 137.732 150.075 137.732 150.075 137.732L149.946 137.775C149.855 137.812 149.757 137.842 149.666 137.873C149.16 138.049 148.653 138.22 148.141 138.385C148.135 138.385 148.129 138.391 148.129 138.391L147.561 138.849L147.116 139.208C148.22 139.489 149.336 139.721 150.477 139.898C152.228 140.172 154.021 140.313 155.845 140.313C162.799 140.313 169.277 138.275 174.737 134.774C176.573 133.59 178.293 132.248 179.873 130.754L183.862 129.808C184.106 130.309 184.35 130.821 184.582 131.339C185.583 133.535 186.485 135.884 187.303 138.385C189.633 145.498 191.25 153.836 192.25 163.242C192.396 164.597 192.781 165.914 193.378 167.134C193.421 167.22 193.464 167.299 193.5 167.384L200.32 180.444C201.778 183.238 202.266 186.435 201.717 189.533L198.679 206.601C201.888 208.004 203.395 209.84 203.437 212.036Z" fill="white"/>
<g opacity="0.3">
<path d="M184.564 131.321C182.838 133.06 180.922 134.609 178.861 135.945C173.547 139.379 167.222 141.368 160.432 141.368C156.962 141.368 153.607 140.849 150.453 139.879C152.204 140.154 153.997 140.294 155.821 140.294C162.775 140.294 169.253 138.257 174.713 134.755C176.549 133.572 178.269 132.23 179.849 130.736L183.838 129.79C184.088 130.29 184.332 130.803 184.564 131.321Z" fill="#232323"/>
</g>
<path d="M124.119 118.426C123.692 118.426 123.326 118.109 123.265 117.675C122.497 112.015 123.57 106.714 126.462 101.937C129.066 97.6247 133.123 93.8854 138.198 91.1221C144.78 87.5353 152.679 85.7663 160.432 86.1506C168.814 86.5593 176.286 89.3836 182.051 94.3246C182.411 94.6357 182.453 95.1786 182.142 95.5446C181.831 95.9045 181.288 95.9472 180.922 95.6361C168.826 85.2722 150.685 86.2848 139.021 92.641C128.719 98.253 123.601 107.293 124.979 117.444C125.046 117.913 124.711 118.353 124.241 118.414C124.192 118.42 124.156 118.426 124.119 118.426Z" fill="#232323"/>
<path d="M121.826 106.116C121.759 106.116 121.691 106.11 121.624 106.092C121.161 105.982 120.874 105.518 120.984 105.055C122.271 99.6072 125.126 94.8492 129.463 90.9269C133.41 87.3523 138.515 84.6134 144.219 82.9969C150.917 81.0998 158.023 80.8131 164.764 82.1673C171.907 83.6008 178.129 86.8155 182.759 91.4576C183.094 91.7931 183.094 92.3421 182.759 92.6776C182.423 93.0131 181.874 93.0131 181.539 92.6776C172.822 83.9363 158.359 80.7887 144.688 84.6561C133.037 87.9562 125.01 95.5324 122.667 105.451C122.57 105.848 122.216 106.116 121.826 106.116Z" fill="#232323"/>
<path d="M152.685 137.549C152.228 137.549 151.85 137.195 151.825 136.732C151.801 136.256 152.161 135.847 152.643 135.823C167.399 135.006 183.063 122.269 186.168 108.568C186.272 108.105 186.736 107.812 187.199 107.915C187.663 108.019 187.956 108.483 187.852 108.946C186.296 115.827 181.612 122.879 174.999 128.302C168.24 133.84 160.341 137.122 152.74 137.543C152.716 137.549 152.704 137.549 152.685 137.549Z" fill="#232323"/>
<g opacity="0.35">
<path d="M145.603 95.7398C141.596 99.9549 138.436 104.56 136.075 109.532C134.953 111.899 134.392 114.485 134.404 117.108C134.422 120.231 134.636 123.428 135.02 126.685C135.069 127.088 134.55 127.307 134.294 126.99C125.351 115.9 127.419 105.213 145.103 95.1054C145.512 94.8675 145.927 95.3982 145.603 95.7398Z" fill="white"/>
</g>
<g opacity="0.35">
<path d="M165.428 97.4356C167.143 98.7654 168.625 100.223 169.863 101.815C170.803 103.017 172.504 103.237 173.651 102.23C173.676 102.206 173.7 102.188 173.731 102.163C176.03 100.065 175.805 96.5877 173.45 94.5564C171.797 93.129 169.515 92.0981 167.466 91.9822C164.483 91.8053 163.074 95.6056 165.428 97.4356Z" fill="white"/>
</g>
<g opacity="0.35">
<path d="M173.505 108.568C173.828 109.752 174.231 111.435 174.493 113.21C174.847 115.632 178.013 116.388 179.342 114.333C179.812 113.607 180.111 112.612 180.215 111.325C180.373 109.459 179.763 107.568 178.409 106.275C177.378 105.28 176.256 104.939 175.03 105.427C173.797 105.915 173.157 107.287 173.505 108.568Z" fill="white"/>
</g>
<path d="M172.803 160.735C172.401 160.735 172.035 160.449 171.955 160.034L170.479 152.421C170.333 151.671 169.674 151.128 168.905 151.128H165.581C164.221 151.128 163.043 150.115 162.842 148.767L161.939 142.734C161.866 142.264 162.195 141.825 162.665 141.752C163.135 141.679 163.574 142.008 163.647 142.478L164.55 148.511C164.623 149.017 165.068 149.402 165.581 149.402H168.905C170.497 149.402 171.87 150.536 172.175 152.098L173.651 159.711C173.743 160.18 173.438 160.632 172.968 160.723C172.913 160.729 172.858 160.735 172.803 160.735Z" fill="#232323"/>
<path d="M184.155 129.638C184.613 130.351 185.07 131.071 185.473 131.821C185.674 132.193 185.882 132.566 186.077 132.944L186.632 134.091C186.821 134.475 186.986 134.859 187.156 135.25C187.327 135.64 187.498 136.03 187.657 136.421C187.956 137.214 188.285 138.001 188.547 138.806C188.822 139.611 189.09 140.416 189.31 141.234C189.554 142.045 189.755 142.868 189.956 143.692C190.353 145.339 190.713 146.992 191.06 148.645C191.75 151.957 192.293 155.288 192.732 158.631C192.836 159.467 192.951 160.302 193.043 161.138L193.183 162.395L193.256 163.023C193.281 163.23 193.299 163.407 193.33 163.596C193.446 164.353 193.647 165.091 193.921 165.804C194.062 166.158 194.214 166.506 194.391 166.848L194.971 167.958L199.625 176.87L200.79 179.096L201.083 179.651L201.229 179.932L201.382 180.231C201.583 180.633 201.76 181.042 201.925 181.463C202.577 183.135 202.931 184.928 202.962 186.727C202.98 187.624 202.913 188.527 202.772 189.411C202.736 189.637 202.699 189.845 202.663 190.052L202.553 190.668L202.333 191.906L201.455 196.853L199.692 206.754V206.76L199.088 205.631C200.082 206.077 201.064 206.607 201.973 207.327C202.876 208.035 203.694 209.017 204.139 210.206C204.572 211.402 204.541 212.72 204.243 213.848C204.157 214.129 204.09 214.415 203.98 214.678L203.828 215.08C203.803 215.141 203.767 215.227 203.73 215.306C203.694 215.385 203.651 215.465 203.608 215.538C203.267 216.148 202.754 216.666 202.138 217.014C201.833 217.185 201.498 217.319 201.156 217.398C200.985 217.435 200.808 217.465 200.631 217.484C200.546 217.49 200.454 217.496 200.363 217.496C200.265 217.502 200.223 217.496 200.149 217.496C199.625 217.49 199.094 217.49 198.57 217.465C197.514 217.435 196.459 217.343 195.41 217.215C194.354 217.087 193.311 216.892 192.268 216.66C191.231 216.416 190.2 216.105 189.194 215.739C188.187 215.367 187.205 214.916 186.254 214.397C186.022 214.263 185.778 214.135 185.552 213.994L184.863 213.561L184.192 213.098L184.027 212.982C183.966 212.939 183.893 212.878 183.826 212.823C183.692 212.707 183.564 212.585 183.442 212.457C182.966 211.933 182.649 211.268 182.527 210.572C182.466 210.225 182.453 209.871 182.49 209.517C182.508 209.322 182.527 209.224 182.551 209.09L182.606 208.712L183.057 205.662L184.869 193.468L185.125 194.316L173.895 181.878L174.658 182.22L162.805 182.134L162.927 182.128L148.086 183.769L148.946 182.39L152.807 193.163L152.71 192.962C153.186 193.742 153.661 194.523 154.064 195.365C154.467 196.207 154.833 197.085 155.07 198.037C155.308 198.988 155.424 200.044 155.186 201.136C154.973 202.234 154.241 203.252 153.387 203.899C153.332 203.942 153.271 203.978 153.21 204.009L142.096 209.365L142.077 209.371C142.041 209.389 142.004 209.401 141.968 209.413C141.223 209.639 140.461 209.834 139.637 209.901C138.82 209.956 137.936 209.895 137.075 209.56C136.215 209.236 135.453 208.584 134.965 207.815C134.465 207.04 134.233 206.186 134.147 205.357C133.983 203.692 134.349 202.099 135.014 200.654C135.685 199.22 136.709 197.909 138.094 196.988L137.704 198.256L133.598 188.472L132.574 186.026L132.061 184.806C131.89 184.397 131.72 184.001 131.543 183.543C130.878 181.756 130.567 179.828 130.701 177.901C130.774 176.943 130.939 175.979 131.25 175.064L131.354 174.717L131.488 174.381L131.756 173.71C131.86 173.49 131.97 173.277 132.08 173.063L132.244 172.74C132.299 172.636 132.366 172.533 132.427 172.429C133.409 170.776 134.727 169.379 136.136 168.202C137.545 167.018 139.052 166 140.565 165.036C142.084 164.078 143.621 163.188 145.164 162.303L144.652 163.358L142.09 146.193L143.395 147.041C142.236 147.358 141.053 147.419 139.912 147.328C138.771 147.236 137.661 146.986 136.594 146.638C134.471 145.924 132.513 144.814 130.799 143.375C129.945 142.649 129.158 141.838 128.474 140.923C127.797 140.008 127.224 138.977 126.87 137.836C126.516 136.701 126.4 135.445 126.626 134.237C126.84 133.023 127.389 131.901 128.102 130.961C129.505 129.046 131.64 127.783 133.891 127.259L140.101 126.02L152.447 123.574L151.941 123.836C152.637 123.19 153.369 122.574 154.174 122.019C154.973 121.47 155.833 120.969 156.846 120.628C157.358 120.463 157.907 120.335 158.56 120.359C158.889 120.378 159.237 120.445 159.591 120.597C159.944 120.756 160.268 121.006 160.512 121.311C160.756 121.616 160.896 121.952 161 122.269C161.085 122.58 161.134 122.891 161.146 123.178C161.177 123.757 161.109 124.282 161.018 124.782L159.975 123.55C161.048 123.538 162.153 123.623 163.251 123.946C163.8 124.099 164.342 124.343 164.861 124.648C165.367 124.983 165.867 125.368 166.246 125.892L166.392 126.081C166.435 126.148 166.477 126.222 166.514 126.289C166.593 126.429 166.679 126.569 166.746 126.716C166.868 127.015 166.996 127.32 167.051 127.637C167.142 127.948 167.142 128.271 167.167 128.588C167.148 128.899 167.155 129.223 167.087 129.522C166.996 130.138 166.77 130.693 166.52 131.23C166.246 131.742 165.935 132.236 165.562 132.663C164.837 133.535 163.97 134.237 163.049 134.81C162.128 135.384 161.146 135.835 160.133 136.171C159.127 136.512 158.096 136.762 157.059 136.915C156.022 137.092 154.979 137.147 153.942 137.183H153.924L154.338 137.092C152.942 137.732 151.52 138.3 150.081 138.806C148.635 139.3 147.195 139.812 145.719 140.209C144.249 140.605 142.736 140.843 141.23 141.026C139.717 141.203 138.204 141.307 136.679 141.27C136.484 141.264 136.331 141.106 136.337 140.91C136.343 140.758 136.441 140.63 136.581 140.587C138.021 140.117 139.461 139.721 140.888 139.306C142.321 138.903 143.731 138.47 145.158 138.092C146.579 137.714 148.007 137.348 149.391 136.848C150.776 136.36 152.142 135.817 153.472 135.207C153.594 135.152 153.722 135.121 153.85 135.115H153.887H153.899C154.851 135.079 155.802 135.03 156.73 134.871C157.663 134.737 158.578 134.511 159.456 134.213C160.341 133.926 161.177 133.535 161.945 133.054C162.714 132.578 163.409 132.004 163.958 131.346C164.239 131.022 164.464 130.662 164.66 130.302C164.824 129.936 164.983 129.558 165.032 129.186C165.081 128.997 165.068 128.814 165.087 128.631C165.062 128.454 165.074 128.271 165.02 128.106C164.995 127.93 164.916 127.777 164.861 127.612C164.824 127.533 164.776 127.46 164.733 127.387L164.666 127.271L164.58 127.167C164.379 126.874 164.068 126.649 163.757 126.429C163.415 126.234 163.043 126.063 162.634 125.947C161.823 125.703 160.914 125.624 159.999 125.636C159.426 125.642 158.95 125.185 158.944 124.605C158.944 124.538 158.95 124.465 158.962 124.404C159.035 124.013 159.072 123.629 159.06 123.3C159.054 123.129 159.023 122.989 158.999 122.867C158.956 122.757 158.92 122.665 158.877 122.616C158.834 122.568 158.798 122.537 158.737 122.507C158.669 122.482 158.566 122.458 158.444 122.446C158.181 122.433 157.834 122.494 157.48 122.61C156.766 122.848 156.034 123.257 155.345 123.733C154.65 124.209 153.991 124.764 153.356 125.355L153.35 125.361C153.204 125.496 153.027 125.581 152.844 125.618L140.498 128.064L134.361 129.284C132.537 129.711 130.841 130.729 129.762 132.212C129.206 132.944 128.822 133.755 128.67 134.615C128.511 135.469 128.584 136.36 128.853 137.226C129.396 138.964 130.652 140.538 132.134 141.801C133.629 143.064 135.386 144.058 137.24 144.68C139.088 145.29 141.083 145.528 142.828 145.052H142.834C143.389 144.9 143.956 145.229 144.109 145.778C144.121 145.815 144.127 145.857 144.133 145.894L146.695 163.059C146.762 163.493 146.543 163.907 146.183 164.115C144.652 164.987 143.133 165.872 141.663 166.799C140.193 167.726 138.759 168.702 137.466 169.794C136.167 170.88 135.026 172.1 134.202 173.49C134.147 173.576 134.093 173.661 134.044 173.747L133.91 174.015L133.641 174.552L133.422 175.113L133.312 175.394L133.226 175.68C132.964 176.443 132.836 177.236 132.769 178.041C132.659 179.645 132.915 181.286 133.489 182.811C133.629 183.177 133.806 183.592 133.977 184.001L134.489 185.221L135.514 187.667L139.619 197.451C139.814 197.921 139.644 198.452 139.229 198.72C138.228 199.379 137.423 200.391 136.886 201.526C136.356 202.661 136.081 203.948 136.203 205.125C136.264 205.711 136.429 206.26 136.709 206.687C136.99 207.114 137.356 207.437 137.832 207.62C138.308 207.803 138.875 207.864 139.479 207.821C140.083 207.772 140.705 207.62 141.321 207.431L141.193 207.48L152.307 202.124L152.13 202.234C152.386 202.014 152.637 201.801 152.795 201.526C152.899 201.404 152.942 201.252 153.021 201.117C153.051 201.044 153.07 200.965 153.094 200.892C153.118 200.818 153.149 200.745 153.161 200.66C153.301 200.025 153.247 199.275 153.057 198.519C152.868 197.762 152.557 197 152.197 196.25C151.844 195.499 151.404 194.767 150.959 194.047L150.953 194.035C150.916 193.974 150.886 193.907 150.861 193.846L147 183.074C146.805 182.537 147.086 181.939 147.628 181.75C147.702 181.725 147.787 181.707 147.866 181.695L162.708 180.054C162.744 180.048 162.793 180.048 162.83 180.048L174.682 180.133C174.981 180.133 175.255 180.267 175.444 180.475L186.675 192.913C186.888 193.151 186.973 193.468 186.931 193.761L185.119 205.955L184.668 209.005L184.613 209.383C184.594 209.505 184.57 209.657 184.564 209.718C184.546 209.877 184.552 210.042 184.582 210.2C184.637 210.517 184.784 210.822 184.997 211.054C185.052 211.115 185.107 211.17 185.168 211.219L185.265 211.298L185.412 211.402L186.01 211.817L186.626 212.201C186.833 212.329 187.047 212.439 187.26 212.561C188.114 213.024 189.005 213.439 189.926 213.775C190.847 214.11 191.792 214.397 192.75 214.623C193.714 214.836 194.69 215.019 195.678 215.141C196.666 215.257 197.661 215.349 198.661 215.379C199.161 215.404 199.661 215.404 200.162 215.41C200.217 215.41 200.302 215.416 200.332 215.41C200.375 215.404 200.412 215.41 200.454 215.404C200.534 215.397 200.613 215.385 200.692 215.367C200.845 215.33 200.997 215.269 201.138 215.19C201.418 215.031 201.656 214.794 201.815 214.507C201.833 214.47 201.857 214.434 201.87 214.397C201.888 214.36 201.906 214.33 201.925 214.269L202.047 213.952C202.138 213.738 202.181 213.525 202.248 213.317C202.474 212.469 202.467 211.634 202.205 210.896C201.925 210.158 201.406 209.48 200.692 208.925C199.991 208.364 199.155 207.907 198.277 207.51H198.271C197.825 207.315 197.587 206.839 197.673 206.382V206.376L199.436 196.475L200.314 191.528L200.534 190.29L200.644 189.674C200.68 189.466 200.717 189.259 200.747 189.07C200.869 188.301 200.924 187.527 200.912 186.746C200.888 185.19 200.583 183.647 200.015 182.195C199.875 181.835 199.722 181.475 199.546 181.128L199.417 180.865L199.271 180.585L198.978 180.03L197.813 177.803L193.159 168.891L192.573 167.775C192.366 167.372 192.177 166.951 192.012 166.53C191.683 165.682 191.445 164.792 191.304 163.889C191.268 163.669 191.243 163.432 191.219 163.218L191.146 162.596L191.006 161.358C190.914 160.528 190.798 159.704 190.694 158.881C190.255 155.581 189.718 152.293 189.047 149.042C188.383 145.784 187.437 142.606 186.54 139.422C185.656 136.232 184.613 133.096 183.557 129.912V129.906C183.496 129.723 183.594 129.528 183.777 129.467C183.905 129.448 184.07 129.509 184.155 129.638Z" fill="#232323"/>
<path d="M184.9 193.315L187.327 187.996C187.407 187.819 187.614 187.746 187.791 187.825C187.937 187.892 188.017 188.051 187.986 188.21L186.876 193.95C186.766 194.517 186.217 194.883 185.65 194.773C185.083 194.664 184.717 194.114 184.826 193.547C184.839 193.468 184.869 193.389 184.9 193.315Z" fill="#232323"/>
<path d="M198.423 207.596C197.582 207.272 196.575 207.132 195.556 207.089C194.532 207.04 193.482 207.095 192.433 207.187H192.427C192.238 207.205 192.067 207.065 192.049 206.87C192.037 206.705 192.14 206.552 192.293 206.51C193.318 206.186 194.367 205.9 195.459 205.711C196.551 205.522 197.691 205.412 198.911 205.583H198.936C199.509 205.662 199.906 206.193 199.826 206.76C199.747 207.333 199.222 207.73 198.649 207.65C198.576 207.644 198.497 207.626 198.423 207.596Z" fill="#232323"/>
<path d="M182.148 145.174L189.176 144.137C189.975 144.021 190.731 144.521 190.939 145.296L191.799 148.517C192.018 149.334 191.555 150.182 190.749 150.438L183.661 152.702" fill="white"/>
<g opacity="0.3">
<path d="M190.749 150.439L183.661 152.696L183.07 149.743L189.542 147.681C190.353 147.425 190.81 146.577 190.591 145.766L190.213 144.332C190.566 144.54 190.835 144.875 190.945 145.29L191.799 148.511C192.018 149.334 191.561 150.182 190.749 150.439Z" fill="#232323"/>
</g>
<g opacity="0.3">
<path d="M190.78 153.696C190.768 153.702 190.762 153.702 190.749 153.708L183.661 155.965L183.07 153.013L189.542 150.951C189.743 150.884 189.926 150.786 190.078 150.652L190.249 150.597C190.402 151.561 190.597 152.769 190.78 153.696Z" fill="#232323"/>
</g>
<path d="M153.655 149.603L143.822 152.445C143.328 152.586 143.023 153.08 143.109 153.586L143.926 158.21C144.024 158.753 144.536 159.119 145.079 159.027L154.918 157.399" fill="white"/>
<g opacity="0.3">
<path d="M154.918 157.399L145.079 159.027C144.536 159.119 144.023 158.753 143.926 158.21L143.499 155.806C143.7 155.928 143.944 155.983 144.188 155.941L154.027 154.312L153.277 149.706L153.649 149.597L154.918 157.399Z" fill="#232323"/>
</g>
<g opacity="0.3">
<path d="M155.443 160.943L145.603 162.571C145.06 162.663 144.548 162.297 144.45 161.754L144.023 159.351C144.225 159.473 144.469 159.528 144.713 159.485L154.552 157.856L153.802 153.251L154.174 153.141L155.443 160.943Z" fill="#232323"/>
</g>
<path d="M183.661 153.733C183.222 153.733 182.813 153.452 182.673 153.013C182.502 152.47 182.801 151.884 183.344 151.707L190.432 149.444C190.713 149.353 190.871 149.06 190.798 148.779L189.938 145.559C189.865 145.29 189.603 145.119 189.328 145.156L182.301 146.193C181.734 146.278 181.209 145.882 181.124 145.321C181.038 144.753 181.435 144.229 181.996 144.143L189.023 143.106C190.341 142.911 191.597 143.735 191.939 145.028L192.799 148.249C193.159 149.603 192.396 151 191.061 151.421L183.972 153.684C183.875 153.72 183.765 153.733 183.661 153.733Z" fill="#232323"/>
<path d="M159.627 163.078C158.45 163.078 157.303 162.712 156.327 162.016C155.083 161.126 154.265 159.808 154.015 158.295L152.515 149.054C152.015 145.986 154.101 143.058 157.169 142.527L176.36 139.215C179.422 138.684 182.301 140.66 182.911 143.704L184.765 152.933C185.07 154.458 184.753 156.002 183.875 157.283C182.996 158.564 181.667 159.412 180.136 159.674L160.591 162.998C160.274 163.053 159.951 163.078 159.627 163.078ZM177.348 141.203C177.14 141.203 176.927 141.221 176.72 141.258L157.529 144.57C155.583 144.906 154.253 146.766 154.57 148.718L156.071 157.96C156.23 158.918 156.748 159.759 157.541 160.327C158.334 160.894 159.298 161.114 160.256 160.949L179.8 157.624C180.776 157.46 181.618 156.917 182.179 156.105C182.74 155.294 182.942 154.312 182.746 153.342L180.892 144.113C180.532 142.387 179.044 141.203 177.348 141.203Z" fill="#232323"/>
<g opacity="0.3">
<path d="M179.965 158.655L160.42 161.98C157.87 162.413 155.455 160.687 155.04 158.137L154.149 152.677C154.869 154.812 157.047 156.166 159.341 155.782L178.885 152.458C181.05 152.086 182.6 150.292 182.752 148.212L183.747 153.147C184.271 155.721 182.557 158.216 179.965 158.655Z" fill="#232323"/>
</g>
<g opacity="0.3">
<path d="M180.813 162.23L161.268 165.554C158.718 165.987 156.303 164.261 155.888 161.711L155.546 159.613C156.467 161.315 158.401 162.327 160.42 161.986L179.965 158.661C182.551 158.222 184.265 155.727 183.747 153.153L183.551 152.195C183.576 152.061 183.588 151.927 183.6 151.793L184.595 156.728C185.113 159.296 183.399 161.791 180.813 162.23Z" fill="#232323"/>
</g>
<path d="M144.92 160.083C143.95 160.083 143.084 159.381 142.907 158.399L142.09 153.775C141.907 152.744 142.529 151.75 143.535 151.457L153.369 148.615C153.918 148.456 154.491 148.773 154.65 149.322C154.808 149.871 154.491 150.445 153.942 150.603L144.133 153.44L144.945 158.009L154.753 156.38C155.321 156.282 155.851 156.667 155.943 157.234C156.034 157.801 155.656 158.332 155.089 158.423L145.25 160.052C145.14 160.07 145.03 160.083 144.92 160.083Z" fill="#232323"/>
<path d="M199.863 214.36C194.153 214.36 186.455 211.359 183.204 208.535C182.844 208.224 182.801 207.675 183.118 207.315C183.429 206.955 183.978 206.912 184.338 207.23C188.01 210.414 198.441 213.97 203.059 212.134C203.504 211.957 204.005 212.177 204.182 212.616C204.358 213.061 204.139 213.561 203.7 213.738C202.614 214.171 201.302 214.36 199.863 214.36Z" fill="#232323"/>
<path d="M200.162 199.08C199.954 199.08 199.741 199.007 199.576 198.854C194.233 193.95 185.888 197.018 185.802 197.049C185.357 197.219 184.857 196.994 184.692 196.542C184.521 196.097 184.747 195.597 185.199 195.432C185.583 195.286 194.629 191.961 200.747 197.579C201.101 197.903 201.12 198.446 200.802 198.799C200.625 198.988 200.394 199.08 200.162 199.08Z" fill="#232323"/>
<path d="M138.277 196.896C138.472 196.841 138.607 196.817 138.765 196.786C138.918 196.756 139.07 196.738 139.217 196.713C139.516 196.67 139.814 196.64 140.113 196.622C140.705 196.579 141.297 196.579 141.882 196.622C142.468 196.664 143.047 196.731 143.615 196.853C144.182 196.963 144.737 197.134 145.28 197.317C145.463 197.378 145.561 197.573 145.494 197.756C145.439 197.915 145.286 198.006 145.128 197.988H145.109C144.572 197.921 144.042 197.872 143.505 197.884C142.974 197.884 142.444 197.927 141.925 198C141.407 198.073 140.894 198.183 140.394 198.324C140.144 198.391 139.9 198.476 139.662 198.561C139.546 198.61 139.424 198.653 139.314 198.702C139.204 198.744 139.076 198.805 139.009 198.842C138.509 199.129 137.869 198.958 137.576 198.452C137.289 197.951 137.46 197.311 137.966 197.018C138.039 196.975 138.119 196.945 138.198 196.921L138.277 196.896Z" fill="#232323"/>
<path d="M135.526 207.583C135.197 207.583 134.886 207.394 134.739 207.077C134.544 206.644 134.733 206.132 135.166 205.93L153.686 197.463C154.119 197.262 154.631 197.457 154.833 197.89C155.028 198.324 154.839 198.836 154.406 199.037L135.88 207.504C135.764 207.559 135.642 207.583 135.526 207.583Z" fill="#232323"/>
<path d="M134.935 189.893C134.752 189.893 134.569 189.832 134.41 189.716C134.032 189.424 133.959 188.887 134.251 188.502C137.405 184.385 144.402 182.207 148.647 184.025C149.087 184.214 149.288 184.72 149.105 185.16C148.916 185.599 148.409 185.8 147.97 185.617C144.81 184.263 138.491 185.819 135.624 189.558C135.453 189.777 135.197 189.893 134.935 189.893Z" fill="#232323"/>
<path d="M147.037 183.214L145.237 178.065C145.176 177.882 145.268 177.687 145.451 177.62C145.603 177.565 145.768 177.626 145.853 177.754L148.891 182.281C149.215 182.762 149.086 183.409 148.605 183.732C148.123 184.056 147.476 183.928 147.153 183.446C147.104 183.372 147.061 183.293 147.037 183.214Z" fill="#232323"/>
<path d="M163.037 181.646L159.902 178.535C159.762 178.401 159.762 178.175 159.902 178.041C160.012 177.931 160.176 177.907 160.311 177.974L164.257 179.962C164.776 180.225 164.983 180.853 164.721 181.372C164.459 181.89 163.83 182.097 163.312 181.835C163.202 181.786 163.11 181.719 163.037 181.646Z" fill="#232323"/>
<path d="M174.713 180.158C175.603 180.322 176.634 180.207 177.653 179.944C178.678 179.682 179.696 179.279 180.697 178.822C180.874 178.743 181.075 178.822 181.154 178.993C181.221 179.145 181.173 179.322 181.044 179.414C180.136 180.078 179.184 180.713 178.135 181.231C177.086 181.744 175.92 182.171 174.591 182.22H174.56C173.981 182.244 173.499 181.793 173.474 181.219C173.45 180.64 173.901 180.158 174.475 180.133C174.56 180.139 174.639 180.146 174.713 180.158Z" fill="#232323"/>
<path d="M187.285 139.404C186.931 139.404 186.583 139.221 186.388 138.891C186.101 138.397 186.266 137.763 186.76 137.47L217.693 119.335C219.907 118.035 221.463 115.937 221.963 113.564C222.372 111.643 222.042 110.014 221.091 109.209C220.09 108.367 218.34 108.373 216.156 109.245C215.686 109.434 215.155 109.257 214.893 108.824C214.106 107.549 213.332 106.848 212.709 106.848C212.697 106.848 212.691 106.848 212.679 106.848C211.892 106.872 210.849 108.013 209.818 109.971C209.714 110.166 209.556 110.319 209.36 110.416L186.528 121.738C186.016 121.994 185.394 121.781 185.137 121.268C184.881 120.756 185.095 120.134 185.607 119.878L208.147 108.708C209.562 106.122 211.026 104.835 212.606 104.774C213.887 104.737 215.064 105.469 216.18 107.025C219.438 105.945 221.359 106.732 222.421 107.623C223.994 108.946 224.562 111.27 223.988 113.997C223.366 116.937 221.451 119.536 218.736 121.122L187.803 139.257C187.644 139.355 187.468 139.404 187.285 139.404Z" fill="#232323"/>
<path d="M203.926 129.479C203.797 129.479 203.663 129.448 203.541 129.387C195.422 125.325 195.849 116.065 195.874 115.675C195.898 115.199 196.301 114.833 196.782 114.863C197.258 114.888 197.624 115.296 197.594 115.772C197.575 116.126 197.222 124.3 204.31 127.844C204.737 128.058 204.908 128.576 204.694 129.003C204.548 129.302 204.243 129.479 203.926 129.479Z" fill="#232323"/>
<path d="M143.09 140.599C142.956 140.599 142.822 140.569 142.694 140.502C138.723 138.434 136.643 132.145 138.241 127.039C138.381 126.581 138.869 126.331 139.32 126.472C139.778 126.612 140.028 127.1 139.888 127.551C138.418 132.248 140.577 137.452 143.493 138.97C143.914 139.19 144.078 139.715 143.859 140.136C143.706 140.428 143.407 140.599 143.09 140.599Z" fill="#232323"/>
<path d="M142.065 146.193L142.261 142.362C142.273 142.167 142.437 142.021 142.627 142.027C142.779 142.033 142.901 142.136 142.944 142.271L144.115 145.925C144.292 146.48 143.987 147.071 143.432 147.248C142.877 147.425 142.285 147.12 142.108 146.565C142.078 146.449 142.059 146.321 142.065 146.193Z" fill="#232323"/>
<path d="M141.596 166.652C141.102 166.652 140.662 166.292 140.577 165.786L137.289 146.23C137.191 145.662 137.576 145.132 138.137 145.034C138.698 144.942 139.235 145.321 139.333 145.882L142.62 165.438C142.718 166.006 142.334 166.536 141.773 166.634C141.705 166.652 141.651 166.652 141.596 166.652Z" fill="#232323"/>
<path d="M194.312 169.983C194.019 169.983 193.732 169.861 193.525 169.623C193.153 169.19 193.202 168.537 193.635 168.159L194.672 167.262C195.459 166.585 195.88 165.609 195.831 164.578C195.422 155.99 193.745 146.364 190.859 135.957C190.707 135.408 191.03 134.835 191.579 134.682C192.128 134.53 192.701 134.853 192.854 135.402C195.825 146.101 197.478 155.611 197.899 164.475C197.978 166.146 197.295 167.732 196.026 168.83L194.989 169.727C194.794 169.898 194.55 169.983 194.312 169.983Z" fill="#232323"/>
<path d="M129.146 132.334C128.932 132.334 128.719 132.267 128.536 132.132C117.495 124.044 122.527 115.278 122.576 115.193C122.869 114.699 123.503 114.54 123.997 114.833C124.491 115.126 124.65 115.76 124.357 116.248C124.18 116.553 120.288 123.525 129.756 130.461C130.219 130.797 130.317 131.449 129.981 131.913C129.78 132.181 129.463 132.334 129.146 132.334Z" fill="#232323"/>
<path d="M196.111 96.9903C197.917 102.877 196.837 108.507 192.451 109.855C188.065 111.203 184.094 107.135 182.289 101.254C180.483 95.3677 181.52 89.896 185.912 88.5479C190.298 87.2059 194.306 91.1099 196.111 96.9903Z" fill="white"/>
<g opacity="0.3">
<path d="M192.451 109.855C188.108 111.191 184.18 107.226 182.35 101.449C184.186 103.273 186.412 104.097 188.755 103.377C193.141 102.035 194.22 96.3986 192.415 90.5121C192.409 90.4877 192.403 90.4694 192.397 90.445C193.983 91.9944 195.276 94.2819 196.105 96.9903C197.917 102.877 196.837 108.513 192.451 109.855Z" fill="#232323"/>
</g>
<path d="M190.78 111.148C189.011 111.148 187.26 110.429 185.705 109.038C183.826 107.348 182.258 104.695 181.294 101.559C180.337 98.4299 180.148 95.3677 180.77 92.946C181.471 90.2132 183.185 88.3039 185.601 87.5597C188.017 86.8155 190.524 87.4255 192.653 89.2799C194.562 90.9391 196.136 93.5682 197.093 96.6914C198.057 99.8207 198.234 102.907 197.6 105.39C196.886 108.172 195.166 110.111 192.744 110.856C192.097 111.051 191.439 111.148 190.78 111.148ZM187.632 89.3226C187.181 89.3226 186.705 89.3897 186.211 89.5422C184.46 90.079 183.307 91.3966 182.777 93.4584C182.246 95.5202 182.423 98.1798 183.277 100.949C184.131 103.731 185.485 106.055 187.089 107.495C188.2 108.489 189.975 109.532 192.14 108.867C194.318 108.196 195.221 106.323 195.593 104.872C196.136 102.761 195.965 100.071 195.111 97.3014C194.263 94.5442 192.909 92.2506 191.292 90.8476C190.438 90.0973 189.176 89.3226 187.632 89.3226Z" fill="#232323"/>
<path d="M193.037 108.239C191.652 108.239 190.255 107.531 188.999 106.171C187.602 104.664 186.382 102.358 185.558 99.6743C184.338 95.6971 184.326 92.1774 185.522 90.0241C186.113 88.9627 187.01 88.2429 188.108 87.9562C190.682 87.2852 195.117 90.8171 196.776 96.2095C197.6 98.8874 197.868 101.486 197.545 103.536C197.167 105.909 195.995 107.507 194.239 108.05C193.842 108.178 193.439 108.239 193.037 108.239ZM188.816 89.6032C188.718 89.6032 188.627 89.6154 188.541 89.6337C187.888 89.8045 187.394 90.2071 187.028 90.872C186.083 92.5617 186.156 95.7459 187.205 99.1741C187.956 101.614 189.041 103.682 190.261 105.006C191.073 105.884 192.335 106.842 193.726 106.415C195.129 105.988 195.648 104.475 195.831 103.286C196.117 101.492 195.861 99.1619 195.117 96.7341C193.763 92.2933 190.377 89.6032 188.816 89.6032Z" fill="#232323"/>
<g opacity="0.3">
<path d="M196.862 164.536C196.929 165.878 196.368 167.177 195.349 168.055L194.495 168.793C193.434 167.378 193.098 165.39 193.098 165.39L191.585 159.515C193.183 159.833 194.769 159.284 196.368 157.874C196.599 160.119 196.758 162.346 196.862 164.536Z" fill="#232323"/>
</g>
<g opacity="0.3">
<path d="M144.03 159.046L140.626 159.869L141.596 164.493L145.475 163.328" fill="#232323"/>
</g>
<g opacity="0.3">
<path d="M154.991 136.11C154.54 136.018 154.247 135.951 154.156 135.927C153.436 135.731 144.823 139.318 139.955 140.386C135.081 141.453 133.513 136.213 133.513 136.213L153.485 131.895C162.805 131.376 160.756 124.983 160.756 124.983L163.415 125.117C168.972 127.252 165.886 135.414 154.991 136.11Z" fill="#232323"/>
</g>
<g opacity="0.3">
<path d="M178.543 180.329C177.476 180.823 176.427 181.433 175.451 182.073L174.658 181.195L162.799 181.109L147.964 182.75L151.825 193.523C154.796 198.232 155.016 201.361 152.746 203.082L141.632 208.437C137.045 209.932 135.099 207.534 135.124 204.539C135.361 204.46 135.532 204.436 135.532 204.436C140.638 208.614 149.263 199.769 147.104 194.761C147.104 194.761 144.164 188.197 141.925 182.75C139.686 177.309 142.614 176.65 142.614 176.65L159.2 174.515C159.2 174.515 167.752 176.272 173.139 176.614C178.525 176.961 182.161 174.515 182.161 174.515C182.161 174.515 183.21 178.169 178.543 180.329Z" fill="#232323"/>
</g>
<g opacity="0.3">
<path d="M203.438 212.036C203.456 212.89 203.248 213.805 202.84 214.769C202.407 215.788 201.406 216.471 200.296 216.477C195.495 216.495 191.323 215.715 187.834 214.068C188.102 214.086 188.364 214.11 188.621 214.135C198.179 215.172 193.568 206.363 193.568 206.363C193.568 206.363 194.434 193.285 195.514 186.642C196.593 179.999 192.824 166.677 192.824 166.677L193.36 167.116C193.403 167.201 193.446 167.281 193.482 167.366L200.302 180.426C201.76 183.22 202.248 186.416 201.699 189.515L198.661 206.583C201.888 208.004 203.395 209.84 203.438 212.036Z" fill="#232323"/>
</g>
<path fill-rule="evenodd" clip-rule="evenodd" d="M175.603 144.43C176.988 144.259 178.244 145.247 178.409 146.626C178.58 148.011 177.592 149.267 176.213 149.432C174.828 149.603 173.572 148.615 173.407 147.236C173.242 145.851 174.225 144.595 175.603 144.43Z" fill="#22A7F0"/>
<g opacity="0.3">
<path fill-rule="evenodd" clip-rule="evenodd" d="M176.036 147.944C174.877 148.084 173.804 147.413 173.389 146.376C173.358 146.589 173.352 146.803 173.383 147.023C173.554 148.407 174.81 149.389 176.189 149.219C177.574 149.048 178.556 147.791 178.385 146.413C178.36 146.193 178.299 145.979 178.22 145.784C178.074 146.888 177.195 147.803 176.036 147.944Z" fill="#232323"/>
</g>
<g opacity="0.6">
<path fill-rule="evenodd" clip-rule="evenodd" d="M175.737 145.491C176.939 145.345 178.043 146.065 178.421 147.163C178.44 146.986 178.44 146.809 178.415 146.626C178.245 145.241 176.988 144.259 175.609 144.43C174.225 144.601 173.243 145.857 173.413 147.236C173.438 147.419 173.48 147.596 173.535 147.761C173.639 146.602 174.536 145.638 175.737 145.491Z" fill="white"/>
</g>
<path d="M175.902 150.097C175.201 150.097 174.523 149.865 173.956 149.426C173.291 148.907 172.864 148.157 172.767 147.315C172.553 145.583 173.791 144.003 175.524 143.79C177.256 143.576 178.836 144.814 179.05 146.547C179.263 148.279 178.025 149.859 176.292 150.073C176.164 150.085 176.036 150.097 175.902 150.097ZM175.682 145.064C174.652 145.193 173.92 146.126 174.048 147.157C174.109 147.657 174.359 148.096 174.755 148.407C175.152 148.718 175.646 148.853 176.14 148.792C177.171 148.663 177.903 147.73 177.775 146.699C177.653 145.674 176.713 144.942 175.682 145.064Z" fill="#232323"/>
</g>
<path d="M236.575 221.317L251.918 227.298L267.834 223.058L276.731 236.917L292.098 242.84L291.151 259.281L300.102 273.104L289.671 285.849L288.788 302.294L272.857 306.476L262.476 319.26L247.132 313.279L231.217 317.519L222.32 303.66L206.952 297.737L207.899 281.296L198.949 267.473L209.38 254.728L210.263 238.283L226.194 234.101L236.575 221.317Z" fill="url(#paint3_linear_31_2138)" stroke="url(#paint4_linear_31_2138)" stroke-width="4.30346" stroke-linecap="round" stroke-linejoin="round"/>
<path d="M232.385 274.821L247.866 283.826L265.877 252.865" fill="url(#paint5_linear_31_2138)"/>
<path d="M232.385 274.821L247.866 283.826L265.877 252.865" stroke="url(#paint6_linear_31_2138)" stroke-width="4.30346" stroke-linecap="round" stroke-linejoin="round"/>
</g>
<defs>
<linearGradient id="paint0_linear_31_2138" x1="11.3842" y1="241.372" x2="14.2646" y2="239.804" gradientUnits="userSpaceOnUse">
<stop stop-color="#F65F6F"/>
<stop offset="1" stop-color="#F78164"/>
</linearGradient>
<linearGradient id="paint1_linear_31_2138" x1="271.189" y1="27.3448" x2="276.853" y2="21.1783" gradientUnits="userSpaceOnUse">
<stop stop-color="#F65F6F"/>
<stop offset="1" stop-color="#F78164"/>
</linearGradient>
<linearGradient id="paint2_linear_31_2138" x1="48.5319" y1="201.585" x2="54.1959" y2="195.419" gradientUnits="userSpaceOnUse">
<stop stop-color="#F65F6F"/>
<stop offset="1" stop-color="#F78164"/>
</linearGradient>
<linearGradient id="paint3_linear_31_2138" x1="198.942" y1="336.062" x2="309.051" y2="306.944" gradientUnits="userSpaceOnUse">
<stop stop-color="#222222"/>
<stop offset="1" stop-color="#0F0F0F"/>
</linearGradient>
<linearGradient id="paint4_linear_31_2138" x1="248.128" y1="333.286" x2="287.776" y2="244.068" gradientUnits="userSpaceOnUse">
<stop stop-color="#F65F6F"/>
<stop offset="1" stop-color="#F78164"/>
</linearGradient>
<linearGradient id="paint5_linear_31_2138" x1="228.936" y1="288.832" x2="272.352" y2="277.351" gradientUnits="userSpaceOnUse">
<stop stop-color="#222222"/>
<stop offset="1" stop-color="#0F0F0F"/>
</linearGradient>
<linearGradient id="paint6_linear_31_2138" x1="247.965" y1="286.358" x2="253.849" y2="259.088" gradientUnits="userSpaceOnUse">
<stop stop-color="#F65F6F"/>
<stop offset="1" stop-color="#F78164"/>
</linearGradient>
<clipPath id="clip0_31_2138">
<rect width="325" height="334" fill="white"/>
</clipPath>
<clipPath id="clip1_31_2138">
<rect width="244" height="244" fill="white" transform="translate(40 45)"/>
</clipPath>
</defs>
</svg>
