<svg width="25" height="24" viewBox="0 0 25 24" fill="none" xmlns="http://www.w3.org/2000/svg">
<path d="M22.3689 5.18L10.9589 16.6L6.7189 12.36L8.1289 10.95L10.9589 13.78L20.9589 3.78L22.3689 5.18ZM20.1589 10.22C20.2889 10.79 20.3689 11.39 20.3689 12C20.3689 16.42 16.7889 20 12.3689 20C7.9489 20 4.3689 16.42 4.3689 12C4.3689 7.58 7.9489 4 12.3689 4C13.9489 4 15.4089 4.46 16.6489 5.25L18.0889 3.81C16.4689 2.67 14.4989 2 12.3689 2C6.8489 2 2.3689 6.48 2.3689 12C2.3689 17.52 6.8489 22 12.3689 22C17.8889 22 22.3689 17.52 22.3689 12C22.3689 10.81 22.1489 9.67 21.7689 8.61L20.1589 10.22Z" fill="url(#paint0_linear_31_2027)"/>
<defs>
<linearGradient id="paint0_linear_31_2027" x1="8.74529" y1="23.9526" x2="20.6709" y2="8.34154" gradientUnits="userSpaceOnUse">
<stop stop-color="#F65F6F"/>
<stop offset="1" stop-color="#F78164"/>
</linearGradient>
</defs>
</svg>
