<svg width="24" height="24" viewBox="0 0 24 24" fill="none" xmlns="http://www.w3.org/2000/svg">
<path d="M14.7578 21.375H2.24977C2.14187 21.375 2.03524 21.3518 1.93715 21.3069C1.83905 21.2619 1.75181 21.1963 1.68138 21.1146C1.61094 21.0329 1.55897 20.9369 1.52901 20.8333C1.49905 20.7296 1.4918 20.6207 1.50777 20.514L7.37877 6.375H17.8788L15.4998 20.514C15.5157 20.6207 15.5085 20.7296 15.4785 20.8333C15.4486 20.9369 15.3966 21.0329 15.3262 21.1146C15.2557 21.1963 15.1685 21.2619 15.0704 21.3069C14.9723 21.3518 14.8657 21.375 14.7578 21.375Z" stroke="#FFF7FB" stroke-width="1.5" stroke-linecap="round" stroke-linejoin="round"/>
<path d="M12.5249 11.2002L10.5559 10.7002C10.2538 10.6223 9.934 10.6522 9.65156 10.7846C9.36912 10.9171 9.14171 11.1439 9.00848 11.426C8.87526 11.7081 8.84455 12.0278 8.92165 12.3301C8.99874 12.6324 9.17882 12.8984 9.43088 13.0822L11.2239 14.3942C11.473 14.579 11.6503 14.8444 11.7257 15.1453C11.8011 15.4461 11.7698 15.7638 11.6373 16.0442C11.5047 16.3246 11.2791 16.5504 10.9988 16.6832C10.7185 16.8159 10.4008 16.8474 10.0999 16.7722L8.12988 16.2722" stroke="#FFF7FB" stroke-width="1.5" stroke-linecap="round" stroke-linejoin="round"/>
<path d="M11.0718 10.828L11.4448 9.375" stroke="#FFF7FB" stroke-width="1.5" stroke-linecap="round" stroke-linejoin="round"/>
<path d="M9.20996 18.0931L9.58196 16.6401" stroke="#FFF7FB" stroke-width="1.5" stroke-linecap="round" stroke-linejoin="round"/>
<path d="M2.25 10.125H1.5C1.30109 10.125 1.11032 10.046 0.96967 9.90533C0.829018 9.76468 0.75 9.57391 0.75 9.375V3.375C0.75 3.17609 0.829018 2.98532 0.96967 2.84467C1.11032 2.70402 1.30109 2.625 1.5 2.625H22.5C22.6989 2.625 22.8897 2.70402 23.0303 2.84467C23.171 2.98532 23.25 3.17609 23.25 3.375V9.375C23.25 9.57391 23.171 9.76468 23.0303 9.90533C22.8897 10.046 22.6989 10.125 22.5 10.125H20.25" stroke="#FFF7FB" stroke-width="1.5" stroke-linecap="round" stroke-linejoin="round"/>
</svg>
