<svg width="20" height="20" viewBox="0 0 20 20" fill="none" xmlns="http://www.w3.org/2000/svg">
<rect x="1" y="1" width="18" height="18" rx="9" stroke="url(#paint0_linear_31_2057)" stroke-width="2"/>
<path d="M9.83 13.11C9.33667 13.11 8.86667 13.04 8.42 12.9C7.97333 12.76 7.60667 12.57 7.32 12.33L7.81 11.16C8.40333 11.6 9.05667 11.82 9.77 11.82C10.5833 11.82 10.99 11.5167 10.99 10.91C10.99 10.35 10.61 10.07 9.85 10.07H8.67V8.82H9.7C10.0333 8.82 10.2967 8.74333 10.49 8.59C10.6833 8.43667 10.78 8.22333 10.78 7.95C10.78 7.40333 10.4233 7.13 9.71 7.13C9.04333 7.13 8.45 7.35333 7.93 7.8L7.44 6.66C7.73333 6.4 8.09333 6.2 8.52 6.06C8.94667 5.91333 9.39 5.84 9.85 5.84C10.61 5.84 11.2033 6.01 11.63 6.35C12.0567 6.69 12.27 7.15667 12.27 7.75C12.27 8.11667 12.1767 8.44 11.99 8.72C11.8033 9 11.5433 9.20333 11.21 9.33C11.61 9.44333 11.92 9.65333 12.14 9.96C12.3667 10.26 12.48 10.6233 12.48 11.05C12.48 11.69 12.2433 12.1933 11.77 12.56C11.2967 12.9267 10.65 13.11 9.83 13.11Z" fill="url(#paint1_linear_31_2057)"/>
<defs>
<linearGradient id="paint0_linear_31_2057" x1="6.37639" y1="21.9526" x2="18.302" y2="6.34154" gradientUnits="userSpaceOnUse">
<stop stop-color="#F65F6F"/>
<stop offset="1" stop-color="#F78164"/>
</linearGradient>
<linearGradient id="paint1_linear_31_2057" x1="8.91292" y1="13.6834" x2="13.2106" y2="8.86125" gradientUnits="userSpaceOnUse">
<stop stop-color="#F65F6F"/>
<stop offset="1" stop-color="#F78164"/>
</linearGradient>
</defs>
</svg>
