<svg width="25" height="24" viewBox="0 0 25 24" fill="none" xmlns="http://www.w3.org/2000/svg">
<path d="M10.5 3.57837C10.0858 3.57837 9.74999 3.24258 9.74999 2.82837C9.74999 2.41416 10.0858 2.07837 10.5 2.07837H14.0355C14.4497 2.07837 14.7855 2.41416 14.7855 2.82837C14.7855 3.24258 14.4497 3.57837 14.0355 3.57837H10.5Z" fill="white"/>
<path d="M7.03033 4.03027C7.32322 4.32316 7.32322 4.79804 7.03033 5.09093L4.53033 7.59093C4.23744 7.88382 3.76256 7.88382 3.46967 7.59093C3.17678 7.29804 3.17678 6.82316 3.46967 6.53027L5.96967 4.03027C6.26256 3.73738 6.73744 3.73738 7.03033 4.03027Z" fill="white"/>
<path fill-rule="evenodd" clip-rule="evenodd" d="M12.5 5.0606C7.80558 5.0606 4 8.86618 4 13.5606C4 18.255 7.80558 22.0606 12.5 22.0606C17.1944 22.0606 21 18.255 21 13.5606C21 8.86618 17.1944 5.0606 12.5 5.0606ZM17.4909 8.77138C17.6457 8.57234 17.628 8.28916 17.4497 8.11086C17.2714 7.93255 16.9883 7.91492 16.7892 8.06973L13.6153 10.5383L11.5397 12.0209C11.1629 12.29 10.9393 12.7245 10.9393 13.1876C10.9393 13.9794 11.5812 14.6213 12.373 14.6213C12.8361 14.6213 13.2706 14.3977 13.5397 14.0209L15.0223 11.9453L17.4909 8.77138Z" fill="white"/>
</svg>
