<svg width="18" height="18" viewBox="0 0 18 18" fill="none" xmlns="http://www.w3.org/2000/svg">
<path d="M9.76453 2.62236C9.49155 2.15192 8.81218 2.15192 8.53921 2.62236L6.61675 5.93546C6.4819 6.16785 6.24883 6.32644 5.98316 6.36656L2.38035 6.91072C1.77524 7.00212 1.56298 7.76613 2.03423 8.15657L4.71817 10.3802C4.96662 10.586 5.08343 10.9107 5.02308 11.2276L4.32101 14.9146C4.21002 15.4974 4.82187 15.9503 5.34685 15.6739L8.73935 13.8876C8.99756 13.7516 9.30618 13.7516 9.56439 13.8876L12.9569 15.6739C13.4819 15.9503 14.0937 15.4974 13.9827 14.9146L13.2807 11.2276C13.2203 10.9107 13.3371 10.586 13.5856 10.3802L16.2695 8.15657C16.7408 7.76614 16.5285 7.00212 15.9234 6.91072L12.3206 6.36656C12.0549 6.32644 11.8218 6.16785 11.687 5.93546L9.76453 2.62236Z" stroke="#BCBBBB" stroke-linejoin="round"/>
</svg>
